<svg version="1.1" id="Layer_1" xmlns="http://www.w3.org/2000/svg" xmlns:xlink="http://www.w3.org/1999/xlink" x="0px" y="0px"
	 width="100%" viewBox="0 0 225 225" enable-background="new 0 0 225 225" xml:space="preserve">
<path fill="#FDFEFE" opacity="1.000000" stroke="none" 
	d="
M226.000000,85.000000 
	C226.000000,132.333328 226.000000,179.166672 226.000000,226.000000 
	C151.000000,226.000000 76.000000,226.000000 1.000000,226.000000 
	C1.000000,151.000000 1.000000,76.000000 1.000000,1.000000 
	C76.000000,1.000000 151.000000,1.000000 226.000000,1.000000 
	C226.000000,28.833334 226.000000,56.666668 226.000000,85.000000 
M111.104820,71.722183 
	C111.104820,71.722183 111.014122,72.002151 110.208183,72.188446 
	C108.834244,72.255058 107.460297,72.321671 105.501480,72.151245 
	C105.306007,72.228966 105.110527,72.306679 104.046486,72.305954 
	C101.719864,72.339630 99.393250,72.373299 96.163727,72.115608 
	C91.088547,72.190529 86.013367,72.265450 80.342911,72.265739 
	C79.949142,72.334969 79.555367,72.404198 78.546745,72.132050 
	C77.804901,72.754829 77.063057,73.377609 76.725868,74.607460 
	C76.944244,75.040207 77.162613,75.472961 77.438927,76.296471 
	C77.593590,76.559265 77.819977,76.658524 78.290413,77.195854 
	C78.725426,77.870316 79.160439,78.544785 79.788399,79.776093 
	C80.209221,80.158112 80.630035,80.540138 80.999191,80.987404 
	C80.999191,80.987404 81.073280,80.949539 81.275162,81.586716 
	C83.836723,83.745186 86.398277,85.903664 88.991707,87.997482 
	C88.991707,87.997482 88.937187,88.044800 89.203674,88.679672 
	C92.123062,90.114418 95.042458,91.549164 98.372696,93.186630 
	C98.654480,93.324577 98.951653,93.380028 99.779045,93.943848 
	C105.037277,94.434563 110.285980,95.110786 115.555511,95.381737 
	C132.419006,96.248840 152.619507,79.241280 153.943939,57.928902 
	C154.161926,54.420990 152.786057,53.663242 149.670303,53.751759 
	C143.685104,53.921795 137.689331,53.912701 131.702560,53.776031 
	C126.621033,53.660030 121.545998,53.259853 116.468086,52.985416 
	C116.372459,47.693581 116.276825,42.401741 116.646904,37.119431 
	C116.646904,37.119431 117.052399,36.890205 117.971100,37.024094 
	C127.915192,37.024094 137.859283,37.024094 149.104233,37.024094 
	C147.682739,34.446278 146.746094,32.747730 145.781052,30.369081 
	C138.398788,19.429541 127.708389,14.063929 114.926392,13.126821 
	C99.760345,12.014926 87.821930,18.779068 78.908165,30.553999 
	C73.476601,37.729012 71.037880,46.249691 71.224396,55.813583 
	C84.884087,55.813583 97.972870,55.813583 111.306229,56.492855 
	C111.499626,57.669422 111.693024,58.845989 111.636307,60.823681 
	C111.722267,62.208843 111.808235,63.594009 111.674080,65.772125 
	C111.745155,66.855934 111.816231,67.939743 111.647041,69.665512 
	C111.639885,70.344864 111.632729,71.024208 111.514168,71.650505 
	C111.514168,71.650505 111.396774,71.688477 111.104820,71.722183 
M142.937378,148.983612 
	C142.937378,148.983612 142.773605,148.820068 143.551941,148.808273 
	C144.049515,146.902832 144.547104,144.997391 145.179565,142.444199 
	C145.525589,141.635513 145.871628,140.826843 146.957840,140.019760 
	C148.342773,138.877228 149.727707,137.734695 151.787979,136.776260 
	C152.853729,137.213898 153.919479,137.651535 155.004272,138.837341 
	C159.055679,143.474640 164.609650,144.311966 170.886322,144.906525 
	C171.642624,145.156342 172.398941,145.406174 173.140701,146.379730 
	C175.684937,150.671906 180.026138,150.520264 184.027954,150.933685 
	C184.027954,150.933685 184.143814,150.803864 184.148132,151.538574 
	C186.128540,151.936050 188.108948,152.333527 190.812042,152.911804 
	C198.443268,155.417603 205.155991,160.631546 213.417328,161.279526 
	C213.734482,160.900284 214.051636,160.521042 214.368790,160.141800 
	C212.584808,157.754089 210.800842,155.366379 208.871933,152.476990 
	C208.783554,152.327026 208.695175,152.177078 208.686066,151.356415 
	C207.729736,149.342850 206.773407,147.329285 205.893631,144.530884 
	C205.340118,142.851364 205.003052,141.048584 204.145203,139.542389 
	C203.691025,138.744980 202.331375,138.463272 201.028519,137.606522 
	C201.028519,137.606522 200.934448,137.124664 201.013596,136.412613 
	C200.037903,134.932800 199.062195,133.453003 197.652344,131.493622 
	C197.360550,130.685791 197.068771,129.877975 197.354416,128.688843 
	C196.574203,127.792908 195.793991,126.896973 194.551849,125.604141 
	C193.845001,124.627266 193.138153,123.650398 192.310028,122.670876 
	C192.310028,122.670876 192.403183,122.593178 192.249069,121.919159 
	C188.529526,115.552048 184.809967,109.184944 180.942825,102.133720 
	C177.241241,95.742065 173.614487,89.304565 169.757828,83.007896 
	C169.175598,82.057358 167.521652,81.763245 165.558289,81.084496 
	C164.758850,81.843864 163.959412,82.603226 162.785355,83.818024 
	C161.788284,84.405281 160.791199,84.992531 158.916946,85.268890 
	C155.623444,84.585251 153.165344,85.113625 153.028137,89.076569 
	C153.028137,89.076569 153.205963,89.188988 152.433395,89.086594 
	C151.668945,89.825851 150.904495,90.565102 149.925720,91.719116 
	C149.691833,91.958931 149.408005,92.064697 148.353271,92.000328 
	C147.570374,92.670204 146.787476,93.340088 145.663681,94.512283 
	C144.589630,95.072609 143.515579,95.632935 141.602600,96.081947 
	C139.373001,95.809158 137.736923,96.256271 138.002823,98.997437 
	C138.002823,98.997437 138.035080,99.024429 137.192215,98.987465 
	C134.357208,99.169678 130.697769,98.117218 131.013245,102.999702 
	C131.013245,102.999702 131.082306,103.065178 130.296112,103.004013 
	C128.787048,103.522873 127.187813,103.867119 125.784958,104.591621 
	C120.459846,107.341736 115.198265,110.214874 109.257538,112.814301 
	C108.383408,112.377525 107.464607,112.011688 106.641792,111.493454 
	C91.434387,101.915314 76.245834,92.307213 61.030392,82.741890 
	C59.203094,81.593140 57.110886,80.291397 55.551186,83.031761 
	C53.523724,86.593948 51.704597,90.274712 49.189545,94.286324 
	C46.449841,99.526794 43.710136,104.767273 40.450924,110.405006 
	C33.990910,121.616798 27.530891,132.828598 20.999063,144.050781 
	C20.999063,144.050781 21.059330,144.091217 20.684401,144.536957 
	C20.424173,145.021820 20.163944,145.506683 19.691662,146.175522 
	C19.691662,146.175522 19.741438,146.451813 19.147558,146.826843 
	C16.587517,151.376602 14.027476,155.926346 11.467435,160.476089 
	C11.774621,160.924271 12.081807,161.372452 12.388993,161.820633 
	C23.482983,158.221100 34.037880,153.200607 44.885456,148.391815 
	C44.885456,148.391815 45.055714,148.236191 45.820965,148.168884 
	C51.950893,145.489441 58.080822,142.809998 64.651169,140.116577 
	C64.651169,140.116577 64.984268,139.828110 65.712692,139.851700 
	C68.125885,138.748871 70.510674,137.577545 72.960030,136.561951 
	C75.551216,135.487564 77.784561,135.518845 78.913559,138.756577 
	C79.273964,139.790176 80.100838,140.661133 80.677055,142.233521 
	C81.033440,143.200348 81.389824,144.167191 81.751266,145.872513 
	C82.728683,147.784973 83.706108,149.697449 84.676437,151.877090 
	C84.676437,151.877090 84.892365,152.034622 84.849976,152.806946 
	C87.191704,158.251389 89.533440,163.695847 91.981636,169.021683 
	C91.981636,169.021683 91.850716,169.112579 91.850449,169.858292 
	C92.850624,171.850327 93.850800,173.842361 94.950630,176.612274 
	C95.702309,179.064270 96.453987,181.516281 97.213722,184.688675 
	C100.972183,193.688766 104.628952,202.733643 108.560539,211.657471 
	C109.544655,213.891190 111.412727,215.735458 112.874535,217.758728 
	C114.272987,215.498993 115.685379,213.247574 117.049187,210.967133 
	C117.191917,210.728455 117.047447,210.318054 117.243149,209.751785 
	C117.243149,209.751785 117.191940,209.442505 117.798241,209.046387 
	C120.792320,202.000580 123.786392,194.954758 127.372368,187.621490 
	C127.478729,187.213394 127.585091,186.805313 127.648323,186.170044 
	C127.648323,186.170044 127.813522,186.008209 128.395309,185.729675 
	C128.887512,184.069855 129.379700,182.410034 129.943237,180.141953 
	C130.261948,179.410431 130.580658,178.678925 131.682755,177.815018 
	C132.034393,176.371567 132.386032,174.928131 132.754318,173.189835 
	C132.754318,173.189835 132.982361,173.002197 133.505386,172.658005 
	C133.653564,172.072845 133.801743,171.487686 134.060242,170.235397 
	C134.643982,168.800629 135.227722,167.365845 136.424561,165.656662 
	C136.958908,163.772507 137.493240,161.888336 138.131668,159.445038 
	C138.410477,158.958359 138.689270,158.471680 139.476013,157.616211 
	C139.544785,157.218140 139.613541,156.820053 139.685471,155.911713 
	C139.836456,155.611038 139.987457,155.310379 140.585541,154.737869 
	C140.687103,154.416122 140.788681,154.094360 140.898010,153.363266 
	C140.898010,153.363266 141.096451,153.005173 141.574585,152.632507 
	C141.700150,152.056625 141.825729,151.480759 142.013428,150.437775 
	C142.013428,150.437775 142.211533,150.010239 142.606049,149.718857 
	C142.845016,149.447891 142.910797,149.139893 142.937378,148.983612 
z"/>
<path fill="#04793B" opacity="1.000000" stroke="none" 
	d="
M64.984268,139.828110 
	C64.984268,139.828110 64.651169,140.116577 64.005333,140.064331 
	C57.304832,142.429459 51.247818,144.841049 45.208931,147.297226 
	C45.055874,147.359482 45.102314,147.912201 45.055714,148.236191 
	C45.055714,148.236191 44.885456,148.391815 44.343971,148.278717 
	C35.089512,151.017303 26.376541,153.869003 16.124210,157.224533 
	C17.427502,154.324966 18.215851,152.571060 19.341003,150.819122 
	C20.094633,149.212097 20.511454,147.603088 20.971136,145.677917 
	C21.029108,144.938263 21.044220,144.514740 21.059330,144.091217 
	C21.059330,144.091217 20.999063,144.050781 21.380718,143.996323 
	C24.702394,139.857147 27.816378,135.883743 30.524645,131.650757 
	C32.512367,128.543961 34.045738,125.133881 35.640900,121.791809 
	C37.497490,117.902008 39.200668,113.938988 40.970432,110.007744 
	C43.710136,104.767273 46.449841,99.526794 49.874321,94.119232 
	C51.706020,93.634254 52.852943,93.316368 54.353432,93.038635 
	C55.994179,94.141960 57.281357,95.205109 59.299397,96.871925 
	C61.267593,94.859200 63.670662,92.401764 66.440514,89.954262 
	C67.833977,90.433327 68.933975,90.787888 69.875427,91.390228 
	C75.911873,95.252350 81.885147,99.213547 87.934456,103.055145 
	C94.231232,107.053886 100.684258,110.813591 106.888397,114.948715 
	C110.850258,117.589333 117.273239,116.961205 121.039162,114.201057 
	C127.383827,109.550888 134.238312,105.600761 140.767212,101.191605 
	C141.545761,100.665825 141.630707,99.112976 142.401581,97.974411 
	C148.069702,95.970543 153.631821,94.524994 157.261093,89.579796 
	C157.677048,89.013016 159.086517,89.175385 160.106918,89.163536 
	C160.415359,89.218719 160.652206,89.110039 161.068726,88.692795 
	C163.595566,87.346146 165.942749,86.308067 168.289932,85.269989 
	C169.099274,87.219398 169.907440,89.169304 170.719193,91.117714 
	C170.844223,91.417839 170.985916,91.711014 171.263550,92.250946 
	C171.934769,92.668221 172.462372,92.841957 172.998047,93.350555 
	C173.028641,94.131462 173.051163,94.577499 173.074219,95.305298 
	C173.382568,96.011650 173.690399,96.436256 174.358429,96.897293 
	C175.816040,98.292854 176.913437,99.651978 178.011414,101.336792 
	C178.336395,102.391693 178.660782,103.120903 179.026001,103.890388 
	C179.066818,103.930672 179.148834,104.010841 179.251312,104.330513 
	C181.443878,108.740143 183.193848,113.060265 185.748825,116.835594 
	C187.336426,119.181511 190.143463,120.702141 192.403183,122.593178 
	C192.403183,122.593178 192.310028,122.670876 192.243317,123.087570 
	C192.455200,126.323479 192.733826,129.142700 193.121277,132.198212 
	C193.507004,132.637192 193.783905,132.839890 194.056000,133.361191 
	C194.050232,134.104660 194.049240,134.529510 193.764709,135.201569 
	C192.101288,139.039825 190.721420,142.630890 189.146637,146.729187 
	C189.303879,146.921371 190.152969,147.959152 191.001587,149.250031 
	C191.000961,149.671844 191.000778,149.840561 190.621918,150.006256 
	C180.359497,145.944336 170.474060,141.889542 160.593948,137.821808 
	C159.230881,137.260620 157.726486,136.859024 156.577133,135.997284 
	C153.279510,133.524857 149.373779,132.896118 146.509903,135.361542 
	C144.757263,136.870346 144.907181,140.589188 144.197052,143.507019 
	C144.191452,143.698517 143.975723,144.014755 143.611816,144.055756 
	C141.932617,145.576324 139.980484,146.850632 139.424728,148.574997 
	C137.921860,153.237991 137.012695,158.092300 135.539978,162.981033 
	C132.829697,168.338318 130.404770,173.567001 128.133881,178.861740 
	C127.916519,179.368530 128.659561,180.287231 128.913803,181.294952 
	C128.597305,182.055252 128.323746,182.535309 127.711029,183.052704 
	C124.098755,185.006180 122.894623,187.926041 122.150757,191.624237 
	C120.938255,197.652267 118.888435,203.511841 117.191940,209.442505 
	C117.191940,209.442505 117.243149,209.751785 116.790359,209.930206 
	C114.368469,211.106384 112.469177,215.883942 110.320930,210.419510 
	C107.767441,203.924255 105.738365,197.209656 102.924431,190.836304 
	C101.767563,188.216095 99.155701,186.238297 97.205666,183.968277 
	C96.453987,181.516281 95.702309,179.064270 95.202209,175.879761 
	C94.252762,173.135681 93.051743,171.124130 91.850716,169.112579 
	C91.850716,169.112579 91.981636,169.021683 91.957985,168.672089 
	C90.319695,163.182693 88.751709,158.027008 87.014633,152.928925 
	C86.850044,152.445877 85.625053,152.324112 84.892365,152.034622 
	C84.892365,152.034622 84.676437,151.877090 84.742950,151.327576 
	C83.788383,148.896698 82.767296,147.015366 81.746216,145.134018 
	C81.389824,144.167191 81.033440,143.200348 80.787529,141.493164 
	C79.868126,138.690216 79.344612,135.966248 77.699760,134.706924 
	C74.568954,132.309967 67.647316,135.388947 64.984268,139.828110 
z"/>
<path fill="#027A3A" opacity="1.000000" stroke="none" 
	d="
M111.887306,69.023552 
	C111.816231,67.939743 111.745155,66.855934 112.153442,65.318092 
	C114.476715,62.927605 115.135063,61.173920 111.886414,60.022556 
	C111.693024,58.845989 111.499626,57.669422 111.122940,55.779610 
	C110.220436,53.039833 109.501221,51.013302 108.952599,49.467453 
	C107.363968,51.311138 106.213707,53.796803 105.066299,53.795483 
	C95.952652,53.785011 86.832619,53.410816 77.734642,52.832211 
	C76.538658,52.756145 74.309113,50.542114 74.501602,49.911068 
	C76.149872,44.507481 77.177887,38.418083 80.473770,34.136890 
	C84.786629,28.534719 91.074677,24.477516 96.368637,19.598988 
	C101.021446,15.311288 107.094772,16.660587 112.472382,15.504359 
	C115.580475,14.836094 119.289040,16.068106 122.522034,17.092722 
	C126.840767,18.461437 130.963531,20.451063 135.157501,22.204998 
	C135.425110,22.316914 135.569626,22.705990 135.791031,22.948187 
	C138.853592,26.298254 141.919586,29.645176 144.974899,33.408958 
	C143.753006,34.549519 142.574905,35.820332 141.322647,35.898197 
	C137.215744,36.153568 133.081879,35.975506 128.927368,35.672989 
	C128.582001,35.070232 128.267639,34.758522 127.953293,34.446815 
	C127.646225,34.952103 127.339165,35.457390 126.585342,35.971825 
	C123.109863,36.284042 120.081131,36.587124 117.052399,36.890205 
	C117.052399,36.890205 116.646904,37.119431 115.992981,37.084167 
	C114.568138,38.064583 113.174751,39.061195 113.142967,40.099503 
	C113.047493,43.217323 113.823143,46.371685 113.638046,49.474758 
	C113.297310,55.186996 116.733055,56.010269 121.160782,55.995594 
	C129.154770,55.969105 137.149414,55.932636 145.142807,56.006222 
	C150.372650,56.054371 152.624664,59.625389 150.518936,64.364738 
	C150.126587,65.247787 149.397018,65.998489 149.094498,66.901222 
	C146.175217,75.612480 141.589661,82.876472 132.524719,86.336182 
	C130.695908,87.034172 128.268158,87.211945 127.146973,88.515694 
	C123.944298,92.239830 120.207977,93.464317 115.446838,93.081528 
	C111.309868,92.748924 107.125290,93.008347 102.778168,92.729782 
	C101.089333,90.818802 99.584084,89.184181 98.078835,87.549561 
	C97.973770,87.853966 97.868706,88.158379 97.763634,88.462784 
	C94.824326,87.335648 91.885017,86.208519 88.949631,85.065315 
	C88.953552,85.049248 88.932121,85.038063 88.921188,84.697662 
	C87.585526,83.254738 86.260811,82.152206 84.549591,81.055023 
	C83.133163,81.023430 82.103218,80.986481 81.073280,80.949539 
	C81.073280,80.949539 80.999191,80.987404 81.028671,80.636375 
	C81.035698,79.861855 81.013237,79.438370 80.995117,78.581535 
	C80.495277,74.794991 82.066795,73.704735 85.255470,73.961769 
	C87.728500,74.161110 90.234650,74.094254 92.718765,73.982666 
	C98.798851,73.709557 104.874702,73.342033 111.148453,72.835342 
	C111.362030,72.334953 111.379402,72.011711 111.396774,71.688477 
	C111.396774,71.688477 111.514168,71.650505 111.929016,71.725609 
	C112.818596,71.281677 113.293343,70.762642 113.768082,70.243607 
	C113.141159,69.836914 112.514229,69.430237 111.887306,69.023552 
M140.376755,32.394024 
	C139.914688,32.027843 139.456268,31.656586 138.978622,31.312000 
	C138.957047,31.296436 138.761414,31.522139 138.646835,31.635464 
	C139.107315,32.002056 139.567780,32.368652 140.376755,32.394024 
z"/>
<path fill="#1D7747" opacity="1.000000" stroke="none" 
	d="
M144.984741,32.992870 
	C141.919586,29.645176 138.853592,26.298254 135.791031,22.948187 
	C135.569626,22.705990 135.425110,22.316914 135.157501,22.204998 
	C130.963531,20.451063 126.840767,18.461437 122.522034,17.092722 
	C119.289040,16.068106 115.580475,14.836094 112.472382,15.504359 
	C107.094772,16.660587 101.021446,15.311288 96.368637,19.598988 
	C91.074677,24.477516 84.786629,28.534719 80.473770,34.136890 
	C77.177887,38.418083 76.149872,44.507481 74.501602,49.911068 
	C74.309113,50.542114 76.538658,52.756145 77.734642,52.832211 
	C86.832619,53.410816 95.952652,53.785011 105.066299,53.795483 
	C106.213707,53.796803 107.363968,51.311138 108.952599,49.467453 
	C109.501221,51.013302 110.220436,53.039833 111.000656,55.439972 
	C97.972870,55.813583 84.884087,55.813583 71.224396,55.813583 
	C71.037880,46.249691 73.476601,37.729012 78.908165,30.553999 
	C87.821930,18.779068 99.760345,12.014926 114.926392,13.126821 
	C127.708389,14.063929 138.398788,19.429541 145.585297,30.890030 
	C145.254623,31.938274 145.119690,32.465572 144.984741,32.992870 
z"/>
<path fill="#207349" opacity="1.000000" stroke="none" 
	d="
M102.961754,93.006134 
	C107.125290,93.008347 111.309868,92.748924 115.446838,93.081528 
	C120.207977,93.464317 123.944298,92.239830 127.146973,88.515694 
	C128.268158,87.211945 130.695908,87.034172 132.524719,86.336182 
	C141.589661,82.876472 146.175217,75.612480 149.094498,66.901222 
	C149.397018,65.998489 150.126587,65.247787 150.518936,64.364738 
	C152.624664,59.625389 150.372650,56.054371 145.142807,56.006222 
	C137.149414,55.932636 129.154770,55.969105 121.160782,55.995594 
	C116.733055,56.010269 113.297310,55.186996 113.638046,49.474758 
	C113.823143,46.371685 113.047493,43.217323 113.142967,40.099503 
	C113.174751,39.061195 114.568138,38.064583 115.760132,37.079407 
	C116.276825,42.401741 116.372459,47.693581 116.468086,52.985416 
	C121.545998,53.259853 126.621033,53.660030 131.702560,53.776031 
	C137.689331,53.912701 143.685104,53.921795 149.670303,53.751759 
	C152.786057,53.663242 154.161926,54.420990 153.943939,57.928902 
	C152.619507,79.241280 132.419006,96.248840 115.555511,95.381737 
	C110.285980,95.110786 105.037277,94.434563 99.978661,93.555412 
	C101.106102,93.113365 102.033928,93.059753 102.961754,93.006134 
z"/>
<path fill="#257449" opacity="1.000000" stroke="none" 
	d="
M142.037140,98.036194 
	C141.630707,99.112976 141.545761,100.665825 140.767212,101.191605 
	C134.238312,105.600761 127.383827,109.550888 121.039162,114.201057 
	C117.273239,116.961205 110.850258,117.589333 106.888397,114.948715 
	C100.684258,110.813591 94.231232,107.053886 87.934456,103.055145 
	C81.885147,99.213547 75.911873,95.252350 69.875427,91.390228 
	C68.933975,90.787888 67.833977,90.433327 66.225266,89.687103 
	C63.332012,87.774284 61.020798,86.138535 58.197193,84.140152 
	C56.579636,87.553963 55.289753,90.276215 53.999870,92.998474 
	C52.852943,93.316368 51.706020,93.634254 50.177452,93.928299 
	C51.704597,90.274712 53.523724,86.593948 55.551186,83.031761 
	C57.110886,80.291397 59.203094,81.593140 61.030392,82.741890 
	C76.245834,92.307213 91.434387,101.915314 106.641792,111.493454 
	C107.464607,112.011688 108.383408,112.377525 109.833481,113.229057 
	C111.829033,113.711967 113.602013,114.362732 114.609612,113.751602 
	C120.203262,110.358871 125.610954,106.659546 131.082306,103.065178 
	C131.082306,103.065178 131.013245,102.999702 131.380096,103.002754 
	C133.843002,101.678680 135.939041,100.351555 138.035080,99.024429 
	C138.035080,99.024429 138.002823,98.997437 138.327759,98.961731 
	C139.604553,98.454514 140.556412,97.982994 141.640427,97.642708 
	C141.772598,97.773941 142.037140,98.036194 142.037140,98.036194 
z"/>
<path fill="#26754D" opacity="1.000000" stroke="none" 
	d="
M144.202637,143.315506 
	C144.907181,140.589188 144.757263,136.870346 146.509903,135.361542 
	C149.373779,132.896118 153.279510,133.524857 156.577133,135.997284 
	C157.726486,136.859024 159.230881,137.260620 160.593948,137.821808 
	C170.474060,141.889542 180.359497,145.944336 190.865372,150.009705 
	C191.487503,150.016174 191.974365,150.007080 192.090195,150.224609 
	C192.411148,150.713013 192.674896,150.902115 193.241104,151.286011 
	C198.335434,153.510391 203.185913,155.458221 208.555893,157.614670 
	C208.736435,155.798874 208.876648,154.388779 209.016846,152.978668 
	C210.800842,155.366379 212.584808,157.754089 214.368790,160.141800 
	C214.051636,160.521042 213.734482,160.900284 213.417328,161.279526 
	C205.155991,160.631546 198.443268,155.417603 190.219788,152.558792 
	C187.799622,151.738480 185.971710,151.271164 184.143814,150.803864 
	C184.143814,150.803864 184.027954,150.933685 183.955231,150.564362 
	C180.306747,148.682022 176.730988,147.169006 173.155243,145.656006 
	C172.398941,145.406174 171.642624,145.156342 170.365234,144.602051 
	C164.891174,142.228088 159.938202,140.158630 154.985229,138.089157 
	C153.919479,137.651535 152.853729,137.213898 151.209991,136.429962 
	C147.292786,135.299576 146.783447,137.690552 146.217651,140.018158 
	C145.871628,140.826843 145.525589,141.635513 144.901352,142.823059 
	C144.623138,143.201935 144.202637,143.315506 144.202637,143.315506 
z"/>
<path fill="#257449" opacity="1.000000" stroke="none" 
	d="
M171.119904,92.007408 
	C170.985916,91.711014 170.844223,91.417839 170.719193,91.117714 
	C169.907440,89.169304 169.099274,87.219398 168.289932,85.269989 
	C165.942749,86.308067 163.595566,87.346146 160.855972,88.692513 
	C160.463562,89.000793 160.035339,88.999664 160.035339,88.999664 
	C159.086517,89.175385 157.677048,89.013016 157.261093,89.579796 
	C153.631821,94.524994 148.069702,95.970543 142.401581,97.974411 
	C142.037140,98.036194 141.772598,97.773941 141.791367,97.416985 
	C142.020599,96.771111 142.231064,96.482185 142.441528,96.193253 
	C143.515579,95.632935 144.589630,95.072609 146.151062,94.235794 
	C147.450363,93.318336 148.262283,92.677376 149.074219,92.036423 
	C149.408005,92.064697 149.691833,91.958931 150.353928,91.448036 
	C151.590088,90.514297 152.398026,89.851646 153.205963,89.188995 
	C153.205963,89.188988 153.028137,89.076569 153.451920,89.117256 
	C155.848511,87.965225 157.821320,86.772507 159.794128,85.579788 
	C160.791199,84.992531 161.788284,84.405281 163.304291,83.526962 
	C164.669952,82.545753 165.516708,81.855614 166.363464,81.165482 
	C167.521652,81.763245 169.175598,82.057358 169.757828,83.007896 
	C173.614487,89.304565 177.241241,95.742065 180.863007,102.739243 
	C180.238403,103.566788 179.693619,103.788811 179.148834,104.010841 
	C179.148834,104.010841 179.066818,103.930672 179.028534,103.572784 
	C178.663773,102.480309 178.337296,101.745712 178.010834,101.011108 
	C176.913437,99.651978 175.816040,98.292854 174.336884,96.626801 
	C173.661301,95.887772 173.367493,95.455658 173.073685,95.023544 
	C173.051163,94.577499 173.028641,94.131462 172.846985,93.109131 
	C172.165207,92.357697 171.642548,92.182556 171.119904,92.007408 
z"/>
<path fill="#26754D" opacity="1.000000" stroke="none" 
	d="
M97.209694,184.328476 
	C99.155701,186.238297 101.767563,188.216095 102.924431,190.836304 
	C105.738365,197.209656 107.767441,203.924255 110.320930,210.419510 
	C112.469177,215.883942 114.368469,211.106384 116.686905,210.047974 
	C117.047447,210.318054 117.191917,210.728455 117.049187,210.967133 
	C115.685379,213.247574 114.272987,215.498993 112.874535,217.758728 
	C111.412727,215.735458 109.544655,213.891190 108.560539,211.657471 
	C104.628952,202.733643 100.972183,193.688766 97.209694,184.328476 
z"/>
<path fill="#35714F" opacity="1.000000" stroke="none" 
	d="
M19.004196,150.817139 
	C18.215851,152.571060 17.427502,154.324966 16.124210,157.224533 
	C26.376541,153.869003 35.089512,151.017303 44.230331,148.259048 
	C34.037880,153.200607 23.482983,158.221100 12.388993,161.820633 
	C12.081807,161.372452 11.774621,160.924271 11.467435,160.476089 
	C14.027476,155.926346 16.587517,151.376602 19.497272,147.015961 
	C19.566057,148.409103 19.285126,149.613113 19.004196,150.817139 
z"/>
<path fill="#047B3A" opacity="1.000000" stroke="none" 
	d="
M208.944397,152.727829 
	C208.876648,154.388779 208.736435,155.798874 208.555893,157.614670 
	C203.185913,155.458221 198.335434,153.510391 193.131927,151.063095 
	C192.574768,150.285538 192.306595,150.100021 191.974365,150.007080 
	C191.974365,150.007080 191.487503,150.016174 191.244049,150.012726 
	C191.000778,149.840561 191.000961,149.671844 191.402664,149.251328 
	C195.982666,149.356079 198.908279,147.414612 201.373138,144.038177 
	C202.453903,145.133560 203.088379,146.248413 203.924606,147.182724 
	C205.421265,148.854889 207.039429,150.418274 208.606796,152.027145 
	C208.695175,152.177078 208.783554,152.327026 208.944397,152.727829 
z"/>
<path fill="#2D774F" opacity="1.000000" stroke="none" 
	d="
M40.710678,110.206375 
	C39.200668,113.938988 37.497490,117.902008 35.640900,121.791809 
	C34.045738,125.133881 32.512367,128.543961 30.524645,131.650757 
	C27.816378,135.883743 24.702394,139.857147 21.416622,143.991119 
	C27.530891,132.828598 33.990910,121.616798 40.710678,110.206375 
z"/>
<path fill="#26754D" opacity="1.000000" stroke="none" 
	d="
M117.495087,209.244446 
	C118.888435,203.511841 120.938255,197.652267 122.150757,191.624237 
	C122.894623,187.926041 124.098755,185.006180 127.727470,183.429855 
	C127.993202,184.515854 127.903358,185.262024 127.813522,186.008209 
	C127.813522,186.008209 127.648323,186.170044 127.419724,186.467529 
	C127.054237,187.146317 126.917351,187.527634 126.780472,187.908936 
	C123.786392,194.954758 120.792320,202.000580 117.495087,209.244446 
z"/>
<path fill="#13673E" opacity="1.000000" stroke="none" 
	d="
M110.952255,73.012497 
	C104.874702,73.342033 98.798851,73.709557 92.718765,73.982666 
	C90.234650,74.094254 87.728500,74.161110 85.255470,73.961769 
	C82.066795,73.704735 80.495277,74.794991 80.642487,78.606125 
	C80.055496,79.115784 79.825470,79.167511 79.595444,79.219246 
	C79.160439,78.544785 78.725426,77.870316 78.181961,76.699028 
	C77.908150,75.950470 77.677315,75.851639 77.380981,75.905708 
	C77.162613,75.472961 76.944244,75.040207 76.870262,74.287064 
	C77.730301,73.468918 78.445953,72.971176 79.161598,72.473419 
	C79.555367,72.404198 79.949142,72.334969 80.976990,72.547531 
	C86.762917,72.688545 91.914772,72.547760 97.066628,72.406967 
	C99.393250,72.373299 101.719864,72.339630 104.583290,72.516258 
	C105.442177,72.613800 105.764267,72.501038 106.086357,72.388275 
	C107.460297,72.321671 108.834244,72.255058 110.566696,72.346161 
	C110.934227,72.673424 110.943245,72.842964 110.952255,73.012497 
z"/>
<path fill="#22794B" opacity="1.000000" stroke="none" 
	d="
M179.251312,104.330513 
	C179.693619,103.788811 180.238403,103.566788 180.936798,103.081299 
	C184.809967,109.184944 188.529526,115.552048 192.326126,122.256165 
	C190.143463,120.702141 187.336426,119.181511 185.748825,116.835594 
	C183.193848,113.060265 181.443878,108.740143 179.251312,104.330513 
z"/>
<path fill="#26754D" opacity="1.000000" stroke="none" 
	d="
M135.868011,162.870728 
	C137.012695,158.092300 137.921860,153.237991 139.424728,148.574997 
	C139.980484,146.850632 141.932617,145.576324 143.623962,144.413712 
	C143.591217,146.093796 143.182419,147.456940 142.773605,148.820068 
	C142.773605,148.820068 142.937378,148.983612 142.644379,149.007446 
	C142.304779,149.357605 142.258163,149.683929 142.211533,150.010239 
	C142.211533,150.010239 142.013428,150.437775 141.702179,150.817322 
	C141.292770,151.799652 141.194611,152.402405 141.096451,153.005173 
	C141.096451,153.005173 140.898010,153.363266 140.657623,153.694519 
	C140.324310,154.353745 140.231384,154.681732 140.138443,155.009705 
	C139.987457,155.310379 139.836456,155.611038 139.451874,156.366013 
	C139.134857,157.208542 139.051468,157.596756 138.968063,157.984985 
	C138.689270,158.471680 138.410477,158.958359 137.809448,159.892700 
	C137.104782,161.315033 136.722321,162.289719 136.220825,163.167267 
	C136.101791,163.070129 135.868011,162.870728 135.868011,162.870728 
z"/>
<path fill="#26754D" opacity="1.000000" stroke="none" 
	d="
M128.956741,181.014709 
	C128.659561,180.287231 127.916519,179.368530 128.133881,178.861740 
	C130.404770,173.567001 132.829697,168.338318 135.539978,162.981033 
	C135.868011,162.870728 136.101791,163.070129 136.188599,163.507477 
	C136.120758,164.606888 135.966110,165.268982 135.811462,165.931061 
	C135.227722,167.365845 134.643982,168.800629 133.744537,170.735153 
	C133.280014,171.824005 133.131195,172.413101 132.982361,173.002197 
	C132.982361,173.002197 132.754318,173.189835 132.478455,173.578094 
	C131.768204,175.293381 131.333786,176.620392 130.899353,177.947418 
	C130.580658,178.678925 130.261948,179.410431 129.676178,180.503143 
	C129.409103,180.864349 128.956741,181.014709 128.956741,181.014709 
z"/>
<path fill="#E4F7EE" opacity="1.000000" stroke="none" 
	d="
M130.689209,103.034592 
	C125.610954,106.659546 120.203262,110.358871 114.609612,113.751602 
	C113.602013,114.362732 111.829033,113.711967 110.161179,113.342911 
	C115.198265,110.214874 120.459846,107.341736 125.784958,104.591621 
	C127.187813,103.867119 128.787048,103.522873 130.689209,103.034592 
z"/>
<path fill="#35714F" opacity="1.000000" stroke="none" 
	d="
M65.348480,139.839905 
	C67.647316,135.388947 74.568954,132.309967 77.699760,134.706924 
	C79.344612,135.966248 79.868126,138.690216 80.806137,141.179657 
	C80.100838,140.661133 79.273964,139.790176 78.913559,138.756577 
	C77.784561,135.518845 75.551216,135.487564 72.960030,136.561951 
	C70.510674,137.577545 68.125885,138.748871 65.348480,139.839905 
z"/>
<path fill="#136136" opacity="1.000000" stroke="none" 
	d="
M144.974899,33.408958 
	C145.119690,32.465572 145.254623,31.938274 145.599518,31.230080 
	C146.746094,32.747730 147.682739,34.446278 149.104233,37.024094 
	C137.859283,37.024094 127.915192,37.024094 117.511749,36.957150 
	C120.081131,36.587124 123.109863,36.284042 126.906204,35.978325 
	C128.101990,35.971798 128.530182,35.967915 128.958374,35.964031 
	C133.081879,35.975506 137.215744,36.153568 141.322647,35.898197 
	C142.574905,35.820332 143.753006,34.549519 144.974899,33.408958 
z"/>
<path fill="#35714F" opacity="1.000000" stroke="none" 
	d="
M45.438339,148.202545 
	C45.102314,147.912201 45.055874,147.359482 45.208931,147.297226 
	C51.247818,144.841049 57.304832,142.429459 63.785126,140.071320 
	C58.080822,142.809998 51.950893,145.489441 45.438339,148.202545 
z"/>
<path fill="#22794B" opacity="1.000000" stroke="none" 
	d="
M193.012436,131.961914 
	C192.733826,129.142700 192.455200,126.323479 192.303955,123.088890 
	C193.138153,123.650398 193.845001,124.627266 194.798004,126.113434 
	C195.621780,127.438530 196.199371,128.254349 196.776978,129.070160 
	C197.068771,129.877975 197.360550,130.685791 197.863235,132.070099 
	C198.502243,133.644623 198.930374,134.642670 199.248291,135.751221 
	C199.138077,135.861710 198.917587,136.082642 198.556488,136.050690 
	C197.466949,136.005081 196.738510,135.991440 195.847183,135.732971 
	C195.138947,135.310226 194.593597,135.132294 194.048248,134.954361 
	C194.049240,134.529510 194.050232,134.104660 194.206909,133.198273 
	C193.912537,132.465149 193.462479,132.213531 193.012436,131.961914 
z"/>
<path fill="#177340" opacity="1.000000" stroke="none" 
	d="
M102.778168,92.729782 
	C102.033928,93.059753 101.106102,93.113365 99.721252,93.259987 
	C98.951653,93.380028 98.654480,93.324577 98.010117,92.780548 
	C94.744087,90.931244 91.840637,89.488022 88.937187,88.044800 
	C88.937187,88.044800 88.991707,87.997482 88.985229,87.656357 
	C88.967743,86.570618 88.956726,85.825996 88.945709,85.081383 
	C91.885017,86.208519 94.824326,87.335648 97.763634,88.462784 
	C97.868706,88.158379 97.973770,87.853966 98.078835,87.549561 
	C99.584084,89.184181 101.089333,90.818802 102.778168,92.729782 
z"/>
<path fill="#22794B" opacity="1.000000" stroke="none" 
	d="
M208.646423,151.691772 
	C207.039429,150.418274 205.421265,148.854889 203.924606,147.182724 
	C203.088379,146.248413 202.453903,145.133560 201.259888,143.783325 
	C200.526505,142.976685 200.261734,142.486816 200.006866,141.752655 
	C200.016769,141.508347 200.019958,141.019363 200.288544,140.840820 
	C200.797409,140.306839 201.037720,139.951370 201.606674,139.697449 
	C203.229233,141.637878 204.523163,143.476807 205.817078,145.315720 
	C206.773407,147.329285 207.729736,149.342850 208.646423,151.691772 
z"/>
<path fill="#DFF6ED" opacity="1.000000" stroke="none" 
	d="
M154.994751,138.463257 
	C159.938202,140.158630 164.891174,142.228088 170.058197,144.586060 
	C164.609650,144.311966 159.055679,143.474640 154.994751,138.463257 
z"/>
<path fill="#35714F" opacity="1.000000" stroke="none" 
	d="
M84.871170,152.420776 
	C85.625053,152.324112 86.850044,152.445877 87.014633,152.928925 
	C88.751709,158.027008 90.319695,163.182693 91.904755,168.731384 
	C89.533440,163.695847 87.191704,158.251389 84.871170,152.420776 
z"/>
<path fill="#DFF6ED" opacity="1.000000" stroke="none" 
	d="
M173.147980,146.017868 
	C176.730988,147.169006 180.306747,148.682022 184.029190,150.518555 
	C180.026138,150.520264 175.684937,150.671906 173.147980,146.017868 
z"/>
<path fill="#367653" opacity="1.000000" stroke="none" 
	d="
M88.949631,85.065315 
	C88.956726,85.825996 88.967743,86.570618 88.969299,87.688683 
	C86.398277,85.903664 83.836723,83.745186 81.174225,81.268127 
	C82.103218,80.986481 83.133163,81.023430 84.601364,81.392288 
	C86.337120,82.828819 87.634621,83.933441 88.932121,85.038063 
	C88.932121,85.038063 88.953552,85.049248 88.949631,85.065315 
z"/>
<path fill="#367653" opacity="1.000000" stroke="none" 
	d="
M89.070435,88.362236 
	C91.840637,89.488022 94.744087,90.931244 97.804688,92.679184 
	C95.042458,91.549164 92.123062,90.114418 89.070435,88.362236 
z"/>
<path fill="#D3F0E3" opacity="1.000000" stroke="none" 
	d="
M205.855347,144.923309 
	C204.523163,143.476807 203.229233,141.637878 201.638870,139.531891 
	C201.342422,139.264801 201.160339,138.980423 201.277588,138.735779 
	C201.390076,138.310318 201.385284,138.129532 201.380508,137.948730 
	C202.331375,138.463272 203.691025,138.744980 204.145203,139.542389 
	C205.003052,141.048584 205.340118,142.851364 205.855347,144.923309 
z"/>
<path fill="#E4F7EE" opacity="1.000000" stroke="none" 
	d="
M137.613647,99.005951 
	C135.939041,100.351555 133.843002,101.678680 131.402252,103.044830 
	C130.697769,98.117218 134.357208,99.169678 137.613647,99.005951 
z"/>
<path fill="#35714F" opacity="1.000000" stroke="none" 
	d="
M91.850586,169.485443 
	C93.051743,171.124130 94.252762,173.135681 95.152374,175.490814 
	C93.850800,173.842361 92.850624,171.850327 91.850586,169.485443 
z"/>
<path fill="#E4F7EE" opacity="1.000000" stroke="none" 
	d="
M159.355530,85.424339 
	C157.821320,86.772507 155.848511,87.965225 153.526367,89.191574 
	C153.165344,85.113625 155.623444,84.585251 159.355530,85.424339 
z"/>
<path fill="#668F78" opacity="1.000000" stroke="none" 
	d="
M96.615173,72.261292 
	C91.914772,72.547760 86.762917,72.688545 81.274628,72.584854 
	C86.013367,72.265450 91.088547,72.190529 96.615173,72.261292 
z"/>
<path fill="#DFF6ED" opacity="1.000000" stroke="none" 
	d="
M146.587738,140.018951 
	C146.783447,137.690552 147.292786,135.299576 150.872314,136.337906 
	C149.727707,137.734695 148.342773,138.877228 146.587738,140.018951 
z"/>
<path fill="#DFF6ED" opacity="1.000000" stroke="none" 
	d="
M184.145966,151.171219 
	C185.971710,151.271164 187.799622,151.738480 189.858429,152.468384 
	C188.108948,152.333527 186.128540,151.936050 184.145966,151.171219 
z"/>
<path fill="#35714F" opacity="1.000000" stroke="none" 
	d="
M81.748741,145.503265 
	C82.767296,147.015366 83.788383,148.896698 84.746498,151.193970 
	C83.706108,149.697449 82.728683,147.784973 81.748741,145.503265 
z"/>
<path fill="#1D7747" opacity="1.000000" stroke="none" 
	d="
M111.761368,60.423119 
	C115.135063,61.173920 114.476715,62.927605 112.263504,64.921616 
	C111.808235,63.594009 111.722267,62.208843 111.761368,60.423119 
z"/>
<path fill="#2D774F" opacity="1.000000" stroke="none" 
	d="
M19.341003,150.819122 
	C19.285126,149.613113 19.566057,148.409103 19.794212,146.828445 
	C19.741438,146.451813 19.691662,146.175522 20.053825,146.085938 
	C20.586750,145.995590 20.757511,145.994827 20.928276,145.994064 
	C20.511454,147.603088 20.094633,149.212097 19.341003,150.819122 
z"/>
<path fill="#D3F0E3" opacity="1.000000" stroke="none" 
	d="
M199.358505,135.640717 
	C198.930374,134.642670 198.502243,133.644623 198.080322,132.309875 
	C199.062195,133.453003 200.037903,134.932800 200.738831,136.625000 
	C200.095551,136.438507 199.727036,136.039612 199.358505,135.640717 
z"/>
<path fill="#D8F3E7" opacity="1.000000" stroke="none" 
	d="
M143.162781,148.814178 
	C143.182419,147.456940 143.591217,146.093796 143.987885,144.372711 
	C143.975723,144.014755 144.191452,143.698517 144.197052,143.507019 
	C144.202637,143.315506 144.623138,143.201935 144.833908,143.146942 
	C144.547104,144.997391 144.049515,146.902832 143.162781,148.814178 
z"/>
<path fill="#D8F3E7" opacity="1.000000" stroke="none" 
	d="
M136.118011,165.793854 
	C135.966110,165.268982 136.120758,164.606888 136.307617,163.604599 
	C136.722321,162.289719 137.104782,161.315033 137.757416,160.172272 
	C137.493240,161.888336 136.958908,163.772507 136.118011,165.793854 
z"/>
<path fill="#E4F7EE" opacity="1.000000" stroke="none" 
	d="
M142.022064,96.137604 
	C142.231064,96.482185 142.020599,96.771111 141.659195,97.285751 
	C140.556412,97.982994 139.604553,98.454514 138.337479,98.979935 
	C137.736923,96.256271 139.373001,95.809158 142.022064,96.137604 
z"/>
<path fill="#D3F0E3" opacity="1.000000" stroke="none" 
	d="
M197.065704,128.879501 
	C196.199371,128.254349 195.621780,127.438530 195.028961,126.311882 
	C195.793991,126.896973 196.574203,127.792908 197.065704,128.879501 
z"/>
<path fill="#D8F3E7" opacity="1.000000" stroke="none" 
	d="
M131.291061,177.881226 
	C131.333786,176.620392 131.768204,175.293381 132.470154,173.725525 
	C132.386032,174.928131 132.034393,176.371567 131.291061,177.881226 
z"/>
<path fill="#D8F3E7" opacity="1.000000" stroke="none" 
	d="
M128.913803,181.294952 
	C128.956741,181.014709 129.409103,180.864349 129.640503,180.807281 
	C129.379700,182.410034 128.887512,184.069855 128.104416,185.868942 
	C127.903358,185.262024 127.993202,184.515854 128.066620,183.392517 
	C128.323746,182.535309 128.597305,182.055252 128.913803,181.294952 
z"/>
<path fill="#668F78" opacity="1.000000" stroke="none" 
	d="
M78.854172,72.302734 
	C78.445953,72.971176 77.730301,73.468918 76.667938,73.983528 
	C77.063057,73.377609 77.804901,72.754829 78.854172,72.302734 
z"/>
<path fill="#1D7747" opacity="1.000000" stroke="none" 
	d="
M111.767174,69.344528 
	C112.514229,69.430237 113.141159,69.836914 113.768082,70.243607 
	C113.293343,70.762642 112.818596,71.281677 111.984711,71.752136 
	C111.632729,71.024208 111.639885,70.344864 111.767174,69.344528 
z"/>
<path fill="#22794B" opacity="1.000000" stroke="none" 
	d="
M199.248291,135.751221 
	C199.727036,136.039612 200.095551,136.438507 200.699265,136.981033 
	C200.934448,137.124664 201.028519,137.606522 201.204514,137.777618 
	C201.385284,138.129532 201.390076,138.310318 200.918335,138.744522 
	C199.963348,138.990616 199.484848,138.983322 199.011353,138.613068 
	C198.983429,137.527634 198.950516,136.805145 198.917603,136.082642 
	C198.917587,136.082642 199.138077,135.861710 199.248291,135.751221 
z"/>
<path fill="#E4F7EE" opacity="1.000000" stroke="none" 
	d="
M165.960876,81.124985 
	C165.516708,81.855614 164.669952,82.545753 163.491592,83.299240 
	C163.959412,82.603226 164.758850,81.843864 165.960876,81.124985 
z"/>
<path fill="#E4F7EE" opacity="1.000000" stroke="none" 
	d="
M152.819672,89.137794 
	C152.398026,89.851646 151.590088,90.514297 150.461090,91.240662 
	C150.904495,90.565102 151.668945,89.825851 152.819672,89.137794 
z"/>
<path fill="#E4F7EE" opacity="1.000000" stroke="none" 
	d="
M148.713745,92.018372 
	C148.262283,92.677376 147.450363,93.318336 146.321503,93.984634 
	C146.787476,93.340088 147.570374,92.670204 148.713745,92.018372 
z"/>
<path fill="#35714F" opacity="1.000000" stroke="none" 
	d="
M20.971134,145.677917 
	C20.757511,145.994827 20.586750,145.995590 20.159853,145.993958 
	C20.163944,145.506683 20.424173,145.021820 20.871864,144.314087 
	C21.044220,144.514740 21.029108,144.938263 20.971134,145.677917 
z"/>
<path fill="#D8F3E7" opacity="1.000000" stroke="none" 
	d="
M141.335510,152.818848 
	C141.194611,152.402405 141.292770,151.799652 141.671112,151.050873 
	C141.825729,151.480759 141.700150,152.056625 141.335510,152.818848 
z"/>
<path fill="#367653" opacity="1.000000" stroke="none" 
	d="
M79.691925,79.497665 
	C79.825470,79.167511 80.055496,79.115784 80.638153,79.039459 
	C81.013237,79.438370 81.035698,79.861855 81.054504,80.603752 
	C80.630035,80.540138 80.209221,80.158112 79.691925,79.497665 
z"/>
<path fill="#D8F3E7" opacity="1.000000" stroke="none" 
	d="
M133.243866,172.830109 
	C133.131195,172.413101 133.280014,171.824005 133.689392,171.068726 
	C133.801743,171.487686 133.653564,172.072845 133.243866,172.830109 
z"/>
<path fill="#668F78" opacity="1.000000" stroke="none" 
	d="
M105.793915,72.269760 
	C105.764267,72.501038 105.442177,72.613800 105.017578,72.555481 
	C105.110527,72.306679 105.306007,72.228966 105.793915,72.269760 
z"/>
<path fill="#D8F3E7" opacity="1.000000" stroke="none" 
	d="
M127.076416,187.765213 
	C126.917351,187.527634 127.054237,187.146317 127.441299,186.581116 
	C127.585091,186.805313 127.478729,187.213394 127.076416,187.765213 
z"/>
<path fill="#668F78" opacity="1.000000" stroke="none" 
	d="
M111.148453,72.835342 
	C110.943245,72.842964 110.934227,72.673424 110.969666,72.253021 
	C111.014122,72.002151 111.104820,71.722183 111.250793,71.705330 
	C111.379402,72.011711 111.362030,72.334953 111.148453,72.835342 
z"/>
<path fill="#668F78" opacity="1.000000" stroke="none" 
	d="
M77.409958,76.101089 
	C77.677315,75.851639 77.908150,75.950470 78.095795,76.398224 
	C77.819977,76.658524 77.593590,76.559265 77.409958,76.101089 
z"/>
<path fill="#D8F3E7" opacity="1.000000" stroke="none" 
	d="
M139.222046,157.800598 
	C139.051468,157.596756 139.134857,157.208542 139.450287,156.621155 
	C139.613541,156.820053 139.544785,157.218140 139.222046,157.800598 
z"/>
<path fill="#D8F3E7" opacity="1.000000" stroke="none" 
	d="
M140.362000,154.873779 
	C140.231384,154.681732 140.324310,154.353745 140.653748,153.899200 
	C140.788681,154.094360 140.687103,154.416122 140.362000,154.873779 
z"/>
<path fill="#D8F3E7" opacity="1.000000" stroke="none" 
	d="
M142.408783,149.864548 
	C142.258163,149.683929 142.304779,149.357605 142.577393,148.913086 
	C142.910797,149.139893 142.845016,149.447891 142.408783,149.864548 
z"/>
<path fill="#047833" opacity="1.000000" stroke="none" 
	d="
M199.996948,141.996948 
	C200.261734,142.486816 200.526505,142.976685 200.904541,143.721436 
	C198.908279,147.414612 195.982666,149.356079 191.403137,148.998245 
	C190.152969,147.959152 189.303879,146.921371 189.146637,146.729187 
	C190.721420,142.630890 192.101288,139.039825 193.764709,135.201569 
	C194.593597,135.132294 195.138947,135.310226 195.885529,136.114685 
	C197.399155,138.486465 195.870956,142.345016 199.996948,141.996948 
z"/>
<path fill="#037A35" opacity="1.000000" stroke="none" 
	d="
M54.353436,93.038635 
	C55.289753,90.276215 56.579636,87.553963 58.197193,84.140152 
	C61.020798,86.138535 63.332012,87.774284 65.858475,89.677185 
	C63.670662,92.401764 61.267593,94.859200 59.299397,96.871925 
	C57.281357,95.205109 55.994179,94.141960 54.353436,93.038635 
z"/>
<path fill="#22794B" opacity="1.000000" stroke="none" 
	d="
M178.011414,101.336800 
	C178.337296,101.745712 178.663773,102.480309 178.987701,103.532501 
	C178.660782,103.120903 178.336395,102.391693 178.011414,101.336800 
z"/>
<path fill="#047833" opacity="1.000000" stroke="none" 
	d="
M193.121277,132.198212 
	C193.462479,132.213531 193.912537,132.465149 194.211685,132.879669 
	C193.783905,132.839890 193.507004,132.637192 193.121277,132.198212 
z"/>
<path fill="#22794B" opacity="1.000000" stroke="none" 
	d="
M173.074219,95.305298 
	C173.367493,95.455658 173.661301,95.887772 173.976669,96.590370 
	C173.690399,96.436256 173.382568,96.011650 173.074219,95.305298 
z"/>
<path fill="#22794B" opacity="1.000000" stroke="none" 
	d="
M171.263550,92.250946 
	C171.642548,92.182556 172.165207,92.357697 172.838898,92.774269 
	C172.462372,92.841957 171.934769,92.668221 171.263550,92.250946 
z"/>
<path fill="#22794B" opacity="1.000000" stroke="none" 
	d="
M160.106918,89.163528 
	C160.035339,88.999664 160.463562,89.000793 160.676315,89.001076 
	C160.652206,89.110039 160.415359,89.218719 160.106918,89.163528 
z"/>
<path fill="#177340" opacity="1.000000" stroke="none" 
	d="
M88.921188,84.697662 
	C87.634621,83.933441 86.337120,82.828819 84.987854,81.386932 
	C86.260811,82.152206 87.585526,83.254738 88.921188,84.697662 
z"/>
<path fill="#1D7747" opacity="1.000000" stroke="none" 
	d="
M140.202515,32.564636 
	C139.567780,32.368652 139.107315,32.002056 138.646835,31.635466 
	C138.761414,31.522139 138.957047,31.296436 138.978622,31.312000 
	C139.456268,31.656586 139.914688,32.027843 140.202515,32.564636 
z"/>
<path fill="#1D7747" opacity="1.000000" stroke="none" 
	d="
M128.927368,35.672989 
	C128.530182,35.967915 128.101990,35.971798 127.352951,35.969185 
	C127.339165,35.457390 127.646225,34.952103 127.953293,34.446815 
	C128.267639,34.758522 128.582001,35.070232 128.927368,35.672989 
z"/>
<path fill="#04793B" opacity="1.000000" stroke="none" 
	d="
M192.090195,150.224609 
	C192.306595,150.100021 192.574768,150.285538 192.888062,150.786560 
	C192.674896,150.902115 192.411148,150.713013 192.090195,150.224609 
z"/>
<path fill="#047B3A" opacity="1.000000" stroke="none" 
	d="
M200.006866,141.752655 
	C195.870956,142.345016 197.399155,138.486465 196.048431,136.359528 
	C196.738510,135.991440 197.466949,136.005081 198.556488,136.050690 
	C198.950516,136.805145 198.983429,137.527634 199.030792,138.917053 
	C199.370163,140.062424 199.695068,140.540894 200.019958,141.019363 
	C200.019958,141.019363 200.016769,141.508347 200.006866,141.752655 
z"/>
<path fill="#047833" opacity="1.000000" stroke="none" 
	d="
M200.288544,140.840820 
	C199.695068,140.540894 199.370163,140.062424 199.025818,139.279999 
	C199.484848,138.983322 199.963348,138.990616 200.801086,138.989166 
	C201.160339,138.980423 201.342422,139.264801 201.310226,139.430359 
	C201.037720,139.951370 200.797409,140.306839 200.288544,140.840820 
z"/>
</svg>