
<svg version="1.0" xmlns="http://www.w3.org/2000/svg" width="204px" height="192px" viewBox="0 0 204 192" preserveAspectRatio="xMidYMid meet">
 <g fill="#ffffff">
  <path d="M0 96 l0 -96 102 0 102 0 0 96 0 96 -102 0 -102 0 0 -96z m72.50 62.25 c11.70 -11.65 11.75 -11.75 11.60 -13.65 -0.20 -1.90 0 -2.10 8 -10.25 7.95 -8.10 8.25 -8.35 10.25 -8.35 1.15 0 2.15 0.25 2.25 0.50 0.10 0.30 1.60 -0.90 3.40 -2.65 6.25 -6.10 26.50 -23.85 31.90 -27.95 2.10 -1.65 2.60 -2.30 2.60 -3.50 0 -1.65 2.85 -4.50 13.75 -13.85 3.30 -2.85 6.50 -5.90 7.10 -6.85 0.65 -0.90 1.50 -3.40 1.95 -5.55 0.40 -2.15 0.85 -4.40 1 -5 0.20 -0.95 0.55 -1.15 2.20 -1.15 1.10 0 2 -0.05 2 -0.10 0 -0.10 0.55 -2.95 1.20 -6.40 1.35 -6.75 2.55 -15.65 3.05 -22.65 0.30 -3.55 0.20 -4.60 -0.45 -5.60 -0.45 -0.65 -0.80 -1.80 -0.80 -2.50 0 -1.25 -0.10 -1.30 -1.60 -1 -2.15 0.45 -10.25 2.25 -19.90 4.45 -4.25 1 -8.35 1.80 -9.10 1.80 -1.55 0 -12.85 3.15 -15.55 4.35 -1.10 0.45 -2.15 1.35 -2.35 1.95 -0.25 0.60 -0.95 1.20 -1.60 1.30 -0.65 0.10 -1.20 0.55 -1.30 1.05 -0.10 0.55 -0.50 1.30 -0.85 1.75 -0.80 1 -3.95 4.95 -7.70 9.70 -1.45 1.90 -2.50 3.40 -2.35 3.40 0.15 0 1.50 -1.55 3.05 -3.50 2.50 -3.10 3 -3.50 4.50 -3.50 1.65 0 1.75 0.10 1.75 1.65 0 1.15 -0.60 2.50 -2.05 4.40 -1.10 1.50 -2.50 3.60 -3.05 4.70 -1 1.85 -2.70 4.20 -9.45 13.05 -3.25 4.25 -11.25 13.85 -16.40 19.75 -2.10 2.40 -6.50 7.45 -9.80 11.25 -7.95 9.20 -12.40 13.90 -19 20.20 -3 2.90 -9 8.65 -13.25 12.80 -10.55 10.30 -11.60 11.20 -13.25 11.20 -1.05 0 -1.30 0.20 -1.05 0.80 0.15 0.45 0.30 1.40 0.30 2.20 0 1.20 0.90 2.20 5.85 6.35 3.20 2.70 9.10 7.65 13.10 11 4 3.40 7.50 6.15 7.80 6.15 0.25 0 5.75 -5.30 12.25 -11.75z m84.50 8.75 c0.60 -0.40 0.45 -0.50 -0.65 -0.50 -0.80 0 -1.30 0.20 -1.10 0.50 0.40 0.60 0.80 0.60 1.75 0z m18 -20.10 c0 -1.35 -9.75 -13.85 -17.95 -23.05 -2.90 -3.25 -6.80 -7.65 -8.65 -9.75 -1.85 -2.10 -3.60 -3.90 -3.85 -4 -0.20 -0.05 -2.20 1.25 -4.35 2.90 -2.20 1.70 -5.10 3.90 -6.50 5 -1.40 1.05 -3.30 2.60 -4.25 3.45 l-1.65 1.55 1.35 0 c2.20 0 1.80 2.25 -1.20 6.60 -1.40 2 -2.85 4.45 -3.25 5.40 l-0.75 1.75 2.25 2.15 c1.70 1.60 2.30 2.55 2.30 3.65 0 0.80 -0.25 1.45 -0.60 1.45 -0.35 0 0.10 0.50 0.95 1.15 0.85 0.60 3.40 2.75 5.70 4.75 l4.20 3.60 0.15 -1.75 c0.15 -1.65 0.25 -1.75 2 -1.75 1.40 0 2.45 0.50 4.20 1.90 1.30 1 4.70 3.70 7.60 6 5.15 4.05 5.30 4.25 5.30 6.15 l0 2 8.50 -9.35 c4.70 -5.15 8.50 -9.55 8.50 -9.80z m-143.50 -5.45 c0 -1.35 -0.10 -1.50 -0.75 -0.95 -0.40 0.35 -0.75 1.05 -0.75 1.55 0 0.55 0.35 0.95 0.75 0.95 0.50 0 0.75 -0.50 0.75 -1.55z m31.60 -33.70 l1.55 -2 -1.90 2 c-1.05 1.10 -3.05 3.25 -4.45 4.75 l-2.55 2.75 2.90 -2.75 c1.60 -1.50 3.60 -3.65 4.45 -4.75z m12.45 -35.25 c6.80 -8.30 13.45 -17.35 13.45 -18.25 0 -0.35 -2.65 -3.10 -5.85 -6.05 -3.20 -3 -7.05 -6.60 -8.55 -8 -2.50 -2.40 -2.85 -2.55 -4.65 -2.35 -1.30 0.20 -2.35 0 -3.15 -0.55 -0.70 -0.45 -1.50 -0.80 -1.75 -0.80 -0.30 0 -1.75 -0.55 -3.30 -1.25 -2.40 -1.10 -2.75 -1.45 -2.75 -2.70 0 -1.35 -0.15 -1.40 -3.60 -2 -2 -0.35 -5.90 -1.10 -8.65 -1.60 -2.75 -0.55 -6.55 -1.20 -8.50 -1.50 -1.90 -0.25 -3.90 -0.60 -4.40 -0.75 -0.80 -0.25 -0.85 -0.15 -0.40 0.70 0.90 1.65 2.55 9.15 2.55 11.50 l0 2.10 -2.05 0 c-1.70 0 -2 0.15 -1.75 0.90 0.15 0.45 1.05 4.55 2.05 9.05 1 4.55 2.55 10.50 3.45 13.25 l1.60 5.05 7 5.90 c3.80 3.25 8.95 7.40 11.40 9.25 l4.50 3.40 3.70 -4 c2.05 -2.25 6.40 -7.30 9.65 -11.30z m-44.65 -46.05 l1.85 -0.05 -2.25 -0.60 c-1.25 -0.35 -2.35 -0.60 -2.40 -0.50 -0.10 0.05 0 0.90 0.20 1.80 0.35 1.40 0.45 1.45 0.60 0.55 0.15 -0.95 0.50 -1.15 2 -1.20z"/>
  <path d="M136.95 67.10 c-4.10 -2.65 -5.85 -6.15 -5.20 -10.45 0.50 -3.40 1.55 -5.35 3.90 -7.45 1.20 -1.10 2.30 -2.35 2.50 -2.80 0.45 -1.25 5.85 -1.20 8.60 0.05 4.90 2.25 7.10 6.50 6.60 12.70 -0.25 2.85 -0.55 3.85 -1.75 5.25 -2.50 3.10 -3.50 3.60 -8.10 3.90 -4.10 0.30 -4.35 0.25 -6.55 -1.20z"/>
 </g>
 <g fill="#6763db">
  <path d="M52.95 167.10 c-3.45 -2.95 -9.55 -8.10 -13.50 -11.40 -3.95 -3.35 -7.65 -6.60 -8.20 -7.20 -0.90 -1 -0.90 -1.15 -0.15 -1.70 0.60 -0.45 0.70 -0.80 0.35 -1.45 -0.55 -0.90 -2.45 -1.20 -2.45 -0.35 0 0.60 -1.85 0.65 -2.20 0.05 -0.15 -0.25 0.15 -1 0.70 -1.70 0.55 -0.70 0.90 -1.60 0.75 -2 -0.20 -0.45 3.40 -4.40 10.15 -11.15 9.05 -9.05 16.10 -16.50 22.70 -23.95 0.95 -1.10 3.75 -4.25 6.25 -7 4.95 -5.55 21.70 -24.95 23.65 -27.40 1.10 -1.45 4.50 -5.40 12.35 -14.55 1.45 -1.70 5.55 -6.75 9.15 -11.30 3.60 -4.55 6.85 -8.65 7.25 -9.15 0.40 -0.45 0.75 -1.20 0.75 -1.60 0 -0.80 1.70 -1.90 2.15 -1.40 0.20 0.15 0.55 -0.25 0.80 -0.95 0.25 -0.70 1.25 -1.55 2.40 -2.05 2.95 -1.30 13.70 -4.25 16.70 -4.60 1.50 -0.15 7.45 -1.40 13.20 -2.75 18.75 -4.35 21.55 -4.65 19.90 -2.05 -0.45 0.75 -0.40 1.35 0.35 2.85 0.85 1.70 0.90 2.50 0.50 5.95 -0.20 2.20 -0.70 6.60 -1 9.75 -0.65 6.05 -2.05 14.55 -3.30 20 -2.95 12.50 -3.45 14.40 -4.55 15.85 -1.15 1.60 -7.15 6.50 -11.30 9.30 -1.15 0.75 -2.85 2.10 -3.85 3.05 -0.95 0.90 -3.40 3 -5.45 4.60 -7.60 6.05 -8.95 7.15 -14.60 12 -7.95 6.85 -19.40 17 -21.20 18.90 -0.85 0.85 -4.35 4.15 -7.75 7.30 -3.45 3.10 -14 13.40 -23.50 22.80 -14.45 14.35 -19.50 18.90 -20.60 18.65 -0.10 0 -3 -2.40 -6.45 -5.35z m37.50 -27 c0.50 -0.75 3.55 -3.70 6.75 -6.55 5.50 -4.95 6.45 -6.05 5.30 -6.05 -0.65 0 -8.90 8 -13.65 13.25 -2.95 3.25 -3.20 3.70 -1.50 2.35 1.20 -0.90 2.55 -2.25 3.10 -3z m-54.25 0.10 c1.10 -1 5.55 -5.25 9.80 -9.40 4.25 -4.15 10.25 -9.90 13.25 -12.80 6.60 -6.30 11.05 -11 19 -20.20 3.30 -3.80 7.70 -8.85 9.80 -11.25 5.15 -5.90 13.15 -15.50 16.40 -19.75 6.65 -8.70 8.45 -11.15 9.30 -12.80 0.45 -0.95 1.70 -2.85 2.70 -4.25 2.20 -2.95 2.70 -3.75 2.35 -3.75 -0.30 0 -6.45 7.70 -10.60 13.20 -1.60 2.15 -3.50 4.65 -4.20 5.55 -2.70 3.55 -12.40 15.05 -17.45 20.75 -1.80 2.05 -4.20 4.75 -5.30 6 -8.15 9.35 -28.60 30.50 -41.20 42.60 -6.05 5.85 -7.65 7.90 -6.20 7.90 0.15 0 1.20 -0.80 2.35 -1.80z m39.25 -44.85 c9.50 -10.80 14.70 -16.80 18.35 -21.25 2.10 -2.60 4.95 -5.95 6.30 -7.50 1.40 -1.60 3.35 -4.10 4.40 -5.60 1.05 -1.50 2.60 -3.40 3.45 -4.20 0.85 -0.85 1.55 -1.65 1.55 -1.90 0 -0.90 -1.55 0.40 -4.30 3.75 -12.05 14.50 -18.75 22.45 -20.75 24.60 -1.25 1.40 -3.05 3.40 -4 4.50 -0.90 1.10 -3.25 3.70 -5.20 5.80 -4.15 4.50 -9.25 10.65 -9.25 11.25 0 0.65 4.60 -4 9.45 -9.45z m73.95 -6.60 c2.65 -2.05 7.20 -5.65 10.10 -8 2.90 -2.35 5.60 -4.35 6.05 -4.50 0.90 -0.30 3.60 -8.10 4.20 -12.10 0.25 -1.75 0.20 -2.20 -0.50 -2.45 -0.45 -0.20 -0.90 -0.20 -1.05 -0.05 -0.15 0.15 -0.70 2.40 -1.20 5.05 -0.60 2.95 -1.40 5.40 -2.10 6.50 -0.65 0.95 -3.85 4 -7.15 6.85 -6.75 5.75 -14 12.45 -13.50 12.45 0.15 0 2.50 -1.70 5.15 -3.75z m-2.30 -22.80 c0.45 -0.25 1.60 -1.35 2.60 -2.50 4.20 -4.95 2 -12.55 -4.45 -15.50 -2.60 -1.20 -5.15 -1.25 -5.60 -0.05 -0.20 0.45 -1.30 1.70 -2.50 2.80 -4.55 4 -5 9.55 -1.05 13.10 2.80 2.60 4.50 3.25 7.40 2.90 1.50 -0.15 3.10 -0.50 3.60 -0.75z"/>
  <path d="M156.25 169.50 c-0.15 -0.25 -0.65 -0.50 -1.10 -0.50 -0.40 0 -2.10 -1.25 -3.75 -2.80 -1.70 -1.50 -6.35 -5.35 -10.45 -8.50 -4.05 -3.15 -8.60 -6.80 -10.05 -8.10 -1.45 -1.35 -3.20 -2.80 -3.90 -3.25 -0.70 -0.50 -2.95 -2.40 -5 -4.30 -2.05 -1.90 -4.55 -4.10 -5.50 -4.95 l-1.75 -1.50 3.60 -3.75 c2.65 -2.70 3.55 -3.95 3.35 -4.65 -0.20 -0.75 0.75 -1.95 3.65 -4.75 2.15 -2.05 4.80 -4.40 5.90 -5.20 1.10 -0.85 3.55 -2.75 5.50 -4.30 4.30 -3.40 7.30 -5.45 8.05 -5.45 0.30 0 2.70 2.40 5.25 5.30 2.60 2.90 6.35 7.10 8.35 9.35 5.40 6 11.95 14.10 15.35 19 1.65 2.40 3.40 4.45 3.90 4.65 0.50 0.15 0.85 0.45 0.75 0.70 -0.25 0.70 -18.95 21.15 -20.45 22.40 -0.80 0.65 -1.50 0.90 -1.70 0.60z m0.25 -5.20 c0 -0.40 -2.40 -2.60 -5.30 -4.90 -2.90 -2.30 -6.30 -5 -7.60 -6 -3.55 -2.85 -3.70 -2.30 -0.35 1.15 2.90 2.95 12.10 10.45 12.90 10.45 0.20 0 0.35 -0.30 0.35 -0.70z m-31.75 -23.85 c-3.40 -3.15 -3.10 -5.40 1.70 -12.35 l2.55 -3.70 -2 1.60 c-2.35 1.85 -8.75 8.85 -8.75 9.55 0 0.50 7.75 6.90 8.35 6.95 0.20 0 -0.65 -0.95 -1.85 -2.05z"/>
  <path d="M56.70 86.30 c-2.70 -2.05 -8.10 -6.40 -11.90 -9.65 l-7 -5.90 -1.65 -5.10 c-0.90 -2.80 -2.65 -9.65 -3.85 -15.25 -1.25 -5.60 -3.05 -12.95 -4 -16.40 -3.25 -11.80 -3.30 -11.70 3.45 -9.80 2.65 0.70 5 1.20 5.25 1.05 0.25 -0.15 0.55 -0.05 0.70 0.20 0.15 0.20 0.80 0.45 1.40 0.45 1.85 0 27.30 4.90 29 5.55 0.65 0.25 3.30 2.55 5.90 5.15 2.65 2.55 7.65 7.30 11.15 10.55 3.50 3.30 6.35 6.30 6.35 6.70 0 3.10 -26.70 36.15 -29.20 36.15 -0.35 0 -2.85 -1.70 -5.60 -3.70z m-22.20 -47.35 c0 -1.45 -2.15 -9.45 -2.75 -10.25 -0.95 -1.35 -1.30 -0.70 -0.75 1.35 0.30 0.95 0.60 2.50 0.70 3.45 0.35 3.15 1.30 6 2.05 6 0.40 0 0.75 -0.25 0.75 -0.55z m34.65 -4.50 c-1 -1 -7.20 -2.70 -8.35 -2.30 -0.60 0.20 4.80 2.85 5.85 2.85 0.35 0 1.05 0.35 1.55 0.75 1.50 1.15 2.30 0.05 0.95 -1.30z"/>
 </g>
</svg>