<svg version="1.0" xmlns="http://www.w3.org/2000/svg" width="225px" height="225px" viewBox="0 0 225 225" preserveAspectRatio="xMidYMid meet">
 <g fill="#000000">
  <path d="M58.15 196.95 c-5.10 -0.45 -7.45 -0.95 -11.80 -2.60 -6.20 -2.35 -13.30 -9.40 -15.75 -15.70 -2.85 -7.30 -2.75 -5.55 -3 -61.40 -0.20 -52.30 0 -60.25 1.70 -66.75 2.05 -8.05 7.95 -15.30 15.30 -18.90 8.25 -4 10.10 -4.10 67.85 -4.10 48.30 0 55.85 0.20 62.05 1.80 7.75 1.95 15.20 7.85 18.65 14.80 4.35 8.60 4.50 10.85 4.20 73.15 -0.20 55.70 -0.15 54.55 -2.95 61.40 -2.55 6.40 -9.60 13.40 -15.75 15.70 -4.25 1.60 -6.30 2 -12.35 2.60 -6.50 0.65 -101.05 0.65 -108.15 0z m108.85 -16.90 c6.80 -2.55 11.15 -7 13.30 -13.80 0.90 -2.85 0.95 -5.25 0.95 -53.75 0 -48.35 -0.05 -50.90 -0.95 -53.75 -2.20 -6.95 -7.05 -11.85 -14.05 -14.05 -2.85 -0.90 -5.25 -0.95 -53.75 -0.95 l-50.75 0 -3.50 1.20 c-6.95 2.40 -11.15 6.60 -13.40 13.50 -1.10 3.30 -1.10 3.40 -1.10 54.05 0 48.50 0.05 50.90 0.95 53.75 2.75 8.70 9.20 13.80 18.55 14.75 1.95 0.20 25.35 0.35 52 0.30 l48.50 -0.05 3.25 -1.20z"/>
  <path d="M70 79.25 c0 -1.65 0.10 -1.75 1.75 -1.75 1.65 0 1.75 0.10 1.75 1.75 0 1.65 -0.10 1.75 -1.75 1.75 -1.65 0 -1.75 -0.10 -1.75 -1.75z"/>
  <path d="M71 73.75 c0 -1.65 0.10 -1.75 1.75 -1.75 1.65 0 1.75 0.10 1.75 1.75 0 1.65 -0.10 1.75 -1.75 1.75 -1.65 0 -1.75 -0.10 -1.75 -1.75z"/>
  <path d="M61.50 72.75 c0 -1.65 0.10 -1.75 1.75 -1.75 1.65 0 1.75 0.10 1.75 1.75 0 1.65 -0.10 1.75 -1.75 1.75 -1.65 0 -1.75 -0.10 -1.75 -1.75z"/>
  <path d="M55 70.75 c0 -0.90 -0.25 -1.25 -1 -1.25 -0.80 0 -1 -0.35 -1 -1.75 0 -1.65 0.10 -1.75 1.75 -1.75 1.55 0 1.75 0.15 1.75 1.25 0 0.90 0.25 1.25 1 1.25 0.80 0 1 0.35 1 1.75 0 1.65 -0.10 1.75 -1.75 1.75 -1.55 0 -1.75 -0.15 -1.75 -1.25z"/>
  <path d="M65.50 62.75 c0 -1.65 0.10 -1.75 1.75 -1.75 1.65 0 1.75 0.10 1.75 1.75 0 1.65 -0.10 1.75 -1.75 1.75 -1.65 0 -1.75 -0.10 -1.75 -1.75z"/>
  <path d="M52.50 60.75 c0 -1.65 0.10 -1.75 1.75 -1.75 1.65 0 1.75 0.10 1.75 1.75 0 1.65 -0.10 1.75 -1.75 1.75 -1.65 0 -1.75 -0.10 -1.75 -1.75z"/>
  <path d="M68 58.25 c0 -1.65 0.10 -1.75 1.75 -1.75 1.65 0 1.75 0.10 1.75 1.75 0 1.65 -0.10 1.75 -1.75 1.75 -1.65 0 -1.75 -0.10 -1.75 -1.75z"/>
  <path d="M59 56.75 c0 -1.65 0.10 -1.75 1.75 -1.75 1.65 0 1.75 0.10 1.75 1.75 0 1.65 -0.10 1.75 -1.75 1.75 -1.65 0 -1.75 -0.10 -1.75 -1.75z"/>
 </g>
 <g fill="#0e0815">
  <path d="M59.40 91.80 c-0.65 -0.50 -0.90 -1.40 -0.90 -3.35 l0 -2.70 -2.40 -0.85 c-6.10 -2.20 -7.50 -4.85 -4.75 -9.15 1.30 -2.05 1.55 -2.25 3.50 -2.25 1.25 0 3.05 0.50 4.55 1.30 1.40 0.70 2.90 1.20 3.45 1.10 0.55 -0.15 -0.30 -0.65 -2.30 -1.40 -3.90 -1.45 -7.90 -4.50 -8.85 -6.80 -0.90 -2.15 -0.90 -5.05 0.05 -7.70 0.85 -2.35 2.05 -3.60 4.90 -5.05 1.65 -0.90 1.85 -1.15 1.85 -3 0 -1.10 0.30 -2.35 0.70 -2.75 0.90 -0.90 6.85 -0.95 7.70 -0.10 0.35 0.35 0.60 1.65 0.60 2.90 0 2.15 0.10 2.35 1.65 2.90 0.85 0.30 2.45 1.25 3.50 2.15 2.35 1.95 2.55 4.15 0.45 6.75 -1.10 1.40 -1.70 1.70 -3.35 1.75 -1.90 0 -1.95 0.05 -0.75 0.60 4.40 2.10 6.70 5.60 6.40 9.85 -0.25 3.75 -2.30 6.80 -5.55 8.45 l-2.35 1.15 0 2.75 c0 2.05 -0.25 2.95 -0.85 3.45 -1.15 0.85 -6.15 0.85 -7.25 0z m4.10 -6.75 c0 -3.35 0.05 -3.45 1.40 -3.70 1.95 -0.40 4.75 -2.40 5.50 -4.05 1.50 -3.05 -0.95 -5.90 -7.10 -8.30 -5.20 -2.10 -5.80 -2.60 -5.80 -5.30 0 -3.35 0.80 -3.85 6.10 -3.60 3.25 0.10 4.55 0.35 4.90 0.90 0.25 0.40 0.50 0.55 0.50 0.25 0 -1.25 -2.30 -2.75 -4.25 -2.75 -1.20 0 -1.25 -0.15 -1.25 -3 0 -3.80 -0.90 -3.95 -1.10 -0.20 -0.15 2.75 -0.20 2.80 -2.10 3.45 -4.55 1.60 -6.25 5.45 -3.40 8.10 1.55 1.45 5.70 3.65 6.85 3.65 0.40 0 0.75 0.25 0.75 0.50 0 0.30 0.35 0.50 0.75 0.50 0.45 0 1.35 0.35 2 0.80 1.10 0.70 1.25 1.20 1.25 3.75 0 2.75 -0.10 3 -1.30 3.45 -1.85 0.70 -7.15 0.55 -9.45 -0.25 -2.35 -0.85 -2.90 -0.90 -2.55 -0.30 0.50 0.75 4.75 2.55 6.05 2.55 1.20 0 1.25 0.10 1.25 3.50 0 2 0.20 3.50 0.50 3.50 0.30 0 0.50 -1.50 0.50 -3.45z"/>
  <path d="M79.50 90.25 l0 -1.75 9.75 0 9.75 0 0 -18 0 -18 -9.75 0 -9.75 0 0 -1.75 0 -1.75 10.70 0 c5.90 0 11.05 0.15 11.50 0.30 0.70 0.25 0.80 2.55 0.80 20.75 0 13.30 -0.15 20.45 -0.50 20.45 -0.25 0 -0.50 0.35 -0.50 0.75 0 0.65 -1.55 0.75 -11 0.75 l-11 0 0 -1.75z"/>
  <path d="M195.30 58.90 c-0.50 -1.90 -0.35 -2.40 0.70 -2.40 0.80 0 1 0.35 1 1.75 0 2 -1.20 2.45 -1.70 0.65z"/>
  <path d="M194.30 52.90 c-0.50 -1.90 -0.35 -2.40 0.70 -2.40 0.80 0 1 0.35 1 1.75 0 2 -1.20 2.45 -1.70 0.65z"/>
 </g>
 <g fill="#131c1f">
  <path d="M61 196.50 c0 -1.05 1.15 -1.30 3.40 -0.70 2.05 0.55 1.30 1.70 -1.15 1.70 -1.90 0 -2.25 -0.15 -2.25 -1z"/>
  <path d="M160 196.80 c0 -0.35 0.50 -0.80 1.15 -1 2.05 -0.55 2.85 -0.35 2.85 0.70 0 0.85 -0.35 1 -2 1 -1.35 0 -2 -0.20 -2 -0.70z"/>
  <path d="M55 196 c0 -1.05 0.80 -1.25 2.90 -0.70 1.95 0.55 1.35 1.70 -0.90 1.70 -1.65 0 -2 -0.15 -2 -1z"/>
  <path d="M165.50 196.30 c0 -0.70 1.45 -1.30 3.40 -1.30 0.75 0 1.10 0.30 1.10 1 0 0.85 -0.35 1 -2.25 1 -1.60 0 -2.25 -0.20 -2.25 -0.70z"/>
  <path d="M50 195 c0 -1.05 0.50 -1.20 2.40 -0.70 1.80 0.50 1.35 1.70 -0.65 1.70 -1.40 0 -1.75 -0.20 -1.75 -1z"/>
  <path d="M171.50 195.35 c0 -0.30 1.45 -1.10 3.25 -1.65 l3.25 -1.10 0 1.20 c0 1 -0.25 1.20 -1.50 1.20 -0.80 0 -1.50 0.25 -1.50 0.50 0 0.30 -0.80 0.50 -1.75 0.50 -1.05 0 -1.75 -0.25 -1.75 -0.65z"/>
  <path d="M38.50 188.45 l0 -1.50 1.50 1.05 c2.20 1.55 2.25 2 0.30 2 -1.65 0 -1.80 -0.10 -1.80 -1.55z"/>
  <path d="M183.25 189.50 c0.15 -0.25 0.95 -0.95 1.75 -1.50 l1.50 -1.05 0 1.50 c0 1.45 -0.15 1.55 -1.80 1.55 -1 0 -1.65 -0.20 -1.45 -0.50z"/>
  <path d="M35 184.70 c0 -1.95 0.45 -1.90 2 0.30 l1.05 1.50 -1.50 0 c-1.45 0 -1.55 -0.15 -1.55 -1.80z"/>
  <path d="M188 185 c1.55 -2.20 2 -2.25 2 -0.30 0 1.65 -0.10 1.80 -1.55 1.80 l-1.50 0 1.05 -1.50z"/>
  <path d="M61.75 182.50 c-9.35 -0.95 -15.80 -6.05 -18.55 -14.75 -0.90 -2.85 -0.95 -5.30 -0.95 -55.25 l0 -52.25 1.10 -3.35 c2.25 -6.85 6.45 -11.05 13.45 -13.45 l3.45 -1.20 52.25 0 c49.95 0 52.40 0.05 55.25 0.95 7 2.20 11.85 7.10 14.05 14.05 0.90 2.85 0.95 5.40 0.95 55.25 0 49.95 -0.05 52.40 -0.95 55.25 -2.15 6.80 -6.50 11.25 -13.30 13.80 l-3.25 1.20 -50 0.05 c-27.50 0.05 -51.55 -0.10 -53.50 -0.30z m3.40 -92.20 c0.60 -0.50 0.85 -1.40 0.85 -3.45 l0 -2.75 2.35 -1.15 c4.10 -2.05 6.55 -6.85 5 -9.75 -1.60 -3 -3.55 -4.50 -8.85 -6.75 -2.35 -1 -4.30 -2.10 -4.40 -2.50 -0.05 -0.45 0.45 -1.10 1.20 -1.45 1.15 -0.65 1.65 -0.60 4.45 0.40 1.75 0.60 3.50 1.10 3.85 1.10 0.35 0 1.30 -0.85 2.10 -1.85 l1.50 -1.80 -1.95 -1.70 c-1.05 -0.90 -2.65 -1.90 -3.60 -2.25 -1.55 -0.55 -1.65 -0.75 -1.65 -2.90 0 -2.75 -0.65 -3.50 -2.90 -3.50 -2.20 0 -3.10 1 -3.10 3.45 0 1.85 -0.20 2.10 -1.85 3 -2.90 1.45 -4.10 2.75 -4.95 5.25 -0.65 1.85 -0.65 2.60 -0.20 4.05 0.80 2.45 4.45 5.45 8.50 7 3.85 1.45 4.75 2.25 4.25 3.75 -0.50 1.55 -4.85 1.40 -7.95 -0.25 -1.30 -0.70 -2.60 -1.25 -2.95 -1.25 -0.35 0 -1.25 1 -2.05 2.25 -1.20 1.95 -1.30 2.40 -0.75 3.10 0.75 0.85 6.30 3.65 7.35 3.65 0.40 0 0.60 0.90 0.60 2.80 0 2.10 0.20 3 0.90 3.50 1.10 0.85 3.10 0.85 4.25 0z m30.25 -0.15 c-2.70 -0.10 -7.10 -0.10 -9.75 0 -2.70 0.05 -0.50 0.15 4.85 0.15 5.35 0 7.55 -0.10 4.90 -0.15z m3.40 -2 c0.55 -0.70 0.65 -4.60 0.70 -18.25 l0 -17.40 -1.10 -0.25 c-0.65 -0.15 -4.50 -0.20 -8.65 -0.15 l-7.50 0.15 -0.10 16.75 c-0.05 9.20 0.05 17.50 0.15 18.40 l0.25 1.60 7.80 0 c6.85 0 7.85 -0.10 8.45 -0.85z m2.05 -27.80 c-0.05 -5.25 -0.10 -0.95 -0.10 9.65 0 10.60 0.05 14.90 0.10 9.60 0.10 -5.25 0.10 -13.95 0 -19.25z m-5.45 -9.70 c-2.70 -0.10 -7.10 -0.10 -9.75 0 -2.70 0.05 -0.50 0.15 4.85 0.15 5.35 0 7.55 -0.10 4.90 -0.15z"/>
  <path d="M61 86.50 c0 -3.45 0 -3.50 -1.30 -3.50 -1.20 0 -5.90 -2.05 -6.85 -2.95 -0.55 -0.55 1.20 -4.05 2 -4.05 0.40 0 1.60 0.45 2.70 1.05 2.50 1.25 6.25 1.70 8.10 1 1.20 -0.45 1.40 -0.80 1.25 -2.10 -0.15 -1.70 -0.95 -2.20 -7.25 -4.95 -5.25 -2.30 -7.25 -5.95 -5.30 -9.85 1 -2.10 3.70 -4.15 5.45 -4.15 1.15 0 1.20 -0.20 1.20 -3 l0 -3 2 0 2 0 0 3 c0 2.90 0.05 3 1.30 3 1.20 0 5.70 2.70 5.70 3.40 -0.05 0.20 -0.60 1 -1.25 1.85 l-1.20 1.45 -2.20 -1.10 c-2.65 -1.30 -6.40 -1.45 -7.55 -0.30 -1.80 1.75 -0.70 2.95 5 5.15 7.55 3 9.75 6.90 6.70 11.90 -0.95 1.60 -4.20 3.65 -5.75 3.65 -0.60 0 -0.75 0.70 -0.75 3.50 l0 3.50 -2 0 -2 0 0 -3.50z m2.70 2.20 c0.60 -0.25 0.80 -1 0.80 -3.20 l0 -2.90 2.35 -1.15 c2.90 -1.50 4.05 -3.05 4.25 -5.90 0.10 -1.75 -0.05 -2.30 -0.85 -2.75 -0.55 -0.30 -1.10 -0.65 -1.25 -0.80 -0.15 -0.15 -1.35 -0.85 -2.75 -1.50 -1.35 -0.70 -2.55 -1.40 -2.65 -1.60 -0.10 -0.25 -0.60 -0.40 -1.10 -0.40 -1.45 0 -2.50 -0.55 -2.50 -1.30 0 -0.40 -0.50 -0.70 -1.25 -0.70 -1.10 0 -1.25 -0.20 -1.25 -1.75 0 -0.95 0.25 -1.75 0.50 -1.75 0.30 0 0.50 -0.20 0.50 -0.50 0 -0.25 0.55 -1.05 1.25 -1.75 1.45 -1.45 3.90 -1.70 5.05 -0.50 0.95 0.95 5.40 1.05 5.10 0.15 -0.15 -0.35 -1.40 -1.20 -2.80 -1.90 -2.50 -1.25 -2.55 -1.30 -2.55 -3.55 -0.05 -2.75 -1.05 -4 -2.30 -2.80 -0.40 0.45 -0.75 1.65 -0.75 2.80 0 1.50 -0.25 2.15 -1 2.55 -0.55 0.30 -1 0.85 -1 1.25 0 0.50 -0.50 0.75 -1.30 0.75 -1.55 0 -3 1.50 -3.45 3.50 -0.35 1.65 0.45 3.50 1.50 3.50 0.40 0 0.75 0.30 0.75 0.70 0 1.10 2.70 2.80 4.45 2.80 0.85 0 1.55 0.25 1.55 0.50 0 0.30 0.55 0.50 1.25 0.50 0.80 0 1.25 0.30 1.25 0.75 0 0.50 0.50 0.75 1.50 0.75 1.40 0 1.50 0.15 1.50 1.75 0 0.95 -0.20 1.75 -0.45 1.75 -0.25 0 -0.60 0.90 -0.80 2 -0.30 1.85 -0.45 2 -2 2 -0.90 0 -1.80 -0.30 -1.95 -0.60 -0.25 -0.50 -0.35 -0.50 -0.60 0 -0.40 0.85 -3.55 0.75 -3.85 -0.10 -0.40 -1.05 -3.85 -1.65 -4.35 -0.75 -0.65 0.95 -0.10 1.45 1.55 1.45 0.95 0 1.45 0.25 1.45 0.75 0 0.40 0.85 0.95 2 1.30 l2 0.60 0 2.90 c0 1.80 0.25 2.95 0.65 3.10 0.30 0.15 0.65 0.30 0.70 0.30 0.05 0.05 0.40 -0.10 0.85 -0.25z"/>
  <path d="M28.80 173.45 c-0.50 -2.55 -0.35 -3.95 0.40 -3.95 0.40 0 0.90 0.95 1.25 2.20 0.75 3 0.70 3.30 -0.40 3.30 -0.65 0 -1 -0.50 -1.25 -1.55z"/>
  <path d="M194.50 172.40 c0 -1.50 0.65 -2.90 1.30 -2.90 0.45 0 0.70 0.60 0.70 1.75 0 1.40 -0.20 1.75 -1 1.75 -0.55 0 -1 -0.30 -1 -0.60z"/>
  <path d="M27.50 161.75 c0 -2 1.20 -2.45 1.70 -0.60 0.50 1.85 0.35 2.35 -0.70 2.35 -0.80 0 -1 -0.35 -1 -1.75z"/>
  <path d="M195.50 162.90 c0 -1.50 0.65 -2.90 1.30 -2.90 0.45 0 0.70 0.60 0.70 1.75 0 1.40 -0.20 1.75 -1 1.75 -0.55 0 -1 -0.30 -1 -0.60z"/>
  <path d="M27.50 63.25 c0 -1.40 0.20 -1.75 1 -1.75 1.05 0 1.20 0.50 0.70 2.40 -0.50 1.80 -1.70 1.35 -1.70 -0.65z"/>
  <path d="M195.80 63.90 c-0.50 -1.90 -0.35 -2.40 0.70 -2.40 0.80 0 1 0.35 1 1.75 0 2 -1.20 2.45 -1.70 0.65z"/>
  <path d="M29 52.25 c0 -1.40 0.20 -1.75 1 -1.75 1.05 0 1.20 0.50 0.70 2.40 -0.50 1.80 -1.70 1.35 -1.70 -0.65z"/>
  <path d="M35.50 39.90 c0 -1.70 0.15 -1.90 1.25 -1.90 1 0 1.25 -0.25 1.25 -1.25 0 -1.10 0.20 -1.25 1.90 -1.25 l1.85 0.05 -1.65 1.40 c-0.95 0.80 -2.35 2.20 -3.15 3.15 l-1.40 1.65 -0.05 -1.85z"/>
  <path d="M186.35 38.45 l-2.90 -2.95 1.75 0 c1.60 0 1.80 0.15 1.80 1.25 0 1 0.25 1.25 1.25 1.25 1.10 0 1.25 0.20 1.25 1.75 0 0.95 -0.05 1.75 -0.10 1.70 -0.10 0 -1.45 -1.35 -3.05 -3z"/>
  <path d="M171.90 30.65 c-1.65 -0.40 -1 -1.65 0.85 -1.65 1.40 0 1.75 0.20 1.75 1 0 1 -0.70 1.15 -2.60 0.65z"/>
  <path d="M61.50 28.50 c0 -0.80 0.35 -1 1.75 -1 2 0 2.45 1.20 0.65 1.70 -1.90 0.50 -2.40 0.35 -2.40 -0.70z"/>
  <path d="M160.90 29.15 c-1.65 -0.40 -1 -1.65 0.85 -1.65 1.40 0 1.75 0.20 1.75 1 0 1 -0.70 1.15 -2.60 0.65z"/>
 </g>
 <g fill="#103e19">
  <path d="M61 89 c0 -0.85 0.35 -1 2 -1 1.65 0 2 0.15 2 1 0 0.85 -0.35 1 -2 1 -1.65 0 -2 -0.15 -2 -1z"/>
  <path d="M80.85 89.30 c-0.15 -0.40 -0.30 -9.15 -0.30 -19.50 -0.05 -18.45 0 -18.80 0.95 -18.80 1 0 1 0.35 1 18.50 l0 18.50 8 0 8 0 0 -18.50 c0 -18.20 0 -18.50 1 -18.50 1 0 1 0.25 0.90 19.40 l-0.15 19.35 -9.55 0.15 c-7.95 0.10 -9.65 0 -9.85 -0.60z"/>
  <path d="M57.40 82.45 c-1.45 -0.80 -1.05 -1.45 0.85 -1.45 1.40 0 1.75 0.20 1.75 1 0 1.10 -1.20 1.30 -2.60 0.45z"/>
  <path d="M65 82 c0 -0.80 0.35 -1 1.50 -1 1 0 1.50 -0.25 1.50 -0.75 0 -0.55 0.55 -0.75 1.80 -0.75 1.60 0 1.75 0.10 1.15 0.80 -0.80 0.95 -4.15 2.70 -5.20 2.70 -0.40 0 -0.75 -0.45 -0.75 -1z"/>
  <path d="M53.25 80.30 c-0.90 -0.65 -0.90 -0.70 0.10 -2.35 0.60 -1.10 1.35 -1.65 1.95 -1.60 1.70 0.10 6.70 2.40 6.70 3.05 0 0.80 -2.60 0.75 -4.75 -0.10 -1.80 -0.80 -2.25 -0.60 -2.25 0.80 0 1.10 -0.50 1.15 -1.75 0.20z"/>
  <path d="M66.90 76.15 c0.15 -1.70 0 -1.95 -1.35 -2.55 -2.05 -0.90 -1.95 -1.60 0.20 -1.60 1.40 0 1.75 0.20 1.75 1 0 0.55 0.35 1 0.75 1 0.55 0 0.75 0.55 0.75 2 0 1.75 -0.15 2 -1.15 2 -1 0 -1.10 -0.20 -0.95 -1.85z"/>
  <path d="M71 75 c0 -2.65 0.60 -3.20 1.50 -1.45 0.70 1.25 0.15 3.95 -0.80 3.95 -0.50 0 -0.70 -0.65 -0.70 -2.50z"/>
  <path d="M59.50 70.95 c-4.10 -1.85 -7.20 -5.95 -4.50 -5.95 0.75 0 1 0.35 1 1.25 0 1 0.25 1.25 1.30 1.25 0.85 0 1.40 0.30 1.55 1 0.20 0.70 0.70 1 1.70 1 1.20 0 1.45 0.20 1.45 1.25 0 0.70 -0.05 1.25 -0.10 1.25 -0.10 0 -1.15 -0.50 -2.40 -1.05z"/>
  <path d="M57.75 64.25 c-0.30 -2.20 -0.20 -2.85 0.50 -3.55 0.95 -0.95 4.85 -1.50 7.45 -1 1.45 0.30 1.80 0.55 1.80 1.50 0 1.15 -0.05 1.15 -2.50 0.50 -1.85 -0.45 -2.95 -0.50 -3.90 -0.15 -2.40 0.90 -2.85 2.90 -0.85 3.95 1.75 0.95 1.55 1.50 -0.45 1.50 -1.70 0 -1.75 0 -2.05 -2.75z"/>
  <path d="M53.50 63.90 c0 -1.50 0.65 -2.90 1.30 -2.90 0.45 0 0.70 0.60 0.70 1.75 0 1.40 -0.20 1.75 -1 1.75 -0.55 0 -1 -0.30 -1 -0.60z"/>
  <path d="M55.50 59.25 c0.70 -0.85 3.35 -2.25 4.35 -2.25 0.35 0 0.65 0.45 0.65 1 0 0.65 -0.35 1 -1 1 -0.55 0 -1 0.25 -1 0.50 0 0.30 -0.80 0.50 -1.80 0.50 -1.55 0 -1.75 -0.10 -1.20 -0.75z"/>
  <path d="M66 58 c0 -1.15 1.30 -1.30 2.65 -0.30 1.25 1 1.05 1.30 -0.90 1.30 -1.40 0 -1.75 -0.20 -1.75 -1z"/>
 </g>
 <g fill="#0a6613">
  <path d="M61.25 89.60 c-0.85 -0.90 -0.10 -1.60 1.80 -1.60 1.60 0 2 0.15 1.85 0.80 -0.15 0.80 -3 1.45 -3.65 0.80z"/>
  <path d="M81 70.25 l0 -19.25 9.50 0 9.50 0 0 19.25 0 19.25 -9.50 0 -9.50 0 0 -19.25z"/>
  <path d="M64.55 82.95 c-0.05 -1.50 0.15 -1.85 1.35 -2.30 l1.35 -0.55 -1.60 -0.05 c-2 -0.05 -2.25 -1.30 -0.40 -1.75 1.45 -0.35 2.30 -1.75 1.95 -3.15 -0.25 -1 -2.05 -1.95 -7.70 -4.30 -0.95 -0.35 -2.05 -1.05 -2.45 -1.50 -0.60 -0.75 -0.50 -0.85 1.10 -0.85 1 0 2.10 0.35 2.55 0.75 0.40 0.40 1.20 0.75 1.75 0.75 0.60 0 1.05 0.25 1.05 0.50 0 0.30 0.55 0.50 1.25 0.50 1 0 1.25 0.25 1.25 1.25 0 1.05 0.25 1.25 1.50 1.25 1.40 0 1.50 0.15 1.50 1.75 0 1.20 -0.25 1.75 -0.75 1.75 -0.50 0 -0.75 0.50 -0.75 1.50 0 1.75 0.50 1.90 1.40 0.50 0.65 -1.05 3.10 -1.40 3.10 -0.45 0 1 -3.05 3.40 -5 4 -1.10 0.35 -2.05 0.95 -2.15 1.40 -0.15 0.45 -0.25 0 -0.30 -1z"/>
  <path d="M55.60 81.45 c-1.70 -0.85 -3.10 -1.75 -3.10 -2 0 -0.25 0.80 -0.45 1.75 -0.45 1.20 0 1.75 0.25 1.75 0.75 0 0.45 0.45 0.75 1.15 0.75 2.10 0 3.35 0.60 3.35 1.55 0 1.35 -1.35 1.20 -4.90 -0.60z"/>
  <path d="M58 78.80 c0 -1.15 0.10 -1.20 1.75 -0.65 0.95 0.30 1.75 0.80 1.75 1.20 0 0.40 -0.65 0.65 -1.75 0.65 -1.50 0 -1.75 -0.15 -1.75 -1.20z"/>
  <path d="M54 77.30 c0 -1.15 1 -1.50 2.30 -0.75 1.70 0.90 1.50 1.45 -0.55 1.45 -1.20 0 -1.75 -0.25 -1.75 -0.70z"/>
  <path d="M70.30 74.20 c-0.15 -0.45 -0.30 -1.50 -0.30 -2.35 l0.05 -1.60 1.20 1.40 c1.50 1.70 1.65 3.35 0.30 3.35 -0.50 0 -1.10 -0.35 -1.25 -0.80z"/>
  <path d="M64.50 69.50 c0 -0.25 -0.55 -0.50 -1.25 -0.50 -0.70 0 -1.25 -0.20 -1.25 -0.50 0 -0.25 -0.45 -0.50 -0.95 -0.50 -1.95 0 -2.55 -0.55 -2.55 -2.40 0 -1.55 0.10 -1.70 0.65 -0.95 0.30 0.45 2.40 1.60 4.55 2.50 4.45 1.90 5.35 2.85 2.60 2.85 -1 0 -1.80 -0.20 -1.80 -0.50z"/>
  <path d="M53.80 65.25 c-0.45 -1.75 0.45 -4.90 1.75 -6.05 l1.05 -0.95 -0.30 2.15 c-0.15 1.15 -0.45 3 -0.60 4.10 -0.35 2.25 -1.40 2.65 -1.90 0.75z"/>
  <path d="M66.75 62.20 c-2.75 -1.30 -4 -1.45 -5.95 -0.70 -1.20 0.45 -1.30 0.35 -1.30 -0.80 l0 -1.30 3.90 0.20 c2.10 0.15 4.25 0.40 4.75 0.60 0.60 0.30 0.85 0.20 0.85 -0.40 0 -0.60 -0.50 -0.80 -1.75 -0.80 -1.40 0 -1.75 -0.20 -1.75 -1 0 -0.65 0.35 -1 0.90 -1 1 0 5.60 2.75 5.60 3.35 -0.05 0.40 -2.35 3.20 -2.60 3.10 -0.10 0 -1.25 -0.55 -2.65 -1.25z"/>
 </g>
 <g fill="#3a3c3d">
  <path d="M60 196.50 c0 -1.05 0.80 -1.25 2.90 -0.70 1.95 0.55 1.35 1.70 -0.90 1.70 -1.65 0 -2 -0.15 -2 -1z"/>
  <path d="M161 196.80 c0 -0.35 0.50 -0.80 1.15 -1 2.05 -0.55 2.85 -0.35 2.85 0.70 0 0.85 -0.35 1 -2 1 -1.35 0 -2 -0.20 -2 -0.70z"/>
  <path d="M51.70 196.25 c-4.60 -1.10 -7.20 -2.30 -7.20 -3.30 0 -0.75 -0.40 -0.95 -1.75 -0.95 -1.20 0 -1.75 -0.25 -1.75 -0.75 0 -0.40 -0.45 -0.75 -1 -0.75 -0.80 0 -1 -0.35 -1 -1.55 l0 -1.50 3.15 2.20 c3.40 2.40 8.45 4.50 13 5.35 1.90 0.40 2.85 0.80 2.85 1.30 0 0.85 -2.65 0.85 -6.30 -0.05z"/>
  <path d="M167 196.30 c0 -0.50 1 -0.90 2.90 -1.30 2.50 -0.45 5.95 -1.55 8.75 -2.75 0.70 -0.30 0.85 -0.10 0.85 0.95 0 1.05 -0.25 1.30 -1.25 1.30 -0.70 0 -1.25 0.20 -1.25 0.45 0 0.50 -6.40 2.05 -8.55 2.05 -0.95 0 -1.45 -0.25 -1.45 -0.70z"/>
  <path d="M180.50 191.65 c0.05 -0.25 1.25 -1.25 2.75 -2.30 l2.75 -1.90 0 1.55 c0 1.15 -0.20 1.50 -1 1.50 -0.55 0 -1 0.35 -1 0.75 0 0.50 -0.55 0.75 -1.75 0.75 -0.95 0 -1.75 -0.15 -1.75 -0.35z"/>
  <path d="M34.50 185 c0 -0.55 -0.35 -1 -0.75 -1 -0.50 0 -0.75 -0.55 -0.75 -1.75 0 -1.40 -0.20 -1.75 -0.95 -1.75 -1 0 -1.55 -0.90 -1.55 -2.50 0 -0.50 -0.25 -1 -0.55 -1.10 -0.30 -0.10 -0.65 -1.25 -0.80 -2.55 -0.25 -1.95 -0.15 -2.35 0.55 -2.35 0.45 0 0.80 0.25 0.80 0.55 0 1.40 2.85 7.55 4.85 10.35 l2.20 3.10 -1.50 0 c-1.20 0 -1.55 -0.20 -1.55 -1z"/>
  <path d="M189.65 182.90 c1.25 -1.75 2.75 -4.55 3.40 -6.25 1.35 -3.50 2.45 -4.15 2.45 -1.40 0 0.95 -0.20 1.75 -0.50 1.75 -0.25 0 -0.50 0.45 -0.50 0.95 0 1.65 -0.55 2.55 -1.55 2.55 -0.75 0 -0.95 0.35 -0.95 1.75 0 1.20 -0.25 1.75 -0.75 1.75 -0.40 0 -0.75 0.45 -0.75 1 0 0.80 -0.35 1 -1.55 1 l-1.50 0 2.20 -3.10z"/>
  <path d="M28 168.25 c0 -2 1.20 -2.45 1.70 -0.60 0.50 1.85 0.35 2.35 -0.70 2.35 -0.80 0 -1 -0.35 -1 -1.75z"/>
  <path d="M195 169.40 c0 -1.50 0.65 -2.90 1.30 -2.90 0.45 0 0.70 0.60 0.70 1.75 0 1.40 -0.20 1.75 -1 1.75 -0.55 0 -1 -0.30 -1 -0.60z"/>
  <path d="M27.50 162.25 c0 -2 1.20 -2.45 1.70 -0.60 0.50 1.85 0.35 2.35 -0.70 2.35 -0.80 0 -1 -0.35 -1 -1.75z"/>
  <path d="M195.50 163.40 c0 -1.50 0.65 -2.90 1.30 -2.90 0.45 0 0.70 0.60 0.70 1.75 0 1.40 -0.20 1.75 -1 1.75 -0.55 0 -1 -0.30 -1 -0.60z"/>
  <path d="M27.50 62.75 c0 -1.40 0.20 -1.75 1 -1.75 1.05 0 1.20 0.50 0.70 2.40 -0.50 1.80 -1.70 1.35 -1.70 -0.65z"/>
  <path d="M195.80 63.40 c-0.50 -1.90 -0.35 -2.40 0.70 -2.40 0.80 0 1 0.35 1 1.75 0 2 -1.20 2.45 -1.70 0.65z"/>
  <path d="M28 58.15 c0 -2.45 1.05 -7.90 1.55 -8.05 0.25 -0.10 0.45 -0.85 0.45 -1.65 0 -0.95 0.25 -1.45 0.75 -1.45 0.50 0 0.75 -0.55 0.75 -1.75 0 -0.95 0.25 -1.75 0.50 -1.75 0.30 0 0.50 -0.35 0.50 -0.75 0 -0.45 0.45 -0.75 1.25 -0.75 1.10 0 1.25 -0.20 1.25 -1.75 0 -1.60 0.10 -1.75 1.55 -1.75 l1.55 0 -1.10 1.40 c-4.40 5.70 -6.05 9.70 -7.25 17.75 -0.35 2.20 -1.75 2.60 -1.75 0.50z"/>
  <path d="M195.30 58.40 c-0.50 -1.90 -0.35 -2.40 0.70 -2.40 0.80 0 1 0.35 1 1.75 0 2 -1.20 2.45 -1.70 0.65z"/>
  <path d="M194.50 52.90 c-1.05 -4.45 -3.20 -8.75 -6.50 -13 l-1.10 -1.40 1.55 0 c1.45 0 1.55 0.15 1.55 1.75 0 1.55 0.15 1.75 1.25 1.75 0.80 0 1.25 0.30 1.25 0.75 0 0.40 0.25 0.75 0.50 0.75 0.30 0 0.50 0.80 0.50 1.75 0 1.20 0.25 1.75 0.75 1.75 0.50 0 0.75 0.50 0.75 1.45 0 0.80 0.25 1.55 0.50 1.65 0.30 0.10 0.65 1.35 0.85 2.80 0.25 2.15 0.15 2.60 -0.50 2.60 -0.50 0 -0.95 -0.85 -1.35 -2.60z"/>
  <path d="M38.50 36.55 c0 -1.45 0.15 -1.55 1.75 -1.55 1.55 0 1.75 -0.15 1.75 -1.25 0 -0.80 0.30 -1.25 0.75 -1.25 0.40 0 0.75 -0.20 0.75 -0.50 0 -0.25 0.80 -0.50 1.75 -0.50 1.20 0 1.75 -0.25 1.75 -0.75 0 -0.50 0.55 -0.75 1.75 -0.75 2.50 0 2.15 0.85 -0.90 2.20 -2.60 1.15 -5.35 2.80 -7.95 4.80 l-1.40 1.10 0 -1.55z"/>
  <path d="M184 36.20 c-1.25 -0.95 -3.85 -2.55 -5.85 -3.50 -2 -1 -3.65 -2 -3.65 -2.25 0 -0.25 0.80 -0.45 1.75 -0.45 1.20 0 1.75 0.25 1.75 0.75 0 0.50 0.55 0.75 1.75 0.75 0.95 0 1.75 0.25 1.75 0.50 0 0.30 0.35 0.50 0.75 0.50 0.45 0 0.75 0.45 0.75 1.25 0 1.10 0.20 1.25 1.75 1.25 1.60 0 1.75 0.10 1.75 1.50 0 0.85 -0.05 1.50 -0.10 1.50 -0.10 0 -1.15 -0.80 -2.40 -1.80z"/>
  <path d="M52 29.60 c0 -0.80 0.50 -1 2.65 -1.30 3.90 -0.45 4.85 -0.40 4.85 0.40 0 0.75 -0.85 1 -5.10 1.55 -2.15 0.30 -2.40 0.20 -2.40 -0.65z"/>
  <path d="M170 30.15 c-4.05 -0.60 -4.50 -0.75 -4.50 -1.40 0 -0.85 0.90 -0.90 4.90 -0.45 2.10 0.30 2.60 0.50 2.60 1.25 0 0.95 -0.35 1.05 -3 0.60z"/>
  <path d="M61 28.50 c0 -0.80 0.35 -1 1.75 -1 2 0 2.45 1.20 0.65 1.70 -1.90 0.50 -2.40 0.35 -2.40 -0.70z"/>
  <path d="M161.40 29.15 c-1.65 -0.40 -1 -1.65 0.85 -1.65 1.40 0 1.75 0.20 1.75 1 0 1 -0.70 1.15 -2.60 0.65z"/>
 </g>
 <g fill="#0e911c">
  <path d="M63 85.95 c0 -4 0.55 -4.95 2.95 -4.95 1.90 0 2.10 1.25 0.30 1.70 -1.15 0.30 -1.25 0.50 -1.25 3.55 0 2.90 -0.10 3.25 -1 3.25 -0.90 0 -1 -0.35 -1 -3.55z"/>
  <path d="M57.40 82.25 c-1.45 -0.55 -3.30 -1.50 -4.85 -2.55 -0.20 -0.20 1.95 -3.70 2.25 -3.70 0.70 0 5.20 2.60 5.20 3 0 0.30 -0.70 0.50 -1.55 0.50 -1.35 0 -1.45 0.10 -0.75 0.75 0.40 0.40 1.30 0.75 2 0.75 0.95 0 1.30 0.25 1.30 1 0 1.15 -0.90 1.25 -3.60 0.25z"/>
  <path d="M60.50 79.50 c0 -0.80 0.40 -0.95 2.90 -1.10 2.65 -0.15 2.90 -0.25 3.60 -1.75 0.95 -2.05 2 -2.15 2 -0.20 0 2.35 -0.50 3.05 -2.05 3.05 -0.80 0 -1.45 0.25 -1.45 0.50 0 0.30 -1.10 0.50 -2.50 0.50 -2.15 0 -2.50 -0.15 -2.50 -1z"/>
  <path d="M70 79.15 c0 -2.20 0.45 -3.15 1.55 -3.15 1.35 0 1.20 1.65 -0.30 3.35 l-1.20 1.40 -0.05 -1.60z"/>
  <path d="M65 73.25 c-0.70 -0.40 -2.30 -1.20 -3.60 -1.75 -2.85 -1.15 -3.10 -2 -0.65 -2 0.95 0 1.75 0.25 1.75 0.50 0 0.30 0.55 0.50 1.25 0.50 0.70 0 1.25 0.25 1.25 0.50 0 0.30 0.45 0.50 1 0.50 0.75 0 1 0.35 1 1.25 0 1.45 -0.25 1.50 -2 0.50z"/>
  <path d="M69.50 72.75 c0 -0.40 -0.35 -0.75 -0.75 -0.75 -0.40 0 -0.75 -0.20 -0.75 -0.45 0 -0.25 -0.55 -0.60 -1.25 -0.75 -0.70 -0.20 -1.25 -0.55 -1.25 -0.80 0 -0.30 -0.55 -0.50 -1.25 -0.50 -0.70 0 -1.25 -0.20 -1.25 -0.50 0 -0.25 -0.55 -0.50 -1.25 -0.50 -1 0 -1.25 -0.25 -1.25 -1.25 l0 -1.25 2.65 1.05 c4.60 1.80 6.80 3 7.85 4.30 1.30 1.70 1.25 2.15 -0.25 2.15 -0.80 0 -1.25 -0.30 -1.25 -0.75z"/>
  <path d="M55.05 67.70 c-1.35 -1.75 -1.30 -2.20 0.20 -2.20 1.10 0 1.25 0.20 1.25 1.75 0 0.95 -0.10 1.75 -0.20 1.75 -0.15 0 -0.70 -0.60 -1.25 -1.30z"/>
  <path d="M67.90 62.65 c-1.80 -1.15 -1.75 -1.65 0.10 -1.65 2.20 0 1.85 -0.70 -0.75 -1.45 -1.25 -0.35 -2.25 -0.85 -2.25 -1.10 0 -0.25 -0.45 -0.45 -1 -0.45 -0.90 0 -1 -0.35 -1 -3.50 0 -3.15 0.10 -3.50 1 -3.50 0.90 0 1 0.35 1 2.95 l0 2.95 1.70 0.30 c0.95 0.20 2.50 1 3.50 1.80 l1.85 1.45 -1.40 1.50 c-1.40 1.50 -1.40 1.50 -2.75 0.70z"/>
  <path d="M54.50 61.25 c0 -1 1.30 -2.35 3 -3.25 2.50 -1.25 3.50 -1.25 3.50 0 0 0.80 -0.35 1 -1.70 1 -1.40 0 -1.75 0.20 -1.90 1.15 -0.10 0.80 -0.55 1.15 -1.50 1.25 -0.80 0.10 -1.40 0 -1.40 -0.15z"/>
 </g>
 <g fill="#07b617">
  <path d="M61 86.30 c0 -3.15 0 -3.25 -1.50 -3.55 -0.80 -0.20 -1.50 -0.60 -1.50 -1 0 -0.45 1.15 -0.65 4.50 -0.65 3.30 0 4.50 0.20 4.50 0.65 0 0.35 -0.45 0.75 -1.05 0.90 -0.55 0.15 -1.15 0.75 -1.30 1.30 -0.15 0.60 -0.60 1.05 -0.95 1.05 -0.40 0 -0.70 0.45 -0.70 1 0 0.55 0.35 1 0.75 1 0.40 0 0.75 0.20 0.75 0.45 0 0.25 0.15 0.80 0.30 1.25 0.25 0.65 -0.10 0.80 -1.75 0.80 l-2.05 0 0 -3.20z"/>
  <path d="M53.60 80.20 l-1.10 -0.75 1.10 -1.60 c0.60 -0.90 1.10 -1.65 1.15 -1.75 0.05 -0.05 1.30 0.50 2.70 1.20 1.95 1.05 3.30 1.35 5.55 1.35 2.60 0 3 0.15 3 0.95 0 0.75 -0.40 0.90 -2.35 0.90 -3.65 0 -6.15 -0.55 -6.15 -1.30 0 -0.40 -0.45 -0.70 -1 -0.70 -0.75 0 -1 0.35 -1 1.25 0 1.45 -0.35 1.55 -1.90 0.45z"/>
  <path d="M67.30 75.35 c-0.15 -0.65 -0.85 -1.45 -1.55 -1.85 -1.70 -0.90 -1.60 -1.50 0.30 -1.50 1.95 0 2.95 1 2.95 2.95 0 1.85 -1.25 2.15 -1.70 0.40z"/>
  <path d="M68.85 72.65 c-0.20 -0.15 -0.35 -0.95 -0.35 -1.75 0 -1.40 0.05 -1.40 1.05 -0.70 0.55 0.40 1.35 1.20 1.75 1.75 0.70 1 0.70 1.05 -0.70 1.05 -0.80 0 -1.60 -0.15 -1.75 -0.35z"/>
  <path d="M60.55 71.15 c-4.90 -2 -7.45 -5.15 -6.70 -8.20 0.45 -1.60 1.50 -1.05 1.80 0.95 0.20 1.05 0.75 2.20 1.35 2.60 0.55 0.40 1 1.10 1 1.60 0 0.70 0.40 0.90 1.75 0.90 0.95 0 1.75 0.25 1.75 0.50 0 0.30 0.55 0.50 1.25 0.50 1 0 1.25 0.25 1.25 1.25 0 0.70 -0.05 1.25 -0.10 1.25 -0.10 -0.05 -1.60 -0.65 -3.35 -1.35z"/>
  <path d="M64 69.50 c0 -0.25 -0.55 -0.50 -1.25 -0.50 -1 0 -1.25 -0.25 -1.25 -1.25 l0 -1.25 2.60 1.05 c3.15 1.25 3.40 1.40 3.40 2 0 0.25 -0.80 0.45 -1.75 0.45 -0.95 0 -1.75 -0.20 -1.75 -0.50z"/>
  <path d="M57 63.75 c0 -1.90 0.15 -2.25 1 -2.25 0.55 0 1 -0.30 1 -0.70 0 -0.55 -0.50 -0.65 -2.05 -0.45 -2 0.30 -2.05 0.25 -1.35 -0.80 0.35 -0.60 1.70 -1.45 3.05 -1.95 l2.35 -0.85 0 -2.85 0 -2.90 1.70 0 c0.95 0 1.85 0.20 2 0.40 0.45 0.75 -0.30 2.60 -1 2.60 -0.40 0 -0.70 0.25 -0.70 0.50 0 0.30 0.30 0.50 0.70 0.50 0.35 0 0.80 0.45 0.95 1 0.15 0.55 0.60 1 1.05 1 0.45 0 0.80 0.35 0.80 0.80 0 0.70 -0.40 0.80 -2.50 0.55 -1.35 -0.15 -2.50 -0.10 -2.50 0.15 0 0.25 -0.60 0.55 -1.35 0.65 -1.15 0.15 -1.05 0.20 0.50 0.30 2.30 0.05 2.40 1.05 0.20 2.05 -1.75 0.80 -2.35 2.55 -1.35 3.80 0.50 0.60 0.35 0.70 -0.95 0.70 -1.50 0 -1.55 -0.05 -1.55 -2.25z"/>
  <path d="M69 61.75 c0 -1.80 1 -2.75 2.10 -2.10 0.75 0.50 0.75 0.65 -0.15 1.95 -1.25 1.75 -1.95 1.80 -1.95 0.15z"/>
 </g>
 <g fill="#535253">
  <path d="M67.50 202.75 l0 -1.75 45 0 45 0 0 1.75 0 1.75 -45 0 -45 0 0 -1.75z"/>
  <path d="M52 202.80 c-3.95 -0.90 -6.50 -1.80 -6.50 -2.35 0 -0.25 -0.45 -0.45 -1 -0.45 -0.50 0 -1.55 -0.25 -2.25 -0.60 -0.95 -0.45 -1.25 -0.95 -1.25 -2.25 0 -1.50 0.15 -1.65 1.50 -1.65 1.60 0 4 0.95 4 1.60 0 0.20 0.40 0.40 0.90 0.40 0.55 0 2.20 0.45 3.70 0.95 1.55 0.55 4.30 1.10 6.10 1.30 l3.30 0.35 0 1.70 0 1.70 -2.85 -0.05 c-1.60 -0.05 -4.15 -0.35 -5.65 -0.65z"/>
  <path d="M164.50 201.80 l0 -1.65 3.15 -0.30 c3.10 -0.30 8.80 -2 11.75 -3.55 0.85 -0.45 2.25 -0.80 3.10 -0.80 1.40 0 1.50 0.15 1.50 1.70 0 1.65 -0.10 1.75 -3.70 3.25 -4.30 1.80 -9.80 3.05 -13.35 3.05 -2.45 0 -2.45 0 -2.45 -1.70z"/>
  <path d="M58.50 196.50 c0 -1.05 1.15 -1.30 3.40 -0.70 2.05 0.55 1.30 1.70 -1.15 1.70 -1.90 0 -2.25 -0.15 -2.25 -1z"/>
  <path d="M162 196.80 c0 -0.70 1.45 -1.30 3.40 -1.30 0.75 0 1.10 0.30 1.10 1 0 0.85 -0.35 1 -2.25 1 -1.60 0 -2.25 -0.20 -2.25 -0.70z"/>
  <path d="M51.40 196.35 c-1.95 -0.40 -2.40 -0.70 -2.40 -1.60 l0 -1.05 4 0.95 c2.60 0.65 4 1.20 4 1.65 0 0.80 -2 0.85 -5.60 0.05z"/>
  <path d="M168 196.30 c0 -0.45 1.40 -1 4 -1.65 l4 -0.95 0 1.05 c0 0.90 -0.45 1.15 -2.90 1.65 -3.80 0.80 -5.10 0.75 -5.10 -0.10z"/>
  <path d="M37 194.75 c0 -1.65 0.10 -1.75 1.75 -1.75 1.65 0 1.75 0.10 1.75 1.75 0 1.65 -0.10 1.75 -1.75 1.75 -1.65 0 -1.75 -0.10 -1.75 -1.75z"/>
  <path d="M184.50 194.75 c0 -1.25 0.25 -1.90 0.90 -2.10 0.45 -0.20 1.25 -0.85 1.75 -1.50 0.65 -0.80 1.45 -1.15 2.65 -1.15 1.60 0 1.70 0.10 1.70 1.65 0 1.65 -1.20 3.35 -2.35 3.35 -0.30 0 -0.65 0.35 -0.85 0.75 -0.15 0.45 -0.95 0.75 -2.05 0.75 -1.65 0 -1.75 -0.10 -1.75 -1.75z"/>
  <path d="M177 193.60 c0 -0.35 4.65 -3.10 5.25 -3.10 0.15 0 0.25 0.55 0.25 1.25 0 0.90 -0.25 1.25 -1 1.25 -0.55 0 -1 0.25 -1 0.50 0 0.30 -0.80 0.50 -1.75 0.50 -0.95 0 -1.75 -0.20 -1.75 -0.40z"/>
  <path d="M42.50 191.75 c0 -1.50 0.15 -1.50 2.05 -0.40 1.90 1.15 1.85 1.65 -0.30 1.65 -1.55 0 -1.75 -0.15 -1.75 -1.25z"/>
  <path d="M34 183.70 c0 -1.95 0.45 -1.90 2 0.30 l1.05 1.50 -1.50 0 c-1.45 0 -1.55 -0.15 -1.55 -1.80z"/>
  <path d="M189 184 c1.55 -2.20 2 -2.25 2 -0.30 0 1.65 -0.10 1.80 -1.55 1.80 l-1.50 0 1.05 -1.50z"/>
  <path d="M196.50 180.25 c0 -1.65 0.10 -1.75 1.75 -1.75 1.65 0 1.75 0.10 1.75 1.75 0 1.65 -0.10 1.75 -1.75 1.75 -1.65 0 -1.75 -0.10 -1.75 -1.75z"/>
  <path d="M30 176.70 c0 -2.20 0.90 -2.10 1.85 0.20 0.65 1.55 0.60 1.60 -0.60 1.60 -1.10 0 -1.25 -0.20 -1.25 -1.80z"/>
  <path d="M194 174.90 c0 -0.35 0.20 -1.45 0.45 -2.40 0.25 -0.95 0.60 -2.60 0.80 -3.60 0.15 -1.20 0.55 -1.90 1 -1.90 0.90 0 0.95 1.75 0.20 5.65 -0.45 2.25 -0.80 2.85 -1.50 2.85 -0.55 0 -0.95 -0.30 -0.95 -0.60z"/>
  <path d="M28 169 c0 -2.25 1.15 -2.85 1.70 -0.85 0.55 2.05 0.35 2.85 -0.70 2.85 -0.85 0 -1 -0.35 -1 -2z"/>
  <path d="M27.50 163.50 c0 -1.80 0.20 -2.50 0.70 -2.50 0.75 0 1.30 1.50 1.30 3.65 0 1 -0.25 1.35 -1 1.35 -0.85 0 -1 -0.35 -1 -2.50z"/>
  <path d="M195.50 164.65 c0 -2.15 0.55 -3.65 1.30 -3.65 0.50 0 0.70 0.70 0.70 2.50 0 2.15 -0.15 2.50 -1 2.50 -0.75 0 -1 -0.35 -1 -1.35z"/>
  <path d="M195.30 57.90 c-0.55 -2.10 -0.35 -2.90 0.70 -2.90 0.85 0 1 0.35 1 2 0 2.25 -1.15 2.85 -1.70 0.90z"/>
  <path d="M28 56.75 c0 -1.40 0.20 -1.75 1 -1.75 1.05 0 1.20 0.50 0.70 2.40 -0.50 1.80 -1.70 1.35 -1.70 -0.65z"/>
  <path d="M30.50 47.25 c0 -1.55 0.15 -1.75 1.25 -1.75 1.45 0 1.50 0.10 0.50 2 -1.05 2 -1.75 1.90 -1.75 -0.25z"/>
  <path d="M45.50 31.75 c0 -1.10 0.20 -1.25 1.75 -1.25 2.15 0 2.25 0.70 0.25 1.75 -1.90 1 -2 0.95 -2 -0.50z"/>
  <path d="M50 30 c0 -0.80 0.35 -1 1.75 -1 2 0 2.45 1.20 0.65 1.70 -1.90 0.50 -2.40 0.35 -2.40 -0.70z"/>
  <path d="M172.40 30.65 c-1.65 -0.40 -1 -1.65 0.85 -1.65 1.40 0 1.75 0.20 1.75 1 0 1 -0.70 1.15 -2.60 0.65z"/>
 </g>
 <g fill="#09d520">
  <path d="M61.50 83.75 c0 -0.45 -0.70 -0.85 -1.85 -1.05 -2.30 -0.40 -6.65 -2.65 -6.65 -3.40 0 -0.95 1.50 -2.80 2.30 -2.80 0.40 0 0.70 0.50 0.70 1.15 0 1.45 0.50 2.15 1.90 2.45 0.85 0.25 1.10 0.10 1.10 -0.70 0 -0.90 0.20 -1 2.25 -0.65 3.05 0.45 5.65 -0.45 6.05 -2.05 0.15 -0.65 0.60 -1.20 1 -1.20 0.90 0 0.95 3.30 0.10 3.65 -0.35 0.15 0.10 0.30 1.05 0.30 1.45 0.05 1.60 0.15 1 0.85 -0.85 1.05 -3.20 2.20 -4.45 2.20 -0.65 0 -1.20 0.40 -1.35 1 -0.45 1.70 -1.65 1.20 -1.65 -0.70 0 -1.50 0.20 -1.75 1.40 -1.95 0.75 -0.10 -0.10 -0.20 -1.90 -0.20 -1.80 0 -2.50 0.10 -1.60 0.20 1.45 0.20 1.60 0.35 1.60 1.95 0 0.95 -0.20 1.70 -0.50 1.70 -0.25 0 -0.50 -0.35 -0.50 -0.75z"/>
  <path d="M70.50 77.55 c0 -0.75 -0.15 -2.45 -0.30 -3.75 -0.30 -2.15 -0.45 -2.30 -1.75 -2.30 -1.20 0 -1.45 -0.20 -1.45 -1.25 0 -1.80 0.85 -1.55 3.30 0.95 1.80 1.80 2.20 2.50 2.20 4 0 2 -0.75 3.80 -1.50 3.80 -0.30 0 -0.50 -0.65 -0.50 -1.45z"/>
  <path d="M64.40 72.70 c-1.90 -1 -1.75 -1.70 0.35 -1.70 1.55 0 1.75 0.15 1.75 1.25 0 1.45 -0.25 1.50 -2.10 0.45z"/>
  <path d="M58.75 70.30 c-0.80 -0.35 -2.15 -1.30 -2.95 -2.10 l-1.45 -1.45 1.55 -0.15 c1.55 -0.15 1.55 -0.20 1.70 -3.25 0.15 -3.10 0.15 -3.10 1.80 -3.25 0.85 -0.10 1.60 -0.40 1.60 -0.70 0 -0.25 -0.35 -0.35 -0.80 -0.20 -0.45 0.15 -1.45 0.30 -2.25 0.30 -1.20 0 -1.45 0.20 -1.45 1.20 0 1.85 -0.50 2.80 -1.55 2.80 -2.80 0 1.25 -5.50 4.55 -6.15 1 -0.25 1.70 -0.70 1.85 -1.35 0.15 -0.55 0.60 -1 1 -1 0.60 0 0.70 0.45 0.55 1.95 -0.15 1.90 -0.10 2 1.60 2.30 0.95 0.15 2.15 0.40 2.65 0.55 0.45 0.15 0.85 0.05 0.85 -0.25 0 -0.30 -0.80 -0.55 -1.75 -0.55 -1.40 0 -1.75 -0.20 -1.75 -1 0 -1.25 1.10 -1.25 3.75 -0.05 2.95 1.35 3.50 2.20 2.50 3.75 -1.05 1.55 -1.05 1.55 -3.80 0.30 -3.15 -1.40 -6 -1.30 -7.45 0.25 -1.60 1.75 -1.05 2.60 3 4.60 3.80 1.85 4.30 2.65 1.80 2.65 -1 0 -1.80 -0.20 -1.80 -0.50 0 -0.25 -0.45 -0.50 -0.95 -0.50 -0.65 0 -1.05 0.40 -1.15 1.20 -0.15 1.15 -0.25 1.20 -1.65 0.60z m0.25 -2.80 c0 -0.25 -0.35 -0.50 -0.75 -0.50 -0.40 0 -0.75 0.25 -0.75 0.50 0 0.30 0.35 0.50 0.75 0.50 0.40 0 0.75 -0.20 0.75 -0.50z"/>
  <path d="M61.35 52.55 c-0.30 -1.20 0 -1.55 1.25 -1.55 0.70 0 0.95 0.30 0.80 1.10 -0.20 1.45 -1.70 1.80 -2.05 0.45z"/>
 </g>
 <g fill="#05ec19">
  <path d="M61.40 86.15 c-0.15 -3.20 -0.20 -3.40 -1.40 -3.55 -2.45 -0.30 -7.05 -2.60 -7 -3.50 0.05 -0.20 0.50 -0.90 1 -1.55 l1 -1.20 3.05 1.40 c2.45 1.05 3.60 1.30 5.50 1.15 2.90 -0.30 3.95 -1.05 3.95 -2.95 0 -1.70 -1.30 -2.65 -6.25 -4.70 -4.65 -1.90 -7.25 -4.45 -7.25 -7.05 0 -3.40 2.20 -5.95 5.75 -6.70 1.45 -0.25 1.50 -0.45 1.75 -3.25 0.25 -2.85 0.35 -3 1.65 -3.15 1.35 -0.15 1.35 -0.15 1.35 2.80 l0 3 2.15 0.55 c1.20 0.25 2.80 1.10 3.55 1.80 l1.40 1.30 -1.10 1.20 c-1.10 1.15 -1.10 1.15 -3.15 0.25 -3.40 -1.50 -6.35 -1.50 -7.85 0 -2.10 2.10 -0.70 3.75 4.70 5.75 4.15 1.55 6.50 3.20 7.60 5.35 0.90 1.75 0.70 4.35 -0.55 6.20 -0.85 1.35 -4.20 3.20 -5.75 3.20 -0.90 0 -1 0.30 -1 3.50 l0 3.50 -1.50 0 c-1.45 0 -1.45 0 -1.60 -3.35z"/>
 </g>
 <g fill="#666666">
  <path d="M60.25 203.90 c-6.65 -0.50 -11.85 -1.60 -15 -3.15 -1.45 -0.70 -2.85 -1.25 -3.15 -1.25 -0.35 0 -0.60 -0.20 -0.60 -0.45 0 -0.25 -0.50 -0.55 -1.15 -0.75 -0.60 -0.15 -1.60 -0.70 -2.20 -1.30 -0.60 -0.55 -1.30 -1 -1.55 -1 -0.95 0 -7.55 -7.45 -9.50 -10.75 -2.55 -4.30 -4.60 -9.70 -4.60 -12 0 -1.65 0.10 -1.75 1.65 -1.75 1.50 0 1.65 0.15 2.85 3.35 1.40 3.70 3.70 7.65 4.50 7.65 0.25 0 0.50 -0.80 0.50 -1.75 0 -0.95 0.15 -1.75 0.40 -1.75 0.20 0 1.10 1.20 2 2.70 2.35 4 7.60 8.55 12.35 10.75 7.25 3.45 4.60 3.30 65.75 3.30 61.15 0 58.50 0.15 65.75 -3.30 4.75 -2.20 10 -6.75 12.35 -10.75 0.90 -1.50 1.80 -2.70 2 -2.70 0.25 0 0.40 0.80 0.40 1.75 0 1.55 0.10 1.70 0.90 1.30 0.90 -0.50 4.30 -6.85 4.85 -9.20 0.30 -1.15 0.65 -1.35 2.05 -1.35 1.60 0 1.70 0.10 1.70 1.65 0 3 -2.80 9.70 -6.15 14.60 -1.25 1.85 -7.75 8.25 -8.40 8.25 -0.25 0 -0.45 0.20 -0.45 0.45 0 0.80 -10.40 5.60 -13.80 6.30 -1.90 0.40 -5.70 0.85 -8.45 1.05 -7.25 0.45 -99.05 0.50 -105 0.10z m74.15 -1.25 c-12.05 -0.10 -31.75 -0.10 -43.75 0 -12.05 0.05 -2.20 0.10 21.85 0.10 24.05 0 33.90 -0.05 21.90 -0.10z m-76 -1 c-0.50 -0.10 -1.30 -0.10 -1.75 0 -0.50 0.15 -0.10 0.25 0.85 0.25 0.95 0 1.35 -0.10 0.90 -0.25z m110 0 c-0.50 -0.10 -1.30 -0.10 -1.75 0 -0.50 0.15 -0.10 0.25 0.85 0.25 0.95 0 1.35 -0.10 0.90 -0.25z"/>
  <path d="M193.65 175.50 c1.25 -3.35 2.35 -3.95 2.35 -1.25 0 0.95 -0.20 1.75 -0.50 1.75 -0.25 0 -0.50 0.55 -0.50 1.25 0 1 -0.25 1.25 -1.20 1.25 l-1.25 0 1.10 -3z"/>
  <path d="M28.60 173.10 c-0.80 -3.80 -0.75 -5.10 0.10 -5.10 0.45 0 1 1.40 1.65 4 l0.95 4 -1.05 0 c-0.90 0 -1.15 -0.45 -1.65 -2.90z"/>
  <path d="M195 170.90 c0 -1.50 0.65 -2.90 1.30 -2.90 0.45 0 0.70 0.60 0.70 1.75 0 1.40 -0.20 1.75 -1 1.75 -0.55 0 -1 -0.30 -1 -0.60z"/>
  <path d="M27.50 164.25 c0 -1.65 0.20 -2.25 0.75 -2.25 0.40 0 0.75 0.15 0.75 0.40 0.05 0.20 0.15 1.20 0.30 2.25 0.25 1.65 0.15 1.85 -0.75 1.85 -0.90 0 -1.05 -0.30 -1.05 -2.25z"/>
  <path d="M195.70 164.40 c0.15 -1.20 0.25 -2.30 0.25 -2.50 0.05 -0.25 0.40 -0.40 0.80 -0.40 0.55 0 0.75 0.60 0.75 2.50 0 2.20 -0.15 2.50 -1 2.50 -0.95 0 -1 -0.25 -0.80 -2.10z"/>
  <path d="M200.50 163.25 l0 -2.75 1.75 0 1.75 0 0 2.75 0 2.75 -1.75 0 -1.75 0 0 -2.75z"/>
  <path d="M27.50 62.25 c0 -1.40 0.20 -1.75 1 -1.75 1.05 0 1.20 0.50 0.70 2.40 -0.50 1.80 -1.70 1.35 -1.70 -0.65z"/>
  <path d="M192.75 47.50 c-1 -1.90 -0.95 -2 0.50 -2 1.10 0 1.25 0.20 1.25 1.75 0 2.15 -0.70 2.25 -1.75 0.25z"/>
  <path d="M31 46.25 c0 -1.55 0.15 -1.75 1.30 -1.75 0.70 0 1.20 0.15 1.10 0.40 -1.75 3.65 -2.40 4 -2.40 1.35z"/>
  <path d="M34.50 40.80 c0 -1.65 0.10 -1.80 1.55 -1.80 l1.50 0 -1.05 1.50 c-1.55 2.20 -2 2.25 -2 0.30z"/>
  <path d="M39 36.05 c0 -1.45 0.15 -1.55 1.80 -1.55 1.95 0 1.90 0.45 -0.30 2 l-1.50 1.05 0 -1.50z"/>
  <path d="M184 36 l-1.75 -1.45 1.90 -0.05 c1.75 0 1.85 0.10 1.85 1.50 0 0.85 -0.05 1.50 -0.15 1.50 -0.05 0 -0.90 -0.65 -1.85 -1.50z"/>
  <path d="M177.40 32.20 c-1.90 -1 -1.75 -1.70 0.35 -1.70 1.55 0 1.75 0.15 1.75 1.25 0 1.45 -0.25 1.50 -2.10 0.45z"/>
  <path d="M55 29 c0 -0.80 0.35 -1 1.75 -1 2 0 2.45 1.20 0.65 1.70 -1.90 0.50 -2.40 0.35 -2.40 -0.70z"/>
  <path d="M167.40 29.65 c-1.65 -0.40 -1 -1.65 0.85 -1.65 1.40 0 1.75 0.20 1.75 1 0 1 -0.70 1.15 -2.60 0.65z"/>
  <path d="M60.50 28.50 c0 -0.80 0.35 -1 1.75 -1 2 0 2.45 1.20 0.65 1.70 -1.90 0.50 -2.40 0.35 -2.40 -0.70z"/>
  <path d="M161.90 29.15 c-1.65 -0.40 -1 -1.65 0.85 -1.65 1.40 0 1.75 0.20 1.75 1 0 1 -0.70 1.15 -2.60 0.65z"/>
 </g>
 <g fill="#737576">
  <path d="M62.50 203.50 c0 -0.80 0.35 -1 1.65 -1 2.35 0 3.85 0.50 3.85 1.30 0 0.50 -0.75 0.70 -2.75 0.70 -2.40 0 -2.75 -0.10 -2.75 -1z"/>
  <path d="M157 203.80 c0 -0.80 1.50 -1.30 3.90 -1.30 1.25 0 1.60 0.20 1.60 1 0 0.90 -0.35 1 -2.75 1 -2 0 -2.75 -0.20 -2.75 -0.70z"/>
  <path d="M57.50 203 c0 -1.05 0.80 -1.25 2.90 -0.70 1.95 0.55 1.35 1.70 -0.90 1.70 -1.65 0 -2 -0.15 -2 -1z"/>
  <path d="M163.50 203.30 c0 -0.35 0.50 -0.80 1.15 -1 2.05 -0.55 2.85 -0.35 2.85 0.70 0 0.85 -0.35 1 -2 1 -1.35 0 -2 -0.20 -2 -0.70z"/>
  <path d="M52.15 203.15 c-0.90 -0.10 -1.65 -0.40 -1.65 -0.70 0 -0.25 -0.80 -0.45 -1.75 -0.45 -1.20 0 -1.75 -0.25 -1.75 -0.75 0 -0.50 -0.50 -0.75 -1.70 -0.75 -0.95 0 -2.05 -0.30 -2.40 -0.65 -0.35 -0.40 -1.30 -0.85 -2.05 -1.05 -0.75 -0.15 -1.35 -0.55 -1.35 -0.80 0 -0.30 -0.35 -0.50 -0.75 -0.50 -0.40 0 -0.75 -0.20 -0.75 -0.50 0 -0.25 -0.35 -0.50 -0.75 -0.50 -0.40 0 -0.75 -0.45 -0.75 -1 0 -0.70 -0.35 -1 -1.15 -1 -1.45 0 -4.35 -2.95 -4.35 -4.40 0 -0.75 -0.30 -1.10 -1 -1.10 -0.55 0 -1 -0.35 -1 -0.75 0 -0.40 -0.20 -0.75 -0.50 -0.75 -0.25 0 -0.50 -0.35 -0.50 -0.75 0 -0.40 -0.20 -0.75 -0.50 -0.75 -0.25 0 -0.65 -0.60 -0.80 -1.35 -0.40 -1.75 -1.60 -4.15 -2.50 -5.05 -0.40 -0.35 -0.70 -1.25 -0.70 -2 0 -0.75 -0.30 -1.95 -0.70 -2.70 -0.80 -1.50 -1.80 -8.70 -1.80 -12.75 l0 -2.65 1.75 0 c1.55 0 1.80 0.15 2.05 1.50 0.30 1.35 0.50 1.50 2.25 1.50 l1.90 0 0.30 2.90 c0.55 5.45 1.40 8.85 3.05 12.50 1.95 4.30 5.80 9.35 8.70 11.35 1.10 0.75 1.90 1.50 1.80 1.60 -0.35 0.35 -2.25 -0.80 -3.70 -2.25 -3.70 -3.75 -5.10 -4.60 -7.35 -4.60 -2.50 0 -3.25 -0.80 -5.45 -5.55 -0.65 -1.50 -1.25 -2.45 -1.25 -2.15 -0.10 0.95 4.30 8.95 4.85 8.85 0.30 -0.10 0.45 0.20 0.30 0.55 -0.35 0.85 5.60 7.30 8.65 9.40 4.65 3.20 10.90 5.75 16.30 6.65 1.15 0.20 1.85 0.55 1.85 1 0 0.75 -1.20 0.85 -4.85 0.40z"/>
  <path d="M168 202.85 c0 -0.55 0.65 -0.90 1.90 -1.10 5 -0.85 11.85 -3.60 15.70 -6.30 1.70 -1.25 1.75 -1.20 1.50 0.55 -0.10 0.85 -0.50 1.50 -0.90 1.50 -0.40 0 -0.70 0.20 -0.70 0.40 0 0.70 -4.45 2.60 -6 2.60 -1 0 -1.50 0.25 -1.50 0.75 0 0.50 -0.50 0.75 -1.70 0.75 -0.95 0 -1.80 0.20 -1.90 0.45 -0.05 0.25 -1.55 0.65 -3.25 0.85 -2.70 0.30 -3.15 0.20 -3.15 -0.45z"/>
  <path d="M56.75 195.95 c-0.55 -0.20 1.35 -0.25 4.25 -0.10 2.90 0.15 5.35 0.40 5.50 0.50 0.40 0.40 -8.75 0 -9.75 -0.40z"/>
  <path d="M82.15 196.15 c0.45 -0.10 1.25 -0.10 1.75 0 0.45 0.15 0.05 0.25 -0.90 0.25 -0.95 0 -1.35 -0.10 -0.85 -0.25z"/>
  <path d="M160.90 196.15 c0.90 -0.10 2.25 -0.10 3 0 0.75 0.10 0 0.20 -1.65 0.20 -1.65 0 -2.25 -0.10 -1.35 -0.20z"/>
  <path d="M166.40 195.65 c0.60 -0.10 1.50 -0.10 2 0 0.45 0.15 -0.05 0.25 -1.15 0.20 -1.10 0 -1.50 -0.10 -0.85 -0.20z"/>
  <path d="M49.25 194.25 c-1.90 -0.70 -3.80 -1.15 -4.15 -1 -0.35 0.15 -0.55 0.05 -0.45 -0.15 0.35 -0.50 -0.95 -1.60 -1.45 -1.20 -0.20 0.20 -0.20 0.10 0 -0.25 0.25 -0.45 0.85 -0.35 2.30 0.40 1.10 0.60 3.55 1.60 5.40 2.20 1.85 0.65 3 1.20 2.60 1.20 -0.40 0 -2.30 -0.55 -4.25 -1.20z"/>
  <path d="M171.75 195 c0.55 -0.25 1.35 -0.45 1.75 -0.45 0.45 0 0.40 0.20 -0.25 0.45 -0.55 0.25 -1.35 0.45 -1.75 0.45 -0.45 0 -0.40 -0.20 0.25 -0.45z"/>
  <path d="M175 194.15 c0.40 -0.15 2.10 -0.95 3.75 -1.75 l3 -1.45 -1.20 1.25 c-0.65 0.70 -1.40 1.15 -1.60 1 -0.25 -0.15 -1.10 0.10 -1.90 0.55 -0.85 0.40 -1.80 0.75 -2.15 0.70 -0.45 0 -0.40 -0.10 0.10 -0.30z"/>
  <path d="M190.85 190.90 c3.85 -3.95 7.90 -10.25 8.85 -13.90 0.20 -0.70 -0.45 0.35 -1.45 2.25 -2.20 4.30 -3.30 5.20 -5.70 4.90 -1.60 -0.20 -2.10 0.05 -4.45 2.25 -3.25 3.10 -4.80 3.80 -1.90 0.95 2.75 -2.75 5.05 -6.20 6.80 -10 1.25 -2.85 1.65 -4.60 2.85 -12.10 0.40 -2.45 0.45 -2.50 2.25 -2.65 l1.80 -0.15 0.35 -3 0.35 -2.95 1.70 0 1.70 0 0 4.15 c0 4.70 -0.80 12.10 -1.45 13.60 -0.25 0.55 -0.60 1.85 -0.80 2.90 -0.15 1 -0.50 1.85 -0.70 1.85 -0.60 0 -2.55 3.80 -2.55 5 0 0.50 -0.35 1.25 -0.75 1.70 -0.40 0.40 -0.75 0.95 -0.75 1.25 0 0.30 -0.20 0.55 -0.50 0.55 -0.25 0 -0.50 0.35 -0.50 0.75 0 0.40 -0.45 0.75 -1 0.75 -0.70 0 -1 0.35 -1 1.15 0 1.75 -2.45 3.85 -4.50 3.85 l-1.70 0 3.05 -3.10z"/>
  <path d="M20.50 150 l0 -6.50 1.75 0 1.75 0 0 6.50 0 6.50 -1.75 0 -1.75 0 0 -6.50z"/>
  <path d="M201 149.25 l0 -5.75 1.75 0 1.75 0 0 5.75 0 5.75 -1.75 0 -1.75 0 0 -5.75z"/>
  <path d="M195.80 62.90 c-0.55 -2.10 -0.35 -2.90 0.70 -2.90 0.85 0 1 0.35 1 2 0 2.25 -1.15 2.85 -1.70 0.90z"/>
  <path d="M28 56.25 c0 -1.40 0.20 -1.75 1 -1.75 1.05 0 1.20 0.50 0.70 2.40 -0.50 1.80 -1.70 1.35 -1.70 -0.65z"/>
  <path d="M29 51.25 c0 -1.50 0.15 -1.75 1.20 -1.75 1.15 0 1.20 0.10 0.65 1.75 -0.30 0.95 -0.80 1.75 -1.20 1.75 -0.40 0 -0.65 -0.65 -0.65 -1.75z"/>
  <path d="M194.15 51.25 c-0.55 -1.65 -0.50 -1.75 0.65 -1.75 1.05 0 1.20 0.25 1.20 1.75 0 1.10 -0.25 1.75 -0.65 1.75 -0.40 0 -0.90 -0.80 -1.20 -1.75z"/>
  <path d="M192.50 46.65 c-0.40 -0.80 -0.80 -1.55 -0.90 -1.75 -0.10 -0.25 0.40 -0.40 1.10 -0.40 1.15 0 1.30 0.20 1.30 1.75 0 2.10 -0.60 2.25 -1.50 0.40z"/>
  <path d="M33 42.75 c0 -1.60 0.10 -1.75 1.50 -1.75 l1.50 0 -1.10 1.75 c-1.45 2.20 -1.90 2.20 -1.90 0z"/>
  <path d="M188.90 41 l-1.40 -1.75 1.30 -0.15 c1.65 -0.20 1.80 -0.05 1.60 1.95 l-0.15 1.70 -1.35 -1.75z"/>
  <path d="M41 34.50 c0 -1.40 0.15 -1.50 1.75 -1.50 1.40 0 1.75 -0.20 1.75 -1 0 -0.80 0.35 -1 1.75 -1 2.10 0 2.25 0.60 0.40 1.55 -0.80 0.35 -2.35 1.30 -3.50 2.10 l-2.15 1.40 0 -1.55z"/>
  <path d="M182 34.70 c-0.95 -0.70 -2.50 -1.60 -3.35 -2.05 -2.15 -1 -2.10 -1.65 0.10 -1.65 1.40 0 1.75 0.20 1.75 1 0 0.80 0.35 1 1.75 1 1.60 0 1.75 0.10 1.75 1.50 0 0.85 -0.05 1.50 -0.10 1.50 -0.10 -0.05 -0.95 -0.60 -1.90 -1.30z"/>
  <path d="M162.40 29.15 c-1.65 -0.40 -1 -1.65 0.85 -1.65 1.40 0 1.75 0.20 1.75 1 0 1 -0.70 1.15 -2.60 0.65z"/>
 </g>
 <g fill="#808688">
  <path d="M62 203.50 c0 -1.05 0.50 -1.20 2.40 -0.70 1.80 0.50 1.35 1.70 -0.65 1.70 -1.40 0 -1.75 -0.20 -1.75 -1z"/>
  <path d="M159.50 203.80 c0 -0.65 1.40 -1.30 2.90 -1.30 0.30 0 0.60 0.45 0.60 1 0 0.80 -0.35 1 -1.75 1 -1.15 0 -1.75 -0.25 -1.75 -0.70z"/>
  <path d="M56.50 203 c0 -1.05 0.80 -1.25 2.90 -0.70 1.95 0.55 1.35 1.70 -0.90 1.70 -1.65 0 -2 -0.15 -2 -1z"/>
  <path d="M164.50 203.30 c0 -0.75 0.85 -1 5.15 -1.55 2.10 -0.30 2.35 -0.20 2.35 0.65 0 0.80 -0.50 1 -2.60 1.30 -3.95 0.45 -4.90 0.40 -4.90 -0.40z"/>
  <path d="M44.50 199.75 c0 -1.20 0.05 -1.25 1.60 -0.60 2.30 0.95 2.40 1.85 0.20 1.85 -1.60 0 -1.80 -0.15 -1.80 -1.25z"/>
  <path d="M186.50 194.95 c0.95 -0.85 2.40 -2 3.15 -2.55 l1.40 -1 -0.15 1.65 c-0.10 1.30 -0.40 1.75 -1.25 1.85 -0.65 0.10 -1.15 0.50 -1.15 0.90 0 0.50 -0.55 0.70 -1.85 0.70 l-1.90 -0.05 1.75 -1.50z"/>
  <path d="M34.50 193.45 l0 -1.50 1.50 1.05 c2.20 1.55 2.25 2 0.30 2 -1.65 0 -1.80 -0.10 -1.80 -1.55z"/>
  <path d="M30.50 189.75 c0 -0.90 -0.25 -1.25 -1 -1.25 -0.55 0 -1 -0.35 -1 -0.75 0 -0.40 -0.20 -0.75 -0.50 -0.75 -0.25 0 -0.50 -0.80 -0.50 -1.75 0 -1.35 -0.20 -1.75 -0.90 -1.75 -1.10 0 -2.10 -1.95 -2.10 -4 0 -2.35 0.85 -1.75 2.70 1.90 1.45 2.90 3.15 5.45 5.95 9 0.35 0.45 0.10 0.60 -1.10 0.60 -1.30 0 -1.55 -0.20 -1.55 -1.25z"/>
  <path d="M191.85 190.40 c2.80 -3.55 4.50 -6.10 5.95 -9 1.85 -3.65 2.70 -4.25 2.70 -1.90 0 1.85 -1.45 5 -2.35 5 -0.35 0 -0.65 0.55 -0.65 1.25 0 0.70 -0.20 1.25 -0.50 1.25 -0.25 0 -0.50 0.35 -0.50 0.75 0 0.40 -0.45 0.75 -1 0.75 -0.75 0 -1 0.35 -1 1.25 0 1.05 -0.25 1.25 -1.55 1.25 -1.20 0 -1.45 -0.15 -1.10 -0.60z"/>
  <path d="M22.80 176.40 c-0.95 -3.65 0.55 -5.50 1.60 -1.95 0.80 2.60 0.75 3.05 -0.35 3.05 -0.55 0 -1.05 -0.45 -1.25 -1.10z"/>
  <path d="M200.50 175.40 c0 -1.50 0.65 -2.90 1.30 -2.90 0.45 0 0.70 0.60 0.70 1.75 0 1.40 -0.20 1.75 -1 1.75 -0.55 0 -1 -0.30 -1 -0.60z"/>
  <path d="M29.80 172.70 c-0.20 -0.70 -0.25 -1.40 -0.15 -1.55 0.15 -0.10 0.40 0.40 0.55 1.15 0.20 0.70 0.25 1.40 0.15 1.55 -0.15 0.10 -0.40 -0.40 -0.55 -1.15z"/>
  <path d="M21.25 168.40 c-0.15 -1.75 -0.25 -3.80 -0.25 -4.65 0 -0.80 -0.10 -7.95 -0.25 -15.85 l-0.25 -14.40 1.75 0 1.75 0 0 4.50 0 4.50 2.50 0 2.50 0 0 9.90 c0 5.50 0.10 11.60 0.20 13.65 0.10 2.05 0.10 3.10 -0.05 2.35 -0.10 -0.80 -0.40 -1.40 -0.65 -1.40 -0.25 0 -0.50 -0.60 -0.60 -1.35 -0.15 -1.25 -0.35 -1.40 -2.25 -1.55 -1.60 -0.10 -2.15 -0.35 -2.15 -1 0 -0.45 -0.25 -1.20 -0.55 -1.60 -0.50 -0.75 -0.30 4.55 0.40 8.40 0.20 1.35 0.10 1.60 -0.75 1.60 -0.90 0 -1.05 -0.40 -1.35 -3.10z m1.10 -21 c-0.10 -1.45 -0.15 -0.30 -0.15 2.60 0 2.90 0.05 4.05 0.15 2.65 0.10 -1.45 0.10 -3.85 0 -5.25z"/>
  <path d="M201.70 169.90 c0.20 -0.90 0.40 -4 0.55 -6.90 l0.20 -5.25 -0.60 3.25 c-0.60 3.15 -0.65 3.25 -2.10 3.30 -2.65 0.05 -2.75 0.15 -2.75 1.95 0 0.95 -0.20 1.75 -0.45 1.75 -0.25 0 -0.60 0.50 -0.75 1.15 -0.15 0.60 -0.15 -0.70 0 -2.85 0.10 -2.15 0.20 -8.40 0.20 -13.90 l0 -9.90 2.50 0 2.50 0 0 -4.50 0 -4.50 1.75 0 1.70 0 -0.05 13.15 c-0.05 7.20 -0.20 13.20 -0.40 13.35 -0.60 0.45 -1 3.50 -0.50 3.50 0.55 0 0.65 2.30 0.20 5.70 -0.30 1.85 -0.55 2.30 -1.35 2.30 -0.85 0 -0.95 -0.25 -0.65 -1.60z m1.15 -23.05 c-0.10 -1.15 -0.15 -0.05 -0.15 2.40 0 2.50 0.05 3.40 0.15 2.10 0.10 -1.30 0.10 -3.35 0 -4.50z"/>
  <path d="M27.50 61.25 c0 -1.90 0.15 -2.25 1 -2.25 1.05 0 1.30 1.15 0.70 3.40 -0.55 2.05 -1.70 1.30 -1.70 -1.15z"/>
  <path d="M195.80 61.90 c-0.55 -2.10 -0.35 -2.90 0.70 -2.90 0.85 0 1 0.35 1 2 0 2.25 -1.15 2.85 -1.70 0.90z"/>
  <path d="M195.30 56.90 c-0.50 -1.90 -0.35 -2.40 0.70 -2.40 0.80 0 1 0.35 1 1.75 0 2 -1.20 2.45 -1.70 0.65z"/>
  <path d="M28 55.75 c0 -1.40 0.20 -1.75 1 -1.75 1.05 0 1.20 0.50 0.70 2.40 -0.50 1.80 -1.70 1.35 -1.70 -0.65z"/>
  <path d="M29.50 49.80 c0 -1.60 0.15 -1.80 1.25 -1.80 1.20 0 1.25 0.05 0.60 1.60 -0.95 2.30 -1.85 2.40 -1.85 0.20z"/>
  <path d="M194.30 51.05 c-0.15 -0.20 -0.50 -1 -0.75 -1.75 -0.50 -1.20 -0.40 -1.30 0.70 -1.30 1.10 0 1.25 0.20 1.25 1.75 0 1.65 -0.60 2.30 -1.20 1.30z"/>
  <path d="M190.10 42.75 l-1.10 -1.75 1.50 0 c1.40 0 1.50 0.15 1.50 1.75 0 2.20 -0.45 2.20 -1.90 0z"/>
  <path d="M48 30.70 c0 -1.05 0.25 -1.20 1.75 -1.20 1.10 0 1.75 0.25 1.75 0.65 0 0.40 -0.80 0.90 -1.75 1.20 -1.65 0.55 -1.75 0.50 -1.75 -0.65z"/>
  <path d="M175.15 31.40 c-2.25 -0.75 -2.15 -1.90 0.10 -1.90 1.55 0 1.75 0.15 1.75 1.25 0 0.70 -0.05 1.25 -0.10 1.20 -0.10 -0.05 -0.90 -0.30 -1.75 -0.55z"/>
  <path d="M54.50 29 c0 -0.80 0.35 -1 1.75 -1 2 0 2.45 1.20 0.65 1.70 -1.90 0.50 -2.40 0.35 -2.40 -0.70z"/>
  <path d="M167.90 29.65 c-1.65 -0.40 -1 -1.65 0.85 -1.65 1.40 0 1.75 0.20 1.75 1 0 1 -0.70 1.15 -2.60 0.65z"/>
  <path d="M60 28.50 c0 -0.80 0.35 -1 1.75 -1 2 0 2.45 1.20 0.65 1.70 -1.90 0.50 -2.40 0.35 -2.40 -0.70z"/>
 </g>
 <g fill="#8a9294">
  <path d="M61 203.50 c0 -1.05 0.80 -1.25 2.90 -0.70 1.95 0.55 1.35 1.70 -0.90 1.70 -1.65 0 -2 -0.15 -2 -1z"/>
  <path d="M160 203.80 c0 -0.35 0.50 -0.80 1.15 -1 2.05 -0.55 2.85 -0.35 2.85 0.70 0 0.85 -0.35 1 -2 1 -1.35 0 -2 -0.20 -2 -0.70z"/>
  <path d="M54.65 203.65 c-1.25 -0.15 -1.65 -0.45 -1.65 -1.25 0 -0.90 0.20 -0.95 1.90 -0.70 4.05 0.70 4.60 0.90 4.60 1.60 0 0.70 -1.20 0.80 -4.85 0.35z"/>
  <path d="M165.50 203.30 c0 -0.65 1.40 -1.30 2.90 -1.30 0.30 0 0.60 0.45 0.60 1 0 0.80 -0.35 1 -1.75 1 -1.15 0 -1.75 -0.25 -1.75 -0.70z"/>
  <path d="M48.50 201.50 c0 -1.05 0.50 -1.20 2.40 -0.70 1.80 0.50 1.35 1.70 -0.65 1.70 -1.40 0 -1.75 -0.20 -1.75 -1z"/>
  <path d="M173 201.80 c0 -0.65 1.40 -1.30 2.90 -1.30 0.30 0 0.60 0.45 0.60 1 0 0.80 -0.35 1 -1.75 1 -1.15 0 -1.75 -0.25 -1.75 -0.70z"/>
  <path d="M177.10 200.40 c0.15 -0.35 0.95 -0.90 1.80 -1.25 1.55 -0.65 1.60 -0.60 1.60 0.60 0 1.10 -0.20 1.25 -1.80 1.25 -1.15 0 -1.70 -0.20 -1.60 -0.60z"/>
  <path d="M38.50 196.75 c0 -1.10 -0.20 -1.25 -1.75 -1.25 -1.60 0 -1.75 -0.10 -1.75 -1.50 l0 -1.50 3.50 2.35 c1.90 1.35 3.45 2.55 3.50 2.80 0 0.20 -0.80 0.35 -1.75 0.35 -1.55 0 -1.75 -0.15 -1.75 -1.25z"/>
  <path d="M183 197.65 c0 -0.25 0.80 -0.90 1.75 -1.55 l1.75 -1.10 0 1.50 c0 1.40 -0.15 1.50 -1.75 1.50 -0.95 0 -1.75 -0.15 -1.75 -0.35z"/>
  <path d="M26 182.75 c0 -2.15 0.50 -2.20 1.65 -0.30 1.10 1.90 1.10 2.05 -0.40 2.05 -1.10 0 -1.25 -0.20 -1.25 -1.75z"/>
  <path d="M24 178.70 c0 -2.20 0.90 -2.10 1.85 0.20 0.65 1.55 0.60 1.60 -0.60 1.60 -1.10 0 -1.25 -0.20 -1.25 -1.80z"/>
  <path d="M199.15 178.90 c0.95 -2.30 1.85 -2.40 1.85 -0.20 0 1.60 -0.15 1.80 -1.25 1.80 -1.20 0 -1.25 -0.05 -0.60 -1.60z"/>
  <path d="M21.55 171.05 c-0.75 -4.60 -0.70 -5.55 0.20 -5.55 0.40 0 0.75 0.10 0.75 0.20 0 0.10 0.35 2 0.75 4.15 0.95 4.85 0.95 4.65 -0.20 4.65 -0.75 0 -1 -0.65 -1.50 -3.45z"/>
  <path d="M201 174 c0 -1.85 1.20 -5.50 1.80 -5.50 0.75 0 0.85 1.15 0.40 4.15 -0.25 1.35 -0.55 1.85 -1.25 1.85 -0.55 0 -0.95 -0.20 -0.95 -0.50z"/>
  <path d="M20.50 159.75 c0 -2.45 1.15 -3.20 1.70 -1.10 0.60 2.20 0.35 3.35 -0.70 3.35 -0.85 0 -1 -0.35 -1 -2.25z"/>
  <path d="M28.45 158.15 c-0.05 -1.60 -0.20 -5.35 -0.40 -8.40 l-0.30 -5.50 -2.50 0 -2.50 0 -0.30 -4.75 -0.25 -4.75 -0.10 5.65 c-0.05 3.05 -0.30 5.60 -0.50 5.60 -0.50 0 -1.10 -11.35 -1.10 -21.35 l0 -7.15 1.75 0 1.75 0 0 3.90 0 3.85 2.50 -0.15 2.50 -0.20 0 18.05 c-0.05 9.95 -0.15 18.05 -0.25 18.05 -0.15 0 -0.30 -1.30 -0.30 -2.85z"/>
  <path d="M202.50 160.15 c0 -1.70 0.60 -3.15 1.30 -3.15 0.50 0 0.70 0.65 0.70 2 0 1.65 -0.15 2 -1 2 -0.60 0 -1 -0.35 -1 -0.85z"/>
  <path d="M196 139.40 l0 -13.80 2.50 -0.35 2.50 -0.35 0 -3.70 0 -3.70 1.75 0 1.75 0 0 6.90 c0 10.05 -0.60 22.10 -1.10 22.10 -0.20 0 -0.45 -2.65 -0.50 -5.85 -0.10 -5.80 -0.10 -5.85 -0.25 -1.25 l-0.20 4.60 -2.70 0 -2.75 0 -0.05 3.15 c-0.05 3.20 -0.30 5.35 -0.70 5.80 -0.15 0.10 -0.25 -6 -0.25 -13.55z"/>
  <path d="M20.50 113.25 c0 -1.65 0.10 -1.75 1.75 -1.75 1.65 0 1.75 0.10 1.75 1.75 0 1.65 -0.10 1.75 -1.75 1.75 -1.65 0 -1.75 -0.10 -1.75 -1.75z"/>
  <path d="M27.50 60.75 c0 -1.95 0.15 -2.25 1.05 -2.25 0.90 0 1 0.20 0.75 1.90 -0.15 1 -0.25 2 -0.30 2.25 0 0.20 -0.35 0.35 -0.75 0.35 -0.55 0 -0.75 -0.60 -0.75 -2.25z"/>
  <path d="M195.30 56.40 c-0.50 -1.90 -0.35 -2.40 0.70 -2.40 0.80 0 1 0.35 1 1.75 0 2 -1.20 2.45 -1.70 0.65z"/>
  <path d="M30 48.30 c0 -1.60 0.15 -1.80 1.25 -1.80 1.20 0 1.25 0.05 0.60 1.60 -0.95 2.30 -1.85 2.40 -1.85 0.20z"/>
  <path d="M34 41.30 c0 -1.65 0.10 -1.80 1.55 -1.80 l1.50 0 -1.05 1.50 c-1.55 2.20 -2 2.25 -2 0.30z"/>
  <path d="M183.50 35.50 l-1.75 -1.45 1.90 -0.05 c1.75 0 1.85 0.10 1.85 1.50 0 0.85 -0.05 1.50 -0.15 1.50 -0.05 0 -0.90 -0.65 -1.85 -1.50z"/>
  <path d="M49.50 30 c0 -0.80 0.35 -1 1.75 -1 2 0 2.45 1.20 0.65 1.70 -1.90 0.50 -2.40 0.35 -2.40 -0.70z"/>
  <path d="M59.50 28.50 c0 -0.80 0.35 -1 1.75 -1 2 0 2.45 1.20 0.65 1.70 -1.90 0.50 -2.40 0.35 -2.40 -0.70z"/>
  <path d="M162.90 29.15 c-1.65 -0.40 -1 -1.65 0.85 -1.65 1.40 0 1.75 0.20 1.75 1 0 1 -0.70 1.15 -2.60 0.65z"/>
 </g>
 <g fill="#97a2a5">
  <path d="M60.50 203.50 c0 -1.05 0.50 -1.20 2.40 -0.70 1.80 0.50 1.35 1.70 -0.65 1.70 -1.40 0 -1.75 -0.20 -1.75 -1z"/>
  <path d="M161 203.80 c0 -0.65 1.40 -1.30 2.90 -1.30 0.30 0 0.60 0.45 0.60 1 0 0.80 -0.35 1 -1.75 1 -1.15 0 -1.75 -0.25 -1.75 -0.70z"/>
  <path d="M54.15 203.65 c-1.25 -0.15 -1.65 -0.45 -1.65 -1.25 0 -0.90 0.20 -0.95 1.90 -0.70 4.05 0.70 4.60 0.90 4.60 1.60 0 0.70 -1.20 0.80 -4.85 0.35z"/>
  <path d="M166 203.30 c0 -0.70 0.55 -0.90 4.65 -1.60 1.60 -0.25 1.85 -0.20 1.85 0.70 0 0.75 -0.45 1.05 -2.30 1.30 -3.45 0.45 -4.20 0.40 -4.20 -0.40z"/>
  <path d="M45.50 200.25 c0 -1.20 0.05 -1.25 1.60 -0.60 2.30 0.95 2.40 1.85 0.20 1.85 -1.60 0 -1.80 -0.15 -1.80 -1.25z"/>
  <path d="M176.10 200.90 c0.15 -0.35 0.95 -0.90 1.80 -1.25 1.55 -0.65 1.60 -0.60 1.60 0.60 0 1.10 -0.20 1.25 -1.80 1.25 -1.15 0 -1.70 -0.20 -1.60 -0.60z"/>
  <path d="M37 195.45 l0 -1.50 1.50 1.05 c2.20 1.55 2.25 2 0.30 2 -1.65 0 -1.80 -0.10 -1.80 -1.55z"/>
  <path d="M184.90 196.35 c0.30 -0.35 1.60 -1.40 2.85 -2.30 l2.25 -1.60 0 1.50 c0 1.20 -0.20 1.55 -1 1.55 -0.55 0 -1 0.35 -1 0.75 0 0.55 -0.55 0.75 -1.80 0.75 -1.45 0 -1.70 -0.15 -1.30 -0.65z"/>
  <path d="M30 189.25 c0 -0.90 -0.25 -1.25 -1 -1.25 -0.55 0 -1 -0.25 -1 -0.55 0 -0.30 -0.35 -0.85 -0.75 -1.25 -0.75 -0.80 -1.05 -4.20 -0.35 -4.20 0.20 0 1.10 1.20 2 2.65 0.90 1.40 2.20 3.35 2.90 4.25 l1.35 1.60 -1.60 0 c-1.30 0 -1.55 -0.20 -1.55 -1.25z"/>
  <path d="M193.20 188.90 c0.70 -0.90 2 -2.85 2.90 -4.25 0.90 -1.45 1.80 -2.65 2 -2.65 0.25 0 0.40 0.80 0.40 1.75 0 1.20 -0.25 1.75 -0.75 1.75 -0.45 0 -0.75 0.45 -0.75 1.25 0 0.90 -0.25 1.25 -1 1.25 -0.75 0 -1 0.35 -1 1.25 0 1.05 -0.25 1.25 -1.55 1.25 l-1.60 0 1.35 -1.60z"/>
  <path d="M23.10 177.55 c-1.55 -5.05 0.15 -6.30 1.75 -1.30 l1.05 3.25 -1.10 0 c-0.90 0 -1.25 -0.45 -1.70 -1.95z"/>
  <path d="M200.15 176.25 c0.30 -0.95 0.80 -1.75 1.20 -1.75 0.40 0 0.65 0.65 0.65 1.75 0 1.50 -0.15 1.75 -1.20 1.75 -1.15 0 -1.20 -0.10 -0.65 -1.75z"/>
  <path d="M202 168.40 c0 -1.50 0.65 -2.90 1.30 -2.90 0.45 0 0.70 0.60 0.70 1.75 0 1.40 -0.20 1.75 -1 1.75 -0.55 0 -1 -0.30 -1 -0.60z"/>
  <path d="M20.50 160.75 c0 -2 1.20 -2.45 1.70 -0.60 0.50 1.85 0.35 2.35 -0.70 2.35 -0.80 0 -1 -0.35 -1 -1.75z"/>
  <path d="M202.50 161.40 c0 -1.95 0.60 -3.40 1.30 -3.40 0.50 0 0.70 0.65 0.70 2.25 0 1.90 -0.15 2.25 -1 2.25 -0.70 0 -1 -0.35 -1 -1.10z"/>
  <path d="M28.45 135.90 c0 -0.35 -0.10 -2.35 -0.20 -4.40 -0.30 -5.05 -0.25 -5 -3.20 -4.65 l-2.50 0.30 -0.20 -4.20 -0.15 -4.20 -0.10 4.90 c-0.05 2.65 -0.30 4.85 -0.50 4.85 -0.60 0 -1.10 -10.25 -1.10 -23.10 l0 -10.90 1.75 0 1.75 0 0 2.50 0 2.50 2.50 0 2.50 0 0 18.50 c0 10.20 -0.10 18.50 -0.25 18.50 -0.15 0 -0.25 -0.30 -0.30 -0.60z"/>
  <path d="M196.05 117.90 l-0.05 -18.40 2.50 0 2.50 0 0 -3 0 -3 1.75 0 1.75 0 0 11.40 c0 13.30 -0.45 23.60 -1.10 23.60 -0.20 0 -0.45 -2.20 -0.50 -4.85 l-0.10 -4.90 -0.15 4 -0.20 4 -2.55 0.10 c-1.40 0.05 -2.60 0.20 -2.70 0.30 -0.10 0.10 -0.40 2.20 -0.65 4.65 -0.30 3.30 -0.45 -0.25 -0.50 -13.90z"/>
  <path d="M20.50 87 l0 -3.50 1.75 0 1.75 0 0 3.50 0 3.50 -1.75 0 -1.75 0 0 -3.50z"/>
  <path d="M195.80 60.90 c-0.50 -1.90 -0.35 -2.40 0.70 -2.40 0.80 0 1 0.35 1 1.75 0 2 -1.20 2.45 -1.70 0.65z"/>
  <path d="M28 55.90 c0 -0.60 0.25 -2.40 0.60 -4 0.50 -2.45 0.75 -2.90 1.65 -2.90 l1.05 0 -0.95 4 c-0.65 2.60 -1.20 4 -1.65 4 -0.40 0 -0.70 -0.50 -0.70 -1.10z"/>
  <path d="M194.70 53.15 c-0.20 -1.05 -0.75 -2.95 -1.25 -4.25 l-0.95 -2.40 1.25 0 c1 0 1.25 0.25 1.25 1.20 0 0.65 0.20 1.30 0.50 1.40 0.25 0.10 0.60 1.45 0.80 3.05 0.30 2.40 0.20 2.85 -0.45 2.85 -0.55 0 -0.90 -0.65 -1.15 -1.85z"/>
  <path d="M32 44.25 c0 -1.55 0.15 -1.75 1.25 -1.75 1.50 0 1.50 0.15 0.40 2.05 -1.15 1.90 -1.65 1.85 -1.65 -0.30z"/>
  <path d="M190.15 42.75 l-2.10 -3.25 1.45 0 c1.35 0 1.50 0.15 1.50 1.50 0 1.15 0.20 1.50 1 1.50 0.80 0 1 0.35 1 1.75 0 0.95 -0.15 1.75 -0.35 1.75 -0.25 -0.05 -1.35 -1.50 -2.50 -3.25z"/>
  <path d="M36.50 38.30 c0 -1.65 0.10 -1.80 1.50 -1.80 1.25 0 1.50 -0.20 1.50 -1.25 0 -1.10 0.20 -1.25 1.85 -1.25 1.60 0 1.75 0.10 1.15 0.65 -0.40 0.40 -1.95 1.75 -3.35 3.10 l-2.65 2.40 0 -1.85z"/>
  <path d="M180.40 33.60 c-1.85 -1.10 -1.75 -1.60 0.35 -1.60 1.55 0 1.75 0.15 1.75 1.25 0 1.45 -0.30 1.50 -2.10 0.35z"/>
  <path d="M46.50 31.25 c0 -1.10 0.20 -1.25 1.80 -1.25 2.20 0 2.10 0.90 -0.20 1.85 -1.55 0.65 -1.60 0.60 -1.60 -0.60z"/>
  <path d="M176.70 31.80 c-0.90 -0.40 -3.30 -1.10 -5.40 -1.55 -2.50 -0.55 -3.80 -1.10 -3.80 -1.55 0 -0.40 0.50 -0.70 1.15 -0.70 2 0 6.85 1.10 6.85 1.55 0 0.25 0.70 0.45 1.50 0.45 1.25 0 1.50 0.20 1.50 1.25 0 0.70 -0.05 1.25 -0.10 1.25 -0.10 -0.05 -0.85 -0.35 -1.70 -0.70z"/>
  <path d="M51.50 29.55 c0 -0.90 1.95 -1.55 4.90 -1.55 2.20 0 1.15 1.40 -1.40 1.95 -3.35 0.70 -3.50 0.70 -3.50 -0.40z"/>
  <path d="M59 28.50 c0 -0.80 0.35 -1 1.75 -1 2 0 2.45 1.20 0.65 1.70 -1.90 0.50 -2.40 0.35 -2.40 -0.70z"/>
  <path d="M163.40 29.15 c-1.65 -0.40 -1 -1.65 0.85 -1.65 1.40 0 1.75 0.20 1.75 1 0 1 -0.70 1.15 -2.60 0.65z"/>
 </g>
 <g fill="#a6b5b9">
  <path d="M200.20 176.25 c1.15 -3.55 2.30 -4.30 2.30 -1.50 0 0.95 -0.20 1.75 -0.50 1.75 -0.25 0 -0.50 0.70 -0.50 1.50 0 1.25 -0.20 1.50 -1.20 1.50 l-1.20 0 1.10 -3.25z"/>
  <path d="M28.45 109.40 c-0.05 -0.65 -0.10 -1.50 -0.15 -1.90 -0.10 -0.40 -0.15 -2.05 -0.20 -3.60 l-0.10 -2.90 -2.70 0 -2.75 0 -0.20 -2.60 c-0.15 -2.50 -0.15 -2.45 -0.25 0.75 -0.05 1.85 -0.30 3.35 -0.55 3.35 -0.70 0 -1.05 -7.10 -1.05 -22.35 l0 -14.65 4.25 0 4.25 0 0 22.50 c0 12.40 -0.10 22.50 -0.25 22.50 -0.15 0 -0.25 -0.50 -0.30 -1.10z"/>
  <path d="M196 87.85 l0 -22.35 2.20 0 c1.25 0 2.40 -0.20 2.55 -0.50 0.15 -0.25 1.10 -0.50 2.05 -0.50 l1.70 0 0 14.40 c0 15.35 -0.40 23.60 -1.05 23.60 -0.25 0 -0.50 -1.75 -0.55 -3.85 -0.10 -3.85 -0.10 -3.85 -0.25 -0.75 l-0.20 3.10 -2.65 0 c-1.70 0 -2.75 0.25 -2.90 0.65 -0.10 0.30 -0.25 2.30 -0.35 4.35 -0.05 2.05 -0.20 3.80 -0.30 3.95 -0.15 0.10 -0.25 -9.85 -0.25 -22.10z"/>
  <path d="M27.50 59.75 c0 -1.40 0.20 -1.75 1 -1.75 1.05 0 1.20 0.50 0.70 2.40 -0.50 1.80 -1.70 1.35 -1.70 -0.65z"/>
  <path d="M195.30 55.90 c-0.50 -1.90 -0.35 -2.40 0.70 -2.40 0.80 0 1 0.35 1 1.75 0 2 -1.20 2.45 -1.70 0.65z"/>
  <path d="M28 54.75 c0 -1.40 0.20 -1.75 1 -1.75 1.05 0 1.20 0.50 0.70 2.40 -0.50 1.80 -1.70 1.35 -1.70 -0.65z"/>
  <path d="M186.50 38.25 l-1.70 -1.75 1.85 0 c1.80 0 1.85 0.05 1.85 1.75 0 0.95 -0.05 1.75 -0.15 1.75 -0.10 0 -0.90 -0.80 -1.85 -1.75z"/>
  <path d="M42.50 33.25 c0 -1.10 0.20 -1.25 1.75 -1.25 2.15 0 2.20 0.50 0.30 1.65 -1.90 1.10 -2.05 1.10 -2.05 -0.40z"/>
  <path d="M53.50 29 c0 -0.80 0.35 -1 1.75 -1 2 0 2.45 1.20 0.65 1.70 -1.90 0.50 -2.40 0.35 -2.40 -0.70z"/>
  <path d="M168.90 29.65 c-1.65 -0.40 -1 -1.65 0.85 -1.65 1.40 0 1.75 0.20 1.75 1 0 1 -0.70 1.15 -2.60 0.65z"/>
  <path d="M58.50 28.50 c0 -0.80 0.35 -1 1.75 -1 2 0 2.45 1.20 0.65 1.70 -1.90 0.50 -2.40 0.35 -2.40 -0.70z"/>
  <path d="M163.90 29.15 c-1.65 -0.40 -1 -1.65 0.85 -1.65 1.40 0 1.75 0.20 1.75 1 0 1 -0.70 1.15 -2.60 0.65z"/>
 </g>
 <g fill="#bcbdbd">
  <path d="M58.25 204.25 c-5.90 -0.70 -11.40 -2 -11.65 -2.75 -0.10 -0.30 -0.60 -0.50 -1.15 -0.50 -1.10 0 -6.10 -2.40 -6.35 -3.05 -0.10 -0.25 -0.50 -0.45 -0.90 -0.45 -0.40 0 -0.70 -0.20 -0.70 -0.45 0 -0.25 -0.45 -0.55 -1 -0.70 -0.60 -0.15 -1 -0.70 -1 -1.30 0 -0.80 -0.30 -1.05 -1.25 -1.05 -0.90 0 -1.25 -0.25 -1.25 -1 0 -0.70 -0.35 -1 -1.05 -1 -0.60 0 -1.15 -0.40 -1.30 -0.95 -0.15 -0.55 -0.55 -1.10 -0.95 -1.25 -0.40 -0.15 -0.70 -0.75 -0.70 -1.30 0 -0.55 -0.35 -1 -0.75 -1 -0.40 0 -0.75 -0.30 -0.75 -0.70 0 -0.40 -0.20 -0.80 -0.45 -0.90 -0.65 -0.25 -3.05 -5.25 -3.05 -6.40 0 -0.55 -0.20 -1 -0.45 -1 -0.55 0 -2 -5.65 -2.40 -9.50 -0.25 -2.55 -0.15 -3 0.50 -3 0.55 0 0.90 0.60 1.10 1.90 1.65 9.95 5.05 16.90 11.25 23.10 6.65 6.70 14.50 10.25 25.25 11.50 6.05 0.65 100.45 0.65 106.50 0 6.30 -0.75 11.20 -2.15 16.45 -4.85 3.65 -1.90 5.40 -3.20 8.80 -6.65 6.25 -6.25 9.60 -13.20 11.25 -23.10 0.35 -2.25 1.75 -2.65 1.75 -0.60 0 2.20 -1.15 7.70 -1.60 7.70 -0.20 0 -0.40 0.80 -0.40 1.75 0 0.95 -0.20 1.75 -0.50 1.75 -0.25 0 -0.50 0.45 -0.50 1.05 0 1.50 -3.50 7.95 -4.30 7.95 -0.40 0 -0.70 0.45 -0.70 1.05 0 0.60 -0.40 1.15 -1 1.30 -0.55 0.15 -1 0.60 -1 0.95 0 1.15 -2.10 3.20 -3.35 3.20 -0.85 0 -1.15 0.30 -1.15 1.05 0 0.60 -0.40 1.15 -1 1.30 -0.55 0.15 -1 0.45 -1 0.70 0 0.25 -0.30 0.45 -0.70 0.45 -0.40 0 -0.80 0.20 -0.90 0.40 -0.30 0.75 -5 3.10 -6.15 3.10 -0.65 0 -1.25 0.20 -1.35 0.50 -0.25 0.80 -5.85 2.05 -12.40 2.80 -8.60 0.95 -99.40 0.90 -107.75 -0.05z"/>
  <path d="M20.50 162 c0 -1.80 0.20 -2.50 0.70 -2.50 0.75 0 1.30 1.50 1.30 3.65 0 1 -0.25 1.35 -1 1.35 -0.85 0 -1 -0.35 -1 -2.50z"/>
  <path d="M202.50 163.15 c0 -2.15 0.55 -3.65 1.30 -3.65 0.50 0 0.70 0.70 0.70 2.50 0 2.15 -0.15 2.50 -1 2.50 -0.75 0 -1 -0.35 -1 -1.35z"/>
  <path d="M20 103.50 c0 -34.65 0 -35 1 -35 1 0 1 0.35 1 35 0 34.65 0 35 -1 35 -1 0 -1 -0.35 -1 -35z"/>
  <path d="M21 57.75 c0 -1.65 0.10 -1.75 1.75 -1.75 1.65 0 1.75 0.10 1.75 1.75 0 1.65 -0.10 1.75 -1.75 1.75 -1.65 0 -1.75 -0.10 -1.75 -1.75z"/>
  <path d="M22 52.25 c0 -1.65 0.10 -1.75 1.75 -1.75 1.65 0 1.75 0.10 1.75 1.75 0 1.65 -0.10 1.75 -1.75 1.75 -1.65 0 -1.75 -0.10 -1.75 -1.75z"/>
  <path d="M199.50 52.25 c0 -1.65 0.10 -1.75 1.75 -1.75 1.65 0 1.75 0.10 1.75 1.75 0 1.65 -0.10 1.75 -1.75 1.75 -1.65 0 -1.75 -0.10 -1.75 -1.75z"/>
 </g>
 <g fill="#bbccd1">
  <path d="M196.40 79 c-0.20 -0.70 -0.45 -6.20 -0.60 -12.25 -0.25 -11.65 -0.70 -14.50 -2.95 -19.45 -2.40 -5.25 -6.40 -9.95 -10.70 -12.70 -1.20 -0.75 -2.15 -1.50 -2.15 -1.70 0 -0.25 0.80 -0.40 1.75 -0.40 0.95 0 1.75 0.25 1.75 0.50 0 0.30 0.35 0.50 0.75 0.50 0.45 0 0.75 0.45 0.75 1.25 0 1 0.25 1.25 1.30 1.25 1.65 0 2.70 1.05 2.70 2.70 0 1.05 0.25 1.30 1.25 1.30 0.80 0 1.25 0.30 1.25 0.75 0 0.50 0.50 0.75 1.50 0.75 0.85 0 1.50 -0.25 1.50 -0.55 0 -0.30 0.85 -0.45 2.10 -0.35 1.95 0.15 2.20 0.35 3.50 2.70 1.80 3.30 2.85 7.20 3.70 13.45 0.90 6.80 0.90 10.45 -0.05 11.25 -0.65 0.55 -0.75 0.40 -0.75 -0.80 0 -1.10 -0.15 -1.25 -0.60 -0.80 -0.35 0.35 -1.05 0.60 -1.65 0.60 -0.60 0 -1.30 0.25 -1.65 0.60 -0.40 0.40 -0.75 0.40 -1.30 -0.05 -0.70 -0.55 -0.80 0.15 -0.90 6.05 -0.10 3.65 -0.30 6.10 -0.50 5.40z"/>
  <path d="M28 73.35 l0 -6.35 -3 0 c-2.35 0 -3 0.15 -3 0.75 0 0.40 -0.35 0.75 -0.75 0.75 -1 0 -0.95 -4.85 0.05 -12 1.10 -7.90 1.15 -8 3.10 -12 l1.85 -3.75 2.25 -0.10 c1.25 -0.10 3.45 -0.25 4.90 -0.45 2.35 -0.25 2.60 -0.40 2.60 -1.50 0 -1.65 1.10 -2.70 2.70 -2.70 1.05 0 1.30 -0.25 1.30 -1.25 0 -0.80 0.30 -1.25 0.75 -1.25 0.40 0 0.75 -0.20 0.75 -0.50 0 -0.25 0.80 -0.50 1.75 -0.50 0.95 0 1.75 0.15 1.75 0.40 0 0.20 -0.95 0.95 -2.15 1.70 -4.30 2.70 -8.30 7.45 -10.65 12.60 -2.40 5.25 -2.75 7.45 -3.05 19.80 -0.30 12.50 -1.15 17.25 -1.15 6.35z"/>
  <path d="M49 30.20 c0 -1.05 0.25 -1.20 1.75 -1.20 1.10 0 1.75 0.25 1.75 0.65 0 0.40 -0.80 0.90 -1.75 1.20 -1.65 0.55 -1.75 0.50 -1.75 -0.65z"/>
  <path d="M174.15 30.90 c-2.25 -0.75 -2.15 -1.90 0.10 -1.90 1.55 0 1.75 0.15 1.75 1.25 0 0.70 -0.05 1.25 -0.10 1.20 -0.10 -0.05 -0.90 -0.30 -1.75 -0.55z"/>
  <path d="M53 29 c0 -0.80 0.35 -1 1.75 -1 2 0 2.45 1.20 0.65 1.70 -1.90 0.50 -2.40 0.35 -2.40 -0.70z"/>
  <path d="M169.40 29.65 c-1.65 -0.40 -1 -1.65 0.85 -1.65 1.40 0 1.75 0.20 1.75 1 0 1 -0.70 1.15 -2.60 0.65z"/>
  <path d="M58 28.50 c0 -0.80 0.35 -1 1.75 -1 2 0 2.45 1.20 0.65 1.70 -1.90 0.50 -2.40 0.35 -2.40 -0.70z"/>
  <path d="M164.40 29.15 c-1.65 -0.40 -1 -1.65 0.85 -1.65 1.40 0 1.75 0.20 1.75 1 0 1 -0.70 1.15 -2.60 0.65z"/>
 </g>
 <g fill="#d8d8d8">
  <path d="M108.75 205.50 c-29.15 -0.15 -53.45 -0.40 -54 -0.60 -0.55 -0.15 -2.35 -0.60 -4 -0.90 -2.90 -0.60 -4 -1 -8.10 -2.85 -3.05 -1.35 -7.70 -4.65 -10.45 -7.35 -2.40 -2.45 -6.70 -8.30 -6.70 -9.20 0 -0.20 -0.60 -1.65 -1.35 -3.15 -1.35 -2.75 -3.10 -9.90 -3.15 -12.80 0 -2.40 1.35 -2.20 1.80 0.25 1.60 9.40 5.60 17.25 11.65 23 3.25 3.05 6.05 4.95 10.30 6.90 9.70 4.50 12.45 4.70 67.50 4.70 45.35 0 52.95 -0.20 59.50 -1.80 16.50 -3.90 26.90 -14.85 30.25 -31.80 0.40 -1.90 0.80 -2.90 1.30 -2.90 1.75 0 -0.15 9.55 -3.10 15.80 -4.35 9.10 -9.95 14.70 -18.75 18.80 -3.70 1.75 -16.15 4.60 -18.70 4.30 -0.55 -0.10 -24.85 -0.25 -54 -0.40z"/>
  <path d="M20.50 164 c0 -1.80 0.20 -2.50 0.70 -2.50 0.75 0 1.30 1.50 1.30 3.65 0 1 -0.25 1.35 -1 1.35 -0.85 0 -1 -0.35 -1 -2.50z"/>
  <path d="M202.50 165.15 c0 -2.15 0.55 -3.65 1.30 -3.65 0.50 0 0.70 0.70 0.70 2.50 0 2.15 -0.15 2.50 -1 2.50 -0.75 0 -1 -0.35 -1 -1.35z"/>
  <path d="M203 111.65 c-0.05 -51.20 -0.20 -55.10 -2.40 -62 l-1 -3.15 1.20 0 c0.95 0 1.25 0.40 1.70 2.05 2.15 7.95 2.15 7.45 2.35 60.60 l0.20 50.85 -1 0 -1.05 0 0 -48.35z"/>
  <path d="M20 145 c0 -7.75 0.15 -9.50 0.70 -9.50 1.10 0 1.30 1.65 1.30 10.65 0 8 -0.05 8.35 -1 8.35 -0.95 0 -1 -0.35 -1 -9.50z"/>
  <path d="M20.15 65.15 c0.30 -6.20 1.35 -13.45 2.45 -17.25 0.45 -1.60 0.80 -1.90 1.95 -1.90 l1.35 0 -0.85 1.90 c-1.55 3.25 -3.05 12.40 -3.05 18.60 0 3.50 -0.40 5 -1.40 5 -0.65 0 -0.70 -0.85 -0.45 -6.35z"/>
  <path d="M167.15 24.65 c-1.50 -0.20 -1.65 -0.35 -1.65 -1.95 0 -1.50 0.15 -1.70 1.40 -1.70 0.75 0 2.20 0.15 3.25 0.30 1.70 0.30 1.85 0.45 1.85 2 0 1.85 -0.25 1.90 -4.85 1.35z"/>
  <path d="M56 22.75 c0 -1.65 0.10 -1.75 1.75 -1.75 1.65 0 1.75 0.10 1.75 1.75 0 1.65 -0.10 1.75 -1.75 1.75 -1.65 0 -1.75 -0.10 -1.75 -1.75z"/>
 </g>
 <g fill="#cae2e9">
  <path d="M29.10 57.50 c0 -0.95 0.10 -1.35 0.25 -0.85 0.10 0.45 0.10 1.25 0 1.75 -0.15 0.45 -0.25 0.05 -0.25 -0.90z"/>
  <path d="M194.75 52.70 c-1.90 -8.60 -7.95 -16.10 -16 -19.95 -7.80 -3.70 -4.20 -3.50 -66.25 -3.50 -61.55 0 -58.40 -0.15 -65.75 3.25 -7.70 3.55 -13 9.50 -16 18 -0.55 1.55 -0.70 1.80 -0.55 0.75 0.35 -2.25 2.30 -7.25 2.85 -7.25 0.80 0 0.50 -0.75 -0.60 -1.40 -0.80 -0.50 -1.20 -0.50 -1.75 -0.05 -0.55 0.45 -0.85 0.45 -1.45 -0.05 -0.95 -0.80 -1.70 -0.25 -2.70 1.95 -1.85 4.05 -3.05 5.10 -3.05 2.65 0 -1.50 1 -4.10 1.65 -4.10 0.20 0 0.35 -0.30 0.35 -0.70 0 -2.45 5.80 -9.50 11.30 -13.70 2.80 -2.15 9.85 -5.45 12.95 -6.10 8.65 -1.85 12.65 -1.95 62.85 -2 51.60 0 55.50 0.15 63.55 2.25 9.40 2.45 17.95 9.25 23 18.40 0.75 1.30 1.35 2.70 1.35 3.10 0 0.40 0.25 0.75 0.50 0.75 0.30 0 0.50 0.80 0.50 1.80 0 2.40 -0.80 2 -2.55 -1.25 -1.65 -3.15 -2.45 -4.10 -2.80 -3.15 -0.15 0.35 -1.10 0.60 -2.20 0.60 -1.05 0 -1.95 0.10 -1.95 0.20 0 0.10 0.45 1.15 1 2.40 1.10 2.55 2.60 7.95 2.25 8.30 -0.10 0.10 -0.35 -0.45 -0.50 -1.20z"/>
 </g>
 <g fill="#e5e6e6">
  <path d="M61.45 206.25 c-0.15 -0.15 -2.15 -0.45 -4.50 -0.75 -7.20 -0.85 -9.20 -1.25 -10.45 -2.15 -0.65 -0.45 -1.70 -0.85 -2.30 -0.85 -0.55 0 -1.80 -0.55 -2.75 -1.25 -0.95 -0.65 -2.25 -1.45 -2.85 -1.75 -3.10 -1.35 -10.10 -7.85 -10.10 -9.35 0 -0.25 -0.45 -0.80 -1 -1.30 -0.55 -0.45 -1 -1.20 -1 -1.60 0 -0.40 -0.20 -0.75 -0.50 -0.75 -0.65 0 -3.50 -5.70 -3.50 -6.95 0 -0.55 -0.20 -1.10 -0.45 -1.25 -0.60 -0.40 -1.05 -3.15 -1.40 -7.80 -0.10 -2.05 -0.45 -3.95 -0.70 -4.20 -0.25 -0.30 -0.45 -4.60 -0.45 -9.65 0 -8.80 0.05 -9.15 1 -9.15 0.70 0 1 0.35 1 1.15 0.10 6.95 1.10 20.40 1.75 23.35 0.45 2.05 0.90 4.10 1 4.55 0.10 0.40 0.75 1.95 1.45 3.45 0.70 1.50 1.30 2.90 1.30 3.10 0 0.90 4.30 6.75 6.70 9.20 2.75 2.70 7.40 6 10.45 7.35 5 2.25 4.85 2.25 13.25 3.85 1.65 0.30 21.75 0.50 55 0.50 53.85 0 54 0 62.20 -1.95 5.30 -1.25 12.45 -5.45 16.75 -9.85 2.65 -2.70 6.10 -7.50 6.35 -8.75 0.05 -0.40 0.75 -1.95 1.55 -3.45 0.80 -1.50 1.50 -3.20 1.55 -3.75 0.10 -0.55 0.45 -2.45 0.90 -4.25 0.40 -1.80 0.90 -5.40 1.10 -8 0.15 -2.60 0.40 -5.30 0.45 -6 0.05 -0.70 0.15 -7.15 0.20 -14.35 0.05 -12.80 0.10 -13.15 1.05 -13.15 1 0 1 0.35 1 17.70 0 9.75 -0.20 17.85 -0.45 18 -0.20 0.15 -0.50 2.45 -0.65 5.15 -0.20 2.95 -0.65 5.70 -1.15 6.90 -2.30 5.35 -3.80 8.25 -4.25 8.25 -0.25 0 -0.50 0.35 -0.50 0.75 0 0.40 -0.45 1.20 -1 1.75 -0.55 0.55 -1 1.15 -1 1.40 0 1.15 -7.60 8 -10 9.10 -0.70 0.30 -2 1.10 -2.95 1.75 -0.95 0.70 -2.15 1.25 -2.75 1.25 -0.60 0 -1.80 0.45 -2.70 1 -0.90 0.55 -2.45 1 -3.50 1 -1.05 0 -2.10 0.20 -2.40 0.45 -0.25 0.25 -1.90 0.60 -3.70 0.80 -3.85 0.40 -106.70 0.90 -107.05 0.50z"/>
  <path d="M19 143.75 c0 -1.55 0.15 -1.75 1.25 -1.75 1.10 0 1.25 0.20 1.25 1.75 0 1.55 -0.15 1.75 -1.25 1.75 -1.10 0 -1.25 -0.20 -1.25 -1.75z"/>
  <path d="M19 137.50 c0 -3.95 0 -4 1.25 -4 1.25 0 1.25 0.05 1.25 4 0 3.95 0 4 -1.25 4 -1.25 0 -1.25 -0.05 -1.25 -4z"/>
  <path d="M203.50 123 c0 -4.15 0.05 -4.50 1 -4.50 0.95 0 1 0.35 1 4.50 0 4.15 -0.05 4.50 -1 4.50 -0.95 0 -1 -0.35 -1 -4.50z"/>
  <path d="M203.50 113.75 c0 -1.90 0.15 -2.25 1 -2.25 0.85 0 1 0.35 1 2.25 0 1.90 -0.15 2.25 -1 2.25 -0.85 0 -1 -0.35 -1 -2.25z"/>
  <path d="M203.50 98 c0 -2.15 0.15 -2.50 1 -2.50 0.85 0 1 0.35 1 2.50 0 2.15 -0.15 2.50 -1 2.50 -0.85 0 -1 -0.35 -1 -2.50z"/>
  <path d="M203.50 86 c0 -1.65 0.15 -2 1 -2 0.85 0 1 0.35 1 2 0 1.65 -0.15 2 -1 2 -0.85 0 -1 -0.35 -1 -2z"/>
  <path d="M203.30 64.90 c-0.15 -0.90 -0.35 -3.05 -0.50 -4.75 -0.70 -7.90 -3 -14.60 -7.10 -20.70 -6.60 -9.75 -16.85 -15.55 -29.70 -16.85 -4.90 -0.45 -101.55 -0.45 -106.80 0 -2.20 0.25 -4.70 0.60 -5.50 0.85 -0.80 0.25 -2.25 0.60 -3.25 0.75 -2.60 0.45 -9.60 3.95 -12.85 6.50 -7.90 6.15 -12.95 14.45 -14.60 24.10 -0.50 3 -1.05 6.75 -1.25 8.35 -0.30 2.65 -0.40 2.85 -1.60 2.85 -1.25 0 -1.30 -0.05 -1 -2.80 0.15 -1.50 0.55 -3.10 0.85 -3.45 0.35 -0.40 0.60 -1.95 0.55 -3.45 0 -1.55 0.30 -3.40 0.70 -4.15 0.40 -0.75 0.75 -1.90 0.75 -2.50 0 -0.65 0.25 -1.15 0.50 -1.15 0.30 0 0.50 -0.65 0.50 -1.50 0 -0.80 0.25 -1.50 0.50 -1.50 0.30 0 0.50 -0.45 0.50 -1 0 -0.55 0.25 -1 0.50 -1 0.30 0 0.50 -0.45 0.50 -1 0 -0.55 0.25 -1 0.50 -1 0.30 0 0.50 -0.45 0.50 -1 0 -0.55 0.30 -1 0.70 -1 0.35 0 0.80 -0.65 0.95 -1.45 0.40 -2.05 6.60 -8.55 8.10 -8.55 0.70 0 1.25 -0.35 1.40 -1 0.30 -1.20 10.80 -6.50 12.90 -6.50 0.75 0 1.50 -0.20 1.65 -0.45 0.65 -1.05 11.45 -1.25 60.80 -1.25 48.70 -0.05 59.40 0.20 60.75 1.20 0.30 0.25 1.50 0.65 2.75 0.95 3.15 0.85 5 1.60 5 2.10 0 0.25 0.45 0.45 1 0.45 0.55 0 1 0.25 1 0.50 0 0.30 0.45 0.50 1 0.50 0.55 0 1 0.25 1 0.50 0 0.30 0.45 0.50 1 0.50 0.55 0 1.25 0.45 1.60 1 0.35 0.55 0.95 1 1.30 1 1.05 0 6.80 5.75 7.90 7.85 0.50 1 1.35 2.25 1.85 2.75 0.50 0.50 1 1.60 1.20 2.40 0.15 0.85 0.45 1.50 0.70 1.50 0.25 0 0.45 0.45 0.45 1 0 0.55 0.25 1 0.50 1 0.30 0 0.50 0.65 0.50 1.45 0 0.80 0.30 1.55 0.65 1.70 0.75 0.25 1.75 6.75 2.20 14 0.20 3.25 0.15 3.85 -0.50 3.85 -0.50 0 -0.90 -0.60 -1.05 -1.60z"/>
 </g>
 <g fill="#f3f2f2">
  <path d="M62.45 206.75 c-0.15 -0.10 -2.30 -0.45 -4.75 -0.70 -8.25 -0.90 -10.30 -1.45 -15.50 -4 -2.75 -1.35 -5.30 -2.85 -5.70 -3.25 -0.35 -0.45 -0.90 -0.80 -1.25 -0.80 -0.60 0 -6.75 -6.35 -8.50 -8.80 -1.70 -2.35 -5.20 -10.25 -5.80 -12.95 -1.90 -8.90 -1.95 -11.30 -2.05 -62.25 -0.10 -52.35 0 -55.45 2.15 -63.50 1.35 -4.95 3.35 -10 4.50 -11.30 0.55 -0.55 0.95 -1.25 0.95 -1.50 0 -0.65 8.90 -9.30 10.75 -10.45 6.10 -3.85 11.65 -5.75 19.70 -6.75 5.50 -0.65 6.05 -0.65 6.05 0.20 0 0.75 -3.15 1.60 -7.25 2 -1.10 0.10 -2.65 0.45 -3.45 0.75 -0.80 0.30 -1.70 0.50 -2 0.40 -0.80 -0.25 -10.90 4.85 -12 6.10 -0.55 0.55 -1.20 1.05 -1.50 1.05 -0.80 0 -5.90 5.35 -7.60 8 -2.30 3.55 -5.70 10.85 -5.70 12.25 0 0.35 -0.25 1.30 -0.55 2.10 -0.30 0.75 -0.60 2.70 -0.70 4.25 -0.05 1.55 -0.25 3 -0.40 3.25 -0.45 0.70 -0.55 103.35 -0.10 104.30 0.20 0.50 0.45 2.40 0.50 4.25 0.20 4.05 0.70 7 1.30 7.40 0.25 0.15 0.45 0.70 0.45 1.25 0 1.25 2.85 6.95 3.50 6.95 0.30 0 0.50 0.35 0.50 0.75 0 0.40 0.45 1.15 1 1.60 0.55 0.50 1 1.05 1 1.30 0 1.50 7 8 10.10 9.35 0.60 0.30 1.90 1.10 2.85 1.75 0.95 0.70 2.20 1.25 2.75 1.25 0.60 0 1.60 0.35 2.20 0.80 0.65 0.40 1.95 0.90 3 1 1 0.10 2.55 0.40 3.35 0.65 3.75 1.15 11.60 1.30 58 1.30 46.40 -0.05 57.90 -0.30 58.55 -1.35 0.15 -0.20 1.15 -0.40 2.20 -0.40 1.10 0 2.70 -0.45 3.60 -1 0.90 -0.55 2.10 -1 2.70 -1 0.60 0 1.80 -0.55 2.75 -1.25 0.95 -0.65 2.25 -1.45 2.95 -1.75 2.40 -1.10 10 -7.95 10 -9.10 0 -0.25 0.45 -0.85 1 -1.40 0.55 -0.55 1 -1.35 1 -1.75 0 -0.40 0.20 -0.75 0.50 -0.75 0.55 0 2.60 -3.80 3.75 -7.10 1 -2.70 1.25 -4.20 1.60 -8.90 0.10 -2.05 0.45 -4 0.65 -4.25 0.25 -0.30 0.35 -23.25 0.25 -51 -0.25 -47.20 -0.40 -53.10 -1.65 -59.75 -0.15 -0.95 -0.35 -2.10 -0.40 -2.50 -0.10 -1.65 -3.80 -9.35 -6.15 -12.85 -1.80 -2.70 -5.50 -6.45 -8.90 -8.95 -2.10 -1.60 -9.15 -5 -11.15 -5.45 -0.95 -0.20 -2.30 -0.60 -3 -0.85 -0.70 -0.30 -2.05 -0.55 -3 -0.60 -3.50 -0.25 -7.50 -1.35 -7.50 -2.10 0 -0.40 0.40 -0.70 0.90 -0.70 1.65 0 9.30 1 11.10 1.50 4.95 1.25 7.85 2.20 8.50 2.80 0.40 0.35 1.35 0.75 2.10 0.95 0.70 0.20 1.70 0.75 2.20 1.30 0.45 0.50 1.10 0.95 1.45 0.95 0.65 0 9.45 9.05 11 11.30 2.55 3.75 5.10 11.45 5.90 17.90 0.75 6.20 0.75 107.35 0 113.05 -0.55 4 -1.15 6.65 -2.05 9.50 -0.75 2.40 -4.45 9.50 -5.30 10.20 -0.45 0.40 -0.80 0.95 -0.80 1.25 0 0.70 -6.60 7.30 -7.30 7.30 -0.30 0 -0.90 0.40 -1.35 0.90 -1.40 1.50 -10.50 5.65 -13.65 6.15 -1.65 0.30 -4.50 0.75 -6.45 1.05 -3.55 0.50 -105.30 1.20 -105.80 0.65z"/>
 </g>
 <g fill="#ffffff">
  <path d="M0 112.50 l0 -112.50 112.50 0 112.50 0 0 112.50 0 112.50 -112.50 0 -112.50 0 0 -112.50z m166.75 92.10 c1.95 -0.30 4.80 -0.75 6.45 -1.05 3.15 -0.50 12.25 -4.65 13.65 -6.15 0.45 -0.50 1.05 -0.90 1.35 -0.90 0.70 0 7.30 -6.60 7.30 -7.30 0 -0.30 0.35 -0.85 0.80 -1.25 0.85 -0.70 4.55 -7.80 5.30 -10.20 0.90 -2.85 1.50 -5.50 2.05 -9.50 0.75 -5.65 0.75 -103.90 0 -110.05 -0.80 -6.45 -3.35 -14.15 -5.90 -17.90 -1.50 -2.25 -10.35 -11.30 -10.75 -11.05 -0.20 0.10 -0.85 -0.30 -1.45 -0.95 -0.65 -0.70 -1.75 -1.35 -2.45 -1.55 -0.75 -0.20 -1.70 -0.60 -2.10 -0.95 -0.65 -0.60 -3.55 -1.55 -8.50 -2.80 -5.05 -1.30 -12.50 -1.50 -60 -1.50 -53.95 0 -55 0.05 -64.10 2.60 -2.15 0.60 -6.75 2.80 -9.65 4.65 -2 1.25 -10.75 9.85 -10.75 10.55 0 0.30 -0.35 0.85 -0.75 1.20 -1.90 1.60 -5.05 11.15 -6.10 18.75 -0.65 4.70 -0.75 12.60 -0.70 54.50 0.05 50.10 0.15 52.20 2 61 0.60 2.70 4.10 10.60 5.80 12.95 1.75 2.45 7.90 8.80 8.50 8.80 0.35 0 0.90 0.35 1.25 0.80 0.40 0.40 2.95 1.90 5.70 3.25 5.20 2.55 7.25 3.10 15.50 4 2.45 0.25 4.60 0.60 4.75 0.70 0.50 0.55 99.25 -0.15 102.80 -0.65z"/>
  <path d="M20.90 130.15 c-0.30 -14.10 0 -60.75 0.40 -61.10 0.10 -0.10 0.20 16.45 0.20 36.85 0 20.40 -0.10 37.10 -0.20 37.10 -0.10 0 -0.25 -5.80 -0.40 -12.85z"/>
 </g>
</svg>