<svg version="1.0" xmlns="http://www.w3.org/2000/svg" width="225px" height="225px" viewBox="0 0 225 225" preserveAspectRatio="xMidYMid meet">
 <g fill="#262626">
  <path d="M28.10 224 c-12.45 -4.45 -22.85 -14.90 -27.10 -27.30 -1 -2.80 -1 -4.50 -1 -84.20 0 -78 0.05 -81.45 0.95 -84.05 4.35 -12.75 14.70 -23.10 27.40 -27.50 2.75 -0.90 4.95 -0.95 84.20 -0.95 l81.45 0 3.10 1.20 c13.10 4.90 22.55 14.45 26.95 27.15 0.95 2.75 0.95 4.85 0.95 84.15 0 79.20 -0.05 81.40 -0.95 84.15 -4.45 12.80 -14.60 22.95 -27.40 27.40 -2.75 0.95 -4.90 0.95 -84.35 0.90 -78.50 0 -81.65 -0.05 -84.20 -0.95z m120.10 -22.80 c5.15 -2.55 7.80 -6.45 8.80 -13.05 1.80 -11.45 4.90 -19 13 -31.40 7.15 -11 12.50 -19.90 12.50 -20.85 0 -0.40 -1.80 -3.25 -4 -6.40 -4.75 -6.70 -10.40 -16.45 -12.45 -21.40 -2.95 -7.20 -4.20 -14.45 -4.80 -28.35 -0.45 -9.90 -0.85 -10.85 -8.80 -20.80 -3.40 -4.30 -10.85 -13.80 -16.60 -21.05 -5.70 -7.30 -11.20 -13.85 -12.25 -14.55 -1 -0.70 -2.75 -1.50 -3.90 -1.75 -4.25 -0.95 -5.20 -0.25 -27.60 19.85 -22.35 20.15 -22.15 19.95 -23.10 26.30 -0.25 1.95 -0.85 5.75 -1.25 8.50 -0.40 2.75 -1.20 8.15 -1.80 12 -1.25 8.65 -1.65 10 -6.30 20.25 -2.05 4.55 -4.05 8.95 -4.40 9.75 -0.35 0.85 -1.50 3.30 -2.50 5.50 -9.65 20.95 -10.55 23.35 -9.65 26.40 0.75 2.55 2.95 5 21.85 24.15 l16.30 16.60 2.75 0.50 c1.50 0.30 6.60 0.80 11.25 1.10 10.95 0.70 18.30 1.70 24.25 3.30 5.35 1.45 19.60 5.55 21.50 6.20 2.25 0.75 4.55 0.50 7.20 -0.80z"/>
 </g>
 <g fill="#4a239e">
  <path d="M139.50 203.50 c-1.90 -0.65 -16.15 -4.75 -21.50 -6.20 -2.60 -0.70 -6.55 -1.50 -8.75 -1.80 -6 -0.80 -6.75 -1 -6.75 -1.80 0 -0.90 1.70 -0.90 8.05 0.05 5.55 0.85 19.60 4.60 19.85 5.30 0.10 0.25 0.75 0.45 1.45 0.45 1.60 0 6.85 1.60 7.05 2.10 0.10 0.25 0.95 0.40 1.90 0.40 1.35 0 1.70 0.20 1.70 1 0 1.10 -0.85 1.20 -3 0.50z"/>
  <path d="M145.50 203 c0 -0.75 0.35 -1 1.25 -1 0.70 0 1.25 -0.20 1.25 -0.50 0 -0.25 0.55 -0.50 1.25 -0.50 0.80 0 1.25 -0.30 1.25 -0.75 0 -0.45 0.45 -0.75 1.25 -0.75 0.90 0 1.25 -0.25 1.25 -1 0 -0.90 1.60 -3.70 2.55 -4.50 0.30 -0.25 1.05 -3.85 2 -9.50 0.70 -4.40 2 -9 2.55 -9 0.20 0 0.40 -0.45 0.40 -0.95 0 -0.55 0.60 -2.35 1.30 -4 1.10 -2.50 1.55 -3.05 2.50 -3.05 1.35 0 1.35 -0.10 -1.20 5.60 -1.90 4.10 -3.30 9.20 -4.35 15.35 -1.40 8.05 -3.65 11.55 -9.05 14.25 -3.15 1.55 -4.20 1.65 -4.20 0.30z"/>
  <path d="M96.40 194.15 c-0.50 -0.10 -0.90 -0.55 -0.90 -0.95 0 -0.55 0.75 -0.70 3.25 -0.70 2.90 0 3.25 0.10 3.25 1 0 0.85 -0.30 1 -2.35 0.95 -1.35 -0.05 -2.80 -0.15 -3.25 -0.30z"/>
  <path d="M87.75 193.65 c-4.70 -0.30 -7.55 -1.15 -8.80 -2.50 l-1.20 -1.25 2 0.25 c1.10 0.15 3.80 0.60 6 1.05 2.20 0.40 5.20 0.75 6.65 0.80 2.25 0 2.60 0.15 2.60 1 0 1.05 -0.50 1.10 -7.25 0.65z"/>
  <path d="M72.05 184.70 c-3.10 -3.35 -3.15 -3.45 -1.85 -3.60 1.30 -0.15 2.80 0.85 2.80 1.85 0 0.30 0.25 0.55 0.55 0.55 1.10 0 2 1.50 1.85 3.10 l-0.15 1.55 -3.20 -3.45z"/>
  <path d="M65.05 177.50 l-2.25 -2.25 1.35 -0.15 c1.85 -0.20 3.45 1.40 3.25 3.20 l-0.15 1.40 -2.20 -2.20z"/>
  <path d="M88 172.35 c0 -0.90 0.35 -2.65 0.75 -3.90 1.40 -4.10 3.15 -13.70 3.50 -18.70 0.20 -3.15 0.10 -6.65 -0.30 -9.50 -0.35 -2.45 -0.65 -5.40 -0.65 -6.50 l-0.05 -2 6 -1.15 c5 -1 7.75 -1.20 16.75 -1.25 10.30 -0.10 10.95 -0.05 15.65 1.25 5.85 1.65 10.85 4.10 15.45 7.45 6.30 4.70 13.90 13.90 13.90 16.90 0 1.45 -0.15 1.55 -1.70 1.55 -1.40 0 -1.90 -0.30 -3.05 -2.10 -1.85 -2.85 -6.65 -7.75 -10.20 -10.55 -2.55 -2 -2.95 -2.20 -3.80 -1.55 -0.50 0.40 -2 0.70 -3.25 0.70 -4.90 0 -20.20 6.15 -27.55 11.05 -1.05 0.65 -3.45 2.20 -5.35 3.35 -1.95 1.20 -4.45 3.20 -5.55 4.40 -1.10 1.20 -2.30 2.20 -2.65 2.20 -0.85 0 -2.65 3.50 -3.65 7.15 -0.75 2.75 -0.80 2.85 -2.50 2.85 -1.65 0 -1.75 -0.10 -1.75 -1.65z"/>
  <path d="M52 164.20 c-8.70 -8.90 -9.75 -10.25 -10.55 -13.35 -1.15 -4.15 -0.15 -7.10 9.80 -28.60 1 -2.20 2.15 -4.65 2.50 -5.50 0.35 -0.80 2.35 -5.20 4.40 -9.75 2.10 -4.55 4.05 -9.20 4.40 -10.35 0.65 -2.20 2.15 -3 2.75 -1.40 0.20 0.40 0.55 0.75 0.85 0.75 1.85 0 16.35 13.50 16.35 15.30 0 0.35 0.20 0.70 0.45 0.70 0.65 0 4.05 5.55 4.05 6.60 0 0.50 0.20 0.90 0.40 0.90 0.55 0 2.10 3.30 2.10 4.50 0 0.50 0.25 1 0.55 1.10 0.30 0.10 0.65 1.25 0.80 2.55 l0.30 2.35 -1.85 0 c-1.70 0 -1.80 -0.10 -2.10 -2 -0.20 -1.10 -0.50 -2 -0.65 -2 -0.45 0 -2.05 -3.30 -2.05 -4.25 0 -0.35 -0.15 -0.75 -0.35 -0.85 -0.40 -0.15 -4.15 -5.70 -4.15 -6.15 0 -0.10 -1.95 -2.25 -4.30 -4.75 -5.35 -5.55 -11.10 -10.30 -11.70 -9.70 -0.40 0.40 -4.45 9.20 -16.95 36.85 -4.30 9.50 -4.60 11.15 -2.85 14.60 0.70 1.40 1.30 3.10 1.30 3.90 0 1.15 0.20 1.35 1.40 1.35 1.05 0 2.30 0.95 5.50 4.15 2.25 2.25 4.10 4.50 4.10 5 0 0.50 0.40 0.85 0.95 0.85 1.35 0 2.15 1.20 1.95 3.05 -0.15 1.55 -0.25 1.50 -7.40 -5.85z"/>
  <path d="M172 154.75 c0 -0.95 0.25 -1.75 0.50 -1.75 0.30 0 0.50 -0.35 0.50 -0.75 0 -0.40 0.25 -0.75 0.50 -0.75 0.30 0 0.50 -0.35 0.50 -0.75 0 -0.40 0.35 -0.75 0.75 -0.75 0.45 0 0.75 -0.45 0.75 -1.25 0 -1 0.25 -1.25 1.25 -1.25 0.70 0 1.25 0.15 1.25 0.35 0 0.60 -5.20 8.65 -5.60 8.65 -0.25 0 -0.40 -0.80 -0.40 -1.75z"/>
  <path d="M182.50 136.25 c0 -1.85 1.20 -2.50 1.60 -0.85 0.30 1.35 -0.10 2.60 -0.90 2.60 -0.45 0 -0.70 -0.55 -0.70 -1.75z"/>
  <path d="M178 127.70 c0 -1.95 0.45 -1.90 2 0.30 l1.05 1.50 -1.50 0 c-1.45 0 -1.55 -0.15 -1.55 -1.80z"/>
  <path d="M174.50 123.25 c0 -0.80 -0.30 -1.25 -0.75 -1.25 -0.45 0 -0.75 -0.45 -0.75 -1.25 0 -0.75 -0.30 -1.25 -0.70 -1.25 -0.75 0 -1.30 -1.05 -1.30 -2.55 0 -0.50 -0.30 -0.95 -0.70 -0.95 -0.40 0 -0.85 -0.35 -1 -0.80 -0.45 -1.15 -0.35 -3.70 0.10 -3.70 0.20 0 1.40 1.75 2.60 3.90 1.20 2.10 2.90 5.05 3.85 6.50 l1.65 2.60 -1.50 0 c-1.25 0 -1.50 -0.20 -1.50 -1.25z"/>
  <path d="M166 107.75 c0 -0.70 -0.20 -1.25 -0.50 -1.25 -0.25 0 -0.50 -0.65 -0.50 -1.50 0 -0.80 -0.20 -1.50 -0.50 -1.50 -0.25 0 -0.50 -0.80 -0.50 -1.75 0 -2.40 1.25 -2.30 1.85 0.15 0.30 1 1 3.05 1.60 4.50 l1.05 2.60 -1.25 0 c-1 0 -1.25 -0.25 -1.25 -1.25z"/>
  <path d="M163 97.75 c0 -2 1.20 -2.45 1.70 -0.60 0.50 1.85 0.35 2.35 -0.70 2.35 -0.80 0 -1 -0.35 -1 -1.75z"/>
  <path d="M161.50 88 c0 -2.25 1.15 -2.85 1.70 -0.85 0.55 2.05 0.35 2.85 -0.70 2.85 -0.85 0 -1 -0.35 -1 -2z"/>
  <path d="M161 80.75 c0 -2.45 0.15 -3.25 0.70 -3.25 0.85 0 1.30 1.55 1.30 4.40 0 1.75 -0.15 2.10 -1 2.10 -0.90 0 -1 -0.35 -1 -3.25z"/>
  <path d="M160.50 71.25 c0 -0.95 -0.20 -1.75 -0.50 -1.75 -0.25 0 -0.50 -0.65 -0.50 -1.45 0 -1 -0.30 -1.50 -1 -1.70 -0.70 -0.15 -1 -0.70 -1 -1.55 0 -0.95 -0.25 -1.30 -1 -1.30 -0.75 0 -1 -0.35 -1 -1.25 0 -0.90 -0.25 -1.25 -1 -1.25 -0.65 0 -1 -0.35 -1 -1 0 -0.55 -0.35 -1 -0.75 -1 -0.45 0 -0.75 -0.45 -0.75 -1.25 0 -0.90 -0.25 -1.25 -1 -1.25 -0.75 0 -1 -0.35 -1 -1.25 0 -0.90 -0.25 -1.25 -1 -1.25 -0.75 0 -1 -0.35 -1 -1.25 0 -0.90 -0.25 -1.25 -1 -1.25 -0.65 0 -1 -0.35 -1 -0.95 0 -0.50 -0.45 -1.05 -1 -1.20 -0.60 -0.15 -1 -0.70 -1 -1.30 0 -0.60 -0.30 -1.05 -0.75 -1.05 -0.40 0 -0.75 -0.40 -0.75 -0.95 0 -0.50 -0.45 -1.05 -1 -1.20 -0.60 -0.15 -1 -0.70 -1 -1.30 0 -0.60 -0.30 -1.05 -0.75 -1.05 -0.45 0 -0.95 -0.40 -1.10 -0.85 -0.20 -0.50 -0.60 -1.10 -1 -1.30 -0.35 -0.20 -0.65 -0.80 -0.65 -1.30 0 -0.50 -0.45 -1.05 -1 -1.20 -0.60 -0.15 -1 -0.70 -1 -1.30 0 -0.60 -0.30 -1.05 -0.75 -1.05 -0.45 0 -0.95 -0.40 -1.10 -0.85 -0.20 -0.50 -0.75 -1.20 -1.25 -1.55 -0.50 -0.35 -0.90 -0.95 -0.90 -1.30 0 -0.40 -0.35 -0.80 -0.75 -1 -0.40 -0.15 -0.75 -0.75 -0.75 -1.30 0 -0.55 -0.35 -1 -0.70 -1 -1 0 -3.30 -3.10 -3.30 -4.40 0 -0.80 -0.30 -1.10 -1.20 -1.10 -0.65 0 -2 -0.35 -2.95 -0.75 -1 -0.40 -2.95 -0.75 -4.35 -0.75 -1.85 0 -2.50 -0.20 -2.50 -0.75 0 -1.95 7.30 -1.20 10.60 1.10 1.05 0.70 6.55 7.25 12.25 14.55 5.75 7.25 13.20 16.75 16.60 21.05 6 7.50 8.50 11.75 8.55 14.45 0 0.75 -0.30 1.10 -1 1.10 -0.80 0 -1 -0.35 -1 -1.75z"/>
  <path d="M73.25 55.50 c0.15 -0.25 0.95 -0.95 1.75 -1.50 l1.50 -1.05 0 1.50 c0 1.45 -0.15 1.55 -1.80 1.55 -1 0 -1.65 -0.20 -1.45 -0.50z"/>
  <path d="M79.25 50.20 c1.90 -1.70 2 -1.70 2.15 -0.70 0.30 1.90 -0.25 2.50 -2.25 2.50 l-1.90 -0.05 2 -1.75z"/>
  <path d="M82.75 47 c0.15 -0.25 0.95 -0.95 1.75 -1.50 l1.50 -1.05 0 1.50 c0 1.45 -0.15 1.55 -1.80 1.55 -1 0 -1.65 -0.20 -1.45 -0.50z"/>
  <path d="M88.75 41.70 c1.90 -1.70 2 -1.70 2.15 -0.70 0.30 1.90 -0.25 2.50 -2.25 2.50 l-1.90 -0.05 2 -1.75z"/>
  <path d="M92.75 38 c0.15 -0.25 0.95 -0.95 1.75 -1.50 l1.50 -1.05 0 1.50 c0 1.45 -0.15 1.55 -1.80 1.55 -1 0 -1.65 -0.20 -1.45 -0.50z"/>
  <path d="M98.25 33 c0.15 -0.25 0.95 -0.95 1.75 -1.50 l1.50 -1.05 0 1.50 c0 1.45 -0.15 1.55 -1.80 1.55 -1 0 -1.65 -0.20 -1.45 -0.50z"/>
  <path d="M104.25 27.70 c1.90 -1.70 2 -1.70 2.15 -0.70 0.30 1.90 -0.25 2.50 -2.25 2.50 l-1.90 -0.05 2 -1.75z"/>
  <path d="M108.75 23.70 c1.90 -1.70 2 -1.70 2.15 -0.70 0.30 1.90 -0.25 2.50 -2.25 2.50 l-1.90 -0.05 2 -1.75z"/>
 </g>
 <g fill="#5a33ad">
  <path d="M130.90 200.85 c-6.50 -1.90 -10.40 -3.30 -10.40 -3.70 0 -0.35 0.60 -0.65 1.30 -0.65 1.75 0 5.70 1.05 5.70 1.50 0 0.20 1.05 0.50 2.30 0.65 1.30 0.10 2.45 0.45 2.65 0.70 0.15 0.30 1.30 0.65 2.55 0.80 1.20 0.15 2.30 0.55 2.40 0.80 0.10 0.30 0.70 0.55 1.35 0.55 2.55 0 4.25 0.60 4.25 1.55 0 0.60 -0.35 0.95 -0.85 0.90 -0.50 0 -5.55 -1.40 -11.25 -3.10z"/>
  <path d="M145 203.05 c0 -0.95 1.25 -1.55 3.40 -1.55 0.65 0 1.10 -0.30 1.10 -0.75 0 -0.40 0.25 -0.75 0.50 -0.75 0.30 0 1.05 -0.55 1.70 -1.25 0.70 -0.75 1.70 -1.25 2.55 -1.25 l1.40 0 -1.25 1.65 c-1.30 1.70 -6.80 4.85 -8.45 4.85 -0.60 0 -0.95 -0.35 -0.95 -0.95z"/>
  <path d="M115.90 196.65 c-1.65 -0.40 -1 -1.65 0.85 -1.65 1.40 0 1.75 0.20 1.75 1 0 1 -0.70 1.15 -2.60 0.65z"/>
  <path d="M107.50 195.15 c-8.45 -1.15 -8.50 -1.15 -8.50 -1.90 0 -1 1.70 -0.95 9.40 0.05 5.30 0.75 6.10 0.95 6.10 1.75 0 1.10 0.15 1.10 -7 0.10z"/>
  <path d="M155.50 194.25 c0 -0.95 0.20 -1.75 0.40 -1.75 0.25 0 0.75 -2.25 1.10 -5 0.55 -4.35 0.75 -5 1.55 -5 0.55 0 0.95 0.10 0.95 0.25 0 1.50 -1.70 10.30 -2.25 11.60 -0.90 2.15 -1.75 2.10 -1.75 -0.10z"/>
  <path d="M91.75 193.65 c-5.40 -0.45 -10.20 -1.30 -12.05 -2.20 -1.15 -0.55 -3.70 -2.70 -5.70 -4.85 -3.50 -3.70 -3.60 -3.85 -2.30 -4 1.60 -0.20 4.80 2.70 4.80 4.35 0 0.75 0.30 1.05 1.15 1.05 0.65 0 1.40 0.25 1.65 0.50 0.55 0.55 5.90 -10.40 8.20 -16.75 1.15 -3.25 4 -14.75 4 -16.30 0 -0.60 0.35 -0.95 1 -0.95 1.25 0 1.25 0.55 0 6.20 -1.25 5.55 -1.25 5.90 -0.05 4.10 0.55 -0.85 0.90 -1.65 0.75 -1.90 -0.15 -0.20 0.20 -0.40 0.80 -0.40 0.60 0 1.90 -0.90 3.05 -2.20 1.10 -1.20 3.60 -3.20 5.55 -4.40 1.90 -1.15 4.30 -2.70 5.35 -3.35 3.35 -2.25 11.25 -6.15 16.05 -7.90 7.35 -2.70 9 -3.15 11.50 -3.15 1.25 0 2.75 -0.35 3.30 -0.75 2.45 -1.85 4.70 -0.65 11.90 6.20 3.35 3.15 3.40 3.20 1.45 0.80 -2.10 -2.55 -5.40 -5.75 -8.90 -8.60 l-2 -1.60 1.90 0 c1.30 -0.05 1.85 0.15 1.85 0.70 0 0.40 0.45 0.75 1 0.75 0.60 0 1 0.35 1 0.90 0 0.90 5.50 6.10 6.45 6.10 0.30 0 0.55 0.35 0.55 0.75 0 0.40 0.45 1 1 1.35 0.55 0.35 1 0.95 1 1.30 0 0.35 0.35 0.75 0.75 0.90 0.40 0.20 0.75 0.60 0.75 1 0 0.40 0.25 0.70 0.50 0.70 0.30 0 0.50 0.35 0.50 0.75 0 0.40 0.20 0.75 0.40 0.75 0.80 0 4.60 7.40 4.60 8.95 0 1.40 -0.15 1.55 -1.60 1.55 -1.35 -0.05 -1.90 -0.40 -3 -2 -0.75 -1.10 -1.70 -2 -2.05 -2 -0.40 0 -1.45 -0.40 -2.40 -0.85 -2.80 -1.45 -12.30 -1.20 -18.95 0.50 -10.30 2.60 -15.65 5.30 -23.75 11.85 -5.65 4.65 -11.90 12.05 -14.55 17.35 -1.45 2.85 -1.45 3.15 -0.20 3.15 0.65 0 1 0.35 1 1 0 1.05 -0.70 1.15 -6.25 0.65z m-0.80 -24.65 c0 -0.40 -0.35 0.05 -0.70 1 -0.90 2.30 -0.85 3.20 0 1.25 0.40 -0.80 0.70 -1.85 0.70 -2.25z"/>
  <path d="M158.50 180.25 c0 -1.40 0.20 -1.75 1 -1.75 1.05 0 1.20 0.50 0.70 2.40 -0.50 1.80 -1.70 1.35 -1.70 -0.65z"/>
  <path d="M160 176.05 c0 -1.75 0.95 -4.55 1.55 -4.55 0.25 0 0.45 -0.45 0.45 -1 0 -1.45 1.05 -3.50 1.85 -3.50 0.35 0 0.65 -0.55 0.65 -1.25 0 -0.80 0.30 -1.25 0.75 -1.25 0.45 0 0.75 -0.45 0.75 -1.25 0 -0.70 0.25 -1.25 0.50 -1.25 0.30 0 0.50 -0.35 0.50 -0.75 0 -0.40 0.25 -0.75 0.50 -0.75 0.30 0 0.50 -0.35 0.50 -0.75 0 -0.40 0.25 -0.75 0.50 -0.75 0.30 0 0.50 -0.35 0.50 -0.75 0 -0.40 0.25 -0.75 0.50 -0.75 0.30 0 0.50 -0.35 0.50 -0.75 0 -0.40 0.25 -0.75 0.50 -0.75 0.30 0 0.50 -0.35 0.50 -0.75 0 -0.45 0.45 -0.75 1.25 -0.75 0.70 0 1.25 0.15 1.25 0.35 0 0.15 -1.80 3.05 -4 6.45 -3.65 5.55 -5.65 9.25 -7.70 14.35 -0.90 2.20 -1.80 2.40 -1.80 0.40z"/>
  <path d="M58.55 170.70 c-4.50 -4.75 -4.65 -4.95 -3.35 -5.10 1.60 -0.20 2.80 0.65 2.80 1.95 0 0.60 0.35 0.95 0.90 0.95 0.50 0 1.75 0.85 2.80 1.95 1.50 1.55 1.85 2.20 1.70 3.55 l-0.15 1.60 -4.70 -4.90z"/>
  <path d="M46.35 158.05 c-3.90 -4.10 -5.05 -6.75 -4.75 -11 0.30 -3.55 -0.45 -1.75 13.80 -33.05 3.45 -7.55 6.55 -14.55 6.90 -15.50 0.35 -0.95 0.90 -1.70 1.25 -1.60 0.45 0.10 0.45 -0.05 -0.05 -0.65 -0.35 -0.40 -0.50 -0.90 -0.35 -1.05 0.40 -0.45 3.35 0.30 3.35 0.85 0 0.25 0.35 0.45 0.75 0.45 0.40 0 0.75 0.35 0.75 0.75 0 0.40 0.45 0.75 1 0.75 0.65 0 1 0.35 1 1 0 0.70 0.35 1 1.20 1 1.25 0 1.80 0.80 1.80 2.60 0 0.90 -0.25 0.80 -2.35 -0.85 l-2.40 -1.85 2.50 2.30 2.50 2.30 -1.90 0 c-1.70 0 -1.90 -0.15 -2.15 -1.50 -0.25 -1.15 -0.60 -1.50 -1.50 -1.50 -0.65 0 -1.20 -0.20 -1.20 -0.50 0 -0.25 -0.45 -0.50 -1 -0.50 -0.55 0 -1 -0.20 -1 -0.50 0 -0.25 -0.20 -0.50 -0.50 -0.50 -0.25 0 -0.50 0.45 -0.50 1 0 1.20 -1.55 4.50 -2.10 4.50 -0.20 0 -0.40 0.45 -0.40 0.95 0 1.25 -3.50 9.05 -4.05 9.05 -0.25 0 -0.45 0.45 -0.45 1 0 0.85 -3.20 8.70 -4.50 10.85 -0.25 0.50 -1.95 4.25 -3.75 8.40 -1.80 4.10 -3.50 7.60 -3.75 7.75 -0.70 0.45 -1.25 6.35 -0.65 7.10 0.30 0.35 0.65 1.25 0.85 1.95 0.15 0.75 1.30 2.35 2.60 3.60 1.90 1.90 2.25 2.50 2.10 3.85 l-0.15 1.60 -2.90 -3.05z"/>
  <path d="M92 151 c0 -1.65 0.15 -2 1 -2 1.05 0 1.25 0.80 0.70 2.90 -0.55 1.95 -1.70 1.35 -1.70 -0.90z"/>
  <path d="M177 146.75 c0 -1.55 0.15 -1.75 1.25 -1.75 1.50 0 1.50 0.15 0.40 2.05 -1.15 1.90 -1.65 1.85 -1.65 -0.30z"/>
  <path d="M91.95 142.65 c-0.05 -4.25 -0.60 -6.40 -1.70 -6.55 -0.80 -0.10 -1.20 -0.85 -1.90 -3.45 -0.45 -1.80 -1.40 -4.55 -2.05 -6.10 -0.70 -1.55 -1.60 -3.75 -2.10 -4.90 -0.50 -1.20 -1.05 -2.15 -1.30 -2.15 -0.20 0 -0.40 -0.35 -0.40 -0.75 0 -0.40 -0.20 -0.75 -0.45 -0.75 -0.25 0 -0.60 -0.65 -0.80 -1.50 -0.20 -0.80 -0.65 -1.50 -1.05 -1.50 -0.40 0 -0.70 -0.50 -0.70 -1.20 0 -0.90 -0.30 -1.25 -1.10 -1.40 -0.95 -0.10 -1.20 -0.50 -1.30 -2.15 l-0.15 -2 1.40 1.25 c1.20 1.05 1.25 1.10 0.45 0.15 -0.95 -1.15 -0.95 -1.15 0.10 -1.15 1.70 0 2.60 0.55 2.60 1.55 0 0.50 0.35 0.95 0.75 0.95 0.40 0 0.75 0.45 0.75 1 0 0.55 0.35 1 0.75 1 0.40 0 0.75 0.35 0.75 0.75 0 0.40 0.25 0.75 0.50 0.75 0.30 0 0.50 0.30 0.50 0.70 0 0.40 0.35 1.05 0.75 1.50 0.95 0.95 3.75 6.80 3.75 7.85 0 0.40 0.20 0.95 0.45 1.25 0.25 0.25 0.80 1.75 1.25 3.35 0.45 1.55 1.05 2.85 1.30 2.85 0.30 0 0.50 -0.20 0.50 -0.40 0 -0.45 8.85 -2.10 11 -2.10 0.55 0 1 0.35 1 0.75 0 0.40 -0.05 0.75 -0.15 0.75 -0.45 0 -11.70 2.05 -12.20 2.25 -0.40 0.10 -0.45 0.75 -0.15 2.10 0.25 1.05 0.60 3.65 0.75 5.80 0.35 3.70 0.35 3.85 -0.70 3.85 -0.90 0 -1.05 -0.30 -1.10 -2.35z"/>
  <path d="M180 141.75 c0 -1.55 0.15 -1.75 1.25 -1.75 1.50 0 1.50 0.15 0.40 2.05 -1.15 1.90 -1.65 1.85 -1.65 -0.30z"/>
  <path d="M136 135 c-1.50 -0.80 -4.60 -1.95 -6.85 -2.55 -2.85 -0.75 -4.15 -1.35 -4.15 -1.85 0 -0.60 0.50 -0.70 2.60 -0.45 1.45 0.20 2.70 0.55 2.80 0.85 0.10 0.25 0.95 0.50 1.90 0.50 0.95 0 1.70 0.25 1.70 0.50 0 0.30 0.55 0.50 1.20 0.50 0.70 0 1.55 0.35 2 0.75 0.40 0.40 1.10 0.75 1.50 0.75 0.50 0 0.80 0.45 0.80 1.25 0 1.50 -0.05 1.50 -3.50 -0.25z"/>
  <path d="M180.50 132 c0 -0.55 -0.35 -1 -0.75 -1 -0.50 0 -0.75 -0.55 -0.75 -1.75 0 -1.55 -0.15 -1.75 -1.25 -1.75 -0.80 0 -1.25 -0.30 -1.25 -0.75 0 -0.40 -0.20 -0.75 -0.50 -0.75 -0.25 0 -0.50 -0.80 -0.50 -1.80 0 -0.95 0.20 -1.65 0.45 -1.45 0.30 0.15 1.55 1.80 2.85 3.65 1.30 1.85 2.90 4.10 3.60 5 l1.20 1.60 -1.55 0 c-1.20 0 -1.55 -0.20 -1.55 -1z"/>
  <path d="M107 130 c0 -0.80 0.35 -1 1.75 -1 2 0 2.45 1.20 0.65 1.70 -1.90 0.50 -2.40 0.35 -2.40 -0.70z"/>
  <path d="M120.40 130.65 c-1.65 -0.40 -1 -1.65 0.85 -1.65 1.40 0 1.75 0.20 1.75 1 0 1 -0.70 1.15 -2.60 0.65z"/>
  <path d="M172 118.75 c0 -2.15 0.50 -2.20 1.65 -0.30 1.10 1.90 1.10 2.05 -0.40 2.05 -1.10 0 -1.25 -0.20 -1.25 -1.75z"/>
  <path d="M165.50 106.75 c0 -0.70 -0.20 -1.25 -0.50 -1.25 -0.25 0 -0.50 -0.80 -0.50 -1.75 0 -0.95 -0.20 -1.75 -0.45 -1.75 -0.45 0 -2.05 -7.75 -2.05 -9.85 0 -0.70 0.30 -1.15 0.75 -1.15 0.40 0 0.75 0.15 0.75 0.30 0 1.45 2.30 10.95 3.25 13.50 l1.20 3.20 -1.20 0 c-1 0 -1.25 -0.25 -1.25 -1.25z"/>
  <path d="M161.50 88.75 c0 -2 1.20 -2.45 1.70 -0.60 0.50 1.85 0.35 2.35 -0.70 2.35 -0.80 0 -1 -0.35 -1 -1.75z"/>
  <path d="M161 83 c0 -2.25 1.15 -2.85 1.70 -0.85 0.55 2.05 0.35 2.85 -0.70 2.85 -0.85 0 -1 -0.35 -1 -2z"/>
  <path d="M65 82.40 c0 -1.50 0.65 -2.90 1.30 -2.90 0.45 0 0.70 0.60 0.70 1.75 0 1.40 -0.20 1.75 -1 1.75 -0.55 0 -1 -0.30 -1 -0.60z"/>
  <path d="M160.25 71.15 c-0.20 -1.25 -0.65 -2.60 -1.05 -3 -0.40 -0.40 -0.70 -1.15 -0.70 -1.70 0 -0.50 -0.35 -0.95 -0.75 -0.95 -0.45 0 -0.75 -0.45 -0.75 -1.25 0 -0.90 -0.25 -1.25 -1 -1.25 -0.75 0 -1 -0.35 -1 -1.25 0 -0.90 -0.25 -1.25 -1 -1.25 -0.65 0 -1 -0.35 -1 -1 0 -0.55 -0.35 -1 -0.75 -1 -0.45 0 -0.75 -0.45 -0.75 -1.25 0 -0.90 -0.25 -1.25 -1 -1.25 -0.75 0 -1 -0.35 -1 -1.25 0 -0.90 -0.25 -1.25 -1 -1.25 -0.75 0 -1 -0.35 -1 -1.25 0 -0.90 -0.25 -1.25 -1 -1.25 -0.75 0 -1 -0.35 -1 -1.25 0 -0.90 -0.25 -1.25 -1 -1.25 -0.65 0 -1 -0.35 -1 -1 0 -0.55 -0.35 -1 -0.75 -1 -0.45 0 -0.75 -0.45 -0.75 -1.25 0 -0.90 -0.25 -1.25 -1 -1.25 -0.75 0 -1 -0.35 -1 -1.25 0 -0.90 -0.25 -1.25 -1 -1.25 -0.65 0 -1 -0.35 -1 -1 0 -0.55 -0.35 -1 -0.75 -1 -0.45 0 -0.75 -0.45 -0.75 -1.25 0 -0.90 -0.25 -1.25 -1 -1.25 -0.75 0 -1 -0.35 -1 -1.25 0 -0.90 -0.25 -1.25 -1 -1.25 -0.75 0 -1 -0.35 -1 -1.25 0 -0.90 -0.25 -1.25 -1 -1.25 -0.65 0 -1 -0.35 -1 -1 0 -0.55 -0.35 -1 -0.75 -1 -0.55 0 -0.75 -0.55 -0.75 -1.85 0 -1.85 0 -1.85 0.90 -0.90 3.05 3.25 30.65 38.85 31.25 40.30 0.40 1 0.90 2.75 1.10 3.90 0.30 1.85 0.25 2.05 -0.65 2.05 -0.80 0 -1.05 -0.45 -1.35 -2.35z"/>
  <path d="M66.50 72.40 c0 -1.50 0.65 -2.90 1.30 -2.90 0.45 0 0.70 0.60 0.70 1.75 0 1.40 -0.20 1.75 -1 1.75 -0.55 0 -1 -0.30 -1 -0.60z"/>
  <path d="M67.75 64.65 c0.55 -3.25 2.20 -6 5.15 -8.70 2.60 -2.40 2.85 -2.50 3 -1.50 0.30 1.90 -0.25 2.55 -2.15 2.55 -1.65 0 -1.75 0.10 -1.75 1.75 0 0.95 -0.20 1.75 -0.45 1.75 -0.25 0 -0.60 0.55 -0.75 1.25 -0.20 0.70 -0.55 1.25 -0.80 1.25 -0.30 0 -0.50 0.80 -0.50 1.75 0 1.45 -0.20 1.75 -1.05 1.75 -0.95 0 -1.05 -0.20 -0.70 -1.85z"/>
  <path d="M77.25 52 c0.15 -0.25 0.95 -0.95 1.75 -1.50 l1.50 -1.05 0 1.50 c0 1.45 -0.15 1.55 -1.80 1.55 -1 0 -1.65 -0.20 -1.45 -0.50z"/>
  <path d="M82.25 47.50 c0.15 -0.25 0.95 -0.95 1.75 -1.50 l1.50 -1.05 0 1.50 c0 1.45 -0.15 1.55 -1.80 1.55 -1 0 -1.65 -0.20 -1.45 -0.50z"/>
  <path d="M87.75 42.70 c1.90 -1.70 2 -1.70 2.15 -0.70 0.30 1.90 -0.25 2.50 -2.25 2.50 l-1.90 -0.05 2 -1.75z"/>
  <path d="M92.25 38.50 c0.15 -0.25 0.95 -0.95 1.75 -1.50 l1.50 -1.05 0 1.50 c0 1.45 -0.15 1.55 -1.80 1.55 -1 0 -1.65 -0.20 -1.45 -0.50z"/>
  <path d="M98.75 32.70 c1.90 -1.70 2 -1.70 2.15 -0.70 0.30 1.90 -0.25 2.50 -2.25 2.50 l-1.90 -0.05 2 -1.75z"/>
  <path d="M102.25 29.50 c0.15 -0.25 0.95 -0.95 1.75 -1.50 l1.50 -1.05 0 1.50 c0 1.45 -0.15 1.55 -1.80 1.55 -1 0 -1.65 -0.20 -1.45 -0.50z"/>
  <path d="M106.50 25.80 c0 -0.35 5.60 -4.80 6.05 -4.80 0.25 0 0.45 0.55 0.45 1.25 0 1.05 -0.25 1.25 -1.50 1.25 -1.25 0 -1.50 0.20 -1.50 1.25 0 1.10 -0.20 1.25 -1.75 1.25 -0.95 0 -1.75 -0.10 -1.75 -0.20z"/>
  <path d="M124.85 24.65 c-0.20 -0.15 -0.35 -0.95 -0.35 -1.75 0 -1.40 0.05 -1.40 1.05 -0.70 0.55 0.40 1.35 1.20 1.75 1.75 0.70 1 0.70 1.05 -0.70 1.05 -0.80 0 -1.60 -0.15 -1.75 -0.35z"/>
  <path d="M115 20.80 c0 -0.40 0.60 -0.85 1.30 -1 1.80 -0.45 4.20 0.10 4.20 1 0 0.50 -0.70 0.70 -2.75 0.70 -2 0 -2.75 -0.20 -2.75 -0.70z"/>
 </g>
 <g fill="#612fc8">
  <path d="M43.70 154.80 c-0.40 -0.70 -0.85 -1.55 -0.90 -1.90 -0.10 -0.35 -0.35 -1.20 -0.65 -1.90 -0.65 -1.65 0.05 -8.05 1.05 -9.60 0.40 -0.65 2 -4.05 3.55 -7.65 1.55 -3.55 3.15 -7.15 3.60 -8 0.40 -0.80 1.95 -4.20 3.40 -7.50 4.65 -10.55 9.35 -21 9.55 -21.20 0.50 -0.50 6.50 4.30 11.45 9.20 5.75 5.70 9.10 10.30 12 16.40 0.95 2 1.60 3.05 1.45 2.35 -0.50 -2 -4.10 -8.50 -6.70 -12.05 -3.10 -4.15 -10.70 -11.50 -15.25 -14.70 -2.95 -2.10 -3.30 -2.50 -2.35 -2.65 0.70 -0.10 2.25 0.55 4 1.75 4.15 2.80 13.55 12.35 16.30 16.60 2.85 4.35 5.85 10.95 7.10 15.55 0.50 1.80 1.10 3.40 1.35 3.55 0.25 0.15 0.05 0.45 -0.40 0.65 -1.15 0.45 -1.15 0.45 -1.50 -1.25 -0.45 -2 -0.85 -1.60 -0.45 0.45 0.20 1.05 0.65 1.60 1.40 1.70 0.90 0.15 1.10 0.65 1.50 3.25 0.35 2.55 0.30 3.25 -0.35 3.85 -1.10 1.15 -2.90 1 -6.20 -0.50 -1.60 -0.70 -4.65 -1.85 -6.80 -2.55 -8.60 -2.80 -18.55 -0.35 -26.35 6.50 -1.20 1 -2.30 1.85 -2.50 1.85 -0.35 0 -2.50 4.55 -2.50 5.40 0 0.30 -0.45 0.70 -1 0.85 -0.55 0.15 -1.15 0.85 -1.30 1.55 -0.40 1.55 -1.45 1.55 -2.50 0z m45.80 -26.55 c-0.80 -2.35 -1.15 -2 -0.40 0.40 0.30 1 0.65 1.75 0.80 1.65 0.10 -0.15 -0.05 -1.05 -0.40 -2.05z"/>
 </g>
 <g fill="#6740bb">
  <path d="M140.90 203.65 c-1.65 -0.40 -1 -1.65 0.85 -1.65 1.40 0 1.75 0.20 1.75 1 0 1 -0.70 1.15 -2.60 0.65z"/>
  <path d="M147.50 202.30 c0 -1.30 0.85 -1.80 3.05 -1.80 1.20 0 1.45 -0.20 1.45 -1.25 0 -0.90 0.25 -1.25 1 -1.25 0.70 0 1 -0.35 1 -1.05 0 -1.05 0.85 -3 1.50 -3.45 0.25 -0.15 0.85 -3.05 1.45 -6.50 1.10 -6.75 2.95 -13.50 3.65 -13.50 0.75 0 0.40 -2.30 -0.50 -3.05 -0.55 -0.45 -2.60 -1.30 -4.60 -1.90 -4.60 -1.40 -14.10 -1.60 -18.75 -0.45 -5.50 1.40 -14.95 6.40 -19.25 10.20 -3.70 3.25 -9.40 10.05 -10.50 12.60 l-0.90 2 2.55 0.35 c4.70 0.60 8.35 1.35 8.35 1.80 0 0.25 0.55 0.45 1.20 0.45 2.60 0 4.30 0.60 4.30 1.55 0 1.20 -0.20 1.20 -5.70 -0.30 -4.55 -1.20 -12.40 -2.40 -20.30 -3.05 -2.35 -0.20 -3.95 -0.45 -3.60 -0.55 0.30 -0.15 0.60 -0.45 0.60 -0.70 0 -0.20 0.60 -1.70 1.35 -3.30 0.75 -1.60 1.35 -3 1.40 -3.15 0.05 -0.55 5.60 -7.75 8 -10.40 2.85 -3.10 8 -7.40 12.75 -10.60 3.85 -2.60 9.90 -5.05 17 -6.90 4.55 -1.15 6.25 -1.35 12.75 -1.35 6.20 0 7.80 0.15 9.20 0.90 0.95 0.45 2 0.85 2.35 0.85 0.35 0 1.25 0.75 1.95 1.65 l1.35 1.60 -1.40 -2.45 -1.40 -2.45 1.25 0.30 c0.65 0.20 1.35 0.35 1.60 0.35 0.20 0 0.35 0.40 0.35 0.90 0 0.50 0.45 1.40 1 2 0.60 0.60 1.50 2.15 2.05 3.40 l1 2.35 -2 4.05 c-2.55 5.30 -4.40 11.25 -5.40 17.50 -0.75 5 -2.25 9.10 -4 11.05 -1.35 1.55 -4.25 3.60 -5.80 4.20 -1.25 0.50 -1.35 0.45 -1.35 -0.65z"/>
  <path d="M136.90 202.65 c-1.65 -0.40 -1 -1.65 0.85 -1.65 1.40 0 1.75 0.20 1.75 1 0 1 -0.70 1.15 -2.60 0.65z"/>
  <path d="M131.90 201.15 c-1.65 -0.40 -1 -1.65 0.85 -1.65 1.40 0 1.75 0.20 1.75 1 0 1 -0.70 1.15 -2.60 0.65z"/>
  <path d="M126.90 199.65 c-1.65 -0.40 -1 -1.65 0.85 -1.65 1.40 0 1.75 0.20 1.75 1 0 1 -0.70 1.15 -2.60 0.65z"/>
  <path d="M79.65 191.65 c-0.35 -0.10 -0.65 -0.45 -0.65 -0.75 0 -0.95 2.60 -6.40 3.05 -6.40 0.25 0 0.45 -0.45 0.45 -1 0 -0.75 0.35 -1 1.25 -1 1.25 0 1.25 0.05 0.55 1.65 -1.85 4.25 -3.55 7.80 -3.80 7.80 -0.15 0 -0.55 -0.15 -0.85 -0.30z"/>
  <path d="M76 188.50 l-2.25 -2.25 1.45 -0.15 c1.95 -0.25 3.45 1.25 3.20 3.20 l-0.15 1.45 -2.25 -2.25z"/>
  <path d="M85 178.90 c0 -2.15 0.60 -3.05 1.90 -2.80 l1.05 0.15 -0.95 2.15 c-1.15 2.50 -2 2.70 -2 0.50z"/>
  <path d="M62.60 174.75 l-1.65 -2 1.35 -0.15 c1.75 -0.25 2.30 0.40 2.10 2.45 l-0.15 1.70 -1.65 -2z"/>
  <path d="M87.10 173.70 c0.15 -1.10 0.80 -3.80 1.45 -6.05 0.95 -3.25 1.40 -4.15 2.15 -4.15 0.80 0 0.85 0.25 0.55 1.90 -1.10 6.10 -4.75 13.35 -4.15 8.30z"/>
  <path d="M50.75 162.40 c-5.55 -5.80 -7.75 -8.35 -7.75 -8.95 0 -0.30 0.30 -0.45 0.70 -0.30 0.70 0.30 2.30 -1.25 2.30 -2.30 0 -0.40 0.20 -0.35 0.50 0.15 0.40 0.65 0.50 0.65 0.50 0.05 0 -1 2.10 -5.55 2.50 -5.55 0.20 0 1.30 -0.85 2.50 -1.85 4.65 -4.10 9.45 -6.35 16.05 -7.55 5.45 -1 12.55 0.25 19.95 3.55 3.50 1.55 4.25 1.05 3.90 -2.70 -0.25 -2.25 0.15 -3.10 0.80 -2.05 0.15 0.25 0.50 3.05 0.85 6.25 0.40 4.35 0.40 7.30 0 11.50 -0.70 6.75 -0.95 7.85 -1.90 7.85 -0.65 0 -0.70 -0.55 -0.40 -3.25 0.30 -3.10 0.30 -3.25 -0.75 -3.25 -1.30 0 -4 -1.50 -4 -2.25 -0.05 -0.70 -2 -2.05 -6.45 -4.35 -3.75 -1.95 -3.85 -2 -7.90 -1.75 -3.40 0.25 -4.75 0.60 -7.90 2.15 -2.10 1 -4.20 2.40 -4.70 3 -0.55 0.65 -1.15 1.20 -1.45 1.20 -0.25 0 -0.90 0.60 -1.40 1.40 -0.50 0.75 -1.20 1.65 -1.55 2.05 -0.40 0.35 -0.95 1.65 -1.25 2.85 -0.35 1.20 -0.80 2.20 -1.10 2.20 -0.25 0 0.05 0.55 0.65 1.20 0.80 0.85 1.05 1.65 0.95 2.80 l-0.15 1.60 -3.50 -3.70z"/>
  <path d="M154.90 151 l-1.40 -1.75 1.30 -0.15 c1.65 -0.20 1.80 -0.05 1.60 1.95 l-0.15 1.70 -1.35 -1.75z"/>
  <path d="M174.50 150.75 c0 -1.20 0.25 -1.75 0.75 -1.75 0.45 0 0.75 -0.45 0.75 -1.25 0 -1 0.25 -1.25 1.25 -1.25 0.70 0 1.25 0.15 1.25 0.30 0 0.60 -3.25 5.70 -3.60 5.70 -0.25 0 -0.40 -0.80 -0.40 -1.75z"/>
  <path d="M178.50 144.25 c0 -1.55 0.15 -1.75 1.25 -1.75 1.50 0 1.50 0.15 0.40 2.05 -1.15 1.90 -1.65 1.85 -1.65 -0.30z"/>
  <path d="M181.50 139.25 c0 -1.55 0.15 -1.75 1.25 -1.75 1.50 0 1.50 0.15 0.40 2.05 -1.15 1.90 -1.65 1.85 -1.65 -0.30z"/>
  <path d="M139.90 137.10 c-1.60 -1.05 -2.90 -2 -2.90 -2.20 0 -0.25 0.80 -0.40 1.75 -0.40 1.20 0 1.75 0.25 1.75 0.75 0 0.45 0.45 0.75 1.25 0.75 1.05 0 1.25 0.25 1.25 1.50 0 0.85 -0.05 1.50 -0.10 1.45 -0.10 0 -1.45 -0.85 -3 -1.85z"/>
  <path d="M181.70 134 c-0.20 -0.80 -0.65 -1.50 -1 -1.50 -0.45 0 -0.70 -0.60 -0.70 -1.75 0 -0.95 0.10 -1.75 0.25 -1.75 0.10 0 1 1.05 2 2.30 2 2.65 2.25 4.20 0.75 4.20 -0.75 0 -1.10 -0.45 -1.30 -1.50z"/>
  <path d="M90.60 132.05 c-0.80 -2.65 -0.75 -3.05 0.40 -3.05 0.80 0 1 0.35 1 1.50 0 0.85 0.25 1.50 0.50 1.50 0.80 0 0.55 1.35 -0.30 1.70 -0.45 0.15 -0.85 0.30 -0.90 0.30 -0.10 0 -0.40 -0.85 -0.70 -1.95z"/>
  <path d="M129.90 132.65 c-1.65 -0.40 -1 -1.65 0.85 -1.65 1.40 0 1.75 0.20 1.75 1 0 1 -0.70 1.15 -2.60 0.65z"/>
  <path d="M98.50 131.10 c0 -0.75 0.45 -1.05 2.30 -1.30 3.45 -0.45 4.20 -0.40 4.20 0.40 0 0.70 -0.55 0.90 -4.60 1.60 -1.65 0.25 -1.90 0.20 -1.90 -0.70z"/>
  <path d="M124.25 131.25 c-0.25 -0.10 -1.35 -0.30 -2.35 -0.50 -1.20 -0.20 -1.90 -0.55 -1.90 -1 0 -0.85 0.75 -0.90 4.20 -0.45 1.80 0.25 2.30 0.55 2.30 1.25 0 0.90 -0.90 1.15 -2.25 0.70z"/>
  <path d="M106.50 130 c0 -0.80 0.35 -1 1.75 -1 2 0 2.45 1.20 0.65 1.70 -1.90 0.50 -2.40 0.35 -2.40 -0.70z"/>
  <path d="M89.30 127.55 c-0.15 -0.20 -0.50 -1 -0.75 -1.75 -0.50 -1.20 -0.40 -1.30 0.70 -1.30 1.10 0 1.25 0.20 1.25 1.75 0 1.65 -0.60 2.30 -1.20 1.30z"/>
  <path d="M173.50 121.25 c0 -2.15 0.50 -2.20 1.65 -0.30 1.10 1.90 1.10 2.05 -0.40 2.05 -1.10 0 -1.25 -0.20 -1.25 -1.75z"/>
  <path d="M84.85 118.05 c-1.10 -1.90 -1.10 -2.05 0.40 -2.05 1.10 0 1.25 0.20 1.25 1.75 0 2.15 -0.50 2.20 -1.65 0.30z"/>
  <path d="M170 115.25 c0 -1.40 -0.20 -1.75 -0.95 -1.75 -0.50 0 -1.10 -0.35 -1.25 -0.80 -0.45 -1.20 -0.35 -3.70 0.15 -3.70 0.40 0 4.55 7.15 4.55 7.80 0 0.10 -0.55 0.20 -1.25 0.20 -1.10 0 -1.25 -0.20 -1.25 -1.75z"/>
  <path d="M81.45 112.90 c-0.90 -1.20 -1.85 -2.45 -2.10 -2.75 -0.35 -0.50 -0.10 -0.65 1.10 -0.65 1.20 0 1.55 0.20 1.55 1 0 0.55 0.35 1 0.75 1 0.50 0 0.75 0.55 0.75 1.75 0 0.95 -0.10 1.75 -0.20 1.75 -0.10 0 -0.95 -0.95 -1.85 -2.10z"/>
  <path d="M75.25 106 l-2.95 -3 1.75 0 c2.40 0 4.60 2.20 4.35 4.45 l-0.15 1.60 -3 -3.05z"/>
  <path d="M164 102.25 c0 -2 1.20 -2.45 1.70 -0.60 0.50 1.85 0.35 2.35 -0.70 2.35 -0.80 0 -1 -0.35 -1 -1.75z"/>
  <path d="M67.65 99.35 c-5.10 -3.90 -4.75 -3.50 -4.35 -5.05 0.35 -1.50 1.70 -1.75 1.70 -0.30 0 0.55 0.25 1 0.50 1 0.30 0 0.50 0.55 0.50 1.25 0 1.10 0.20 1.25 1.75 1.25 1.40 0 1.75 0.20 1.75 1 0 0.75 0.35 1 1.25 1 1.05 0 1.25 0.25 1.25 1.50 0 0.85 -0.05 1.50 -0.10 1.50 -0.10 -0.05 -2 -1.45 -4.25 -3.15z"/>
  <path d="M161.50 89.25 c0 -2 1.20 -2.45 1.70 -0.60 0.50 1.85 0.35 2.35 -0.70 2.35 -0.80 0 -1 -0.35 -1 -1.75z"/>
  <path d="M64 89.40 c0 -1.50 0.65 -2.90 1.30 -2.90 0.45 0 0.70 0.60 0.70 1.75 0 1.40 -0.20 1.75 -1 1.75 -0.55 0 -1 -0.30 -1 -0.60z"/>
  <path d="M161 83.75 c0 -2 1.20 -2.45 1.70 -0.60 0.50 1.85 0.35 2.35 -0.70 2.35 -0.80 0 -1 -0.35 -1 -1.75z"/>
  <path d="M65 82.90 c0 -1.50 0.65 -2.90 1.30 -2.90 0.45 0 0.70 0.60 0.70 1.75 0 1.40 -0.20 1.75 -1 1.75 -0.55 0 -1 -0.30 -1 -0.60z"/>
  <path d="M66 76.40 c0 -1.50 0.65 -2.90 1.30 -2.90 0.45 0 0.70 0.60 0.70 1.75 0 1.40 -0.20 1.75 -1 1.75 -0.55 0 -1 -0.30 -1 -0.60z"/>
  <path d="M160.50 72.25 c0 -2 1.20 -2.45 1.70 -0.60 0.50 1.85 0.35 2.35 -0.70 2.35 -0.80 0 -1 -0.35 -1 -1.75z"/>
  <path d="M67 69.90 c0 -1.50 0.65 -2.90 1.30 -2.90 0.45 0 0.70 0.60 0.70 1.75 0 1.40 -0.20 1.75 -1 1.75 -0.55 0 -1 -0.30 -1 -0.60z"/>
  <path d="M156.50 63.20 c0 -1.95 0.45 -1.90 2 0.30 l1.05 1.50 -1.50 0 c-1.45 0 -1.55 -0.15 -1.55 -1.80z"/>
  <path d="M68 63.70 c0 -1.05 0.90 -2.70 1.50 -2.70 0.30 0 0.50 0.80 0.50 1.75 0 1.40 -0.20 1.75 -1 1.75 -0.55 0 -1 -0.35 -1 -0.80z"/>
  <path d="M151 56.75 c0 -0.90 -0.25 -1.25 -1 -1.25 -0.75 0 -1 -0.35 -1 -1.25 0 -0.90 -0.25 -1.25 -1 -1.25 -0.75 0 -1 -0.35 -1 -1.25 0 -0.90 -0.25 -1.25 -1 -1.25 -0.80 0 -1 -0.35 -1 -1.75 0 -0.95 0.10 -1.75 0.20 -1.75 0.15 0 5.75 6.90 8.45 10.40 0.35 0.45 0.10 0.60 -1.10 0.60 -1.30 0 -1.55 -0.20 -1.55 -1.25z"/>
  <path d="M71.75 57 c0.15 -0.25 0.95 -0.95 1.75 -1.50 l1.50 -1.05 0 1.50 c0 1.45 -0.15 1.55 -1.80 1.55 -1 0 -1.65 -0.20 -1.45 -0.50z"/>
  <path d="M81.75 48 c0.15 -0.25 0.95 -0.95 1.75 -1.50 l1.50 -1.05 0 1.50 c0 1.45 -0.15 1.55 -1.80 1.55 -1 0 -1.65 -0.20 -1.45 -0.50z"/>
  <path d="M141.50 44.75 c0 -0.90 -0.25 -1.25 -1 -1.25 -0.75 0 -1 -0.35 -1 -1.25 0 -0.90 -0.25 -1.25 -1 -1.25 -0.65 0 -1 -0.35 -1 -1 0 -0.55 -0.35 -1 -0.75 -1 -0.45 0 -0.75 -0.45 -0.75 -1.25 0 -0.90 -0.25 -1.25 -1 -1.25 -0.75 0 -1 -0.35 -1 -1.25 0 -0.90 -0.25 -1.25 -1 -1.25 -0.75 0 -1 -0.35 -1 -1.25 0 -0.90 -0.25 -1.25 -1 -1.25 -0.65 0 -1 -0.35 -1 -1 0 -0.55 -0.35 -1 -0.75 -1 -0.50 0 -0.75 -0.50 -0.75 -1.50 0 -1.25 -0.20 -1.50 -1.25 -1.50 -1.05 0 -1.25 -0.25 -1.25 -1.50 0 -1.35 -0.15 -1.50 -1.50 -1.50 -0.95 0 -1.50 -0.25 -1.50 -0.70 0 -1.10 -5.50 -1.50 -7.80 -0.55 -2 0.85 -4.70 1 -4.70 0.30 0 -1.05 4.65 -2.70 7.50 -2.70 6.25 0.10 6.45 0.25 26.15 25.55 0.35 0.45 0.10 0.60 -1.10 0.60 -1.30 0 -1.55 -0.20 -1.55 -1.25z"/>
  <path d="M92.75 38.20 c1.90 -1.70 2 -1.70 2.15 -0.70 0.30 1.90 -0.25 2.50 -2.25 2.50 l-1.90 -0.05 2 -1.75z"/>
  <path d="M96.75 34.50 c0.15 -0.25 0.95 -0.95 1.75 -1.50 l1.50 -1.05 0 1.50 c0 1.45 -0.15 1.55 -1.80 1.55 -1 0 -1.65 -0.20 -1.45 -0.50z"/>
  <path d="M101.75 30 c0.15 -0.25 0.95 -0.95 1.75 -1.50 l1.50 -1.05 0 1.50 c0 1.45 -0.15 1.55 -1.80 1.55 -1 0 -1.65 -0.20 -1.45 -0.50z"/>
  <path d="M106.25 26 c0.15 -0.25 0.95 -0.95 1.75 -1.50 l1.50 -1.05 0 1.50 c0 1.45 -0.15 1.55 -1.80 1.55 -1 0 -1.65 -0.20 -1.45 -0.50z"/>
 </g>
 <g fill="#7148c8">
  <path d="M144.50 203 c0 -0.80 0.35 -1 1.75 -1 2 0 2.45 1.20 0.65 1.70 -1.90 0.50 -2.40 0.35 -2.40 -0.70z"/>
  <path d="M119.50 197.45 c-3.70 -1.05 -8.65 -2.20 -11 -2.50 -2.35 -0.30 -4.45 -0.70 -4.65 -0.90 -0.75 -0.70 2.65 -6.80 6 -10.80 5.85 -6.95 9.85 -9.95 19.40 -14.45 5.10 -2.40 8.90 -3.05 17 -3 5.80 0.05 7.65 0.25 10.75 1.20 2.05 0.65 4.05 1.45 4.40 1.85 0.85 0.80 1.70 0.85 2.50 0.05 0.90 -0.90 0.75 -0.15 -0.40 1.95 -0.50 1 -1.70 4.15 -2.60 7 -1.70 5.25 -2.90 6.70 -2.90 3.40 0 -0.95 0.25 -1.75 0.50 -1.75 1.50 0 0.05 -0.90 -3.10 -2 -3.05 -1.05 -4.55 -1.25 -9.15 -1.20 -3.60 0 -6.50 0.35 -8.50 0.90 -1.65 0.50 -3.85 1.05 -4.90 1.30 -1.05 0.20 -2.15 0.70 -2.50 1.10 -0.35 0.45 -2.15 1.80 -4.10 3.05 -3.45 2.20 -8.80 7.10 -10.75 9.85 l-1 1.40 2.70 0.80 c1.50 0.45 2.95 0.80 3.25 0.80 0.30 0 0.55 0.25 0.55 0.50 0 0.30 0.80 0.50 1.75 0.50 0.95 0 1.75 0.25 1.75 0.50 0 0.30 0.80 0.50 1.75 0.50 1.40 0 1.75 0.20 1.75 1 0 1.30 -0.45 1.25 -8.50 -1.05z"/>
  <path d="M156.50 190.65 c0 -0.50 0.15 -2.10 0.30 -3.50 0.30 -2.20 0.50 -2.65 1.30 -2.65 1 0 1.05 0.65 0.10 5.65 -0.30 1.50 -1.70 1.90 -1.70 0.50z"/>
  <path d="M82 185.25 c0 -1.55 0.15 -1.75 1.30 -1.75 0.70 0 1.20 0.15 1.10 0.40 -1.75 3.65 -2.40 4 -2.40 1.35z"/>
  <path d="M84.50 179.75 c0 -0.95 0.25 -1.75 0.50 -1.75 0.30 0 0.50 -0.35 0.50 -0.80 0 -0.45 0.40 -1.90 0.85 -3.25 0.70 -1.95 1.10 -2.45 2 -2.45 l1.10 0 -0.90 2.65 c-2.45 6.95 -4.05 9.15 -4.05 5.60z"/>
  <path d="M63.40 175.50 l-1.40 -1.75 1.30 -0.15 c1.65 -0.20 1.80 -0.05 1.60 1.95 l-0.15 1.70 -1.35 -1.75z"/>
  <path d="M53.35 164.90 l-3.80 -4.15 1.15 -1 c0.60 -0.55 1.35 -1.90 1.70 -3 1.10 -3.80 5 -7.85 9.90 -10.25 7.10 -3.50 13.80 -3.60 19.90 -0.30 4.15 2.25 5.75 3.40 5.80 4.05 0 0.60 1.75 1.75 3.10 2 0.70 0.15 1.15 -0.25 1.70 -1.40 0.70 -1.55 0.75 -1.40 0.50 2.50 -0.30 4.50 -2.15 13.15 -2.80 13.15 -1.15 0 -2 -0.70 -2 -1.70 0 -1.70 -8.60 -7.10 -12.80 -8 -2.05 -0.45 -6.90 0.90 -9.20 2.60 -2.60 1.90 -7 6.50 -7 7.35 0 0.40 -0.20 0.75 -0.50 0.75 -0.25 0 -0.50 0.35 -0.50 0.75 0 1.60 -1.55 0.60 -5.15 -3.35z"/>
  <path d="M164.50 167.90 c0 -0.15 -0.35 -1.10 -0.75 -2.10 -0.75 -1.80 -0.75 -1.80 0.50 -1.80 1.60 0 2.30 2.15 1.05 3.40 -0.45 0.45 -0.80 0.70 -0.80 0.50z"/>
  <path d="M160.85 160.25 c-1 -1.75 -1.85 -3.35 -1.85 -3.50 0 -0.15 0.55 -0.25 1.25 -0.25 1.10 0 1.25 0.20 1.25 1.75 0 1.40 0.20 1.75 1 1.75 0.80 0 1 0.35 1 1.75 0 0.95 -0.20 1.75 -0.40 1.75 -0.20 0 -1.20 -1.45 -2.25 -3.25z"/>
  <path d="M152.90 148.50 l-1.40 -1.75 1.30 -0.15 c1.65 -0.20 1.80 -0.05 1.60 1.95 l-0.15 1.70 -1.35 -1.75z"/>
  <path d="M92.85 141.90 c-0.65 -2.55 -0.90 -7.65 -0.40 -6.85 0.55 0.90 1.40 7.95 0.95 7.95 -0.15 0 -0.40 -0.50 -0.55 -1.10z"/>
  <path d="M143.65 139.45 c-1.45 -1.10 -2.65 -2.10 -2.65 -2.20 0 -0.15 0.80 -0.25 1.75 -0.25 1.20 0 1.75 0.25 1.75 0.75 0 0.40 0.45 0.75 1 0.75 0.80 0 1 0.35 1 1.50 0 0.85 -0.05 1.50 -0.10 1.50 -0.10 0 -1.35 -0.90 -2.75 -2.05z"/>
  <path d="M106 130 c0 -0.80 0.35 -1 1.75 -1 2 0 2.45 1.20 0.65 1.70 -1.90 0.50 -2.40 0.35 -2.40 -0.70z"/>
  <path d="M77.40 108 l-1.40 -1.75 1.30 -0.15 c1.65 -0.20 1.80 -0.05 1.60 1.95 l-0.15 1.70 -1.35 -1.75z"/>
  <path d="M165 105.20 c0 -2.20 0.90 -2.10 1.85 0.20 0.65 1.55 0.60 1.60 -0.60 1.60 -1.10 0 -1.25 -0.20 -1.25 -1.80z"/>
  <path d="M73.50 104 l-1.75 -1.45 1.90 -0.05 c1.75 0 1.85 0.10 1.85 1.50 0 0.85 -0.05 1.50 -0.15 1.50 -0.05 0 -0.90 -0.65 -1.85 -1.50z"/>
  <path d="M161 84.25 c0 -2 1.20 -2.45 1.70 -0.60 0.50 1.85 0.35 2.35 -0.70 2.35 -0.80 0 -1 -0.35 -1 -1.75z"/>
  <path d="M160.50 72.75 c0 -2 1.20 -2.45 1.70 -0.60 0.50 1.85 0.35 2.35 -0.70 2.35 -0.80 0 -1 -0.35 -1 -1.75z"/>
  <path d="M154.50 61.25 c0 -0.90 -0.25 -1.25 -1 -1.25 -0.85 0 -1 -0.35 -1 -1.85 l0.05 -1.90 1.50 1.75 c0.85 0.95 1.95 2.35 2.50 3.15 l1 1.35 -1.50 0 c-1.30 0 -1.55 -0.20 -1.55 -1.25z"/>
  <path d="M143 46.20 c0 -1.95 0.45 -1.90 2 0.30 l1.05 1.50 -1.50 0 c-1.45 0 -1.55 -0.15 -1.55 -1.80z"/>
  <path d="M139 41.75 c0 -0.90 -0.25 -1.25 -1 -1.25 -0.65 0 -1 -0.35 -1 -1 0 -0.55 -0.35 -1 -0.75 -1 -0.45 0 -0.75 -0.45 -0.75 -1.25 0 -0.90 -0.25 -1.25 -1 -1.25 -0.80 0 -1 -0.35 -1 -1.75 0 -0.95 0.10 -1.75 0.20 -1.75 0.20 0 3.20 3.75 7.95 9.90 0.35 0.45 0.10 0.60 -1.10 0.60 -1.30 0 -1.55 -0.20 -1.55 -1.25z"/>
  <path d="M129.50 30.10 c0 -0.45 -0.50 -1.10 -1.10 -1.35 -0.85 -0.40 -1.20 -1 -1.30 -2.50 l-0.15 -2 1.20 1.15 c0.65 0.65 1.95 2.15 2.80 3.35 l1.60 2.25 -1.50 0 c-1.15 0 -1.55 -0.25 -1.55 -0.90z"/>
 </g>
 <g fill="#7b53cf">
  <path d="M141.25 203.65 c-0.55 -0.10 -5.85 -1.65 -11.75 -3.45 -5.90 -1.75 -12.40 -3.60 -14.35 -4.10 -2 -0.50 -3.75 -1.05 -3.90 -1.25 -0.15 -0.20 -0.10 -0.25 0.10 -0.10 0.15 0.15 0.95 -0.80 1.65 -2.15 1.90 -3.20 7.50 -8.75 11.75 -11.50 1.95 -1.20 3.75 -2.55 4.10 -3 0.35 -0.40 1.45 -0.90 2.50 -1.10 1.05 -0.25 3.25 -0.80 4.90 -1.30 2.25 -0.65 4.85 -0.90 10.25 -0.90 6.40 -0.05 7.60 0.10 10.20 1.10 1.65 0.65 3.25 1.05 3.65 0.90 0.80 -0.35 0.80 -0.50 -0.10 2.50 -0.40 1.35 -1.15 5.10 -1.70 8.30 -1 5.95 -1.65 7.90 -2.65 7.90 -0.50 0 -0.40 -1.75 0.40 -5.75 0.35 -1.80 0.10 -1.95 -5.80 -3.80 -5.05 -1.60 -8.60 -1.50 -13.85 0.45 -6.80 2.50 -14.25 8.80 -12.05 10.20 0.35 0.20 0.95 0.40 1.30 0.40 0.30 0 0.60 0.25 0.60 0.50 0 0.30 0.60 0.50 1.30 0.50 1.65 0 5.20 1.05 5.20 1.50 0 0.20 1.05 0.50 2.30 0.65 1.30 0.10 2.45 0.45 2.65 0.75 0.15 0.25 1.60 0.60 3.20 0.80 2.35 0.30 2.85 0.55 2.85 1.35 0 0.95 -0.65 1.10 -2.75 0.60z"/>
  <path d="M150 200.75 c0 -1.10 0.20 -1.25 1.75 -1.25 1.65 0 1.75 -0.10 1.75 -1.75 0 -1.55 0.15 -1.75 1.25 -1.75 1.85 0 1.55 0.85 -1.20 3.55 -2.70 2.75 -3.55 3.05 -3.55 1.20z"/>
  <path d="M78.65 190.75 c-1.30 -1.15 -1.35 -1.20 -0.35 -1.25 0.75 0 1.20 -0.40 1.40 -1.25 0.25 -0.90 0.65 -1.25 1.55 -1.25 0.70 0 1.25 0.10 1.25 0.20 0 0.40 -2.05 4.80 -2.25 4.80 -0.10 0 -0.85 -0.55 -1.60 -1.25z"/>
  <path d="M83 183 c0 -1.60 0.95 -4 1.60 -4 0.20 0 0.40 -0.55 0.40 -1.25 0 -1 0.25 -1.25 1.25 -1.25 l1.25 0 -1 2.55 c-2.15 5.45 -3.50 6.95 -3.50 3.95z"/>
  <path d="M60.80 172.60 c-3.30 -3.50 -5.65 -6.05 -5.30 -5.70 0.95 0.80 1.50 0.75 1.50 -0.15 0 -0.40 0.25 -0.75 0.50 -0.75 0.30 0 0.50 -0.35 0.50 -0.75 0 -0.85 4.35 -5.45 7 -7.35 2.50 -1.85 7.40 -3.10 10.70 -2.75 2.95 0.30 7.60 2.40 11.40 5.10 1.30 0.95 2.60 1.75 2.85 1.75 0.20 0 0.35 0.60 0.25 1.40 -0.10 0.75 0.35 -0.55 1 -2.90 0.70 -2.35 1.30 -5.05 1.30 -6 0.05 -0.95 0.25 -2.20 0.50 -2.75 0.40 -0.90 0.45 -0.90 0.45 0.25 0.10 2.75 -2.85 16.55 -4.15 19.75 -0.90 2.15 -1.80 2.25 -1.80 0.30 0 -1 -0.30 -1.60 -0.95 -1.80 -0.55 -0.15 -1.80 -0.95 -2.80 -1.75 -2.30 -1.80 -6.70 -3.50 -9.15 -3.50 -2.45 0 -9.10 3.95 -9.10 5.40 0 0.25 -0.45 0.85 -1 1.35 -1.25 1.15 -1.30 2.25 -0.10 2.25 1.45 0 2.70 1.70 2.50 3.45 -0.15 1.50 -0.30 1.35 -6.10 -4.85z"/>
  <path d="M164.35 167 c-0.15 -0.55 -0.05 -1 0.20 -1 0.25 0 0.45 -0.55 0.45 -1.25 0 -1 0.25 -1.25 1.25 -1.25 0.70 0 1.25 0.15 1.25 0.40 0 0.40 -2.45 4.10 -2.70 4.10 -0.10 0 -0.30 -0.45 -0.45 -1z"/>
  <path d="M161.35 161.05 c-1.10 -1.90 -1.10 -2.05 0.40 -2.05 1.10 0 1.25 0.20 1.25 1.75 0 2.15 -0.50 2.20 -1.65 0.30z"/>
  <path d="M157.60 155 l-1.60 -2.50 1.50 0 c1 0 1.50 0.25 1.50 0.75 0 0.40 0.25 0.75 0.50 0.75 0.30 0 0.50 0.80 0.50 1.75 0 0.95 -0.15 1.75 -0.35 1.75 -0.25 0 -1.15 -1.15 -2.05 -2.50z"/>
  <path d="M172.50 153.75 c0 -0.95 0.25 -1.75 0.50 -1.75 0.30 0 0.50 -0.35 0.50 -0.75 0 -0.45 0.45 -0.75 1.25 -0.75 0.70 0 1.25 0.15 1.25 0.30 0 0.60 -2.75 4.70 -3.10 4.70 -0.25 0 -0.40 -0.80 -0.40 -1.75z"/>
  <path d="M93.20 144.25 c0 -2.75 0.05 -3.80 0.15 -2.35 0.10 1.45 0.10 3.70 0 5 -0.10 1.30 -0.15 0.10 -0.15 -2.65z"/>
  <path d="M182 138.25 c0 -1.40 0.20 -1.75 1 -1.75 1.15 0 1.30 1.30 0.30 2.65 -1 1.25 -1.30 1.05 -1.30 -0.90z"/>
  <path d="M92.55 137.65 c0 -0.60 -0.20 -1.50 -0.35 -2 -0.25 -0.85 -0.25 -0.85 0.30 0 0.30 0.50 0.45 1.40 0.35 2 -0.20 1.10 -0.20 1.10 -0.30 0z"/>
  <path d="M139.40 136.60 c-1.85 -1.10 -1.75 -1.60 0.35 -1.60 1.55 0 1.75 0.15 1.75 1.25 0 1.45 -0.30 1.50 -2.10 0.35z"/>
  <path d="M133.65 133.75 c-2.15 -0.90 -2.10 -1.75 0.10 -1.75 1.55 0 1.75 0.15 1.75 1.25 0 0.70 -0.05 1.25 -0.10 1.25 -0.10 -0.05 -0.90 -0.35 -1.75 -0.75z"/>
  <path d="M91 133 c-0.60 -1.15 -0.55 -1.20 3 -1.95 3.25 -0.75 5 -0.70 5 0.15 0 0.50 -1 0.95 -2.85 1.30 -1.60 0.35 -3.30 0.80 -3.75 1.05 -0.65 0.35 -1 0.20 -1.40 -0.55z"/>
  <path d="M126.40 131.65 c-1.65 -0.40 -1 -1.65 0.85 -1.65 1.40 0 1.75 0.20 1.75 1 0 1 -0.70 1.15 -2.60 0.65z"/>
  <path d="M105.50 130 c0 -0.80 0.35 -1 1.75 -1 2 0 2.45 1.20 0.65 1.70 -1.90 0.50 -2.40 0.35 -2.40 -0.70z"/>
  <path d="M121.40 130.65 c-1.65 -0.40 -1 -1.65 0.85 -1.65 1.40 0 1.75 0.20 1.75 1 0 1 -0.70 1.15 -2.60 0.65z"/>
  <path d="M89.65 128.75 c-0.55 -1.65 -0.50 -1.75 0.65 -1.75 1.05 0 1.20 0.25 1.20 1.75 0 1.10 -0.25 1.75 -0.65 1.75 -0.40 0 -0.90 -0.80 -1.20 -1.75z"/>
  <path d="M177.50 127.20 c0 -1.95 0.45 -1.90 2 0.30 l1.05 1.50 -1.50 0 c-1.45 0 -1.55 -0.15 -1.55 -1.80z"/>
  <path d="M88.80 126.05 c-0.15 -0.20 -0.50 -1 -0.75 -1.75 -0.50 -1.20 -0.40 -1.30 0.70 -1.30 1.10 0 1.25 0.20 1.25 1.75 0 1.65 -0.60 2.30 -1.20 1.30z"/>
  <path d="M172.50 119.75 c0 -1.40 -0.20 -1.75 -1 -1.75 -0.80 0 -1 -0.35 -1 -1.75 0 -1.40 -0.20 -1.75 -1 -1.75 -0.80 0 -1 -0.35 -1 -1.50 0 -1 -0.25 -1.50 -0.75 -1.50 -0.50 0 -0.75 -0.55 -0.75 -1.75 0 -2.20 0.85 -2.25 1.75 -0.10 0.35 0.90 1.95 3.80 3.45 6.45 1.55 2.70 2.80 4.95 2.80 5.10 0 0.20 -0.55 0.30 -1.25 0.30 -1.10 0 -1.25 -0.20 -1.25 -1.75z"/>
  <path d="M77.90 108.50 l-1.40 -1.75 1.30 -0.15 c1.65 -0.20 1.80 -0.05 1.60 1.95 l-0.15 1.70 -1.35 -1.75z"/>
  <path d="M73 103.50 l-1.75 -1.45 1.90 -0.05 c1.75 0 1.85 0.10 1.85 1.50 0 0.85 -0.05 1.50 -0.15 1.50 -0.05 0 -0.90 -0.65 -1.85 -1.50z"/>
  <path d="M162.30 95.30 c-0.45 -2.90 -0.80 -5.70 -0.80 -6.25 0 -1.70 1.45 -1.20 1.70 0.60 0.15 0.85 0.60 3.55 1.05 5.90 0.95 5.25 0.95 4.95 -0.20 4.95 -0.80 0 -1.05 -0.75 -1.75 -5.20z"/>
  <path d="M65.50 97.50 l-1.75 -1.45 1.90 -0.05 c1.75 0 1.85 0.10 1.85 1.50 0 0.85 -0.05 1.50 -0.15 1.50 -0.05 0 -0.90 -0.65 -1.85 -1.50z"/>
  <path d="M64.50 86.40 c0 -1.50 0.65 -2.90 1.30 -2.90 0.45 0 0.70 0.60 0.70 1.75 0 1.40 -0.20 1.75 -1 1.75 -0.55 0 -1 -0.30 -1 -0.60z"/>
  <path d="M161 84.75 c0 -2 1.20 -2.45 1.70 -0.60 0.50 1.85 0.35 2.35 -0.70 2.35 -0.80 0 -1 -0.35 -1 -1.75z"/>
  <path d="M65.50 79.40 c0 -1.50 0.65 -2.90 1.30 -2.90 0.45 0 0.70 0.60 0.70 1.75 0 1.40 -0.20 1.75 -1 1.75 -0.55 0 -1 -0.30 -1 -0.60z"/>
  <path d="M160.30 73.15 c-0.65 -5.20 -0.90 -6.15 -1.60 -6.15 -0.40 0 -0.70 -0.50 -0.70 -1.25 0 -0.90 -0.25 -1.25 -1 -1.25 -0.85 0 -1 -0.35 -1 -1.85 l0.05 -1.90 1.75 2 c2.35 2.65 4.05 6.35 4.45 9.90 0.30 2.60 0.25 2.85 -0.65 2.85 -0.80 0 -1.05 -0.45 -1.30 -2.35z"/>
  <path d="M67.50 66.40 c0 -1.50 0.65 -2.90 1.30 -2.90 0.45 0 0.70 0.60 0.70 1.75 0 1.40 -0.20 1.75 -1 1.75 -0.55 0 -1 -0.30 -1 -0.60z"/>
  <path d="M70.50 58.50 c0.55 -0.80 1.70 -1.95 2.50 -2.50 l1.50 -1.05 0 1.50 c0 1.20 -0.20 1.55 -1 1.55 -0.65 0 -1 0.35 -1 1 0 0.80 -0.35 1 -1.55 1 l-1.50 0 1.05 -1.50z"/>
  <path d="M150.50 56.25 c0 -0.90 -0.25 -1.25 -1 -1.25 -0.75 0 -1 -0.35 -1 -1.25 0 -0.90 -0.25 -1.25 -1 -1.25 -0.75 0 -1 -0.35 -1 -1.25 0 -0.90 -0.25 -1.25 -1 -1.25 -0.80 0 -1 -0.35 -1 -1.75 0 -0.95 0.10 -1.75 0.20 -1.75 0.15 0 5.75 6.90 8.45 10.40 0.35 0.45 0.10 0.60 -1.10 0.60 -1.30 0 -1.55 -0.20 -1.55 -1.25z"/>
  <path d="M76.75 52.50 c0.15 -0.25 0.95 -0.95 1.75 -1.50 l1.50 -1.05 0 1.50 c0 1.45 -0.15 1.55 -1.80 1.55 -1 0 -1.65 -0.20 -1.45 -0.50z"/>
  <path d="M141 44.05 c0 -1.25 -0.20 -1.50 -1.35 -1.65 -1 -0.10 -1.45 -0.45 -1.55 -1.25 -0.10 -0.65 -0.50 -1.15 -0.90 -1.15 -0.40 0 -0.70 -0.40 -0.70 -0.95 0 -0.50 -0.45 -1.05 -1 -1.20 -0.60 -0.15 -1 -0.70 -1 -1.30 0 -0.70 -0.30 -1.05 -1 -1.05 -0.65 0 -1 -0.35 -1 -1 0 -0.55 -0.20 -1 -0.50 -1 -0.25 0 -0.50 0.45 -0.50 1 0 0.80 -0.35 1 -1.80 1 l-1.85 0 0.30 -2.50 c0.25 -1.90 0.10 -2.65 -0.50 -3.25 -0.85 -0.90 -1.55 -5.25 -0.80 -5.25 0.45 0 3.90 4.10 11.90 14.25 2.40 3.05 4.60 5.80 4.85 6.15 0.40 0.45 0.15 0.60 -1.05 0.60 -1.40 0 -1.55 -0.15 -1.55 -1.45z"/>
  <path d="M85.75 44.50 c0.15 -0.25 0.95 -0.95 1.75 -1.50 l1.50 -1.05 0 1.50 c0 1.45 -0.15 1.55 -1.80 1.55 -1 0 -1.65 -0.20 -1.45 -0.50z"/>
  <path d="M96.25 35 c0.15 -0.25 0.95 -0.95 1.75 -1.50 l1.50 -1.05 0 1.50 c0 1.45 -0.15 1.55 -1.80 1.55 -1 0 -1.65 -0.20 -1.45 -0.50z"/>
  <path d="M102.25 29.70 c1.90 -1.70 2 -1.70 2.15 -0.70 0.30 1.90 -0.25 2.50 -2.25 2.50 l-1.90 -0.05 2 -1.75z"/>
  <path d="M105.50 26.85 c0 -0.35 6.10 -5.35 6.55 -5.35 0.25 0 0.45 0.55 0.45 1.25 0 1.10 -0.20 1.25 -1.75 1.25 -1.60 0 -1.75 0.10 -1.75 1.50 0 1.40 -0.15 1.50 -1.75 1.50 -0.95 0 -1.75 -0.10 -1.75 -0.15z"/>
  <path d="M121 21.50 c0 -1.10 1 -1.30 2.55 -0.50 1.50 0.80 1.15 1.50 -0.80 1.50 -1.40 0 -1.75 -0.20 -1.75 -1z"/>
  <path d="M116 20.80 c0 -0.80 1.25 -1.20 2.65 -0.90 1.60 0.40 0.95 1.60 -0.90 1.60 -1.20 0 -1.75 -0.25 -1.75 -0.70z"/>
  <path d="M212.15 13.20 l-1.60 -1.70 1.70 0 c1.65 0 1.75 0.10 1.75 1.75 0 0.95 -0.05 1.75 -0.10 1.70 -0.10 -0.05 -0.85 -0.80 -1.75 -1.75z"/>
  <path d="M197.15 3.25 c-2.15 -0.90 -2.10 -1.75 0.10 -1.75 1.55 0 1.75 0.15 1.75 1.25 0 0.70 -0.05 1.25 -0.10 1.25 -0.10 -0.05 -0.90 -0.35 -1.75 -0.75z"/>
 </g>
 <g fill="#835cd6">
  <path d="M199 221.50 c0 -0.40 2.55 -2 3.25 -2 0.15 0 0.25 0.55 0.25 1.25 0 1.10 -0.20 1.25 -1.75 1.25 -0.95 0 -1.75 -0.20 -1.75 -0.50z"/>
  <path d="M12.50 213.45 l0 -1.50 1.50 1.05 c2.20 1.55 2.25 2 0.30 2 -1.65 0 -1.80 -0.10 -1.80 -1.55z"/>
  <path d="M141.90 203.70 c-1.60 -0.50 -1.05 -1.70 0.80 -1.70 3.30 0 6.30 -0.60 6.30 -1.30 0 -0.45 0.60 -0.70 1.75 -0.70 0.95 0 1.75 0.20 1.75 0.40 0 0.25 -1.10 1.05 -2.50 1.80 -2.40 1.30 -6.30 2 -8.10 1.50z"/>
  <path d="M129.75 200.25 c-4.65 -1.50 -8.20 -2.70 -7.80 -2.70 0.55 -0.05 0.50 -0.30 -0.20 -1.05 -0.85 -0.95 -0.85 -1.05 0.10 -1.85 0.55 -0.50 1.10 -1.25 1.25 -1.70 0.20 -0.45 2 -2.10 4.10 -3.65 6.90 -5.20 15.55 -7.40 22.05 -5.60 1.65 0.50 3.25 0.90 3.60 1 0.35 0.05 0.80 0.25 0.95 0.45 0.20 0.20 0.90 0.35 1.50 0.35 0.65 0 1.30 0.25 1.45 0.55 0.20 0.30 0.70 0.40 1.10 0.25 0.60 -0.25 0.65 0.15 0.35 2.60 -0.45 3.75 -1.85 7.45 -3.65 9.60 l-1.45 1.75 -0.35 -1.35 c-0.20 -0.80 -0.65 -1.40 -1.05 -1.40 -0.40 0 -0.70 -0.20 -0.70 -0.50 0 -0.25 -0.45 -0.50 -1 -0.50 -0.55 0 -1.15 -0.35 -1.30 -0.75 -0.20 -0.40 -0.60 -0.75 -0.95 -0.75 -0.35 0 -0.90 -0.35 -1.25 -0.75 -0.75 -0.90 -4.80 -1 -6.85 -0.20 -3.80 1.60 -4.90 2.15 -6.25 3.45 l-1.45 1.40 1.50 0.35 c0.85 0.20 1.55 0.55 1.55 0.80 0 0.25 0.60 0.45 1.40 0.45 2.35 0 3.60 0.55 3.60 1.55 0 1.30 -0.55 1.20 -10.25 -1.80z"/>
  <path d="M0 190.75 c0 -1.95 0.70 -2.35 1.20 -0.60 0.45 1.75 0.35 2.35 -0.45 2.35 -0.50 0 -0.75 -0.55 -0.75 -1.75z"/>
  <path d="M223.50 191.90 c0 -1.25 0.60 -2.90 1.05 -2.90 0.25 0 0.45 0.80 0.45 1.75 0 1.20 -0.25 1.75 -0.75 1.75 -0.40 0 -0.75 -0.30 -0.75 -0.60z"/>
  <path d="M79.35 191.25 c-0.95 -0.70 -0.65 -2.25 0.45 -2.25 0.40 0 0.70 -0.50 0.70 -1.25 0 -1.65 2.05 -5.75 2.85 -5.75 0.35 0 0.65 -0.55 0.65 -1.20 0 -0.65 0.15 -1.90 0.30 -2.75 0.25 -1.20 0.15 -1.55 -0.50 -1.55 -0.45 0 -0.80 -0.20 -0.80 -0.45 0 -0.60 -5.85 -3.55 -7 -3.55 -1.05 0 -4.10 2.30 -5.55 4.15 l-1.05 1.40 1.30 1.40 c0.90 0.95 1.30 1.90 1.30 3.10 l-0.05 1.70 -5.45 -5.75 c-3 -3.15 -5.25 -5.80 -5 -5.90 0.30 -0.10 0.50 -0.45 0.50 -0.80 0 -0.35 0.45 -1.05 1 -1.55 0.55 -0.50 1 -1.10 1 -1.35 0 -0.70 1.85 -2.20 4.75 -3.90 2.10 -1.25 3.05 -1.50 5.85 -1.50 3.75 0 8.05 1.35 10.30 3.20 2.30 1.90 3.65 2.50 4.10 1.75 0.45 -0.70 1.60 -4.35 2.50 -7.90 1.10 -4.20 1.05 -1.60 -0.05 3 -1.85 7.95 -5 16.20 -9.55 25 -1.50 2.95 -1.80 3.25 -2.55 2.70z"/>
  <path d="M163.30 164.65 c-0.75 -1.60 -2.15 -4.15 -3.10 -5.70 -0.95 -1.55 -1.70 -2.95 -1.70 -3.15 0 -0.15 0.55 -0.30 1.25 -0.30 1 0 1.25 0.25 1.25 1.25 0 0.80 0.30 1.25 0.75 1.25 0.45 0 0.75 0.45 0.75 1.25 0 0.70 0.30 1.25 0.65 1.25 0.70 0 2.35 3 2.35 4.25 0 0.40 0.25 0.75 0.50 0.75 0.35 0 0.35 0.30 0 1 -0.30 0.55 -0.70 1 -0.90 1 -0.20 0 -1 -1.30 -1.80 -2.85z"/>
  <path d="M166.50 162.75 c0 -0.95 0.25 -1.75 0.50 -1.75 0.30 0 0.50 -0.35 0.50 -0.75 0 -0.40 0.25 -0.75 0.50 -0.75 0.30 0 0.50 -0.35 0.50 -0.75 0 -0.40 0.25 -0.75 0.50 -0.75 0.30 0 0.50 -0.35 0.50 -0.75 0 -0.40 0.45 -0.75 1 -0.75 0.80 0 1 -0.35 1 -1.50 0 -1.25 0.20 -1.50 1.25 -1.50 0.70 0 1.25 0.15 1.25 0.35 0 0.60 -6.70 10.65 -7.10 10.65 -0.25 0 -0.40 -0.80 -0.40 -1.75z"/>
  <path d="M156.40 153 l-1.40 -1.75 1.30 -0.15 c1.65 -0.20 1.80 -0.05 1.60 1.95 l-0.15 1.70 -1.35 -1.75z"/>
  <path d="M93.15 150.50 c0 -1.80 0.10 -2.50 0.20 -1.60 0.10 0.85 0.10 2.35 0 3.25 -0.10 0.85 -0.20 0.15 -0.20 -1.65z"/>
  <path d="M175 149.75 c0 -1.55 0.15 -1.75 1.25 -1.75 1.50 0 1.50 0.15 0.40 2.05 -1.15 1.90 -1.65 1.85 -1.65 -0.30z"/>
  <path d="M150.35 145.75 l-4.45 -4.75 1.70 0 c2.25 0 4.40 2.15 4.40 4.40 0 1.45 0.15 1.60 1.50 1.60 1.40 0 1.50 0.15 1.50 1.75 0 0.95 -0.05 1.75 -0.10 1.75 -0.10 -0.05 -2.15 -2.15 -4.55 -4.75z"/>
  <path d="M177.50 145.75 c0 -1.20 0.25 -1.75 0.75 -1.75 0.45 0 0.75 -0.45 0.75 -1.25 0 -0.80 0.30 -1.25 0.75 -1.25 0.45 0 0.75 -0.45 0.75 -1.25 0 -1 0.25 -1.25 1.25 -1.25 0.70 0 1.25 0.15 1.25 0.30 0 0.60 -4.75 8.20 -5.10 8.20 -0.25 0 -0.40 -0.80 -0.40 -1.75z"/>
  <path d="M93.10 143 c0 -0.95 0.10 -1.35 0.25 -0.85 0.10 0.45 0.10 1.25 0 1.75 -0.15 0.45 -0.25 0.05 -0.25 -0.90z"/>
  <path d="M90.80 132.70 c-0.55 -1.45 -0.30 -2.20 0.70 -2.20 0.80 0 1 0.35 1 1.50 0 1.60 -1.15 2.10 -1.70 0.70z"/>
  <path d="M128.40 132.15 c-1.65 -0.40 -1 -1.65 0.85 -1.65 1.40 0 1.75 0.20 1.75 1 0 1 -0.70 1.15 -2.60 0.65z"/>
  <path d="M98 131.10 c0 -0.75 0.45 -1.05 2.30 -1.30 3.45 -0.45 4.20 -0.40 4.20 0.40 0 0.70 -0.55 0.90 -4.60 1.60 -1.65 0.25 -1.90 0.20 -1.90 -0.70z"/>
  <path d="M123.15 130.90 c-2.30 -0.50 -3.05 -1.90 -1 -1.90 2.90 0 4.85 0.65 4.85 1.55 0 1.05 -0.60 1.10 -3.85 0.35z"/>
  <path d="M105 130 c0 -0.80 0.35 -1 1.75 -1 2 0 2.45 1.20 0.65 1.70 -1.90 0.50 -2.40 0.35 -2.40 -0.70z"/>
  <path d="M178.50 128.75 c0 -1.55 -0.15 -1.75 -1.25 -1.75 -0.80 0 -1.25 -0.30 -1.25 -0.75 0 -0.40 -0.20 -0.75 -0.50 -0.75 -0.25 0 -0.50 -0.35 -0.50 -0.75 0 -0.40 -0.20 -0.75 -0.50 -0.75 -0.25 0 -0.50 -0.80 -0.50 -1.75 0 -0.95 0.15 -1.75 0.40 -1.75 0.20 0.05 1.85 2.30 3.70 5 l3.40 5 -1.50 0 c-1.40 0 -1.50 -0.15 -1.50 -1.75z"/>
  <path d="M89.80 128.55 c-0.15 -0.20 -0.50 -1 -0.75 -1.75 -0.50 -1.20 -0.40 -1.30 0.70 -1.30 1.10 0 1.25 0.20 1.25 1.75 0 1.65 -0.60 2.30 -1.20 1.30z"/>
  <path d="M86.75 121.50 c-1.55 -3 -1.55 -3 -0.10 -3 1.35 0 2.35 1.70 2.35 4 0 2.20 -0.80 1.85 -2.25 -1z"/>
  <path d="M171 117.25 c0 -2.15 0.50 -2.20 1.65 -0.30 1.10 1.90 1.10 2.05 -0.40 2.05 -1.10 0 -1.25 -0.20 -1.25 -1.75z"/>
  <path d="M81.90 113.60 c-1.30 -1.85 -2.95 -4.10 -3.70 -4.95 l-1.35 -1.65 1.60 0 c1.40 0 1.55 0.15 1.55 1.50 0 1.25 0.20 1.50 1.25 1.50 1.10 0 1.25 0.20 1.25 1.75 0 1.55 0.15 1.75 1.25 1.75 1.10 0 1.25 0.20 1.25 1.75 0 0.95 -0.15 1.75 -0.35 1.75 -0.25 -0.05 -1.45 -1.55 -2.75 -3.40z"/>
  <path d="M166.30 109.70 c-0.45 -1.25 -0.35 -3.70 0.20 -3.70 0.50 0 1.20 1.10 2 3.20 0.45 1.15 0.35 1.30 -0.70 1.30 -0.65 0 -1.35 -0.35 -1.50 -0.80z"/>
  <path d="M70.50 101.45 c-5.60 -4.55 -5.55 -4.45 -3.35 -4.45 1.50 0 1.85 0.20 1.85 1 0 0.75 0.35 1 1.25 1 1 0 1.25 0.25 1.25 1.25 0 1.05 0.25 1.25 1.50 1.25 1.35 0 1.50 0.15 1.50 1.50 0 0.85 -0.05 1.50 -0.10 1.50 -0.10 0 -1.85 -1.35 -3.90 -3.05z"/>
  <path d="M163.50 100.75 c0 -2 1.20 -2.45 1.70 -0.60 0.50 1.85 0.35 2.35 -0.70 2.35 -0.80 0 -1 -0.35 -1 -1.75z"/>
  <path d="M63.95 96.35 c-0.75 -0.70 -0.75 -1.25 -0.15 -4.95 0.40 -2.30 0.70 -4.20 0.70 -4.25 0 -0.10 0.35 -0.15 0.75 -0.15 0.90 0 0.90 1.25 0.10 6.45 -0.55 3.40 -0.70 3.65 -1.40 2.90z"/>
  <path d="M162 94.65 c0 -0.50 -0.15 -2.10 -0.30 -3.50 -0.30 -2.20 -0.20 -2.65 0.45 -2.65 0.75 0 1 0.60 1.60 4.90 0.30 1.90 0.25 2.10 -0.70 2.10 -0.65 0 -1.05 -0.30 -1.05 -0.85z"/>
  <path d="M161 85.50 c0 -2.25 1.15 -2.85 1.70 -0.85 0.55 2.05 0.35 2.85 -0.70 2.85 -0.85 0 -1 -0.35 -1 -2z"/>
  <path d="M65 83.65 c0 -0.55 0.95 -6.60 1.30 -8.25 0.30 -1.50 1.70 -1.95 1.70 -0.55 0 0.45 -0.25 2.70 -0.60 5 -0.50 3.45 -0.75 4.15 -1.50 4.15 -0.50 0 -0.90 -0.15 -0.90 -0.35z"/>
  <path d="M160.50 75.25 c0 -2 0.20 -2.75 0.70 -2.75 0.80 0 1.30 1.50 1.30 3.90 0 1.25 -0.20 1.60 -1 1.60 -0.90 0 -1 -0.35 -1 -2.75z"/>
  <path d="M66.50 73 c0 -1.85 1.20 -5.50 1.80 -5.50 0.75 0 0.85 1.15 0.40 4.15 -0.25 1.35 -0.55 1.85 -1.25 1.85 -0.55 0 -0.95 -0.20 -0.95 -0.50z"/>
  <path d="M158.70 67.75 c-0.15 -0.70 -0.50 -1.25 -0.75 -1.25 -0.25 0 -0.45 -0.55 -0.45 -1.25 0 -0.90 -0.25 -1.25 -1 -1.25 -0.65 0 -1 -0.35 -1 -0.95 0 -0.50 -0.45 -1.05 -1 -1.20 -0.55 -0.15 -1 -0.70 -1 -1.25 0 -0.55 -0.45 -1.10 -1 -1.25 -0.60 -0.15 -1 -0.70 -1 -1.30 0 -0.60 -0.30 -1.05 -0.75 -1.05 -0.45 0 -0.75 -0.45 -0.75 -1.25 0 -0.90 -0.25 -1.25 -1 -1.25 -0.75 0 -1 -0.35 -1 -1.20 0 -0.90 -0.30 -1.25 -1.10 -1.40 -0.75 -0.10 -1.20 -0.55 -1.30 -1.25 -0.10 -0.65 -0.50 -1.15 -0.90 -1.15 -0.40 0 -0.70 -0.45 -0.70 -1 0 -0.55 -0.30 -1 -0.70 -1 -1.25 0 -3.30 -3.10 -3.30 -4.95 0 -1.75 0 -1.75 0.95 -0.80 2.50 2.55 19.60 24.65 20 25.85 0.45 1.30 0.40 1.40 -0.70 1.40 -0.90 0 -1.30 -0.35 -1.55 -1.25z"/>
  <path d="M70.75 58.30 c0.45 -0.70 1.35 -1.60 2.05 -2.05 1.15 -0.75 1.20 -0.75 1.20 0.65 0 1.80 -0.80 2.60 -2.60 2.60 -1.40 0 -1.40 -0.05 -0.65 -1.20z"/>
  <path d="M76.25 53 c0.15 -0.25 0.95 -0.95 1.75 -1.50 l1.50 -1.05 0 1.50 c0 1.45 -0.15 1.55 -1.80 1.55 -1 0 -1.65 -0.20 -1.45 -0.50z"/>
  <path d="M81.25 48.50 c0.15 -0.25 0.95 -0.95 1.75 -1.50 l1.50 -1.05 0 1.50 c0 1.45 -0.15 1.55 -1.80 1.55 -1 0 -1.65 -0.20 -1.45 -0.50z"/>
  <path d="M85.25 45 c0.15 -0.25 0.95 -0.95 1.75 -1.50 l1.50 -1.05 0 1.50 c0 1.45 -0.15 1.55 -1.80 1.55 -1 0 -1.65 -0.20 -1.45 -0.50z"/>
  <path d="M91.75 39.20 c1.90 -1.70 2 -1.70 2.15 -0.70 0.30 1.90 -0.25 2.50 -2.25 2.50 l-1.90 -0.05 2 -1.75z"/>
  <path d="M0.05 35.90 c-0.05 -2.75 0.10 -3.40 0.75 -3.40 0.65 0 0.70 0.40 0.40 2.40 -0.60 4.15 -1.15 4.60 -1.15 1z"/>
  <path d="M95.75 35.50 c0.15 -0.25 0.95 -0.95 1.75 -1.50 l1.50 -1.05 0 1.50 c0 1.45 -0.15 1.55 -1.80 1.55 -1 0 -1.65 -0.20 -1.45 -0.50z"/>
  <path d="M100.25 31.50 c0.15 -0.25 0.95 -0.95 1.75 -1.50 l1.50 -1.05 0 1.50 c0 1.45 -0.15 1.55 -1.80 1.55 -1 0 -1.65 -0.20 -1.45 -0.50z"/>
  <path d="M107 25.45 c1.25 -1.05 2.85 -2.45 3.65 -3 l1.35 -1 0 1.50 c0 1.45 -0.15 1.55 -1.75 1.55 -1.60 0 -1.75 0.10 -1.75 1.50 0 1.40 -0.10 1.50 -1.85 1.50 l-1.90 -0.05 2.25 -2z"/>
  <path d="M125.80 26.20 c-0.15 -0.45 -0.30 -1.35 -0.30 -2 0 -1.05 -0.25 -1.20 -1.75 -1.20 -1.50 0 -1.75 -0.15 -1.75 -1.20 0 -1 0.20 -1.15 1.10 -0.90 1.45 0.35 5.25 4.20 5.25 5.25 0 1.10 -2.15 1.15 -2.55 0.05z"/>
  <path d="M113.50 21.30 c0 -0.65 1.40 -1.30 2.90 -1.30 0.30 0 0.60 0.45 0.60 1 0 0.80 -0.35 1 -1.75 1 -1.15 0 -1.75 -0.25 -1.75 -0.70z"/>
  <path d="M212.10 13.20 l-3.15 -3.20 1.75 0 c1.65 0 1.80 0.10 1.80 1.50 0 1.35 0.15 1.50 1.50 1.50 1.40 0 1.50 0.15 1.50 1.75 0 0.95 -0.05 1.75 -0.10 1.70 -0.10 0 -1.55 -1.45 -3.30 -3.25z"/>
 </g>
 <g fill="#8456e9">
  <path d="M118 63 c0 -0.80 1.15 -3.65 2.50 -6.35 5.45 -10.50 7.55 -18.55 6.55 -25.05 -0.30 -1.95 -0.55 -4.50 -0.55 -5.65 0 -2.05 0.05 -2.10 0.90 -1.15 0.50 0.50 0.95 1.35 0.95 1.80 0.10 1.05 1.30 2.40 2.10 2.40 0.30 0 0.55 0.45 0.55 1.05 0 0.60 0.25 0.95 0.60 0.85 0.65 -0.25 2.40 1.65 2.40 2.55 0 0.30 0.20 0.55 0.45 0.55 0.20 0 2 2.10 3.95 4.65 1.95 2.50 4.30 5.45 5.20 6.55 2.45 2.90 2.65 3.30 1.35 3.30 -0.60 0 -1.45 0.45 -1.95 1 -0.70 0.85 -3.55 1.85 -7.85 2.85 -0.60 0.15 -1.40 0.55 -1.70 0.95 -0.30 0.40 -0.85 0.70 -1.15 0.70 -0.30 0 -1 0.55 -1.50 1.25 -0.50 0.70 -1.25 1.25 -1.60 1.25 -0.40 0 -0.70 0.15 -0.70 0.40 0 0.20 -0.90 0.80 -2 1.30 -1.25 0.60 -2 1.30 -2 1.90 0 0.50 -0.30 0.90 -0.70 0.90 -0.35 0 -1.05 0.80 -1.50 1.75 -0.75 1.50 -1.10 1.75 -2.55 1.75 -1.60 0 -1.75 -0.15 -1.75 -1.50z"/>
 </g>
 <g fill="#8d62eb">
  <path d="M142.90 203.65 c-1.40 -0.35 -1.10 -1.65 0.40 -1.65 1.15 0 1.25 -0.10 0.70 -0.80 -1.60 -1.85 -3.90 -1.85 -5.80 0.05 -1 1 -1.90 0.95 -5.75 -0.30 -3.85 -1.30 -3.75 -1.25 -2.90 -2.15 0.40 -0.40 1.20 -1.35 1.80 -2.15 1.10 -1.40 3.45 -2.80 7.10 -4.20 2.60 -1 8.25 -0.85 9.45 0.20 0.50 0.45 1.15 0.85 1.45 0.85 0.30 0 0.70 0.40 0.85 0.85 0.30 0.75 0.40 0.75 0.85 0.15 0.40 -0.55 0.60 -0.60 0.80 -0.10 0.10 0.30 0.55 0.60 0.90 0.60 0.40 0 0.85 0.50 1.05 1.15 0.20 0.60 0.55 1.25 0.80 1.40 0.80 0.55 -1.95 3.20 -4.70 4.55 -2.70 1.35 -5.50 1.95 -7 1.55z"/>
  <path d="M83.10 181.95 c0.15 -1.90 0.05 -2.20 -1.85 -3.75 -3.35 -2.75 -5.30 -2.55 -8.75 0.90 l-2.60 2.55 -1.70 -1.75 -1.75 -1.70 1.50 -1.75 c0.85 -0.95 1.55 -1.85 1.55 -2.05 0 -0.15 0.95 -1 2.10 -1.85 2.85 -2.10 5.65 -2.10 9.80 0 1.70 0.85 3.10 1.75 3.10 2 0 0.25 0.35 0.45 0.75 0.45 0.40 0 0.75 0.25 0.75 0.55 0 0.30 0.35 0.40 0.80 0.25 0.95 -0.35 0.70 0.45 -1.35 5.05 -1.65 3.65 -2.65 4.15 -2.35 1.10z"/>
  <path d="M90.25 166.55 c0.35 -2.35 1.25 -5.70 1.50 -5.45 0.10 0.10 -0.25 1.75 -0.80 3.65 -0.50 1.95 -0.85 2.70 -0.70 1.80z"/>
  <path d="M111 85.50 c0 -3.60 1.05 -9 2.75 -14.25 1.40 -4.30 6.20 -14.75 6.75 -14.75 0.20 0 0.55 -0.55 0.70 -1.25 0.20 -0.70 0.55 -1.25 0.80 -1.25 0.30 0 0.50 -0.45 0.50 -1 0 -1.20 1.05 -3.50 1.60 -3.50 0.20 0 0.40 -0.55 0.40 -1.25 0 -1 0.25 -1.25 1.25 -1.25 l1.25 0 -1.05 2.65 c-0.95 2.45 -2.30 5.55 -2.85 6.55 -0.15 0.25 0 0.30 0.30 0.10 0.35 -0.20 0.60 -0.10 0.60 0.15 0 0.30 -0.35 0.55 -0.75 0.55 -0.40 0 -1.20 0.95 -1.75 2.15 -0.60 1.15 -0.75 1.70 -0.35 1.25 0.40 -0.50 0.95 -0.90 1.30 -0.90 0.30 0 0.55 -0.40 0.55 -0.90 0 -0.60 0.75 -1.30 2 -1.90 1.10 -0.50 2 -1.10 2 -1.30 0 -0.25 0.30 -0.40 0.70 -0.40 0.35 0 1.10 -0.55 1.60 -1.25 0.50 -0.70 1.20 -1.25 1.50 -1.25 0.30 0 0.85 -0.30 1.15 -0.70 0.30 -0.40 1.10 -0.80 1.70 -0.95 4.30 -1 7.15 -2 7.85 -2.85 0.50 -0.55 1.35 -1 1.95 -1 0.75 0 1 -0.20 0.75 -0.60 -0.75 -1.40 1.50 1.25 7.85 9.30 3.70 4.70 6.60 8.85 6.55 9.25 -0.35 1.40 -1.25 1.55 -6.60 1.20 -2.90 -0.20 -5.80 -0.35 -6.50 -0.35 -2.60 0.10 -7.95 1.90 -13 4.45 -7.75 3.85 -9 4.65 -11.60 7.05 -1.30 1.20 -2.55 2.20 -2.80 2.20 -1.40 0 -2.60 2.05 -3.20 5.40 l-0.60 3.60 -1.65 0 -1.65 0 0 -3z"/>
  <path d="M160 70.25 c0 -2 1.20 -2.45 1.70 -0.60 0.50 1.85 0.35 2.35 -0.70 2.35 -0.80 0 -1 -0.35 -1 -1.75z"/>
  <path d="M126 45.15 c0 -0.50 0.25 -2.65 0.60 -4.75 0.50 -3.30 0.70 -3.90 1.55 -3.90 0.85 0 0.95 0.25 0.60 2.40 -0.70 4.95 -1.35 7.10 -2.05 7.10 -0.40 0 -0.70 -0.40 -0.70 -0.85z"/>
  <path d="M126.55 29 c-0.40 -2.50 -0.55 -4.70 -0.35 -4.90 0.65 -0.60 1.70 1.35 2 3.80 0.20 1.30 0.50 3.10 0.65 4 0.20 1.35 0.10 1.60 -0.70 1.60 -0.80 0 -1.05 -0.65 -1.60 -4.50z"/>
 </g>
 <g fill="#966eeb">
  <path d="M141.75 203.45 c-2.55 -0.40 -8.80 -2.30 -8.10 -2.50 0.20 -0.05 0.50 -0.10 0.75 -0.15 1.40 -0.35 2.60 -0.95 2.60 -1.30 0 -0.60 2.90 -1.50 4.90 -1.50 1.35 0 2.10 0.40 3.40 1.80 0.95 0.95 1.70 2 1.70 2.25 0 0.30 0.20 0.40 0.45 0.20 0.25 -0.15 0.60 -0.05 0.80 0.25 0.25 0.40 -0.65 0.75 -3.25 1.25 -0.40 0.05 -1.85 -0.05 -3.25 -0.30z"/>
  <path d="M78.15 190.25 c-1.35 -1.20 -1.35 -1.20 -0.25 -1.25 0.80 0 1.35 -0.50 1.95 -1.75 0.45 -0.95 1 -1.75 1.25 -1.75 0.95 0 0.25 -1.05 -1.20 -1.85 -2.65 -1.40 -4.40 -0.45 -4.40 2.40 l0 1.65 -1.55 -1.50 c-0.85 -0.80 -2.45 -2.50 -3.50 -3.80 l-1.95 -2.30 2.50 -2.55 c2.05 -2 3 -2.55 4.75 -2.85 3.10 -0.45 4.60 0.05 7.35 2.35 1.35 1.10 2.60 1.85 2.90 1.70 0.25 -0.15 -0.50 1.80 -1.70 4.35 -3.50 7.50 -3.95 8.40 -4.35 8.40 -0.20 0 -1.05 -0.55 -1.80 -1.25z"/>
  <path d="M164.65 166.85 c-0.30 -0.30 -0.65 -1 -0.80 -1.45 -0.25 -0.70 -0.05 -0.90 0.90 -0.90 1 0 1.25 0.25 1.25 1.20 0 1.45 -0.70 2.05 -1.35 1.15z"/>
  <path d="M170.50 156.90 c0 -1.70 0.15 -1.90 1.25 -1.90 1.55 0 1.60 0.55 0 2.35 l-1.20 1.40 -0.05 -1.85z"/>
  <path d="M154.95 150.90 c-0.90 -1.20 -1.85 -2.45 -2.10 -2.75 -0.35 -0.50 -0.10 -0.65 1.10 -0.65 1.20 0 1.55 0.20 1.55 1 0 0.55 0.35 1 0.75 1 0.50 0 0.75 0.55 0.75 1.75 0 0.95 -0.10 1.75 -0.20 1.75 -0.10 0 -0.95 -0.95 -1.85 -2.10z"/>
  <path d="M176.50 147.25 c0 -1.55 0.15 -1.75 1.25 -1.75 1.50 0 1.50 0.15 0.40 2.05 -1.15 1.90 -1.65 1.85 -1.65 -0.30z"/>
  <path d="M146.25 141.45 c-4.25 -3.45 -4.25 -3.45 -2.10 -3.45 1.50 0 1.85 0.20 1.85 1 0 0.75 0.35 1 1.25 1 1.40 0 1.95 0.80 1.65 2.50 -0.15 0.95 -0.35 0.85 -2.65 -1.05z"/>
  <path d="M182 134.25 c0 -1.95 0.70 -2.30 1.50 -0.80 0.80 1.55 0.60 2.55 -0.50 2.55 -0.80 0 -1 -0.35 -1 -1.75z"/>
  <path d="M135.90 134.70 c-1.90 -1 -1.75 -1.70 0.35 -1.70 1.55 0 1.75 0.15 1.75 1.25 0 1.45 -0.25 1.50 -2.10 0.45z"/>
  <path d="M131.15 132.90 c-2.25 -0.75 -2.15 -1.90 0.10 -1.90 1.55 0 1.75 0.15 1.75 1.25 0 0.70 -0.05 1.25 -0.10 1.20 -0.10 -0.05 -0.90 -0.30 -1.75 -0.55z"/>
  <path d="M90.30 130.90 c-0.50 -1.90 -0.35 -2.40 0.70 -2.40 0.80 0 1 0.35 1 1.75 0 2 -1.20 2.45 -1.70 0.65z"/>
  <path d="M179.50 130.25 c0 -1.55 -0.15 -1.75 -1.25 -1.75 -1.10 0 -1.25 -0.20 -1.25 -1.85 0 -1.85 0 -1.85 0.90 -0.90 0.50 0.55 1.80 2.20 2.80 3.65 l1.90 2.60 -1.55 0 c-1.45 0 -1.55 -0.15 -1.55 -1.75z"/>
  <path d="M82.40 114 l-1.40 -1.75 1.30 -0.15 c1.65 -0.20 1.80 -0.05 1.60 1.95 l-0.15 1.70 -1.35 -1.75z"/>
  <path d="M169 113.75 c0 -2.15 0.50 -2.20 1.65 -0.30 1.10 1.90 1.10 2.05 -0.40 2.05 -1.10 0 -1.25 -0.20 -1.25 -1.75z"/>
  <path d="M165.50 107.30 c0 -0.65 -0.25 -1.30 -0.55 -1.40 -0.25 -0.10 -0.65 -1.20 -0.80 -2.40 -0.15 -1.25 -0.50 -2.35 -0.70 -2.50 -0.25 -0.15 -0.55 -1.55 -0.75 -3.15 -0.30 -2.40 -0.20 -2.85 0.45 -2.85 0.55 0 0.95 0.85 1.35 2.90 0.35 1.55 1.25 4.60 2 6.75 l1.45 3.85 -1.25 0 c-0.95 0 -1.20 -0.25 -1.20 -1.20z"/>
  <path d="M111.35 102.65 c-0.85 -5.50 -1.20 -17.65 -0.45 -17.65 0.20 0 0.30 -0.80 0.20 -1.75 -0.15 -1.10 0.05 -2 0.55 -2.45 0.40 -0.45 0.60 -1.25 0.50 -2 -0.15 -0.70 0 -2.40 0.35 -3.80 0.45 -1.90 0.80 -2.50 1.55 -2.50 1.20 0 1.20 0.20 -0.05 4.60 -0.55 2 -1.10 5.10 -1.25 6.90 l-0.25 3.25 0.80 -3.70 c0.70 -3.50 1.95 -5.55 3.30 -5.55 0.25 0 1.50 -1 2.80 -2.20 2.60 -2.40 3.85 -3.20 11.60 -7.05 8.30 -4.15 13.20 -5.15 21.25 -4.30 3.85 0.45 4.75 0.30 4.75 -0.75 0 -1.35 1.05 -0.65 2.50 1.65 1.90 3 2.35 4.65 2.75 10.80 0.40 5.45 0.35 5.50 -3.10 4.10 -2.70 -1.15 -8.70 -0.95 -12.90 0.35 -1.90 0.60 -3.55 1.30 -3.65 1.50 -0.10 0.20 -0.50 0.40 -0.90 0.40 -0.35 0 -2.10 0.65 -3.80 1.45 -1.75 0.80 -4.70 2.20 -6.65 3.10 -1.90 0.90 -3.80 1.90 -4.15 2.25 -0.30 0.35 -1.05 0.80 -1.60 0.95 -0.55 0.15 -1 0.50 -1 0.75 0 0.25 -0.30 0.50 -0.70 0.60 -0.40 0.10 -2.45 1.85 -4.65 3.90 l-3.90 3.75 0.15 4.40 0.10 4.35 -1.65 0 -1.65 0 -0.85 -5.35z"/>
  <path d="M64.40 96.80 c-1.20 -0.90 -1.15 -2.30 0.10 -2.30 0.80 0 1 0.35 1 1.50 0 1.70 0.05 1.70 -1.10 0.80z"/>
  <path d="M161.50 90.75 c0 -2 1.20 -2.45 1.70 -0.60 0.50 1.85 0.35 2.35 -0.70 2.35 -0.80 0 -1 -0.35 -1 -1.75z"/>
  <path d="M161 86.50 c0 -2.25 1.15 -2.85 1.70 -0.85 0.55 2.05 0.35 2.85 -0.70 2.85 -0.85 0 -1 -0.35 -1 -2z"/>
  <path d="M114.50 69.80 c0 -1 0.25 -1.80 0.50 -1.80 0.30 0 0.50 -0.50 0.50 -1.10 0 -1.65 0.70 -2.50 1.90 -2.30 1 0.15 1 0.20 -0.35 3.35 -1.60 3.80 -2.55 4.45 -2.55 1.85z"/>
  <path d="M120.50 57.50 c0 -1.85 1.45 -5 2.35 -5 0.40 0 0.65 -0.65 0.65 -1.70 0 -0.95 0.30 -2.05 0.65 -2.40 0.40 -0.35 0.85 -1.50 1.05 -2.55 0.25 -1.40 0.60 -1.85 1.30 -1.85 0.55 0 1 0.35 1 0.75 0 1.75 -5.70 14.25 -6.50 14.25 -0.30 0 -0.50 -0.65 -0.50 -1.50z"/>
  <path d="M126.50 41.65 c0 -0.50 0.15 -2.10 0.30 -3.50 0.30 -2.20 0.50 -2.65 1.35 -2.65 0.85 0 0.95 0.25 0.60 2.40 -0.50 3.75 -0.80 4.60 -1.55 4.60 -0.40 0 -0.70 -0.40 -0.70 -0.85z"/>
  <path d="M126.60 30.15 c-0.75 -5 -0.75 -5.65 0.10 -5.65 0.70 0 1.25 1.90 2.05 7.40 0.30 1.85 0.20 2.10 -0.60 2.10 -0.85 0 -1.05 -0.60 -1.55 -3.85z"/>
  <path d="M99.75 32 c0.15 -0.25 0.95 -0.95 1.75 -1.50 l1.50 -1.05 0 1.50 c0 1.45 -0.15 1.55 -1.80 1.55 -1 0 -1.65 -0.20 -1.45 -0.50z"/>
  <path d="M104.75 27.50 c0.15 -0.25 0.95 -0.95 1.75 -1.50 l1.50 -1.05 0 1.50 c0 1.45 -0.15 1.55 -1.80 1.55 -1 0 -1.65 -0.20 -1.45 -0.50z"/>
  <path d="M123.50 22.75 c0 -1.55 0.55 -1.60 2.35 0 l1.40 1.20 -1.85 0.05 c-1.70 0 -1.90 -0.15 -1.90 -1.25z"/>
  <path d="M119 21 c0 -1.05 0.50 -1.20 2.40 -0.70 1.80 0.50 1.35 1.70 -0.65 1.70 -1.40 0 -1.75 -0.20 -1.75 -1z"/>
 </g>
 <g fill="#a17cee">
  <path d="M189 224.55 c0 -0.45 1.65 -1.05 2.90 -1.05 0.30 0 0.60 0.35 0.60 0.75 0 0.50 -0.55 0.75 -1.75 0.75 -0.95 0 -1.75 -0.20 -1.75 -0.45z"/>
  <path d="M19 218.75 c0 -1.50 0.15 -1.50 2.05 -0.40 1.90 1.15 1.85 1.65 -0.30 1.65 -1.55 0 -1.75 -0.15 -1.75 -1.25z"/>
  <path d="M13 214 c0 -1.35 -0.15 -1.50 -1.50 -1.50 -1.40 0 -1.50 -0.10 -1.50 -1.85 l0.05 -1.90 1.60 1.85 c0.90 1.05 2.40 2.55 3.35 3.35 l1.75 1.50 -1.85 0.05 c-1.80 0 -1.90 -0.10 -1.90 -1.50z"/>
  <path d="M76 188.10 c-3.15 -3.20 -4.15 -5.10 -2.70 -5.10 0.35 0 1 -0.35 1.45 -0.80 1.30 -1.35 4.25 -1.45 6.35 -0.25 1 0.60 1.95 1.45 2.10 1.85 0.35 0.85 -2.70 7.65 -3.40 7.70 -0.25 0 -1.95 -1.55 -3.80 -3.40z"/>
  <path d="M0.05 188.15 c0 -1.55 0.10 -1.70 0.45 -0.90 0.60 1.40 0.60 2.75 0 2.75 -0.25 0 -0.50 -0.85 -0.45 -1.85z"/>
  <path d="M164.50 166.55 c-0.65 -1.30 -0.65 -1.55 0.25 -1.55 0.45 0 0.75 -0.45 0.75 -1.25 0 -1 0.25 -1.25 1.25 -1.25 0.70 0 1.25 0.15 1.25 0.30 0 0.40 -2.55 4.70 -2.80 4.70 -0.10 0 -0.40 -0.45 -0.70 -0.95z"/>
  <path d="M159.65 158 l-3.05 -5 1.45 0 c0.95 0 1.45 0.25 1.45 0.75 0 0.40 0.25 0.75 0.50 0.75 0.30 0 0.50 0.55 0.50 1.25 0 0.80 0.30 1.25 0.75 1.25 0.45 0 0.75 0.45 0.75 1.25 0 0.80 0.30 1.25 0.75 1.25 0.50 0 0.75 0.55 0.75 1.75 0 0.95 -0.15 1.75 -0.35 1.75 -0.25 0 -1.80 -2.25 -3.50 -5z"/>
  <path d="M172 154.25 c0 -0.95 0.25 -1.75 0.50 -1.75 0.30 0 0.50 -0.35 0.50 -0.75 0 -0.40 0.25 -0.75 0.50 -0.75 0.30 0 0.50 -0.35 0.50 -0.75 0 -0.40 0.35 -0.75 0.75 -0.75 0.45 0 0.75 -0.45 0.75 -1.25 0 -1 0.25 -1.25 1.25 -1.25 0.70 0 1.25 0.15 1.25 0.35 0 0.60 -5.20 8.65 -5.60 8.65 -0.25 0 -0.40 -0.80 -0.40 -1.75z"/>
  <path d="M150.90 146 l-1.40 -1.75 1.30 -0.15 c1.65 -0.20 1.80 -0.05 1.60 1.95 l-0.15 1.70 -1.35 -1.75z"/>
  <path d="M178 144.75 c0 -1.20 0.25 -1.75 0.75 -1.75 0.45 0 0.75 -0.45 0.75 -1.20 0 -0.70 0.35 -1.55 0.75 -2 0.40 -0.40 0.75 -0.95 0.75 -1.25 0 -0.30 0.25 -0.55 0.55 -0.55 0.35 0 0.45 -0.60 0.30 -1.60 -0.80 -4.40 -0.95 -4.90 -1.90 -4.90 -0.55 0 -0.95 -0.35 -0.95 -0.75 0 -0.40 -0.20 -0.75 -0.50 -0.75 -0.25 0 -0.50 -0.45 -0.50 -1 0 -0.55 -0.35 -1 -0.75 -1 -0.50 0 -0.75 -0.50 -0.75 -1.50 0 -1.15 -0.20 -1.50 -1 -1.50 -0.75 0 -1 -0.35 -1 -1.25 0 -0.80 -0.30 -1.25 -0.75 -1.25 -0.40 0 -0.75 -0.25 -0.75 -0.55 0 -0.30 -0.35 -0.85 -0.75 -1.25 -0.40 -0.45 -0.75 -1.30 -0.75 -2 0 -0.70 -0.30 -1.20 -0.70 -1.20 -0.75 0 -1.30 -1.05 -1.30 -2.55 0 -0.50 -0.30 -0.95 -0.70 -0.95 -0.35 0 -1.45 -1.70 -2.35 -3.75 -0.95 -2.05 -1.90 -3.75 -2.15 -3.75 -0.25 0 -0.70 -0.30 -1 -0.70 -0.80 -1 -15.95 -0.25 -19.80 1 -2.65 0.90 -5.40 2.40 -7 3.85 -0.40 0.40 -1.80 1.40 -3.10 2.25 -3.85 2.65 -9.90 9.30 -9.90 11 0 0.25 -0.45 0.85 -1 1.35 -0.55 0.50 -1 1.30 -1 1.85 0 0.70 -0.40 0.90 -1.70 0.90 -1.70 0 -1.75 -0.10 -3.25 -3.90 -1.80 -4.80 -4.25 -14.20 -5.25 -20.70 -1 -6.05 -1 -7.40 -0.10 -7.40 0.75 0 1.05 0.90 1.65 5 l0.35 2.75 0.35 -3.05 c0.30 -3 0.30 -3.05 4.15 -6.75 2.15 -2.05 4.20 -3.75 4.60 -3.85 0.40 -0.10 0.70 -0.35 0.70 -0.60 0 -0.25 0.45 -0.60 1 -0.75 0.55 -0.15 1.30 -0.60 1.60 -0.95 0.35 -0.35 2.25 -1.35 4.15 -2.25 1.95 -0.90 4.90 -2.30 6.65 -3.10 1.70 -0.80 3.45 -1.45 3.80 -1.45 0.40 0 0.80 -0.20 0.90 -0.40 0.10 -0.20 1.75 -0.90 3.65 -1.50 2.70 -0.85 4.75 -1.10 8.90 -1.10 3 0 5.90 0.25 6.45 0.55 0.75 0.40 1.10 0.40 1.40 -0.05 0.50 -0.85 1 1.20 1 4.45 0 3.60 1.30 12.35 2.55 17.30 1.70 6.75 7.10 17.05 13.90 26.65 4.20 5.95 5.05 7.50 5.05 9.30 0 1.45 -4.80 10.30 -5.60 10.30 -0.20 0 -0.40 -0.80 -0.40 -1.75z"/>
  <path d="M146 141 l-1.75 -1.45 1.90 -0.05 c1.75 0 1.85 0.10 1.85 1.50 0 0.85 -0.05 1.50 -0.15 1.50 -0.05 0 -0.90 -0.65 -1.85 -1.50z"/>
  <path d="M141.75 138.05 c-2.45 -1.70 -5.25 -3.25 -8.35 -4.50 -2.85 -1.20 -3.10 -2.05 -0.65 -2.05 0.95 0 1.75 0.25 1.75 0.50 0 0.30 0.55 0.50 1.25 0.50 0.70 0 1.25 0.20 1.25 0.45 0 0.25 0.70 0.55 1.50 0.75 0.90 0.15 1.50 0.60 1.50 1.05 0 0.45 0.45 0.75 1.25 0.75 0.70 0 1.25 0.25 1.25 0.50 0 0.30 0.35 0.50 0.75 0.50 0.50 0 0.75 0.50 0.75 1.50 0 0.85 -0.05 1.50 -0.10 1.50 -0.10 -0.05 -1.05 -0.65 -2.15 -1.45z"/>
  <path d="M95 131.55 c0 -0.90 1.95 -1.55 4.90 -1.55 2.20 0 1.15 1.40 -1.40 1.95 -3.35 0.70 -3.50 0.70 -3.50 -0.40z"/>
  <path d="M126.90 131.65 c-1.65 -0.40 -1 -1.65 0.85 -1.65 1.40 0 1.75 0.20 1.75 1 0 1 -0.70 1.15 -2.60 0.65z"/>
  <path d="M104.50 130 c0 -0.80 0.35 -1 1.75 -1 2 0 2.45 1.20 0.65 1.70 -1.90 0.50 -2.40 0.35 -2.40 -0.70z"/>
  <path d="M122.40 130.65 c-1.65 -0.40 -1 -1.65 0.85 -1.65 1.40 0 1.75 0.20 1.75 1 0 1 -0.70 1.15 -2.60 0.65z"/>
  <path d="M111.50 129.50 c0 -0.85 0.35 -1 2.25 -1 1.90 0 2.25 0.15 2.25 1 0 0.85 -0.35 1 -2.25 1 -1.90 0 -2.25 -0.15 -2.25 -1z"/>
  <path d="M89.30 127.10 c-0.10 -0.20 -0.70 -1.55 -1.25 -3 l-1.05 -2.60 1.25 0 c1 0 1.25 0.25 1.25 1.25 0 0.70 0.25 1.25 0.50 1.25 0.30 0 0.50 0.80 0.50 1.75 0 1.60 -0.60 2.30 -1.20 1.35z"/>
  <path d="M85.10 118.30 c-0.85 -1.50 -1.60 -2.85 -1.60 -3 0 -0.15 0.55 -0.30 1.25 -0.30 1 0 1.25 0.25 1.25 1.25 0 0.80 0.30 1.25 0.75 1.25 0.50 0 0.75 0.55 0.75 1.75 0 0.95 -0.15 1.75 -0.40 1.75 -0.20 0 -1.10 -1.20 -2 -2.70z"/>
  <path d="M78.90 109.50 l-1.40 -1.75 1.30 -0.15 c1.65 -0.20 1.80 -0.05 1.60 1.95 l-0.15 1.70 -1.35 -1.75z"/>
  <path d="M71.25 101.95 c-4.25 -3.45 -4.25 -3.45 -2.10 -3.45 1.65 0 1.85 0.15 1.85 1.25 0 1.05 0.25 1.25 1.50 1.25 1.35 0 1.50 0.15 1.50 1.50 0 0.85 -0.05 1.50 -0.15 1.50 -0.05 0 -1.25 -0.90 -2.60 -2.05z"/>
  <path d="M65 97 l-1.75 -1.45 1.90 -0.05 c1.75 0 1.85 0.10 1.85 1.50 0 0.85 -0.05 1.50 -0.15 1.50 -0.05 0 -0.90 -0.65 -1.85 -1.50z"/>
  <path d="M64 90.65 c0 -0.55 0.95 -6.60 1.30 -8.25 0.30 -1.50 1.70 -1.95 1.70 -0.55 0 0.45 -0.25 2.70 -0.60 5 -0.50 3.45 -0.75 4.15 -1.50 4.15 -0.50 0 -0.90 -0.15 -0.90 -0.35z"/>
  <path d="M110.50 86.30 c0 -5.25 3.90 -19.80 5.25 -19.80 0.50 0 0.75 -0.50 0.75 -1.50 0 -0.80 0.70 -2.95 1.60 -4.75 1.30 -2.60 1.85 -3.25 2.75 -3.25 0.65 0 1.15 0.10 1.15 0.25 0 0.15 -1.10 2.45 -2.45 5.15 -3.95 7.90 -5.75 13.70 -7.30 23.75 -0.40 2.45 -1.75 2.55 -1.75 0.15z"/>
  <path d="M66.50 73.40 c0 -1.50 0.65 -2.90 1.30 -2.90 0.45 0 0.70 0.60 0.70 1.75 0 1.40 -0.20 1.75 -1 1.75 -0.55 0 -1 -0.30 -1 -0.60z"/>
  <path d="M67.75 65.40 c0.45 -2.70 1.85 -5.95 2.90 -6.85 0.75 -0.60 0.85 -0.50 0.85 1.15 0 1 -0.20 1.80 -0.45 1.80 -0.25 0 -0.70 1.35 -1.10 3 -0.50 2.35 -0.85 3 -1.60 3 -0.80 0 -0.90 -0.25 -0.60 -2.10z"/>
  <path d="M122 54 c0 -1.60 0.95 -4 1.60 -4 0.20 0 0.40 -0.35 0.40 -0.75 0 -0.40 0.60 -2.50 1.35 -4.60 1.10 -3.25 1.30 -4.80 1.35 -9.15 0 -3.35 -0.25 -5.95 -0.75 -7.25 -0.70 -1.95 -0.80 -2 -3.50 -2.30 -3 -0.30 -4.95 -1.55 -4.95 -3.10 0 -0.75 -0.25 -0.90 -1.10 -0.70 -2.95 0.75 -4.85 1.65 -5.05 2.45 -0.20 0.65 -0.75 0.90 -2 0.90 -1.65 0 -1.80 0.15 -1.95 1.65 -0.15 1.50 -0.30 1.60 -2.15 1.75 l-2 0.10 2.25 -2.05 c6.75 -6.10 9.10 -7.30 13.90 -6.80 2.80 0.30 6.75 2.25 7.55 3.75 0.25 0.50 0.85 3.05 1.30 5.65 1.30 7.30 0.20 14 -3.55 22.35 -1.75 3.80 -2.70 4.55 -2.70 2.10z"/>
  <path d="M75.75 53.50 c0.15 -0.25 0.95 -0.95 1.75 -1.50 l1.50 -1.05 0 1.50 c0 1.45 -0.15 1.55 -1.80 1.55 -1 0 -1.65 -0.20 -1.45 -0.50z"/>
  <path d="M81.75 48.20 c1.90 -1.70 2 -1.70 2.15 -0.70 0.30 1.90 -0.25 2.50 -2.25 2.50 l-1.90 -0.05 2 -1.75z"/>
  <path d="M84.75 45.50 c0.15 -0.25 0.95 -0.95 1.75 -1.50 l1.50 -1.05 0 1.50 c0 1.45 -0.15 1.55 -1.80 1.55 -1 0 -1.65 -0.20 -1.45 -0.50z"/>
  <path d="M90.75 40.20 c1.90 -1.70 2 -1.70 2.15 -0.70 0.30 1.90 -0.25 2.50 -2.25 2.50 l-1.90 -0.05 2 -1.75z"/>
  <path d="M224 38 c0 -0.55 0.25 -1 0.50 -1 0.30 0 0.50 0.45 0.50 1 0 0.55 -0.20 1 -0.50 1 -0.25 0 -0.50 -0.45 -0.50 -1z"/>
  <path d="M96.25 35.20 c1.90 -1.70 2 -1.70 2.15 -0.70 0.30 1.90 -0.25 2.50 -2.25 2.50 l-1.90 -0.05 2 -1.75z"/>
  <path d="M99.25 32.50 c0.15 -0.25 0.95 -0.95 1.75 -1.50 l1.50 -1.05 0 1.50 c0 1.45 -0.15 1.55 -1.80 1.55 -1 0 -1.65 -0.20 -1.45 -0.50z"/>
  <path d="M9.50 14.90 c0 -1.80 0.10 -1.90 1.50 -1.90 1.35 0 1.50 -0.15 1.50 -1.50 0 -1.40 0.10 -1.50 1.90 -1.50 l1.85 0.05 -1.75 1.50 c-0.95 0.80 -2.45 2.30 -3.35 3.35 l-1.60 1.85 -0.05 -1.85z"/>
 </g>
 <g fill="#ac8cf0">
  <path d="M198.10 221.90 c0.15 -0.35 0.95 -0.90 1.80 -1.25 1.55 -0.65 1.60 -0.60 1.60 0.60 0 1.10 -0.20 1.25 -1.80 1.25 -1.15 0 -1.70 -0.20 -1.60 -0.60z"/>
  <path d="M219 203.25 c0 -0.75 2.10 -4.25 2.50 -4.25 0.55 0 0.65 2.45 0.20 3.70 -0.30 0.70 -2.70 1.20 -2.70 0.55z"/>
  <path d="M224 187.55 c0 -0.55 0.25 -1.15 0.50 -1.30 0.30 -0.20 0.50 0.25 0.50 0.95 0 0.70 -0.20 1.30 -0.50 1.30 -0.25 0 -0.50 -0.45 -0.50 -0.95z"/>
  <path d="M163.75 164.90 c-0.75 -1.45 -2.10 -3.90 -3.05 -5.45 -0.95 -1.55 -1.70 -2.95 -1.70 -3.15 0 -0.15 0.55 -0.30 1.25 -0.30 1 0 1.25 0.25 1.25 1.25 0 0.80 0.30 1.25 0.75 1.25 0.45 0 0.75 0.45 0.75 1.25 0 0.70 0.30 1.25 0.65 1.25 0.35 0 1.05 0.75 1.50 1.65 l0.80 1.60 0 -1.35 c0.05 -0.80 0.30 -1.40 0.55 -1.40 0.30 0 0.50 -0.35 0.50 -0.75 0 -0.40 0.25 -0.75 0.50 -0.75 0.30 0 0.50 -0.35 0.50 -0.75 0 -0.40 0.25 -0.75 0.50 -0.75 0.30 0 0.50 -0.35 0.50 -0.75 0 -0.40 0.25 -0.75 0.50 -0.75 0.30 0 0.50 -0.35 0.50 -0.75 0 -0.40 0.25 -0.75 0.50 -0.75 0.30 0 0.50 -0.35 0.50 -0.75 0 -0.40 0.35 -0.75 0.75 -0.75 0.55 0 0.75 -0.55 0.75 -1.85 0 -2.65 0.50 -4.15 1.30 -4.15 0.85 0 0.90 -1.05 0.20 -3.75 -0.95 -3.60 -3.50 -9.75 -4.05 -9.75 -0.20 0 -0.50 -0.45 -0.70 -1 -0.50 -1.55 -8.15 -9 -9.25 -9 -0.30 0 -0.50 -0.20 -0.50 -0.50 0 -0.25 -0.45 -0.50 -0.95 -0.50 -0.55 0 -1.15 -0.20 -1.30 -0.50 -0.15 -0.25 -2.30 -0.50 -4.75 -0.50 -2.45 0 -4.60 0.25 -4.75 0.50 -0.15 0.30 -0.95 0.50 -1.80 0.50 -0.80 0 -1.45 0.20 -1.45 0.45 0 0.25 -0.60 0.55 -1.35 0.65 -1 0.10 -1.45 0.45 -1.55 1.25 -0.10 0.75 -0.55 1.15 -1.50 1.25 -0.85 0.10 -1.40 0.50 -1.55 1.15 -0.10 0.50 -0.75 1.55 -1.50 2.25 -0.90 0.85 -1.25 1.65 -1.15 2.65 0.15 1.25 0.10 1.30 -1.10 0.90 -0.65 -0.30 -1.65 -0.70 -2.15 -1 -1.15 -0.60 -9.80 -2.55 -11.35 -2.55 -0.65 0 -1.65 -0.40 -2.20 -0.85 -1.05 -0.95 -2.60 -4.55 -2.60 -6.10 0 -0.55 -0.20 -1.05 -0.50 -1.15 -0.65 -0.20 -3.30 -10.45 -4.50 -17.40 -1.20 -6.90 -1.25 -8 -0.30 -8 0.75 0 0.95 0.70 1.80 6.25 1.30 8.35 6.45 25.20 6.90 22.45 0.10 -0.60 0.60 -1.50 1.15 -2 0.50 -0.45 0.95 -1.05 0.95 -1.30 0 -1.70 6.05 -8.35 9.90 -11 1.30 -0.85 2.70 -1.85 3.10 -2.25 3.80 -3.45 8.10 -4.70 16.90 -5.05 3.90 -0.10 7.10 -0.35 7.10 -0.55 0 -0.20 1.10 -0.40 2.45 -0.45 2.10 -0.10 2.65 0.10 3.35 1.05 0.80 1.10 0.80 1.10 0.45 -0.40 -0.80 -3.75 -0.70 -3.70 0.65 0.10 2.15 6.05 9.45 18.80 14.85 25.90 2.45 3.20 3.40 5.50 3 7.35 -0.40 1.65 -5.30 9.90 -13.25 22.15 -2.85 4.40 -5.20 8.10 -5.30 8.15 -0.05 0.10 -0.75 -1 -1.45 -2.50z"/>
  <path d="M155.40 151.50 c-1.60 -2.05 -3.50 -4.50 -4.25 -5.40 l-1.35 -1.70 1.75 0.20 c1.50 0.15 1.70 0.35 1.85 1.80 0.15 1.30 0.35 1.60 1.40 1.60 0.85 0 1.20 0.25 1.20 1 0 0.55 0.35 1 0.75 1 0.40 0 0.75 0.30 0.75 0.70 0 0.40 0.25 0.80 0.55 0.90 0.30 0.10 0.45 0.95 0.35 1.90 l-0.15 1.75 -2.85 -3.75z"/>
  <path d="M138.90 136.10 c-1.85 -1.10 -1.75 -1.60 0.35 -1.60 1.55 0 1.75 0.15 1.75 1.25 0 1.45 -0.30 1.50 -2.10 0.35z"/>
  <path d="M92.50 132 c0 -0.80 0.35 -1 1.75 -1 2 0 2.45 1.20 0.65 1.70 -1.90 0.50 -2.40 0.35 -2.40 -0.70z"/>
  <path d="M104 130 c0 -0.80 0.35 -1 1.75 -1 2 0 2.45 1.20 0.65 1.70 -1.90 0.50 -2.40 0.35 -2.40 -0.70z"/>
  <path d="M111 129.45 c0 -0.80 0.40 -0.95 2.75 -0.95 2.35 0 2.75 0.15 2.75 0.95 0 0.75 -0.40 0.90 -2.75 0.90 -2.35 0 -2.75 -0.15 -2.75 -0.90z"/>
  <path d="M81.40 112.50 l-1.40 -1.75 1.30 -0.15 c1.65 -0.20 1.80 -0.05 1.60 1.95 l-0.15 1.70 -1.35 -1.75z"/>
  <path d="M71.50 102 l-1.75 -1.45 1.90 -0.05 c1.75 0 1.85 0.10 1.85 1.50 0 0.85 -0.05 1.50 -0.15 1.50 -0.05 0 -0.90 -0.65 -1.85 -1.50z"/>
  <path d="M66.50 98 l-1.75 -1.45 1.90 -0.05 c1.75 0 1.85 0.10 1.85 1.50 0 0.85 -0.05 1.50 -0.15 1.50 -0.05 0 -0.90 -0.65 -1.85 -1.50z"/>
  <path d="M110.50 84.75 c0 -1.40 0.20 -1.75 1 -1.75 1.05 0 1.20 0.50 0.70 2.40 -0.50 1.80 -1.70 1.35 -1.70 -0.65z"/>
  <path d="M65.50 80.40 c0 -1.50 0.65 -2.90 1.30 -2.90 0.45 0 0.70 0.60 0.70 1.75 0 1.40 -0.20 1.75 -1 1.75 -0.55 0 -1 -0.30 -1 -0.60z"/>
  <path d="M112 76.75 c0 -0.95 0.25 -1.75 0.50 -1.75 0.30 0 0.50 -0.80 0.50 -1.75 0 -1.50 0.15 -1.75 1.20 -1.75 l1.15 0 -1 3.50 c-1.15 3.80 -2.35 4.70 -2.35 1.75z"/>
  <path d="M67 70.90 c0 -1.50 0.65 -2.90 1.30 -2.90 0.45 0 0.70 0.60 0.70 1.75 0 1.40 -0.20 1.75 -1 1.75 -0.55 0 -1 -0.30 -1 -0.60z"/>
  <path d="M115.50 66.90 c0 -2.15 0.60 -3.05 1.90 -2.80 l1.05 0.15 -0.95 2.15 c-1.15 2.50 -2 2.70 -2 0.50z"/>
  <path d="M68.60 62.15 c1.75 -3.70 2.40 -4.05 2.40 -1.40 0 1.55 -0.15 1.75 -1.30 1.75 -0.70 0 -1.20 -0.15 -1.10 -0.35z"/>
  <path d="M120 58.05 c0 -0.80 0.80 -3.15 1.75 -5.25 0.95 -2.10 1.50 -3.80 1.25 -3.80 -1.15 0 -4.50 -2.55 -4.50 -3.40 0 -0.50 -0.60 -1.25 -1.35 -1.65 -0.80 -0.40 -1.55 -0.90 -1.75 -1.15 -0.15 -0.25 -1.70 -0.45 -3.35 -0.40 -1.65 0.05 -3.15 -0.15 -3.30 -0.40 -0.15 -0.30 -0.75 -0.50 -1.30 -0.50 -0.50 0 -0.95 -0.20 -0.95 -0.50 0 -0.25 -1 -0.50 -2.25 -0.50 -1.25 0 -2.25 -0.20 -2.25 -0.50 0 -0.25 -0.30 -0.50 -0.70 -0.50 -0.40 0 -0.90 -0.45 -1.05 -1 -0.15 -0.55 -0.75 -1 -1.30 -1 -0.65 0 -0.95 -0.35 -1 -1.10 -0.05 -1.10 -0.05 -1.10 -0.40 0.10 -0.30 1 -0.70 1.30 -2.30 1.40 -2 0.15 -2 0.15 -1 -0.80 3.80 -3.75 16.80 -14.85 18.25 -15.60 0.95 -0.50 2.70 -1.05 3.85 -1.25 1.80 -0.30 2.15 -0.20 2.65 0.70 0.30 0.60 0.35 1.05 0.15 1.05 -0.20 0 0.20 0.50 0.85 1.10 0.90 0.85 1.80 1.15 3.65 1.15 3 0 3.50 0.60 4.35 5.10 0.90 4.70 0.35 12.15 -1.20 16.85 -1.60 4.70 -5.65 13.30 -6.30 13.30 -0.30 0 -0.50 -0.65 -0.50 -1.45z"/>
  <path d="M75.25 54 c0.15 -0.25 0.95 -0.95 1.75 -1.50 l1.50 -1.05 0 1.50 c0 1.45 -0.15 1.55 -1.80 1.55 -1 0 -1.65 -0.20 -1.45 -0.50z"/>
  <path d="M80.75 49.20 c1.90 -1.70 2 -1.70 2.15 -0.70 0.30 1.90 -0.25 2.50 -2.25 2.50 l-1.90 -0.05 2 -1.75z"/>
  <path d="M85.25 45.20 c1.90 -1.70 2 -1.70 2.15 -0.70 0.30 1.90 -0.25 2.50 -2.25 2.50 l-1.90 -0.05 2 -1.75z"/>
  <path d="M89.75 41.20 c1.90 -1.70 2 -1.70 2.15 -0.70 0.30 1.90 -0.25 2.50 -2.25 2.50 l-1.90 -0.05 2 -1.75z"/>
  <path d="M2.50 25.55 c0 -2.25 0.50 -3.05 1.80 -3.05 1.45 0 1.45 0.05 0.20 2.50 -1.20 2.35 -2 2.55 -2 0.55z"/>
  <path d="M125 22.75 c-0.35 -0.40 -1 -0.75 -1.45 -0.75 -1 -0.05 -3.55 -1.45 -2.65 -1.50 1.05 0 3.80 1.30 4.55 2.15 0.35 0.50 0.55 0.85 0.40 0.85 -0.10 0 -0.50 -0.35 -0.85 -0.75z"/>
  <path d="M7 17.80 c0 -1.65 0.10 -1.80 1.55 -1.80 l1.50 0 -1.05 1.50 c-1.55 2.20 -2 2.25 -2 0.30z"/>
  <path d="M215.70 17.15 c-1 -1.35 -2.10 -2.70 -2.35 -3 -0.35 -0.50 -0.10 -0.65 1.10 -0.65 1.30 0 1.55 0.20 1.55 1.25 0 0.90 0.25 1.25 1 1.25 0.80 0 1 0.35 1 1.75 0 0.95 -0.10 1.75 -0.20 1.75 -0.10 0 -1.05 -1.05 -2.10 -2.35z"/>
  <path d="M13 11.05 c0 -1.40 0.15 -1.55 1.50 -1.55 1.25 0 1.50 -0.20 1.50 -1.25 0 -1.10 0.20 -1.25 1.90 -1.25 l1.85 0.05 -2 1.75 c-1.10 0.95 -2.60 2.20 -3.35 2.75 l-1.40 1 0 -1.50z"/>
  <path d="M35 0.50 c0 -0.25 0.85 -0.50 1.90 -0.45 1.50 0 1.65 0.10 0.85 0.45 -1.40 0.60 -2.75 0.60 -2.75 0z"/>
 </g>
 <g fill="#b599f1">
  <path d="M36.50 224.50 c0 -0.25 0.45 -0.50 1 -0.50 0.55 0 1 0.25 1 0.50 0 0.30 -0.45 0.50 -1 0.50 -0.55 0 -1 -0.20 -1 -0.50z"/>
  <path d="M186.25 224.50 c0.15 -0.25 0.75 -0.50 1.30 -0.50 0.50 0 0.95 0.25 0.95 0.50 0 0.30 -0.60 0.50 -1.30 0.50 -0.70 0 -1.15 -0.20 -0.95 -0.50z"/>
  <path d="M193 223.85 c0 -0.40 0.80 -0.90 1.75 -1.20 1.65 -0.55 1.75 -0.50 1.75 0.65 0 1.05 -0.25 1.20 -1.75 1.20 -1.10 0 -1.75 -0.25 -1.75 -0.65z"/>
  <path d="M21.50 220.25 c0 -1.45 0.10 -1.50 2 -0.50 2 1.05 1.90 1.75 -0.25 1.75 -1.55 0 -1.75 -0.15 -1.75 -1.25z"/>
  <path d="M200 221.10 c0 -0.40 2.60 -2.10 3.20 -2.10 0.15 0 0.30 0.55 0.30 1.25 0 1.10 -0.20 1.25 -1.75 1.25 -0.95 0 -1.75 -0.20 -1.75 -0.40z"/>
  <path d="M16 217 c0 -0.75 -0.35 -1 -1.25 -1 -1.05 0 -1.25 -0.25 -1.25 -1.55 l0 -1.50 1.40 1 c0.75 0.55 2.15 1.65 3.10 2.50 l1.75 1.50 -1.85 0.05 c-1.55 0 -1.90 -0.15 -1.90 -1z"/>
  <path d="M9.50 210.20 c0 -1.95 0.45 -1.90 2 0.30 l1.05 1.50 -1.50 0 c-1.45 0 -1.55 -0.15 -1.55 -1.80z"/>
  <path d="M220.65 199.90 c0.95 -2.30 1.85 -2.40 1.85 -0.20 0 1.60 -0.15 1.80 -1.25 1.80 -1.20 0 -1.25 -0.05 -0.60 -1.60z"/>
  <path d="M164.80 166.65 c-0.20 -0.25 -0.70 -1.10 -1.05 -2 -0.35 -0.85 -2 -3.75 -3.70 -6.35 -2.85 -4.60 -2.95 -4.80 -1.75 -4.80 1.45 0 1.50 -0.50 0.15 -4 -0.60 -1.50 -1.15 -3.20 -1.30 -3.75 -0.45 -1.95 -4.15 -3.60 -8.75 -4 -0.80 -0.05 -3.15 -1.35 -5.30 -2.90 -7.95 -5.75 -15.90 -8.25 -26.65 -8.45 -5.80 -0.10 -6.45 -0.20 -6.45 -1 0 -0.80 0.50 -0.90 3.95 -0.90 l3.95 0 -0.95 -2.50 c-0.50 -1.40 -0.95 -2.95 -0.95 -3.50 0 -0.55 -0.20 -1 -0.50 -1 -0.25 0 -0.50 -0.80 -0.50 -1.75 0 -0.95 -0.20 -1.75 -0.40 -1.75 -0.75 0 -4.10 -15.90 -4.10 -19.35 0 -1.65 1.35 -1.45 1.70 0.25 0.15 0.75 0.50 2.95 0.80 4.85 1.20 7.85 5.55 22.35 7.25 24.20 0.55 0.55 5.25 1.75 11.60 2.90 1.80 0.30 3.15 -0.65 3.15 -2.25 0 -0.55 0.35 -1.25 0.75 -1.60 0.45 -0.40 0.75 -0.45 0.75 -0.10 0 0.30 -0.20 0.70 -0.50 0.85 -0.25 0.15 -0.50 0.55 -0.50 0.80 0 0.30 0.35 0.20 0.75 -0.25 0.40 -0.40 0.75 -1 0.75 -1.30 0 -0.70 2 -3.30 2.35 -3.05 0.15 0.05 0.85 -0.35 1.55 -1 0.80 -0.70 2.05 -1.15 3.10 -1.20 0.95 0 2 -0.20 2.35 -0.40 1 -0.65 11.60 -0.60 12.25 0.05 0.35 0.35 1 0.60 1.50 0.60 0.50 0 0.90 0.25 0.90 0.50 0 0.30 0.20 0.50 0.50 0.50 1.10 0 8.75 7.45 9.25 9 0.20 0.55 0.50 1 0.70 1 0.40 0 0.85 1 2.75 5.75 1.05 2.70 2.15 7.30 2 8.40 -0.15 1.25 0.40 1.05 1.95 -0.75 0.85 -1 0.45 -0.10 -1 2.20 -2.70 4.35 -11.75 18.40 -11.90 18.40 -0.05 0 -0.25 -0.15 -0.45 -0.35z m10.30 -16.75 c-0.40 -0.40 -0.60 -0.45 -0.60 -0.05 0 0.30 -0.15 1 -0.30 1.50 -0.35 0.85 -0.30 0.85 0.60 0.05 0.70 -0.70 0.80 -1 0.30 -1.50z"/>
  <path d="M154.20 149.65 c-3.65 -4.45 -3.50 -4.15 -1.75 -4.15 1.40 0 1.55 0.15 1.55 1.50 0 1.25 0.20 1.50 1.25 1.50 1.10 0 1.25 0.20 1.25 1.75 0 0.95 -0.10 1.75 -0.15 1.75 -0.10 0 -1.05 -1.05 -2.15 -2.35z"/>
  <path d="M90.40 130.75 c-0.75 -2.75 -0.75 -2.75 0.35 -2.75 0.85 0 1.20 0.35 1.45 1.55 0.90 4.55 -0.60 5.55 -1.80 1.20z"/>
  <path d="M97 131.10 c0 -0.75 0.70 -1 4.15 -1.50 5.30 -0.75 5.85 -0.75 5.85 0.10 0 0.75 -0.70 0.95 -6 1.80 -4.15 0.65 -4 0.65 -4 -0.40z"/>
  <path d="M84.40 117 l-1.85 -3 1.45 0 c1.25 0 1.50 0.20 1.50 1.25 0 0.80 0.30 1.25 0.75 1.25 0.50 0 0.75 0.55 0.75 1.75 0 0.95 -0.15 1.75 -0.35 1.75 -0.25 0 -1.25 -1.35 -2.25 -3z"/>
  <path d="M79.40 110 l-1.40 -1.75 1.30 -0.15 c1.65 -0.20 1.80 -0.05 1.60 1.95 l-0.15 1.70 -1.35 -1.75z"/>
  <path d="M68.50 99.50 l-1.75 -1.45 1.90 -0.05 c1.75 0 1.85 0.10 1.85 1.50 0 0.85 -0.05 1.50 -0.15 1.50 -0.05 0 -0.90 -0.65 -1.85 -1.50z"/>
  <path d="M63.50 93.50 c0 -1.85 1.20 -5.50 1.80 -5.50 0.75 0 0.85 1.15 0.40 4.15 -0.25 1.35 -0.55 1.85 -1.25 1.85 -0.55 0 -0.95 -0.20 -0.95 -0.50z"/>
  <path d="M110.50 84.75 c0 -2.20 2 -11.50 2.50 -11.65 0.25 -0.10 0.50 -0.70 0.50 -1.35 0 -0.60 0.35 -2.05 0.75 -3.20 0.65 -1.95 0.65 -2.05 -0.30 -2.05 -0.55 0 -2.15 -1.15 -3.55 -2.50 -3.20 -3.10 -6.70 -4.85 -10.80 -5.25 -1.70 -0.20 -3.25 -0.55 -3.40 -0.80 -0.15 -0.25 -0.80 -0.45 -1.45 -0.45 -0.65 0 -1.35 -0.20 -1.50 -0.50 -0.65 -1.05 -6.75 -0.10 -6.75 1.05 0 0.25 -0.90 0.45 -1.95 0.45 -1.10 0 -2.05 0.25 -2.15 0.50 -0.10 0.30 -1.65 0.65 -3.45 0.80 -2.60 0.25 -3.40 0.15 -4.05 -0.50 -0.45 -0.45 -1.05 -0.80 -1.35 -0.80 -0.30 0 -0.55 -0.55 -0.55 -1.20 0 -0.90 1.45 -2.45 5.90 -6.35 3.20 -2.85 9.25 -8.20 13.35 -11.90 4.15 -3.70 8.05 -7.20 8.75 -7.75 l1.25 -1.05 -1.25 1.50 c-0.70 0.80 -1.45 1.65 -1.75 1.85 -0.30 0.25 -0.25 0.40 0.15 0.40 0.35 0 0.50 0.25 0.35 0.50 -0.15 0.30 0.05 0.50 0.50 0.50 0.45 0 0.65 0.25 0.50 0.50 -0.15 0.30 -0.10 0.50 0.20 0.50 0.25 0 0.65 0.45 0.80 1 0.15 0.55 0.65 1 1.05 1 0.40 0 0.70 0.20 0.70 0.40 0 0.20 0.95 0.45 2.15 0.55 1.15 0.05 2.20 0.30 2.25 0.60 0.10 0.25 0.55 0.45 1.05 0.45 0.45 0 1.10 0.25 1.45 0.60 0.45 0.45 0.60 0.45 0.60 0 0 -0.45 0.70 -0.60 2 -0.50 1.10 0.05 2 0.30 2 0.50 0 0.20 0.45 0.40 1 0.40 0.55 0 1 0.15 1 0.40 0 0.20 0.70 0.65 1.50 1 0.95 0.45 1.50 1.05 1.50 1.65 0 0.85 3 3.20 4.10 3.20 0.15 0 0.50 0.20 0.70 0.40 0.20 0.20 0.70 -0.15 1.05 -0.75 0.35 -0.65 0.60 -0.90 0.65 -0.60 0 0.85 -1.15 3.55 -6 13.70 -5.55 11.65 -6.55 14.60 -8.20 24.15 -0.40 2.10 -1.80 2.65 -1.80 0.60z"/>
  <path d="M65 84.40 c0 -1.50 0.65 -2.90 1.30 -2.90 0.45 0 0.70 0.60 0.70 1.75 0 1.40 -0.20 1.75 -1 1.75 -0.55 0 -1 -0.30 -1 -0.60z"/>
  <path d="M66.25 75.90 c0.60 -4.20 0.85 -4.90 1.55 -4.90 0.80 0 0.85 1.10 0.40 4.70 -0.25 1.85 -0.55 2.30 -1.30 2.30 -0.90 0 -0.95 -0.25 -0.65 -2.10z"/>
  <path d="M67.50 67.75 c0 -2.05 1.15 -5.75 1.80 -5.75 0.80 0 0.85 0.75 0.40 4.20 -0.25 1.80 -0.55 2.30 -1.25 2.30 -0.55 0 -0.95 -0.35 -0.95 -0.75z"/>
  <path d="M69.50 60.55 c0 -0.30 0.55 -1.15 1.25 -1.90 l1.20 -1.40 0.05 1.90 c0 1.65 -0.15 1.85 -1.25 1.85 -0.70 0 -1.25 -0.20 -1.25 -0.45z"/>
  <path d="M0.05 36.90 c-0.05 -1.05 0.20 -1.90 0.45 -1.90 0.60 0 0.60 1.35 0 2.75 -0.35 0.80 -0.45 0.65 -0.45 -0.85z"/>
  <path d="M224 37.50 c0 -0.55 0.25 -1 0.50 -1 0.30 0 0.50 0.45 0.50 1 0 0.55 -0.20 1 -0.50 1 -0.25 0 -0.50 -0.45 -0.50 -1z"/>
  <path d="M0.50 30.25 c0 -1.50 0.15 -1.75 1.20 -1.75 1.15 0 1.20 0.10 0.65 1.75 -0.30 0.95 -0.80 1.75 -1.20 1.75 -0.40 0 -0.65 -0.65 -0.65 -1.75z"/>
  <path d="M218.35 21.05 c-1.10 -1.90 -1.10 -2.05 0.40 -2.05 1.10 0 1.25 0.20 1.25 1.75 0 2.15 -0.50 2.20 -1.65 0.30z"/>
  <path d="M9 15.30 c0 -1.65 0.10 -1.80 1.55 -1.80 l1.50 0 -1.05 1.50 c-1.55 2.20 -2 2.25 -2 0.30z"/>
  <path d="M210 11 l-1.75 -1.45 1.90 -0.05 c1.75 0 1.85 0.10 1.85 1.50 0 0.85 -0.05 1.50 -0.15 1.50 -0.05 0 -0.90 -0.65 -1.85 -1.50z"/>
  <path d="M21.50 4.75 c0 -0.90 0.25 -1.25 1 -1.25 0.55 0 1 -0.20 1 -0.50 0 -0.25 0.80 -0.50 1.75 -0.50 2.45 0 2.20 0.75 -0.75 2.25 -3.05 1.55 -3 1.55 -3 0z"/>
  <path d="M200.90 4.95 c-2.25 -1.15 -2.45 -1.95 -0.45 -1.95 2.25 0 3.05 0.50 3.05 1.80 0 1.45 -0.20 1.45 -2.60 0.15z"/>
  <path d="M186.75 0.50 c-1.90 -0.35 -1.90 -0.35 0.90 -0.45 1.60 0 2.85 0.15 2.85 0.45 0 0.55 -0.70 0.55 -3.75 0z"/>
 </g>
 <g fill="#c2acf5">
  <path d="M36 224.50 c0 -0.25 0.45 -0.50 0.95 -0.50 0.55 0 1.15 0.25 1.30 0.50 0.20 0.30 -0.25 0.50 -0.95 0.50 -0.70 0 -1.30 -0.20 -1.30 -0.50z"/>
  <path d="M28.50 223.30 c0 -1.15 0.10 -1.20 1.75 -0.65 0.95 0.30 1.75 0.80 1.75 1.20 0 0.40 -0.65 0.65 -1.75 0.65 -1.50 0 -1.75 -0.15 -1.75 -1.20z"/>
  <path d="M207.75 216 c0.15 -0.25 0.95 -0.95 1.75 -1.50 l1.50 -1.05 0 1.50 c0 1.45 -0.15 1.55 -1.80 1.55 -1 0 -1.65 -0.20 -1.45 -0.50z"/>
  <path d="M5 204.25 c0 -2.15 0.50 -2.20 1.65 -0.30 1.10 1.90 1.10 2.05 -0.40 2.05 -1.10 0 -1.25 -0.20 -1.25 -1.75z"/>
  <path d="M2.50 199.75 c0 -2.15 0.70 -2.25 1.75 -0.25 1 1.90 0.95 2 -0.50 2 -1.10 0 -1.25 -0.20 -1.25 -1.75z"/>
  <path d="M224 188.05 c0 -0.55 0.25 -1.15 0.50 -1.30 0.30 -0.20 0.50 0.25 0.50 0.95 0 0.70 -0.20 1.30 -0.50 1.30 -0.25 0 -0.50 -0.45 -0.50 -0.95z"/>
  <path d="M158.40 155.60 c-4.40 -6.70 -9.65 -12.60 -14.35 -16.20 -6.40 -4.85 -16.95 -8.90 -23.25 -8.90 -1.40 0 -3.05 -0.15 -3.65 -0.30 -1.30 -0.35 -1.60 -1.70 -0.40 -1.70 0.95 0 1 0.40 -0.75 -4.65 -0.80 -2.40 -1.50 -5 -1.50 -5.85 0 -0.80 -0.20 -1.50 -0.40 -1.50 -0.45 0 -2.25 -7.60 -2.85 -11.75 -0.55 -3.85 -0.75 -4.25 -1.75 -4.25 -0.80 0 -1 -0.35 -1 -1.70 0 -1.25 -0.25 -1.75 -1 -1.95 -0.60 -0.15 -1 -0.70 -1 -1.30 0 -0.60 -0.30 -1.05 -0.75 -1.05 -0.40 0 -0.75 -0.20 -0.75 -0.50 0 -0.25 -0.80 -1.25 -1.75 -2.20 -0.95 -1 -1.75 -2.10 -1.75 -2.55 0 -0.50 -0.45 -0.75 -1.30 -0.75 -0.75 0 -1.70 -0.40 -2.15 -0.90 -1.50 -1.60 -3.30 -2.10 -9.25 -2.50 -6.30 -0.45 -7.80 -0.20 -8.60 1.60 -0.25 0.55 -0.90 1.20 -1.45 1.50 -0.55 0.30 -1.35 0.95 -1.80 1.45 -0.45 0.45 -1.40 0.85 -2.15 0.85 -0.70 0 -1.30 0.25 -1.30 0.50 0 0.30 -1.10 0.50 -2.40 0.50 -1.80 0 -2.55 0.25 -3.10 1 -0.40 0.55 -1.10 1 -1.60 1 -0.50 0 -0.90 0.15 -0.90 0.40 0.05 0.65 1.35 2.10 1.95 2.10 0.30 0 0.55 0.35 0.55 0.75 0 0.40 0.45 0.75 1 0.75 0.65 0 1 0.35 1 0.95 0 0.70 0.40 1.05 1.40 1.15 1.15 0.15 1.40 0.40 1.50 1.85 l0.15 1.70 -1.20 -0.95 c-0.65 -0.55 -2.80 -2.15 -4.75 -3.65 -3.90 -2.90 -3.95 -3.05 -3.15 -7.40 0.25 -1.30 0.70 -4.10 1.05 -6.15 2.55 -17.55 3.60 -22.80 4.75 -24.80 0.65 -1.10 3.05 -3.70 5.35 -5.75 2.60 -2.30 3.40 -2.80 2.10 -1.40 -2.15 2.30 -3.05 3.95 -2.15 3.95 0.30 0 0.85 0.35 1.30 0.75 0.55 0.55 1.25 0.70 2.55 0.45 1.05 -0.20 1.95 -0.55 2 -0.75 0.10 -0.25 1 -0.45 2.05 -0.45 1.20 0 2.05 -0.30 2.50 -0.95 0.55 -0.75 1.40 -0.95 4.80 -1 2.45 -0.05 4.30 0.15 4.50 0.45 0.15 0.25 0.80 0.50 1.45 0.50 0.60 0 1.30 0.20 1.55 0.45 0.30 0.25 1.80 0.60 3.35 0.70 3.75 0.30 7.55 2.20 10.85 5.40 3.05 3 4.30 3 6.05 0.15 1.75 -2.80 1.65 -1.70 -0.15 2.35 -4.15 9.05 -5.85 16.95 -5.85 26.65 0 7.35 0.85 13.40 3.05 21.80 1.30 5.10 4.80 15.50 5.20 15.50 0.10 0 1.85 0.35 3.95 0.70 6.85 1.35 12.25 3.40 19.50 7.50 0.55 0.30 1.45 0.95 2 1.45 0.55 0.45 1.10 0.85 1.25 0.90 0.15 0 0.75 0.10 1.30 0.25 0.55 0.10 1.75 0.25 2.60 0.30 0.90 0.10 1.65 0.30 1.65 0.55 0 0.20 0.65 0.35 1.40 0.35 0.75 0 1.70 0.30 2.05 0.65 0.55 0.50 0.65 0.50 0.35 0 -0.20 -0.35 -0.10 -0.65 0.15 -0.65 0.30 0 0.55 0.35 0.55 0.75 0 0.35 0.30 0.90 0.65 1.10 0.40 0.20 0.80 0.85 1 1.40 0.15 0.55 0.75 2.25 1.30 3.75 0.60 1.50 1.05 3.15 1.05 3.65 0 0.50 0.45 1.80 1 2.90 0.85 1.60 0.95 2.30 0.55 3.75 -0.25 1 -0.35 2.10 -0.20 2.50 0.55 1.50 -0.25 0.45 -3.95 -5.20z"/>
  <path d="M91 132.50 c0 -0.80 0.35 -1 1.50 -1 1.80 0 2.05 1.25 0.40 1.70 -1.75 0.45 -1.90 0.40 -1.90 -0.70z"/>
  <path d="M94.50 131.50 c0 -0.80 0.35 -1 1.75 -1 2 0 2.45 1.20 0.65 1.70 -1.90 0.50 -2.40 0.35 -2.40 -0.70z"/>
  <path d="M100 130.60 c0 -0.75 0.45 -1.05 2.30 -1.30 3.45 -0.45 4.20 -0.40 4.20 0.40 0 0.70 -0.55 0.90 -4.60 1.60 -1.65 0.25 -1.90 0.20 -1.90 -0.70z"/>
  <path d="M109.50 129.50 c0 -0.80 0.35 -1 1.75 -1 2 0 2.45 1.20 0.65 1.70 -1.90 0.50 -2.40 0.35 -2.40 -0.70z"/>
  <path d="M90.30 129.55 c-0.15 -0.20 -0.50 -1 -0.75 -1.75 -0.50 -1.20 -0.40 -1.30 0.70 -1.30 1.10 0 1.25 0.20 1.25 1.75 0 1.65 -0.60 2.30 -1.20 1.30z"/>
  <path d="M88.80 125.55 c-0.15 -0.20 -0.50 -1 -0.75 -1.75 -0.50 -1.20 -0.40 -1.30 0.70 -1.30 1.10 0 1.25 0.20 1.25 1.75 0 1.65 -0.60 2.30 -1.20 1.30z"/>
  <path d="M81.80 113 c-1.35 -1.80 -2.65 -3.55 -2.95 -3.85 -0.35 -0.50 -0.10 -0.65 1.10 -0.65 1.30 0 1.55 0.20 1.55 1.25 0 0.90 0.25 1.25 1 1.25 0.55 0 1 0.30 1 0.70 0 0.40 0.25 0.80 0.55 0.90 0.30 0.10 0.45 0.95 0.35 1.90 l-0.15 1.75 -2.45 -3.25z"/>
  <path d="M22.50 4.30 c0 -1.15 0.20 -1.30 1.75 -1.30 2.65 0 2.30 0.65 -1.35 2.40 -0.25 0.10 -0.40 -0.40 -0.40 -1.10z"/>
  <path d="M197.90 3.60 c-3.75 -1.50 -4.45 -2.60 -1.65 -2.60 1.20 0 1.75 0.25 1.75 0.75 0 0.50 0.55 0.75 1.75 0.75 1.55 0 1.75 0.15 1.75 1.25 0 0.70 -0.05 1.25 -0.10 1.20 -0.10 0 -1.65 -0.60 -3.50 -1.35z"/>
 </g>
 <g fill="#cebcf7">
  <path d="M35 224.50 c0 -0.25 0.55 -0.50 1.20 -0.50 0.70 0 1.40 0.25 1.55 0.50 0.20 0.30 -0.35 0.50 -1.20 0.50 -0.85 0 -1.55 -0.20 -1.55 -0.50z"/>
  <path d="M3.30 202.70 c-0.45 -1.15 -0.35 -3.70 0.10 -3.70 0.40 0 2.60 3.55 2.60 4.20 0 0.70 -2.40 0.25 -2.70 -0.50z"/>
  <path d="M0 187.65 c0 -3.40 0.25 -3.30 0.70 0.25 0.20 1.65 0.15 2.60 -0.20 2.60 -0.30 0 -0.50 -1.20 -0.50 -2.85z"/>
  <path d="M224 188.65 c0 -0.50 0.25 -1.25 0.50 -1.65 0.35 -0.55 0.50 -0.35 0.50 0.90 0 0.85 -0.20 1.60 -0.50 1.60 -0.25 0 -0.50 -0.40 -0.50 -0.85z"/>
  <path d="M149.50 144.40 c-2.90 -2.95 -5.15 -5.40 -5.05 -5.40 1.10 0 11.15 10.20 10.50 10.65 -0.10 0.10 -2.55 -2.30 -5.45 -5.25z"/>
  <path d="M92 132 c0 -0.80 0.35 -1 1.75 -1 2 0 2.45 1.20 0.65 1.70 -1.90 0.50 -2.40 0.35 -2.40 -0.70z"/>
  <path d="M96.50 131 c0 -0.80 0.35 -1 1.75 -1 2 0 2.45 1.20 0.65 1.70 -1.90 0.50 -2.40 0.35 -2.40 -0.70z"/>
  <path d="M101.90 130.65 c-0.50 -0.10 -1.05 -0.75 -1.20 -1.45 -0.15 -0.65 -0.50 -1.20 -0.75 -1.20 -0.25 0 -0.45 -0.80 -0.45 -1.75 0 -0.95 0.25 -1.75 0.50 -1.75 0.75 0 0.60 -3.80 -0.30 -6.55 -0.45 -1.35 -1.10 -2.45 -1.50 -2.45 -0.45 0 -0.70 -0.55 -0.70 -1.50 0 -1.15 -0.20 -1.50 -1 -1.50 -0.80 0 -1 -0.35 -1 -1.50 0 -1.40 -0.15 -1.50 -1.75 -1.50 -0.95 0 -1.75 -0.20 -1.75 -0.50 0 -0.25 -0.55 -0.50 -1.25 -0.50 -0.70 0 -1.25 -0.20 -1.25 -0.50 0 -0.25 -0.45 -0.50 -1 -0.50 -0.55 0 -1 -0.25 -1 -0.55 0 -0.65 -7.05 -0.15 -7.50 0.50 -0.90 1.30 -2.05 0.80 -4.80 -2.05 -1.65 -1.65 -4.85 -4.50 -7.20 -6.35 -2.90 -2.20 -4.25 -3.60 -4.25 -4.30 0.05 -2.80 0.95 -7.75 1.35 -7.75 0.25 0 0.35 0.65 0.15 1.50 -0.25 1.10 -0.15 1.50 0.35 1.50 0.50 0 0.45 0.15 -0.10 0.50 -0.60 0.40 -0.55 0.50 0.40 0.50 0.60 0 1.10 -0.20 1.10 -0.50 0 -0.25 0.35 -0.50 0.75 -0.50 0.40 0 0.75 -0.20 0.75 -0.50 0 -0.70 1.65 -0.60 2.45 0.15 0.55 0.50 0.70 0.50 0.90 0 0.15 -0.35 0.85 -0.65 1.60 -0.65 0.75 0 1.65 -0.45 2.05 -1 0.40 -0.55 0.95 -1 1.30 -1 0.30 0 0.95 -0.50 1.50 -1.05 0.95 -1.10 0.95 -1.10 -0.30 -0.70 -1.20 0.35 -1.20 0.35 -0.25 -0.45 0.55 -0.40 1.25 -0.80 1.55 -0.80 0.30 0 1.40 -0.40 2.45 -0.95 1.30 -0.65 3 -0.90 5.70 -0.90 2.10 0 3.15 0.05 2.30 0.20 -2 0.30 -2.60 0.95 -0.85 0.95 2.60 0.05 7.35 0.75 8.30 1.25 0.65 0.35 0.80 0.35 0.55 0 -0.15 -0.30 0.05 -0.55 0.45 -0.55 0.45 0 0.80 0.20 0.80 0.45 0 0.25 0.45 0.65 1 0.80 0.55 0.15 1 0.65 1 1.05 0 0.40 0.40 0.70 0.90 0.70 1.30 0 3.10 1.85 3.10 3.15 0 0.80 0.15 0.90 0.45 0.45 0.30 -0.50 0.50 -0.25 0.70 0.85 0.20 0.90 0.65 1.55 1.05 1.55 0.40 0 0.80 0.50 0.90 1.15 0.10 0.60 0.45 1.10 0.85 1.10 0.40 0 0.85 0.45 1.05 1 0.20 0.55 0.50 -2.05 0.70 -5.75 0.35 -6.20 1.05 -10.90 1.60 -10.40 0.10 0.15 -0.05 3.05 -0.35 6.55 -0.45 5.30 -0.45 7.30 0.30 12.95 1 7.80 3.60 18.45 6.20 25.35 l1.85 4.90 -7.40 0.35 c-4.05 0.15 -8 0.40 -8.75 0.50 -0.80 0.15 -1.80 0.10 -2.25 -0.05z"/>
  <path d="M89.80 128.05 c-0.15 -0.20 -0.50 -1 -0.75 -1.75 -0.50 -1.20 -0.40 -1.30 0.70 -1.30 1.10 0 1.25 0.20 1.25 1.75 0 1.65 -0.60 2.30 -1.20 1.30z"/>
  <path d="M84.65 117.25 l-2.55 -4.25 1.45 0 c1.20 0 1.45 0.20 1.45 1.25 0 0.80 0.30 1.25 0.75 1.25 0.45 0 0.75 0.45 0.75 1.25 0 0.80 0.30 1.25 0.75 1.25 0.50 0 0.75 0.55 0.75 1.75 0 0.95 -0.20 1.75 -0.40 1.75 -0.25 0 -1.55 -1.90 -2.95 -4.25z"/>
  <path d="M80.40 111 l-1.40 -1.75 1.30 -0.15 c1.65 -0.20 1.80 -0.05 1.60 1.95 l-0.15 1.70 -1.35 -1.75z"/>
  <path d="M93.25 82.55 c-0.15 -0.30 0.20 -0.45 0.75 -0.40 0.55 0.05 1 0.25 1 0.45 0 0.55 -1.40 0.50 -1.75 -0.05z"/>
  <path d="M224.35 38.15 c-0.55 -0.50 -0.40 -2.65 0.15 -2.65 0.30 0 0.50 0.70 0.50 1.50 0 1.55 -0.10 1.75 -0.65 1.15z"/>
  <path d="M222.65 30.25 c-0.55 -1.65 -0.50 -1.75 0.65 -1.75 1.05 0 1.20 0.25 1.20 1.75 0 1.10 -0.25 1.75 -0.65 1.75 -0.40 0 -0.90 -0.80 -1.20 -1.75z"/>
  <path d="M220.75 25.50 c-1 -1.90 -0.95 -2 0.50 -2 1.10 0 1.25 0.20 1.25 1.75 0 2.15 -0.70 2.25 -1.75 0.25z"/>
  <path d="M13.50 10.55 c0 -1.45 0.15 -1.55 1.80 -1.55 1.95 0 1.90 0.45 -0.30 2 l-1.50 1.05 0 -1.50z"/>
  <path d="M208.40 9.70 c-1.60 -1.25 -2.90 -2.40 -2.90 -2.50 0 -0.10 0.80 -0.20 1.75 -0.20 1.40 0 1.75 0.20 1.75 1 0 0.75 0.35 1 1.25 1 1.05 0 1.25 0.25 1.25 1.50 0 0.85 -0.05 1.50 -0.10 1.50 -0.10 0 -1.45 -1.05 -3 -2.30z"/>
  <path d="M193.90 2.15 c-1.65 -0.40 -1 -1.65 0.85 -1.65 1.40 0 1.75 0.20 1.75 1 0 1 -0.70 1.15 -2.60 0.65z"/>
  <path d="M34.50 0.55 c0 -0.35 1.10 -0.55 2.60 -0.55 3.10 0 3 0.25 -0.20 0.70 -1.60 0.25 -2.40 0.20 -2.40 -0.15z"/>
 </g>
 <g fill="#d8c7fa">
  <path d="M91.30 133.05 c-0.10 -0.15 -0.45 -1.30 -0.80 -2.55 -0.80 -3.10 -3.85 -10.25 -5.70 -13.25 -1.80 -2.95 -4.05 -6 -7.80 -10.30 -1.50 -1.75 -2.15 -2.75 -1.50 -2.15 1.35 1.10 3.25 2 2.80 1.25 -0.15 -0.25 0.70 -0.75 1.95 -1.20 1.40 -0.45 2.10 -0.50 1.80 -0.15 -0.35 0.40 0.35 0.50 2.50 0.40 1.95 -0.15 2.85 -0.35 2.60 -0.75 -0.20 -0.35 0 -0.40 0.65 -0.15 0.50 0.25 1.80 0.50 2.85 0.65 1 0.15 1.85 0.50 1.85 0.70 0 0.25 0.45 0.45 1 0.45 0.55 0 1 0.25 1 0.50 0 0.30 0.25 0.50 0.50 0.50 0.70 0 2.70 2 3.45 3.40 0.30 0.55 0.60 1.65 0.60 2.45 0.10 1.35 0.10 1.35 0.30 0.15 0.25 -1.10 0.30 -1.05 0.95 0.75 1.55 4.30 2.05 6.90 1.90 10.25 -0.25 5.35 -0.45 5.20 5.70 4.85 3.30 -0.15 6.70 -0.05 8.85 0.35 l3.50 0.60 -7.25 0.35 c-7.10 0.30 -13.85 1.20 -19 2.55 -1.40 0.35 -2.60 0.50 -2.70 0.35z"/>
  <path d="M117.80 125.45 c-0.15 -0.40 -0.65 -1.70 -1.10 -2.95 -1.85 -5.20 -3.55 -12.25 -5.20 -22 -0.30 -1.50 -0.45 -5.10 -0.40 -8 l0.05 -5.25 0.35 5.75 c0.20 3.15 0.65 7.55 0.95 9.75 0.70 4.60 3.65 16.25 5.10 20.20 0.55 1.45 0.85 2.80 0.75 2.95 -0.15 0.15 -0.40 -0.05 -0.50 -0.45z"/>
  <path d="M219.75 23.50 c-1 -1.90 -0.95 -2 0.50 -2 1.10 0 1.25 0.20 1.25 1.75 0 2.15 -0.70 2.25 -1.75 0.25z"/>
  <path d="M198.65 3.75 c-2.15 -0.90 -2.10 -1.75 0.10 -1.75 1.55 0 1.75 0.15 1.75 1.25 0 0.70 -0.05 1.25 -0.10 1.25 -0.10 -0.05 -0.90 -0.35 -1.75 -0.75z"/>
 </g>
 <g fill="#ffffff">
  <path d="M0.05 205.15 c0.05 -13.55 0.20 -19.05 0.50 -17.20 0.65 3.85 3.25 11.35 5.05 14.45 2.20 3.85 6.80 9.50 9.70 11.90 5.45 4.55 12.30 8 18.85 9.45 2.10 0.45 3.85 0.95 3.85 1.05 0 0.10 -8.55 0.20 -19 0.20 l-19 0 0.05 -19.85z"/>
  <path d="M186.75 224.50 c0.15 -0.25 1.05 -0.50 1.90 -0.50 4.10 0 11.35 -2.90 17.15 -6.80 9.05 -6.10 15.75 -16 17.95 -26.60 0.40 -1.75 0.80 -3.35 0.95 -3.50 0.15 -0.15 0.30 8.30 0.30 18.80 l0 19.10 -19.30 0 c-12.70 0 -19.15 -0.15 -18.95 -0.50z"/>
  <path d="M0.05 19.65 l-0.05 -19.65 19.65 0.05 c18.55 0.05 19.40 0.05 16.15 0.75 -9.20 2 -16.75 6.05 -23.05 12.45 -6.05 6.10 -9.75 13 -11.70 21.75 l-0.95 4.25 -0.05 -19.60z"/>
  <path d="M224.25 36.90 c-0.10 -0.35 -0.30 -1.55 -0.50 -2.65 -2.05 -12.10 -12.60 -25.05 -25 -30.50 -2.65 -1.20 -9 -2.95 -12 -3.40 -0.80 -0.10 7.45 -0.25 18.40 -0.30 l19.85 -0.05 0 18.75 c0 10.30 -0.10 18.75 -0.25 18.75 -0.15 0 -0.35 -0.30 -0.50 -0.60z"/>
 </g>
</svg>