
<svg version="1.0" xmlns="http://www.w3.org/2000/svg" width="512px" height="512px" viewBox="0 0 512 512" preserveAspectRatio="xMidYMid meet">
 <g fill="#000000">
  <path d="M0 256 l0 -256 256 0 256 0 0 256 0 256 -256 0 -256 0 0 -256z m380.9 210.4 c23.1 -3.4 38.7 -11 54.1 -26.4 11.1 -11.1 17.5 -21.1 21.9 -34.5 4.9 -14.7 6.1 -26.6 6.1 -58.4 l0 -28.1 10 0 10 0 0 -32 0 -32 8 0 8 0 0 -61 0 -61 -18.8 0 -18.9 0 -2.1 -8.8 c-4.1 -16.5 -13.5 -32.5 -26.4 -44.8 -15.2 -14.5 -32.8 -22.4 -56.3 -25.3 -5.6 -0.7 -30.4 -1.1 -65.2 -1.1 l-56.3 0 0 -20 0 -20 -61 0 -61 0 -0.2 20.6 -0.3 20.7 -8.5 1.7 c-29.5 6 -56.3 28.5 -67.1 56.5 -6.8 17.5 -7.2 20.8 -7.6 75.3 l-0.5 49.2 -13.9 0 -13.9 0 0 61 0 61 13.8 0 13.9 0 0.6 11.8 c0.4 6.5 1.4 15.5 2.2 20.1 6.7 34.9 29.9 61.3 63.5 72 15 4.8 17.1 4.9 139.9 5 99.8 0.1 116.8 -0.1 126 -1.5z"/>
 </g>
 <g fill="#171717">
  <path d="M127.5 469.4 c-41.5 -6.4 -71.3 -34.9 -79 -75.5 -0.8 -4.6 -1.8 -13.6 -2.2 -20.1 -0.5 -8.9 -0.9 -11.8 -2 -11.8 -0.7 0 -1.3 -0.7 -1.3 -1.5 0 -1.1 1.2 -1.5 5 -1.5 2.8 0 5 0.3 5 0.8 0 5.5 2.5 24.6 4.1 31.2 2.7 11.1 9.3 24.8 16.5 33.9 10.8 13.8 29.1 25.6 46.7 30.1 15.6 3.9 24.6 4.1 143.7 3.8 111.6 -0.4 114.7 -0.5 123.5 -2.5 34.9 -8 59.8 -32.2 67.8 -65.8 2.8 -11.4 3.7 -23.6 3.7 -48.2 l0 -23.3 5 0 c3.8 0 5 0.4 5 1.5 0 0.8 -0.6 1.5 -1.4 1.5 -1.2 0 -1.4 4.6 -1.5 28.2 -0.1 31.8 -1.4 43.8 -6.2 58.3 -4.4 13.4 -10.8 23.4 -21.9 34.5 -11.1 11.1 -21.1 17.5 -34.5 21.9 -18.5 6.1 -18.3 6.1 -148.6 6 -96.1 -0.1 -120.1 -0.4 -127.4 -1.5z"/>
  <path d="M43 235.5 c0 -0.8 0.6 -1.5 1.4 -1.5 1.2 0 1.5 -7.6 1.9 -49.2 0.4 -54.5 0.8 -57.8 7.6 -75.3 10.8 -28 37.6 -50.5 67.1 -56.5 6.2 -1.2 8.6 -2.2 8.8 -3.4 0.6 -3.1 3.2 -1.8 3.2 1.7 l0 3.2 -10.2 2.2 c-10.9 2.4 -28.5 10.3 -33.6 15 -1.5 1.4 -4.2 3.7 -6 5.1 -5.2 4 -14.4 16 -19 25 -5.3 10.1 -8.9 23.8 -10.2 38.6 -0.5 6.1 -1 30.3 -1 53.9 l0 42.7 -5 0 c-3.8 0 -5 -0.4 -5 -1.5z"/>
  <path d="M456.7 128.1 c-0.9 -7.5 -6.3 -22.8 -10.7 -30.2 -9.2 -15.5 -20.6 -26.1 -36.5 -34 -9.7 -4.8 -22.9 -8.9 -28.7 -8.9 -2.2 0 -2.8 -0.5 -2.8 -2.1 0 -1.9 0.4 -2 5.3 -1.4 14 1.9 30.3 8.1 41.5 15.7 17.6 12 32.2 33.2 37.4 54.1 1.3 5.5 2.6 8.7 3.5 8.7 0.7 0 1.3 0.7 1.3 1.5 0 1.1 -1.2 1.5 -4.9 1.5 l-4.8 0 -0.6 -4.9z"/>
  <path d="M366 52 c0 -1.6 0.7 -2 3.3 -2 4.7 0 7.7 1 7.7 2.6 0 1 -1.5 1.4 -5.5 1.4 -4.8 0 -5.5 -0.2 -5.5 -2z"/>
 </g>
 <g fill="#e13541">
  <path d="M248 361.5 c0 -3.2 1.3 -4.5 28.5 -27.5 l28.5 -24 29 0 29 0 0 18 0 18.1 -5.3 6.3 c-3 3.4 -6.2 7.7 -7.3 9.4 l-1.8 3.2 -50.3 0 -50.3 0 0 -3.5z"/>
 </g>
 <g fill="#e9434b">
  <path d="M158.9 356.3 c-2.3 -4.9 -5.5 -11.7 -7.1 -15.2 -1.6 -3.4 -2.8 -7.5 -2.6 -9 0.2 -1.8 14.2 -19.9 42.8 -55.2 l42.4 -52.4 54.6 -46 c49.8 -42 54.8 -46 58.5 -46.3 l4 -0.3 5.8 12.3 c3.1 6.8 5.7 13.4 5.7 14.8 -0.1 1.8 -17.3 24.2 -59 76.5 l-59 74 32.5 0.3 c28 0.2 32.5 0.4 32.5 1.7 0 0.8 -0.4 1.5 -1 1.5 -0.5 0 -13.9 10.9 -29.7 24.3 -25.9 21.7 -28.5 24.2 -26 24.5 2.3 0.3 2.6 0.6 1.6 1.8 -1 1.2 -8.4 1.4 -46.5 1.4 l-45.4 0 -4.1 -8.7z"/>
  <path d="M349.8 355.3 c1.1 -1.6 3.6 -4.6 5.6 -6.8 l3.6 -4 -0.2 4 c-0.3 3.3 -0.7 4.1 -2.5 4.3 -1.7 0.3 -2.3 1 -2.3 2.8 0 2 -0.5 2.4 -3.1 2.4 l-3 0 1.9 -2.7z"/>
 </g>
 <g fill="#dd6439">
  <path d="M50 363.5 c0 -1.1 -1.2 -1.5 -5 -1.5 l-5 0 0 -64 0 -64 5 0 c3.8 0 5 -0.4 5 -1.5 0 -0.8 0.7 -1.5 1.5 -1.5 1.3 0 1.5 8.1 1.5 67 0 58.9 -0.2 67 -1.5 67 -0.8 0 -1.5 -0.7 -1.5 -1.5z"/>
 </g>
 <g fill="#e67241">
  <path d="M33 298 l0 -64 5 0 5 0 0 64 0 64 -5 0 -5 0 0 -64z"/>
 </g>
 <g fill="#ba5d8b">
  <path d="M369 460 c0 -1.6 0.7 -2 3.5 -2 4 0 4.9 2.4 1.3 3.4 -3.8 1 -4.8 0.7 -4.8 -1.4z"/>
  <path d="M379 459 c0 -1.6 0.7 -2 3.5 -2 4 0 4.9 2.4 1.3 3.4 -3.8 1 -4.8 0.7 -4.8 -1.4z"/>
  <path d="M390 457 c0 -1.6 0.7 -2 3.5 -2 4 0 4.9 2.4 1.3 3.4 -3.8 1 -4.8 0.7 -4.8 -1.4z"/>
  <path d="M425 441.1 c0 -2.9 0.3 -3.1 3.6 -3.1 3.9 0 3.8 0.9 -0.6 4 l-3 2.1 0 -3z"/>
  <path d="M438 428.6 c0 -3.3 0.2 -3.6 3.1 -3.6 l3 0 -2.1 3 c-3.1 4.4 -4 4.5 -4 0.6z"/>
  <path d="M51.6 380.8 c-1 -3.8 -0.7 -4.8 1.4 -4.8 1.6 0 2 0.7 2 3.5 0 4 -2.4 4.9 -3.4 1.3z"/>
  <path d="M50.6 368.4 c-0.3 -0.9 -0.6 -3.3 -0.6 -5.5 0 -3.2 0.3 -3.9 2 -3.9 1.8 0 2 0.7 2 5.5 0 4 -0.4 5.5 -1.4 5.5 -0.8 0 -1.7 -0.7 -2 -1.6z"/>
  <path d="M127 53.6 c0 -0.9 0.7 -1.6 1.5 -1.6 1.3 0 1.5 -3 1.5 -21 l0 -21 64 0 64 0 0 20 c0 17.1 0.2 20 1.5 20 0.8 0 1.5 0.6 1.5 1.4 0 1.2 -9.4 1.5 -62.7 2 -34.6 0.2 -64.7 0.8 -67 1.1 -3.6 0.6 -4.3 0.4 -4.3 -0.9z"/>
 </g>
 <g fill="#f6575b">
  <path d="M155.6 350.5 c-6.1 -12.9 -6.8 -14.9 -6.3 -18.7 0.3 -2.6 1.4 -4.9 2.6 -6 1.2 -0.9 2.1 -1.9 2.1 -2.3 0 -1.1 11.2 -14.5 12.1 -14.5 0.5 0 0.9 -0.7 0.9 -1.5 0 -0.8 0.9 -2 2 -2.7 1.1 -0.7 2 -1.6 2 -2.1 0 -1.2 15.1 -19.7 16.1 -19.7 0.5 0 0.9 -0.5 0.9 -1 0 -1.4 15 -20 16.1 -20 0.5 0 0.9 -0.5 0.9 -1 0 -1.4 15 -20 16.1 -20 0.5 0 0.9 -0.6 0.9 -1.4 0 -0.8 0.8 -2.1 1.8 -2.8 1 -0.7 2.1 -2 2.5 -2.8 0.3 -0.8 9.8 -12.7 21 -26.5 l20.4 -25 -52.4 -0.3 -52.3 -0.2 0 -27.5 0 -27.5 93.3 0 93.4 0 6.6 14 c8.7 18.1 8.7 18.7 0 29.6 -3.6 4.6 -7 8.4 -7.5 8.4 -0.4 0 -0.8 0.7 -0.8 1.5 0 0.8 -0.9 2 -2 2.7 -1.1 0.7 -2 1.8 -2 2.5 0 0.7 -0.9 1.8 -2 2.5 -1.1 0.7 -2 1.8 -2 2.5 0 0.7 -0.9 1.8 -2 2.5 -1.1 0.7 -2 1.8 -2 2.5 0 0.7 -0.9 1.8 -2 2.5 -1.1 0.7 -2 1.7 -2 2.1 0 1.3 -25.2 32.7 -26.2 32.7 -0.4 0 -0.8 0.7 -0.8 1.5 0 0.8 -0.9 2 -2 2.7 -1.1 0.7 -2 1.8 -2 2.5 0 0.7 -0.9 1.8 -2 2.5 -1.1 0.7 -2 1.8 -2 2.5 0 0.7 -0.9 1.8 -2 2.5 -1.1 0.7 -2 1.8 -2 2.5 0 0.7 -0.9 1.8 -2 2.5 -1.1 0.7 -2 1.8 -2 2.5 0 0.7 -0.9 1.8 -2 2.5 -1.1 0.7 -2 1.8 -2 2.5 0 0.7 -0.9 1.8 -2 2.5 -1.1 0.7 -2 1.8 -2 2.5 0 0.7 -0.9 1.8 -2 2.5 -1.1 0.7 -2 1.8 -2 2.5 0 0.7 -0.9 1.8 -2 2.5 -1.1 0.7 -2 1.8 -2 2.5 0 0.6 -0.8 1.8 -1.8 2.5 -1 0.7 -2.1 2.1 -2.5 3.1 -0.3 0.9 -1.3 1.7 -2.2 1.7 -0.9 0 -1.5 0.9 -1.5 2.1 0 1.2 -0.8 2.3 -2 2.6 -1.1 0.3 -2 1.4 -2 2.5 0 1.1 -0.9 2.2 -2 2.5 -1.1 0.3 -2 1.4 -2 2.5 0 1.1 -0.9 2.2 -2 2.5 -1.1 0.3 -2 1.4 -2 2.5 0 1.1 -0.9 2.2 -2 2.5 -1.1 0.3 -2 1.4 -2 2.4 0 1.1 -0.7 2.2 -1.5 2.5 -0.8 0.4 -1.5 1 -1.5 1.5 0 0.5 24.8 0.9 58.5 0.9 l58.5 0 0 3.5 c0 2.4 -0.5 3.5 -1.5 3.5 -0.8 0 -1.5 -0.7 -1.5 -1.5 0 -1.3 -7.4 -1.5 -61 -1.5 -33.5 0 -61 -0.3 -61 -0.7 0 -0.5 27.4 -35.2 60.8 -77.2 l60.9 -76.4 -5.6 -11.9 c-3.5 -7.4 -6.1 -11.6 -6.8 -11.4 -0.7 0.3 -25.7 21.1 -55.6 46.3 l-54.3 45.8 -31.1 38.5 c-17.2 21.2 -36.3 44.8 -42.6 52.6 l-11.5 14.1 6.8 14.4 c4.1 8.6 7.4 14.5 8.4 14.7 3.1 0.6 1.8 3.2 -1.6 3.2 -3.2 0 -3.4 -0.3 -10.2 -14.5z"/>
  <path d="M343 363.1 c0 -0.6 0.6 -1.1 1.3 -1.1 0.7 0 1.8 -1 2.6 -2.2 2.3 -3.8 13.5 -17.7 14.4 -17.7 1.2 -0.1 0.8 6.4 -0.5 7.7 -0.7 0.7 -2 1.2 -3 1.2 -1.2 0 -1.8 0.8 -1.8 2.5 0 1.3 -0.6 2.8 -1.2 3.2 -0.7 0.4 -2.1 2.2 -3 3.8 -1.3 2.3 -2.5 3.1 -5.2 3.3 -2.1 0.2 -3.6 -0.1 -3.6 -0.7z"/>
 </g>
 <g fill="#ee804b">
  <path d="M18 298 l0 -64 9 0 9 0 0 64 0 64 -9 0 -9 0 0 -64z"/>
 </g>
 <g fill="#6b7cd6">
  <path d="M139.7 461.3 c-1.9 -1.9 -0.5 -3.3 3.3 -3.3 3.3 0 4 0.3 4 2 0 1.6 -0.7 2 -3.3 2 -1.9 0 -3.7 -0.3 -4 -0.7z"/>
  <path d="M459 171.2 c0 -14.3 -0.3 -30 -0.6 -35 -0.5 -6.7 -0.4 -9.2 0.5 -9.2 0.6 0 1.1 0.7 1.1 1.5 0 1.2 1.6 1.5 8.5 1.5 l8.5 0 0 33.5 0 33.5 -9 0 -9 0 0 -25.8z"/>
 </g>
 <g fill="#c8ae4e">
  <path d="M349 400.9 c0 -2.5 1.2 -4.4 5.8 -9 3.6 -3.7 6.5 -5.9 8 -5.9 1.6 0 2.2 -0.6 2.2 -2.1 0 -2.9 11.1 -13.9 13.9 -13.9 1.5 0 2.1 -0.6 2.1 -2.2 0 -3 10.9 -13.8 13.9 -13.8 1.5 0 2.1 -0.6 2.1 -2.1 0 -1.3 2.4 -4.6 5.9 -8 5.2 -5.3 6.3 -5.9 10 -5.9 l4.1 0 0 15.5 0 15.5 -2.4 0 c-1.3 0 -2.9 0.7 -3.6 1.5 -0.7 0.8 -2.3 1.5 -3.6 1.5 -1.3 0 -2.4 0.4 -2.4 0.9 0 0.6 2.6 0.9 5.8 0.8 l5.7 -0.2 0.3 5.8 0.3 5.7 -10.4 0 c-8.1 0 -10.7 0.3 -11.7 1.5 -0.7 0.8 -2.3 1.5 -3.6 1.5 -1.3 0 -2.4 0.5 -2.4 1 0 0.6 1.6 1 3.5 1 1.9 0 3.5 -0.4 3.5 -1 0 -0.5 2.5 -1 5.5 -1 3 0 5.5 0.5 5.5 1 0 0.6 2 1 4.4 1 4.1 0 4.4 0.2 5 3.1 0.3 1.7 0.6 4.2 0.6 5.5 l0 2.4 -18.4 0 c-15.1 0 -18.6 0.3 -19.6 1.5 -1 1.2 -4.1 1.5 -15.6 1.5 l-14.4 0 0 -3.1z"/>
 </g>
 <g fill="#57a9d9">
  <path d="M459 290 l0 -35 15 0 c12.7 0 15 0.2 15 1.5 0 0.8 -0.7 1.5 -1.5 1.5 -1.3 0 -1.5 4.2 -1.5 32 l0 32 -12 0 c-10 0 -12 0.3 -12 1.5 0 0.8 -0.7 1.5 -1.5 1.5 -1.3 0 -1.5 -4.6 -1.5 -35z"/>
 </g>
 <g fill="#7285e4">
  <path d="M459 226 c0 -30.4 0.2 -35 1.5 -35 0.8 0 1.5 0.7 1.5 1.5 0 1.2 1.3 1.5 6 1.5 l6 0 0 -32 0 -32 14 0 14 0 0 64 0 64 -20 0 c-17.1 0 -20 0.2 -20 1.5 0 0.8 -0.7 1.5 -1.5 1.5 -1.3 0 -1.5 -4.6 -1.5 -35z"/>
  <path d="M459 178.5 c0 -3.7 2.4 -5 3.2 -1.7 0.6 2.7 -0.2 5.2 -1.8 5.2 -0.9 0 -1.4 -1.1 -1.4 -3.5z"/>
  <path d="M458 138 c0 -3.6 0.4 -5 1.4 -5 1.5 0 2.6 3 2.6 7.3 0 2 -0.5 2.7 -2 2.7 -1.7 0 -2 -0.7 -2 -5z"/>
 </g>
 <g fill="#e2c558">
  <path d="M372 402.5 c0 -0.8 0.6 -1.5 1.3 -1.5 0.8 0 2.1 -0.8 3 -1.8 1.2 -1.3 2.6 -1.7 4.6 -1.4 2.4 0.3 3 0 3.4 -1.9 0.4 -2.4 0.4 -2.4 0.6 -0.1 0.1 1.8 0.7 2.2 3.5 2.2 3 0 3.3 -0.2 2.8 -2.5 -0.2 -1.5 -1.1 -2.5 -2.1 -2.5 -1.2 0 -1.3 0.2 -0.3 0.9 1.1 0.7 1.1 0.9 -0.1 1.4 -0.9 0.3 -1.8 -0.1 -2.1 -0.9 -0.3 -0.8 -1.3 -1.4 -2.2 -1.4 -1.6 0 -1.6 -0.2 0.1 -2 1.8 -2 1.7 -2 -1 -2 -4 0 -1.5 -2.6 3.3 -3.3 2.1 -0.4 5.1 -2 7.1 -3.7 1.8 -1.7 3.1 -2.4 2.8 -1.6 -0.5 1.3 0.3 1.6 4.6 1.6 3.7 0 4.8 -0.3 3.7 -1 -1.3 -0.8 -1.2 -1 0.3 -1 0.9 0 1.7 0.5 1.7 1 0 0.6 0.8 1 1.8 0.9 1 0 1.2 -0.3 0.4 -0.6 -0.6 -0.2 -1.2 -1.1 -1.2 -1.9 0 -0.9 0.5 -1.2 1 -0.9 0.6 0.3 1 0.1 1 -0.4 0 -1.5 -2.7 -1.4 -3.3 0.2 -0.4 1 -0.6 1 -0.6 0 -0.2 -2.2 -3.1 -1.4 -4.1 1 -0.8 1.8 -1 1.4 -0.7 -2 0.2 -3.6 0 -4.3 -1.6 -4.3 -3.3 0 -1.2 -2.4 2.8 -3.2 2.2 -0.5 4.6 -1.5 5.5 -2.3 0.9 -0.8 2.6 -1.5 3.8 -1.5 1.7 0 2.2 -0.6 2.2 -2.6 0 -2.3 0.2 -2.4 1.5 -1 1.2 1.2 1.5 5 1.5 21.5 l0 20.1 -22.5 0 c-19.3 0 -22.5 -0.2 -22.5 -1.5z m22.4 -5.9 c-0.3 -0.8 -0.1 -1.7 0.4 -2 0.5 -0.3 1.2 0.3 1.5 1.4 0.3 1.4 1.4 2 3.2 2 1.7 0 2.4 -0.4 1.9 -1.1 -0.3 -0.6 0 -1.5 0.7 -2 1 -0.6 1.1 -0.9 0.2 -0.9 -0.7 0 -1.3 -0.5 -1.3 -1.1 0 -0.6 0.7 -0.9 1.5 -0.5 0.8 0.3 1.5 0.1 1.5 -0.4 0 -0.6 -1 -1 -2.3 -1 -2 0 -2.3 0.4 -1.9 3 0.3 2.3 0 3 -1.2 3 -1.9 0 -2.2 -2.6 -0.3 -3.3 0.6 -0.3 -0.4 -0.6 -2.4 -0.6 -3.3 -0.1 -3.6 0.1 -3.1 2.4 0.2 1.4 0.8 2.5 1.3 2.5 0.5 0 0.6 -0.6 0.3 -1.4z m16.8 -0.1 c0.5 -0.6 0.8 -0.6 0.8 0.3 0 0.6 0.5 1.2 1.2 1.2 0.9 0 0.9 -0.3 0.1 -1.1 -0.6 -0.6 -0.9 -1.9 -0.6 -2.8 0.4 -1.4 0.3 -1.4 -0.6 -0.1 -0.7 0.9 -1.1 1 -1.1 0.3 0 -1.3 -3.9 -1.4 -5.7 0 -0.6 0.4 -0.9 1.5 -0.6 2.3 0.6 1.6 5.4 1.5 6.5 -0.1z m2.2 -17.2 c0 -1.6 -0.4 -2.7 -0.7 -2.5 -0.4 0.1 -0.7 0.4 -0.7 0.7 0 0.3 0 1.4 0 2.5 0 1.1 0.4 2 0.8 2 0.4 0 0.7 -1.2 0.6 -2.7z"/>
  <path d="M405.5 396.1 c-0.6 -1.1 0.9 -2.3 1.9 -1.4 0.9 0.9 0.7 2.3 -0.3 2.3 -0.6 0 -1.2 -0.4 -1.6 -0.9z"/>
 </g>
 <g fill="#b7b7bc">
  <path d="M133 460.8 c-25.1 -2.6 -48.3 -14.8 -62.4 -32.9 -10.4 -13.2 -17.4 -31.2 -19.2 -49.1 -0.6 -6.3 -0.5 -6.8 1.3 -6.8 1.7 0 2.1 0.9 2.6 6.8 1.2 12.1 8.9 34.1 13.9 39.6 1 1.1 1.8 2.5 1.8 3.2 0 0.6 0.7 1.4 1.5 1.8 0.8 0.3 1.5 1.5 1.5 2.6 0 1.1 0.6 2 1.3 2 1.6 0 8.7 7.2 8.7 8.8 0 0.7 0.9 1.2 2 1.2 1 0 2.3 0.6 2.7 1.3 1.7 2.5 19.4 11.8 27.3 14.1 8 2.4 22.5 4.6 30.3 4.6 6.1 0 6.7 0.2 6.7 2 0 1.9 -0.5 2 -6.2 1.8 -3.5 -0.1 -9.7 -0.6 -13.8 -1z"/>
  <path d="M360 460 c0 -1.8 0.7 -2 7.5 -2 5.7 0 7.5 0.3 7.5 1.4 0 1.7 -3.1 2.6 -9.7 2.6 -4.6 0 -5.3 -0.3 -5.3 -2z"/>
  <path d="M376 459.2 c0 -1.6 0.9 -2 5.9 -2.6 10.5 -1.2 30.8 -8.3 34.9 -12.3 0.7 -0.7 1.9 -1.3 2.7 -1.3 0.7 0 1.5 -0.7 1.9 -1.5 0.3 -0.8 1.4 -1.5 2.5 -1.5 1 0 2.1 -0.9 2.4 -2 0.4 -1.6 1.3 -2 4.4 -2 l3.8 0.1 -4 3.6 c-12.3 11 -30.1 18.6 -48.7 20.8 -5.4 0.7 -5.8 0.6 -5.8 -1.3z"/>
  <path d="M148.7 454.9 c-21 -1.5 -35.2 -5 -48.9 -12.1 -14.8 -7.6 -31.8 -25 -31.8 -32.4 0 -3.1 0.2 -3.4 3.1 -3.4 2.5 0 4.7 1.5 11.3 7.8 13.8 13 31.5 20.7 53.2 23.2 6.9 0.8 32.4 1 82.9 0.7 95.8 -0.5 89.1 1 114.1 -24.6 9.1 -9.4 16.5 -16.1 17.5 -16.1 1.2 0 1.9 -0.7 1.9 -2 0 -1.3 0.7 -2 2 -2 1.3 0 2 -0.7 2 -2 0 -1.5 0.7 -2 2.5 -2 2 0 2.5 -0.5 2.5 -2.3 0 -2.7 2.8 -5.7 5.3 -5.7 1 0 1.7 -0.8 1.7 -2 0 -1.1 0.7 -2 1.5 -2 0.8 0 1.5 -0.7 1.5 -1.5 0 -0.8 0.7 -1.5 1.5 -1.5 0.8 0 1.5 -0.7 1.5 -1.5 0 -0.8 0.7 -1.5 1.5 -1.5 0.8 0 1.5 -0.6 1.5 -1.3 0 -2 3.3 -4.7 5.8 -4.7 1.7 0 2.2 -0.6 2.2 -2.5 0 -1.6 0.6 -2.5 1.5 -2.5 0.8 0 1.5 -0.7 1.5 -1.5 0 -0.9 0.9 -1.5 2.5 -1.5 2 0 2.5 -0.5 2.5 -2.3 0 -2.7 2.8 -5.7 5.3 -5.7 1 0 1.7 -0.8 1.7 -2 0 -1.1 0.6 -2 1.4 -2 0.7 0 1.6 -0.9 1.9 -2 0.3 -1.4 1.4 -2 3.1 -2 2.1 0 2.6 -0.5 2.6 -2.4 0 -1.8 4.1 -6.4 16.8 -18.5 14.5 -14 17.1 -16.1 20 -16.1 3 0 3.2 0.2 3.2 3.4 0 4.7 -8.4 17.1 -21.4 31.6 -11.4 12.8 -13.6 13.7 -13.6 6 0 -3 -0.4 -5 -1.1 -5 -0.7 0 -3.8 2.7 -7.1 6 l-6 6 6.1 0 c5.4 0 6.1 0.2 6.1 2 0 1.8 -0.7 2 -8.2 2 l-8.3 0 -5.9 6 -5.9 6 6.2 0 c5.4 0 6.1 0.2 6.1 2 0 1.8 -0.7 2 -8.1 2 l-8.1 0 -6 6 -6.1 6 6.2 0 c5.4 0 6.1 0.2 6.1 2 0 1.8 -0.7 2 -8.2 2 l-8.3 0 -5.9 6 -5.9 6 6.2 0 c4.8 0 6.1 0.3 6.1 1.5 0 1.2 1.7 1.5 9 1.5 5.3 0 9 0.4 9 1 0 0.6 4 1 9.9 1 l9.9 0 0.6 3.1 c1.1 5.8 0.8 7.9 -1.4 7.9 -1.1 0 -2 0.5 -2 1 0 0.6 -1.6 1 -3.5 1 -1.9 0 -3.5 -0.4 -3.5 -1 0 -0.6 -6.3 -1 -16.9 -1 -10.3 0 -17.2 0.4 -17.6 1 -0.3 0.6 -2.4 1 -4.5 1 -3.5 0 -4.9 0.8 -11.7 7.1 -21.5 19.4 -38.9 26.7 -69.3 28.9 -14.8 1.1 -107.8 1 -123.3 -0.1z"/>
  <path d="M436 430.7 c0 -3.1 0.4 -4 2 -4.4 1.1 -0.3 2 -1.4 2 -2.4 0 -1.1 0.7 -2.2 1.5 -2.5 0.8 -0.4 1.5 -1.2 1.5 -1.9 0 -0.8 0.6 -2 1.3 -2.7 0.6 -0.7 2.6 -4.2 4.2 -7.8 1.7 -3.6 3.3 -6.6 3.8 -6.8 0.4 -0.2 0.7 -1.3 0.7 -2.5 0 -1.2 0.7 -4.3 1.5 -6.9 0.8 -2.6 1.7 -7.5 2.1 -10.8 0.6 -5.1 1 -6 2.6 -6 1.9 0 2 0.4 1.3 5.8 -2.2 18.2 -9.9 36.4 -20.4 48.2 l-4 4.5 -0.1 -3.8z"/>
  <path d="M458 367 c0 -7.3 0.2 -8 2 -8 1.8 0 2 0.7 2 5.8 0 7.1 -0.8 10.2 -2.6 10.2 -1.1 0 -1.4 -1.9 -1.4 -8z"/>
  <path d="M51 370.8 c-0.1 -0.2 -0.3 -5.1 -0.7 -11 -0.5 -10.5 -0.5 -10.8 1.6 -10.8 2 0 2.1 0.5 2.1 11 0 9.1 -0.3 11 -1.5 11 -0.8 0 -1.5 -0.1 -1.5 -0.2z"/>
  <path d="M50 149.3 c0 -5.3 1 -8.3 2.6 -8.3 1 0 1.4 1.6 1.4 6 0 5.3 -0.2 6 -2 6 -1.6 0 -2 -0.7 -2 -3.7z"/>
  <path d="M458 141.5 c0 -4.9 2.3 -6.4 3.4 -2.2 1.2 4.4 0.7 6.7 -1.4 6.7 -1.7 0 -2 -0.7 -2 -4.5z"/>
  <path d="M51.5 131.3 c5.4 -43.7 35.2 -73.5 79.8 -79.9 4.2 -0.6 4.7 -0.4 4.7 1.3 0 1.6 -1.2 2.1 -7.6 3.1 -4.2 0.7 -10.8 2.4 -14.8 3.8 -3.9 1.5 -8.6 2.9 -10.3 3.1 -1.8 0.3 -3.3 1.1 -3.3 1.8 0 1.4 -2.2 2.5 -5.1 2.5 -1 0 -1.9 0.7 -1.9 1.5 0 0.8 -0.9 1.5 -2 1.5 -1.1 0 -2 0.7 -2 1.5 0 1 -1 1.5 -3 1.5 -2.5 0 -3 0.4 -3 2.3 0 2.9 -4.9 7.7 -7.8 7.7 -1.8 0 -2.2 0.6 -2.2 3 0 2 -0.5 3 -1.5 3 -0.8 0 -1.5 0.9 -1.5 2 0 1.1 -0.7 2 -1.5 2 -0.8 0 -1.5 0.9 -1.5 1.9 0 2.9 -1.1 5.1 -2.5 5.1 -0.7 0 -1.5 1.5 -1.8 3.3 -0.3 1.7 -1.7 6.5 -3.2 10.5 -1.4 4 -3.1 10.9 -3.8 15.3 -0.9 6.7 -1.4 7.9 -3 7.9 -1.8 0 -1.9 -0.5 -1.2 -5.7z"/>
  <path d="M456.5 128.8 c-0.4 -2.9 -1.8 -8.7 -3.1 -12.8 -1.3 -4.1 -2.4 -8.3 -2.4 -9.2 0 -1 -0.4 -1.8 -0.8 -1.8 -1.1 0 -3.2 -4.6 -3.2 -7 0 -1.1 -0.7 -2 -1.5 -2 -0.8 0 -1.5 -0.7 -1.5 -1.5 0 -0.8 -0.4 -1.5 -1 -1.5 -0.5 0 -1 -0.7 -1 -1.5 0 -0.8 -0.4 -1.5 -1 -1.5 -0.5 0 -1 -1.1 -1 -2.4 0 -1.8 -0.6 -2.5 -2.2 -2.8 -1.8 -0.2 -2.4 -1.1 -2.6 -3.5 -0.3 -2.8 -0.7 -3.2 -3.5 -3.5 -2.2 -0.2 -3.5 -1 -4.2 -2.5 -0.5 -1.3 -1.8 -2.3 -2.8 -2.3 -1 0 -2 -0.7 -2.3 -1.5 -0.4 -0.8 -1.2 -1.5 -2 -1.5 -0.8 0 -1.4 -0.4 -1.4 -0.9 0 -0.5 -1.1 -1.2 -2.5 -1.5 -1.8 -0.5 -2.5 -1.3 -2.5 -3.1 0 -1.4 0.4 -2.5 0.8 -2.5 2.3 0 14.5 9 20.7 15.4 13.5 13.7 22.2 31.7 25 51.9 0.6 4.2 0.4 4.7 -1.3 4.7 -1.7 0 -2.1 -0.9 -2.7 -5.2z"/>
  <path d="M397.5 59.3 c-3.8 -1.4 -10.7 -3 -15.2 -3.6 -7.1 -1 -8.3 -1.4 -8.3 -3 0 -1.8 0.5 -1.9 6.8 -1.2 12.4 1.3 30.2 6.9 30.2 9.4 0 1.7 -6 1 -13.5 -1.6z"/>
  <path d="M140 52.6 c0 -1.6 3 -2.6 7.8 -2.6 2.5 0 3.2 0.4 3.2 2 0 1.8 -0.7 2 -5.5 2 -4 0 -5.5 -0.4 -5.5 -1.4z"/>
  <path d="M349 52 c0 -1.9 0.7 -2 9.3 -2 10.5 0 13.7 0.6 13.7 2.6 0 1.1 -2.4 1.4 -11.5 1.4 -10.8 0 -11.5 -0.1 -11.5 -2z"/>
 </g>
 <g fill="#c4c4c9">
  <path d="M144.5 461.3 c-30.7 -1.5 -52.6 -10.7 -69.6 -29.1 -14.6 -15.8 -22.1 -35.3 -23.6 -61.3 -0.6 -10.7 -0.6 -10.9 1.5 -10.9 1.6 0 2.2 0.6 2.2 2.3 0.1 7.8 7.4 27 14.1 36.7 2.4 3.6 4.9 7.4 5.4 8.6 0.6 1.1 2.4 3.9 4 6.2 2.3 3.1 3.7 4.2 5.8 4.2 1.5 0 3 0.7 3.3 1.5 0.4 0.8 1.2 1.5 1.8 1.5 0.7 0 2.1 0.8 3.2 1.9 1.1 1 3 2.2 4.2 2.5 1.5 0.5 2.2 1.5 2.2 3.2 0 1.3 -0.3 2.4 -0.6 2.4 -2.3 0 -13.1 -7.6 -19.8 -13.9 -8.3 -8 -8.7 -7.4 -1.2 2.1 9.1 11.4 23.3 21.1 38.8 26.4 17.7 6 36 7.4 95.8 7.4 47 -0.1 64.5 -0.9 77.5 -3.5 17.8 -3.7 32.5 -11.7 50 -27.5 8.7 -7.8 10.5 -9 10.5 -7 0 1.4 2.3 1.3 5.2 -0.2 2 -1.1 2.3 -1.8 1.7 -5 -0.5 -3.2 -0.2 -4.1 2.1 -6.3 2.4 -2.3 3.4 -2.5 10.8 -2.5 4.8 0 8.2 0.4 8.2 1 0 0.6 0.7 1 1.5 1 0.8 0 1.5 0.7 1.5 1.5 0 1.1 2 1.5 10.3 1.7 l10.2 0.3 0.3 2.9 c0.4 2.9 -1.3 7.4 -3.3 8.8 -1.7 1.3 -7.5 0.9 -7.5 -0.4 0 -1 -3.1 -1.2 -12.6 -1 l-12.6 0.2 -10.6 10.1 c-18.8 17.8 -32.6 27 -48.4 32.3 l-7.7 2.6 -74.3 -0.2 c-40.9 -0.1 -77 -0.3 -80.3 -0.5z m216 -49.8 c-0.1 -1.4 -0.4 -2.8 -0.8 -3.1 -0.9 -1 -2 2.3 -1.3 4.1 0.9 2.4 2.2 1.7 2.1 -1z m7.5 -1 c0 -1.9 -0.5 -3.5 -1.1 -3.5 -0.7 0 -0.8 1.1 -0.4 3 0.4 1.9 0.3 3 -0.4 3 -0.6 0 -1.1 -0.9 -1.1 -2 0 -1.2 -0.7 -2 -1.7 -2 -1.4 0 -1.5 0.2 -0.4 0.9 0.9 0.6 1 1.1 0.2 1.5 -2.1 1.3 -1.1 2.6 1.9 2.6 2.8 0 3 -0.3 3 -3.5z m5 0 c0 -1.9 -0.3 -3.5 -0.7 -3.5 -0.5 0 -0.8 1.6 -0.8 3.5 0 1.9 0.3 3.5 0.8 3.5 0.4 0 0.7 -1.6 0.7 -3.5z m3.2 1 c-0.2 -1.4 -0.6 -2.5 -0.8 -2.5 -0.2 0 -0.4 1.1 -0.4 2.5 0 1.4 0.4 2.5 0.9 2.5 0.4 0 0.6 -1.1 0.3 -2.5z m5.5 0.9 c0.3 -0.9 -0.3 -2.3 -1.5 -3.5 -2.8 -2.5 -2.9 -2.5 -2.4 1.6 0.4 3.7 2.8 4.8 3.9 1.9z m2.5 -0.9 c0.3 -1.4 0.1 -2.5 -0.3 -2.5 -0.5 0 -0.9 1.1 -0.9 2.5 0 1.4 0.2 2.5 0.4 2.5 0.2 0 0.6 -1.1 0.8 -2.5z"/>
  <path d="M379 411.5 c0 -0.8 0.5 -1.5 1 -1.5 0.6 0 1 0.7 1 1.5 0 0.8 -0.4 1.5 -1 1.5 -0.5 0 -1 -0.7 -1 -1.5z"/>
  <path d="M359 460 c0 -1.6 0.7 -2 3.5 -2 4 0 4.9 2.4 1.3 3.4 -3.8 1 -4.8 0.7 -4.8 -1.4z"/>
  <path d="M388 457 c0 -1.6 0.7 -2 3.5 -2 4 0 4.9 2.4 1.3 3.4 -3.8 1 -4.8 0.7 -4.8 -1.4z"/>
  <path d="M399 454 c0 -1.6 0.7 -2 3.5 -2 3.9 0 4.6 1.4 1.6 3 -3.1 1.6 -5.1 1.2 -5.1 -1z"/>
  <path d="M419 444.5 c0 -2.2 0.4 -2.5 3.8 -2.5 l3.7 0.1 -2.8 2.4 c-3.6 3.2 -4.7 3.1 -4.7 0z"/>
  <path d="M135.8 441.3 c-1 -0.2 -1.8 -1.1 -1.8 -1.9 0 -1 1.3 -1.4 4.5 -1.4 3.8 0 4.5 0.3 4.5 2 0 1.5 -0.6 2 -2.7 1.9 -1.6 -0.1 -3.6 -0.3 -4.5 -0.6z"/>
  <path d="M281 440 c0 -1.7 0.7 -2 4.5 -2 4.9 0 6.4 2.3 2.3 3.4 -4.5 1.2 -6.8 0.7 -6.8 -1.4z"/>
  <path d="M121.7 439.4 c-9 -1.9 -18.9 -5.6 -19.5 -7.1 -0.6 -2 4.5 -1.5 13.3 1.3 4.4 1.4 10.1 2.8 12.8 3.1 3.7 0.5 4.7 1 4.7 2.4 0 2.3 -1.8 2.3 -11.3 0.3z"/>
  <path d="M291 439.2 c0 -1.4 1.4 -2 7.2 -3 6.8 -1.2 18.9 -5.8 19.6 -7.4 0.2 -0.4 1 -0.8 1.8 -0.8 0.8 0 1.4 -0.7 1.4 -1.5 0 -0.7 0.6 -1.8 1.3 -2.2 1.7 -1.1 4.1 -5.8 6.1 -11.8 1.5 -4.6 5.9 -9.3 50.3 -53.7 46.6 -46.5 49.1 -48.8 54.6 -50.7 7.2 -2.5 14.8 -8.1 17.5 -13 3 -5.4 6.1 -16.4 6.8 -24.2 0.6 -5.8 1 -6.9 2.5 -6.9 1.8 0 1.9 1.2 1.9 21.9 l0 21.9 -4 7.8 c-5.3 10.6 -14.5 22.5 -28.5 37.2 -12.9 13.4 -15.5 14.8 -15.5 8.2 l0 -4 -4.2 0 c-4 0 -4.1 0 -2.3 -2 1 -1.1 2.9 -2 4.2 -2 1.7 0 2.3 -0.6 2.3 -2.1 0 -1.2 4.2 -6.7 10.2 -13.5 9.9 -11 17.3 -20.8 20.5 -26.9 2.4 -4.6 -18.3 15.4 -74.7 72.1 -55.1 55.3 -53.3 53.8 -68.2 56.8 -9.8 2 -10.8 2 -10.8 -0.2z"/>
  <path d="M428.2 437.9 c0.2 -2.9 0.7 -3.5 3.1 -3.7 2.1 -0.3 2.7 -0.9 2.7 -2.8 0 -2.7 1.6 -3.7 5 -3.2 2 0.3 1.9 0.5 -1.5 4.5 -2 2.3 -5 5.2 -6.6 6.4 l-3 2.1 0.3 -3.3z"/>
  <path d="M442 422.8 c0 -3.4 0.3 -3.8 2.5 -3.8 3.1 0 3.2 1.1 0 4.7 l-2.4 2.8 -0.1 -3.7z"/>
  <path d="M353.6 411.5 c0.4 -0.8 1 -1.5 1.5 -1.5 0.5 0 0.9 0.7 0.9 1.5 0 0.8 -0.7 1.5 -1.5 1.5 -0.9 0 -1.2 -0.6 -0.9 -1.5z"/>
  <path d="M452 402.5 c0 -2.8 0.4 -3.5 2 -3.5 2.2 0 2.6 2 1 5.1 -1.6 3 -3 2.3 -3 -1.6z"/>
  <path d="M455 391.5 c0 -2.8 0.4 -3.5 2 -3.5 2.1 0 2.4 1 1.4 4.8 -1 3.6 -3.4 2.7 -3.4 -1.3z"/>
  <path d="M375.5 387 c1.5 -1.7 3.1 -2 10.2 -2 7.6 0 8.3 0.2 8.3 2 0 1.9 -0.7 2 -10.2 2 -10 0 -10.1 0 -8.3 -2z"/>
  <path d="M457 378.5 c0 -2.8 0.4 -3.5 2 -3.5 2.1 0 2.4 1 1.4 4.8 -1 3.6 -3.4 2.7 -3.4 -1.3z"/>
  <path d="M391.5 371 c1.5 -1.7 3.1 -2 10.2 -2 7.6 0 8.3 0.2 8.3 2 0 1.9 -0.7 2 -10.2 2 -10 0 -10.1 0 -8.3 -2z"/>
  <path d="M158.2 356.5 c-1.5 -3.1 -1.6 -8.5 -0.2 -8.5 1 0 3.2 3.8 5 8.5 0.8 2.2 0.7 2.5 -1.4 2.5 -1.5 0 -2.7 -0.9 -3.4 -2.5z"/>
  <path d="M50.6 352.8 c-1.2 -4.8 -0.7 -7.8 1.4 -7.8 1.7 0 2 0.7 2 5 0 3.6 -0.4 5 -1.4 5 -0.7 0 -1.6 -1 -2 -2.2z"/>
  <path d="M358.4 345.8 c2.3 -3.3 2.4 -33.8 0.1 -33.8 -0.8 0 -1.5 -0.4 -1.5 -1 0 -0.5 1.6 -1 3.5 -1 l3.5 0 0 17.4 c0 9.6 -0.3 18.1 -0.6 19 -0.4 1 -1.8 1.6 -3.6 1.6 -2.8 0 -2.9 -0.1 -1.4 -2.2z"/>
  <path d="M149 331.5 c0 -2.8 0.4 -3.5 2 -3.5 1.5 0 2 -0.7 2 -2.5 0 -1.8 0.5 -2.5 2 -2.5 1.5 0 2 -0.7 2 -2.5 0 -2.1 0.5 -2.5 3.1 -2.5 2.4 0 2.9 0.3 2.2 1.3 -0.5 0.6 -3.1 3.8 -5.6 7 -2.6 3.3 -4.7 6.5 -4.7 7.3 0 0.8 -0.7 1.4 -1.5 1.4 -1 0 -1.5 -1.1 -1.5 -3.5z"/>
  <path d="M166 310.5 c0 -2.8 0.4 -3.5 2 -3.5 1.5 0 2 -0.7 2 -2.5 0 -1.8 0.5 -2.5 2 -2.5 1.5 0 2 -0.7 2 -2.5 0 -2.1 0.5 -2.5 3.1 -2.5 2.4 0 2.9 0.3 2.2 1.3 -4.4 5.7 -12.6 15.7 -12.9 15.7 -0.2 0 -0.4 -1.6 -0.4 -3.5z"/>
  <path d="M244.7 303.8 c6.9 -8.9 50 -62.8 51.4 -64.3 1.9 -1.9 1.9 -1.9 1.9 1.8 0 3 -0.4 3.7 -2 3.7 -1.5 0 -2 0.7 -2 2.5 0 1.8 -0.5 2.5 -2 2.5 -1.5 0 -2 0.7 -2 2.5 0 1.8 -0.5 2.5 -2 2.5 -1.5 0 -2 0.7 -2 2.5 0 1.8 -0.5 2.5 -2 2.5 -1.5 0 -2 0.7 -2 2.5 0 1.8 -0.5 2.5 -2 2.5 -1.5 0 -2 0.7 -2 2.5 0 1.8 -0.5 2.5 -2 2.5 -1.5 0 -2 0.7 -2 2.5 0 1.8 -0.5 2.5 -2 2.5 -1.5 0 -2 0.7 -2 2.5 0 1.8 -0.5 2.5 -2 2.5 -1.5 0 -2 0.7 -2 2.5 0 1.8 -0.5 2.5 -2 2.5 -1.5 0 -2 0.7 -2 2.5 0 1.8 -0.5 2.5 -2 2.5 -1.5 0 -2 0.7 -2 2.5 0 1.8 -0.5 2.5 -2 2.5 -1.5 0 -2 0.7 -2 2.5 0 1.8 -0.5 2.5 -2 2.5 -1.5 0 -2 0.7 -2 2.5 0 2.1 -0.5 2.5 -3.1 2.5 -2.4 0 -2.9 -0.3 -2.2 -1.2z"/>
  <path d="M187 284.8 c0 -3.1 0.3 -3.8 2 -3.8 1.5 0 2 -0.7 2 -2.5 0 -2.1 0.5 -2.5 3.1 -2.5 l3 0 -2 2.8 c-1.1 1.5 -3.3 4.3 -5 6.2 l-3 3.5 -0.1 -3.7z"/>
  <path d="M204 263.5 c0 -2.8 0.4 -3.5 2 -3.5 1.5 0 2 -0.7 2 -2.5 0 -1.8 0.5 -2.5 2 -2.5 1.5 0 2 -0.7 2 -2.5 0 -2.1 0.5 -2.5 3.1 -2.5 2.4 0 2.9 0.3 2.2 1.3 -4.4 5.7 -12.6 15.7 -12.9 15.7 -0.2 0 -0.4 -1.6 -0.4 -3.5z"/>
  <path d="M221 242.5 c0 -2.8 0.4 -3.5 2 -3.5 1.5 0 2 -0.7 2 -2.5 0 -1.8 0.5 -2.5 2 -2.5 1.5 0 2 -0.7 2 -2.5 0 -2.1 0.5 -2.5 3.1 -2.5 2.4 0 2.9 0.3 2.2 1.3 -4.4 5.7 -12.6 15.7 -12.9 15.7 -0.2 0 -0.4 -1.6 -0.4 -3.5z"/>
  <path d="M242 216.8 c0 -3.1 0.3 -3.8 2 -3.8 1.5 0 2 -0.7 2 -2.5 0 -2.1 0.5 -2.5 3.1 -2.5 l3 0 -2 2.8 c-1.1 1.5 -3.3 4.3 -5 6.2 l-3 3.5 -0.1 -3.7z"/>
  <path d="M327.7 199.8 c7.7 -9.9 32.6 -40.8 32.9 -40.8 0.2 0 0.4 1.6 0.4 3.5 0 2.8 -0.4 3.5 -2 3.5 -1.5 0 -2 0.7 -2 2.5 0 1.8 -0.5 2.5 -2 2.5 -1.5 0 -2 0.7 -2 2.5 0 1.8 -0.5 2.5 -2 2.5 -1.5 0 -2 0.7 -2 2.5 0 1.8 -0.5 2.5 -2 2.5 -1.5 0 -2 0.7 -2 2.5 0 1.8 -0.5 2.5 -2 2.5 -1.5 0 -2 0.7 -2 2.5 0 1.8 -0.5 2.5 -2 2.5 -1.5 0 -2 0.7 -2 2.5 0 1.8 -0.5 2.5 -2 2.5 -1.5 0 -2 0.7 -2 2.5 0 2.1 -0.5 2.5 -3.1 2.5 -2.4 0 -2.9 -0.3 -2.2 -1.2z"/>
  <path d="M259 195.5 c0 -2.8 0.4 -3.5 2 -3.5 1.5 0 2 -0.7 2 -2.5 0 -1.8 0.5 -2.5 2 -2.5 1.5 0 2 -0.7 2 -2.5 0 -2.1 0.5 -2.5 3.1 -2.5 2.4 0 2.9 0.3 2.2 1.3 -4.4 5.7 -12.6 15.7 -12.9 15.7 -0.2 0 -0.4 -1.6 -0.4 -3.5z"/>
  <path d="M50 160.3 c0 -10.1 0.7 -13.3 2.6 -13.3 1.1 0 1.4 2.3 1.4 11 0 10.3 -0.1 11 -2 11 -1.8 0 -2 -0.7 -2 -8.7z"/>
  <path d="M358.5 155 c-0.8 -1.6 -2 -4.1 -2.5 -5.5 -0.8 -2.2 -0.7 -2.5 1.4 -2.5 2.6 0 4.6 3.4 4.6 8 0 3.8 -1.5 3.8 -3.5 0z"/>
  <path d="M458 143.5 c0 -4 2.4 -4.9 3.4 -1.2 1 3.7 0.7 4.7 -1.4 4.7 -1.6 0 -2 -0.7 -2 -3.5z"/>
  <path d="M51 137.3 c0 -3.4 1.2 -6.3 2.6 -6.3 1 0 1.4 1.3 1.4 4 0 3.3 -0.3 4 -2 4 -1.2 0 -2 -0.7 -2 -1.7z"/>
  <path d="M457 131.5 c0 -4 2.4 -4.9 3.4 -1.2 1 3.7 0.7 4.7 -1.4 4.7 -1.6 0 -2 -0.7 -2 -3.5z"/>
  <path d="M53 123.8 c0 -3 1.3 -5.8 2.6 -5.8 0.9 0 1.4 1.2 1.4 3.5 0 2.8 -0.4 3.5 -2 3.5 -1.1 0 -2 -0.6 -2 -1.2z"/>
  <path d="M455 120.5 c0 -4 2.4 -4.9 3.4 -1.2 1 3.7 0.7 4.7 -1.4 4.7 -1.6 0 -2 -0.7 -2 -3.5z"/>
  <path d="M55 115.4 c0 -4.9 10 -24.5 15.9 -31.4 l3 -3.5 0.1 3.8 c0 2.6 -0.4 3.7 -1.5 3.7 -0.8 0 -1.5 0.9 -1.5 2 0 1.1 -0.4 2 -1 2 -0.5 0 -1 0.7 -1 1.5 0 0.8 -0.9 1.5 -2 1.5 -1.5 0 -2 0.7 -2 2.9 0 3.9 -0.9 6.1 -2.6 6.1 -0.9 0 -1.4 1.2 -1.4 3.5 0 1.9 -0.4 3.5 -1 3.5 -0.5 0 -1 1.4 -1 3 0 2.3 -0.4 3 -2 3 -1.2 0 -2 -0.7 -2 -1.6z"/>
  <path d="M450 104.4 c0 -4.4 1.8 -4.2 3.7 0.4 1.3 3.1 1.2 3.2 -1.2 3.2 -2.2 0 -2.5 -0.4 -2.5 -3.6z"/>
  <path d="M445 94.5 c0 -4.3 1 -4.4 3.3 -0.6 2.2 3.8 2.2 4.1 -0.8 4.1 -2.2 0 -2.5 -0.4 -2.5 -3.5z"/>
  <path d="M439 86 c0 -2.5 -0.4 -3 -2.3 -3 -3.4 0 -6.9 -4.1 -6.5 -7.6 l0.3 -2.9 5.2 5.2 c2.8 2.9 6.1 6.6 7.3 8.3 l2.1 3 -3 0 c-2.8 0 -3.1 -0.3 -3.1 -3z"/>
  <path d="M84 70.9 c3.5 -3 14.9 -10 18.3 -11.2 1.3 -0.5 1.7 -0.1 1.7 1.7 0 2.6 -1.7 3.6 -6.1 3.6 -2.2 0 -2.9 0.5 -2.9 2 0 1.1 -0.7 2 -1.5 2 -0.8 0 -1.5 0.5 -1.5 1 0 0.6 -0.9 1 -2 1 -1.1 0 -2 0.7 -2 1.5 0 1.1 -1.1 1.5 -3.7 1.5 l-3.8 -0.1 3.5 -3z"/>
  <path d="M110 57.6 c0 -1.3 2.8 -2.6 5.8 -2.6 0.6 0 1.2 0.9 1.2 2 0 1.6 -0.7 2 -3.5 2 -2.3 0 -3.5 -0.5 -3.5 -1.4z"/>
  <path d="M118 55.6 c0 -1.3 2.8 -2.6 5.8 -2.6 0.6 0 1.2 0.9 1.2 2 0 1.6 -0.7 2 -3.5 2 -2.3 0 -3.5 -0.5 -3.5 -1.4z"/>
  <path d="M130 53.6 c0 -1.3 2.8 -2.6 5.8 -2.6 0.6 0 1.2 0.9 1.2 2 0 1.6 -0.7 2 -3.5 2 -2.3 0 -3.5 -0.5 -3.5 -1.4z"/>
  <path d="M145 52.6 c0 -1.3 2.8 -2.6 5.8 -2.6 0.6 0 1.2 0.9 1.2 2 0 1.6 -0.7 2 -3.5 2 -2.3 0 -3.5 -0.5 -3.5 -1.4z"/>
 </g>
 <g fill="#d1d1d5">
  <path d="M287.8 460.4 c23.3 -3.9 40.4 -13.5 64.4 -36.3 8.5 -8.1 11.2 -10.1 13.6 -10.1 2.6 0 2.9 -0.3 2.4 -2.6 -0.4 -2 0.4 -3.4 3.4 -6.5 l3.8 -3.9 8.4 0 c8.4 0 8.4 0 8 2.5 -0.4 2 0 2.5 2.2 3 2.8 0.6 4.7 4 2.9 5.1 -0.5 0.3 -0.9 -0.2 -0.9 -1 0 -1 -0.9 -1.6 -2.5 -1.6 -2 0 -2.5 0.5 -2.5 2.5 0 1.4 0.4 2.5 0.9 2.5 0.5 0 0.8 -0.7 0.7 -1.6 -0.2 -2.6 2.1 -2.8 2.9 -0.3 0.5 1.4 0.2 2.5 -0.6 3 -1 0.6 -1 0.9 -0.2 0.9 0.7 0 1.9 -1.3 2.8 -3 1.1 -2.1 2.3 -3 4 -3 2.2 0 2.5 0.4 2.5 3.5 0 2.8 -0.4 3.5 -2 3.5 -1.1 0 -2 0.5 -2 1 0 0.6 -1.6 1 -3.5 1 -2.6 0 -3.5 -0.4 -3.5 -1.6 0 -1.4 -0.9 -1.5 -6.7 -0.9 l-6.8 0.7 -13 12.7 c-15 14.6 -23.3 21.7 -32.7 27.8 l-6.7 4.3 -23.8 -0.1 -23.8 -0.1 8.3 -1.4z m88.4 -50 c-0.3 -2.2 -0.7 -3.1 -1.2 -2.4 -0.4 0.7 -0.5 2.1 -0.3 3.1 0.3 1 0 1.9 -0.6 1.9 -0.6 0 -1.1 -1.6 -1.1 -3.5 0 -1.9 -0.4 -3.5 -0.8 -3.5 -0.4 0 -0.8 1.8 -0.7 4 0 3.6 0.3 4 2.5 4 2.4 0 2.6 -0.3 2.2 -3.6z m5.8 1.4 l0.9 -2.3 0 2.3 c0.1 1.2 0.5 2.2 1.1 2.2 0.5 0 0.7 -0.7 0.3 -1.6 -0.3 -0.9 0 -2 0.8 -2.6 1 -0.7 0.6 -0.8 -1.4 -0.5 -2 0.3 -3.4 -0.2 -4.8 -1.6 l-1.9 -2.1 0 3.5 c0 2 0.3 3.9 0.7 4.2 1.3 1.4 3.4 0.6 4.3 -1.5z m7.8 0 c-0.2 -1.2 -0.9 -2.3 -1.7 -2.6 -0.8 -0.3 -1.1 0 -0.7 0.6 0.3 0.6 0.2 1.3 -0.4 1.7 -1.7 1.1 -1.1 2.5 1.1 2.5 1.5 0 2 -0.5 1.7 -2.2z"/>
  <path d="M375 459 c0 -1.6 0.7 -2 3.5 -2 4 0 4.9 2.4 1.3 3.4 -3.8 1 -4.8 0.7 -4.8 -1.4z"/>
  <path d="M392 456 c0 -1.6 0.7 -2 3.5 -2 4 0 4.9 2.4 1.3 3.4 -3.8 1 -4.8 0.7 -4.8 -1.4z"/>
  <path d="M99.4 450.5 c-4.9 -2.4 -10.2 -5.6 -11.9 -7 -2.4 -2.2 -2.1 -2.1 1.8 0.5 2.7 1.8 8.5 4.9 13 7.1 4.5 2.1 7.7 3.9 7.1 3.9 -0.7 0 -5.2 -2 -10 -4.5z"/>
  <path d="M404 452.5 c0 -2.2 0.4 -2.5 3.6 -2.5 4.4 0 4.2 1.8 -0.4 3.7 -3.1 1.3 -3.2 1.2 -3.2 -1.2z"/>
  <path d="M414 447.5 c0 -2.2 0.4 -2.5 3.5 -2.5 4.3 0 4.4 1 0.6 3.3 -3.8 2.2 -4.1 2.2 -4.1 -0.8z"/>
  <path d="M423 442.1 c0 -2.9 0.3 -3.1 3.6 -3.1 3.9 0 3.8 0.9 -0.6 4 l-3 2.1 0 -3z"/>
  <path d="M138.8 441.3 c-1 -0.2 -1.8 -1.1 -1.8 -1.9 0 -1 1.3 -1.4 5 -1.4 4.3 0 5 0.3 5 2 0 1.6 -0.6 2 -3.2 1.9 -1.8 -0.1 -4.1 -0.3 -5 -0.6z"/>
  <path d="M277 440 c0 -1.7 0.7 -2 5 -2 3.6 0 5 0.4 5 1.4 0 1.5 -3 2.6 -7.2 2.6 -2.1 0 -2.8 -0.5 -2.8 -2z"/>
  <path d="M128 440.3 c-8.3 -1.3 -16 -3.7 -16 -4.9 0 -1.8 1.7 -1.8 12.7 0.3 7.5 1.5 9.3 2.1 9.3 3.6 0 1.7 -0.8 1.8 -6 1z"/>
  <path d="M289 439 c0 -1.5 0.7 -2 2.8 -2 1.6 0 6.4 -0.9 10.7 -2 8.7 -2.2 12.5 -2.5 12.5 -0.9 0 1.5 -5.6 3.6 -14.9 5.3 -10.6 2 -11.1 2 -11.1 -0.4z"/>
  <path d="M100.2 431.9 c-6.8 -3.4 -7.8 -4.9 -3.2 -4.9 4.7 0 10 3 10 5.7 0 1.3 -0.2 2.3 -0.3 2.3 -0.2 0 -3.2 -1.4 -6.5 -3.1z"/>
  <path d="M319 430 c0 -2.3 0.5 -3.3 2 -3.7 1.1 -0.3 2 -1.4 2 -2.4 0 -1.1 0.4 -1.9 0.9 -1.9 0.5 0 1.2 -1.1 1.5 -2.5 0.5 -1.8 1.3 -2.5 3.1 -2.5 2.2 0 2.4 0.2 1.4 2.7 -1.3 3.5 -6.2 10.1 -8.8 12 -2 1.3 -2.1 1.2 -2.1 -1.7z"/>
  <path d="M439 426.6 c0 -3.3 0.2 -3.6 3.1 -3.6 l3 0 -2.1 3 c-3.1 4.4 -4 4.5 -4 0.6z"/>
  <path d="M83.8 421.5 c-3.2 -2.5 -5.8 -4.7 -5.8 -5 0 -0.3 1.6 -0.5 3.6 -0.5 2.7 0 3.7 0.5 4.1 2 0.3 1.1 1.4 2 2.4 2 1.4 0 1.9 0.7 1.9 3 0 1.7 -0.1 3 -0.2 3 -0.2 0 -2.9 -2 -6 -4.5z"/>
  <path d="M445 417.5 c0 -3.1 0.3 -3.5 2.5 -3.5 3 0 3 0.3 0.8 4.1 -2.3 3.8 -3.3 3.7 -3.3 -0.6z"/>
  <path d="M329.3 410.3 c0.3 -2.7 1.3 -8 2.2 -11.9 l1.6 -7 39.2 -39.2 39.2 -39.1 12.5 -2.7 c6.9 -1.5 13.1 -3.4 13.8 -4.1 0.7 -0.7 2 -1.3 2.8 -1.3 0.8 0 1.4 -0.4 1.4 -1 0 -0.5 1.1 -1 2.5 -1 1.8 0 2.5 -0.5 2.5 -2 0 -1 0.6 -2.3 1.3 -2.7 0.7 -0.4 1.9 -2.3 2.6 -4 0.8 -1.8 1.7 -3.3 2.1 -3.3 0.4 0 1 -1.5 1.3 -3.2 2.1 -13.4 3.1 -16.8 5 -16.8 1.7 0 1.8 0.5 1.2 5.3 -0.9 6.8 -5 19.4 -7.3 23 -2.9 4.3 -11.3 10.1 -17.4 12 -5.1 1.7 -7.9 4.2 -54.6 51 -27.1 27.1 -49.2 50 -49.2 51 0 0.9 -0.7 1.7 -1.6 1.7 -1.4 0 -1.6 -0.8 -1.1 -4.7z"/>
  <path d="M71.4 409.3 c-6.1 -7.7 -6 -7.3 -2.5 -7.3 2.4 0 3.1 0.4 3.1 1.9 0 1 0.9 2.1 2 2.4 1.5 0.4 2 1.4 2 4.1 0 2 -0.2 3.6 -0.4 3.6 -0.3 0 -2.2 -2.1 -4.2 -4.7z"/>
  <path d="M450 407.6 c0 -3.2 0.3 -3.6 2.5 -3.6 2.4 0 2.5 0.1 1.2 3.2 -1.9 4.6 -3.7 4.8 -3.7 0.4z"/>
  <path d="M62.2 396.2 c-1.1 -2.1 -2.6 -5 -3.1 -6.5 -1 -2.4 -0.8 -2.7 1.2 -2.7 2.7 0 5.7 5.3 5.7 10 0 4 -1.2 3.8 -3.8 -0.8z"/>
  <path d="M454 395.5 c0 -2.8 0.4 -3.5 2 -3.5 2.1 0 2.4 1 1.4 4.8 -1 3.6 -3.4 2.7 -3.4 -1.3z"/>
  <path d="M389.5 387 c1.5 -1.7 3.1 -2 10.2 -2 7.6 0 8.3 0.2 8.3 2 0 1.9 -0.7 2 -10.2 2 -10 0 -10.1 0 -8.3 -2z"/>
  <path d="M56 382.1 c-1.6 -3.1 -1.2 -5.1 1 -5.1 1.6 0 2 0.7 2 3.5 0 3.9 -1.4 4.6 -3 1.6z"/>
  <path d="M414 376 c0 -2.9 -0.1 -3 -5.2 -3 -5 0 -5.1 0 -3.3 -2 1.1 -1.2 3.1 -2 5.2 -2 3 0 3.3 -0.3 3.3 -3.1 0 -2.6 1.9 -5.1 12 -15.6 18.3 -19 26.6 -30.6 32.7 -45.8 l3.3 -8 0 16.7 0 16.7 -6.2 8.3 c-8.3 10.9 -37.5 40.8 -39.9 40.8 -1.4 0 -1.9 -0.7 -1.9 -3z"/>
  <path d="M53.2 371.8 c-0.6 -2.4 -1.4 -6.4 -1.7 -9 -0.7 -4.3 -0.5 -4.8 1.2 -4.8 1.6 0 2.1 1.2 3.1 7 1.5 9 1.5 11 -0.2 11 -0.8 0 -1.8 -1.8 -2.4 -4.2z"/>
  <path d="M156 349.4 c0 -4.4 1.8 -4.2 3.7 0.4 1.3 3.1 1.2 3.2 -1.2 3.2 -2.2 0 -2.5 -0.4 -2.5 -3.6z"/>
  <path d="M50.6 348.8 c-0.3 -1.3 -0.6 -4 -0.6 -6 0 -3.1 0.4 -3.8 2 -3.8 1.8 0 2 0.7 2 6 0 4.4 -0.4 6 -1.4 6 -0.7 0 -1.6 -1 -2 -2.2z"/>
  <path d="M161 316.6 c0 -3.3 0.2 -3.6 3.1 -3.6 l3 0 -2.1 3 c-3.1 4.4 -4 4.5 -4 0.6z"/>
  <path d="M239 311.3 c0 -0.5 1.8 -2.8 4 -5.3 l3.9 -4.5 0.1 3.8 c0 3 -0.4 3.7 -2 3.7 -1.1 0 -2 0.7 -2 1.5 0 0.8 -0.9 1.5 -2 1.5 -1.1 0 -2 -0.3 -2 -0.7z"/>
  <path d="M178 295.6 c0 -3.3 0.2 -3.6 3.1 -3.6 l3 0 -2.1 3 c-3.1 4.4 -4 4.5 -4 0.6z"/>
  <path d="M195 274.6 c0 -3.3 0.2 -3.6 3.1 -3.6 l3 0 -2.1 3 c-3.1 4.4 -4 4.5 -4 0.6z"/>
  <path d="M458 265.5 c0 -3.8 0.3 -4.5 2 -4.5 2.1 0 2.6 2.3 1.4 6.8 -1.1 4.1 -3.4 2.6 -3.4 -2.3z"/>
  <path d="M216 248.6 c0 -3.3 0.2 -3.6 3.1 -3.6 l3 0 -2.1 3 c-3.1 4.4 -4 4.5 -4 0.6z"/>
  <path d="M296.7 238.8 c4.4 -5.8 12.6 -15.8 12.9 -15.8 0.2 0 0.4 1.6 0.4 3.5 0 2.8 -0.4 3.5 -2 3.5 -1.5 0 -2 0.7 -2 2.5 0 1.8 -0.5 2.5 -2 2.5 -1.5 0 -2 0.7 -2 2.5 0 2.1 -0.5 2.5 -3.1 2.5 -2.4 0 -2.9 -0.3 -2.2 -1.2z"/>
  <path d="M233 227.6 c0 -3.3 0.2 -3.6 3.1 -3.6 l3 0 -2.1 3 c-3.1 4.4 -4 4.5 -4 0.6z"/>
  <path d="M250 206.6 c0 -3.3 0.2 -3.6 3.1 -3.6 l3 0 -2.1 3 c-3.1 4.4 -4 4.5 -4 0.6z"/>
  <path d="M271 181.7 c0 -2 0.5 -2.7 2 -2.7 1.1 0 2 0.4 2 0.8 0 0.5 -0.9 1.7 -2 2.7 -2 1.8 -2 1.7 -2 -0.8z"/>
  <path d="M359.3 156.5 c-1.1 -3.3 -1 -3.5 1.3 -3.5 2.1 0 2.4 0.5 2.4 3.5 0 2.2 -0.5 3.5 -1.3 3.5 -0.8 0 -1.8 -1.6 -2.4 -3.5z"/>
  <path d="M52 129.8 c0 -3 1.3 -5.8 2.6 -5.8 0.9 0 1.4 1.2 1.4 3.5 0 2.8 -0.4 3.5 -2 3.5 -1.1 0 -2 -0.6 -2 -1.2z"/>
  <path d="M54.1 119.3 c0.1 -3.3 3.4 -11.7 4.7 -12.1 0.8 -0.2 1.2 0.8 1.2 3.2 0 2 -0.4 3.6 -1 3.6 -0.5 0 -1 1.6 -1 3.5 0 2.8 -0.4 3.5 -2 3.5 -1.3 0 -2 -0.6 -1.9 -1.7z"/>
  <path d="M454 116.5 c0 -4 2.4 -4.9 3.4 -1.2 1 3.7 0.7 4.7 -1.4 4.7 -1.6 0 -2 -0.7 -2 -3.5z"/>
  <path d="M107 59 c0 -1.2 3.3 -3 5.4 -3 0.9 0 1.6 0.9 1.6 2 0 1.6 -0.7 2 -3.5 2 -1.9 0 -3.5 -0.4 -3.5 -1z"/>
  <path d="M387 55 c0 -2.1 1 -2.4 4.8 -1.4 3.6 1 2.7 3.4 -1.3 3.4 -2.8 0 -3.5 -0.4 -3.5 -2z"/>
  <path d="M124 54.6 c0 -1.3 2.8 -2.6 5.8 -2.6 0.6 0 1.2 0.9 1.2 2 0 1.6 -0.7 2 -3.5 2 -2.3 0 -3.5 -0.5 -3.5 -1.4z"/>
  <path d="M373 53 c0 -2.1 1 -2.4 4.8 -1.4 3.6 1 2.7 3.4 -1.3 3.4 -2.8 0 -3.5 -0.4 -3.5 -2z"/>
  <path d="M348 52 c0 -2.1 1 -2.4 4.8 -1.4 3.6 1 2.7 3.4 -1.3 3.4 -2.8 0 -3.5 -0.4 -3.5 -2z"/>
 </g>
 <g fill="#e0e0e5">
  <path d="M326.9 457 c11.2 -6.7 20.1 -14 36.2 -29.7 13.1 -12.8 13.7 -13.3 17.8 -13.3 2.8 0 4 -0.4 3.5 -1.1 -0.3 -0.6 0 -1.5 0.7 -2 2.1 -1.3 3.5 -1.1 2.1 0.3 -1.7 1.7 -1.5 2.8 0.7 2.8 1.2 0 2.1 -0.8 2.4 -2.2 l0.4 -2.3 0.2 2.3 c0 1.2 0.5 2.2 1 2.2 0.5 0 1.2 -1 1.5 -2.2 l0.7 -2.3 1 2.4 c0.7 1.8 0.6 2.7 -0.3 3.3 -1 0.6 -0.9 0.8 0.4 0.8 0.9 0 2.1 -1.3 2.7 -3.1 1.3 -3.9 1.3 -3.9 0 -3.9 -0.5 0 -0.8 0.4 -0.4 0.9 0.3 0.5 0.1 1.2 -0.5 1.6 -0.5 0.3 -1 -0.1 -1 -0.9 0 -1.3 -1.3 -1.6 -7.2 -1.6 l-7.2 0 3.9 -4 3.9 -4 12.3 0 12.3 0 0 -6 0 -6 -6.2 0 c-6 0 -6.1 0 -4.3 -2 1.3 -1.4 3.1 -2 6.2 -2 l4.3 0 0 -4.2 c0 -4 0.5 -4.7 14.8 -19.2 16.2 -16.5 23.5 -25 29.4 -34 l3.8 -5.9 0 17.4 c0 24.7 -1.6 44.1 -4.5 55.6 -8 31.4 -31.4 54.8 -62.8 62.8 -11.7 3 -31 4.5 -57.1 4.5 l-18.9 0 8.2 -5z"/>
  <path d="M142.8 441.3 c-1 -0.2 -1.8 -1.1 -1.8 -1.9 0 -1.1 1.5 -1.4 6 -1.4 5.3 0 6 0.2 6 2 0 1.7 -0.6 2 -4.2 1.9 -2.4 -0.1 -5.1 -0.3 -6 -0.6z"/>
  <path d="M243 440.1 c0 -1.8 0.6 -2.1 3.8 -2.1 3.6 0 5.1 -1.4 39.2 -35.6 20.2 -20.3 35 -35.8 34.3 -36.1 -0.7 -0.3 -1.3 -1.3 -1.3 -2.4 0 -1.8 0.9 -1.9 13.5 -1.9 l13.4 0 3.2 -4.6 c1.7 -2.5 5.1 -6.8 7.5 -9.5 4.4 -5 4.4 -5 4.4 -12.7 l0 -7.7 48.8 -48.8 c27.1 -27.1 49.5 -48.7 50.5 -48.7 3.4 0 2 38.9 -2 55 -4.3 17.5 -11.6 24 -32.7 28.6 l-11.1 2.5 -39.2 39.2 -39.2 39.2 -2.5 11.4 c-6.5 29 -17.1 34.6 -67.3 35.8 l-23.3 0.6 0 -2.2z"/>
  <path d="M129.5 440.3 c-1.1 -0.2 -4.4 -0.9 -7.2 -1.4 -3.7 -0.7 -5.3 -1.5 -5.3 -2.6 0 -1.3 0.8 -1.4 4.8 -0.9 2.6 0.3 7.1 0.9 10 1.2 4.2 0.6 5.2 1 5.2 2.5 0 1.9 -2.5 2.3 -7.5 1.2z"/>
  <path d="M107.1 434.7 c-9.9 -4 -6.3 -6.6 4 -3 3.4 1.2 4.9 2.3 4.9 3.5 0 2.4 -2.3 2.2 -8.9 -0.5z"/>
  <path d="M89.9 425.8 c-8.2 -5.4 -18.3 -15.5 -23.7 -23.7 -2.3 -3.5 -4.2 -6.7 -4.2 -7.2 0 -0.5 1.1 -0.9 2.5 -0.9 1.8 0 2.6 0.7 3.1 2.5 0.3 1.4 1 2.5 1.5 2.5 0.5 0 0.9 0.9 0.9 2 0 1.1 0.7 2 1.5 2 0.9 0 1.5 0.9 1.5 2.5 0 1.7 0.5 2.5 1.8 2.5 2.3 0 9.2 7 9.2 9.3 0 1.1 0.8 1.7 2.5 1.7 1.6 0 2.5 0.6 2.5 1.5 0 0.8 0.9 1.5 2 1.5 1.1 0 2 0.4 2 0.9 0 0.5 1.1 1.2 2.5 1.5 1.8 0.5 2.5 1.3 2.5 3.1 0 1.4 -0.4 2.5 -0.9 2.5 -0.5 0 -3.7 -1.9 -7.2 -4.2z"/>
  <path d="M58.7 388.3 c-2.3 -4.4 -4.5 -12.1 -6.2 -21.2 -2 -10.8 -1.9 -12.1 0.4 -12.1 1.5 0 1.9 1 2.4 5.8 0.3 3.1 1.8 9.5 3.3 14.2 3.1 10.2 4 16 2.5 16 -0.6 0 -1.7 -1.2 -2.4 -2.7z"/>
  <path d="M152.7 345.5 c-1.5 -3.1 -2.7 -6.4 -2.7 -7.5 0 -1.1 -0.4 -2 -1 -2 -0.5 0 -1 -1.6 -1 -3.5 0 -2.8 0.4 -3.5 2 -3.5 1.5 0 2 -0.7 2 -2.5 0 -1.8 0.5 -2.5 2 -2.5 1.5 0 2 -0.7 2 -2.5 0 -1.8 0.5 -2.5 2 -2.5 1.5 0 2 -0.7 2 -2.5 0 -1.8 0.5 -2.5 1.9 -2.5 1.4 0 2.1 -0.8 2.3 -2.7 0.2 -2 0.9 -2.9 2.6 -3.1 1.6 -0.3 2.2 -1 2.2 -2.8 0 -1.7 0.5 -2.4 2 -2.4 1.5 0 2 -0.7 2 -2.5 0 -1.8 0.5 -2.5 2 -2.5 1.5 0 2 -0.7 2 -2.5 0 -1.8 0.5 -2.5 1.9 -2.5 1.4 0 2.1 -0.8 2.3 -2.7 0.2 -2 0.9 -2.9 2.6 -3.1 1.6 -0.3 2.2 -1 2.2 -2.8 0 -1.7 0.5 -2.4 2 -2.4 1.5 0 2 -0.7 2 -2.5 0 -1.8 0.5 -2.5 2 -2.5 1.5 0 2 -0.7 2 -2.5 0 -1.8 0.5 -2.5 2 -2.5 1.5 0 2 -0.7 2 -2.6 0 -1.7 0.6 -2.8 1.9 -3.1 1.1 -0.3 2.1 -1.5 2.3 -2.7 0.2 -1.3 1.1 -2.2 2.6 -2.4 1.6 -0.3 2.2 -1 2.2 -2.8 0 -1.7 0.5 -2.4 2 -2.4 1.5 0 2 -0.7 2 -2.5 0 -1.8 0.5 -2.5 2 -2.5 1.5 0 2 -0.7 2 -2.5 0 -1.8 0.5 -2.5 1.9 -2.5 1.4 0 2.1 -0.8 2.3 -2.7 0.2 -2 0.9 -2.9 2.6 -3.1 1.6 -0.3 2.2 -1 2.2 -2.8 0 -1.7 0.5 -2.4 2 -2.4 1.5 0 2 -0.7 2 -2.5 0 -1.8 0.5 -2.5 2 -2.5 1.5 0 2 -0.7 2 -2.5 0 -1.8 0.5 -2.5 1.9 -2.5 1.4 0 2.1 -0.8 2.3 -2.7 0.2 -2 0.9 -2.9 2.6 -3.1 1.6 -0.3 2.2 -1 2.2 -2.8 0 -1.7 0.5 -2.4 2 -2.4 1.5 0 2 -0.7 2 -2.5 0 -1.8 0.5 -2.5 2 -2.5 1.5 0 2 -0.7 2 -2.5 0 -1.8 0.5 -2.5 2 -2.5 1.5 0 2 -0.7 2 -2.6 0 -1.7 0.6 -2.8 1.9 -3.1 1.1 -0.3 2.1 -1.5 2.3 -2.7 0.2 -1.3 1.1 -2.2 2.6 -2.4 1.6 -0.3 2.2 -1 2.2 -2.8 0 -1.7 0.5 -2.4 2 -2.4 1.5 0 2 -0.7 2 -2.5 0 -1.8 0.5 -2.5 2 -2.5 1.3 0 2 -0.7 2 -2 0 -1.5 0.7 -2 2.6 -2 1.7 0 2.3 0.4 1.8 1.3 -0.4 0.6 -28.1 35 -61.6 76.4 -33.4 41.4 -60.8 75.7 -60.8 76.3 0 0.6 1.4 3.8 3.1 7.1 5 10 5.2 10.9 2.6 10.9 -1.8 0 -2.9 -1.2 -5 -5.5z"/>
  <path d="M50.6 342.8 c-0.3 -1.3 -0.6 -4.7 -0.6 -7.5 0 -4.6 0.3 -5.3 2 -5.3 1.8 0 2 0.7 2 7.5 0 5.7 -0.3 7.5 -1.4 7.5 -0.7 0 -1.6 -1 -2 -2.2z"/>
  <path d="M361 314.4 c0 -0.9 -0.9 -1.8 -2 -2.1 -3.5 -0.9 -2.4 -3.3 1.5 -3.3 3.3 0 3.5 0.2 3.5 3.5 0 2.4 -0.5 3.5 -1.5 3.5 -0.8 0 -1.5 -0.7 -1.5 -1.6z"/>
  <path d="M239 311.6 c0 -0.3 27.2 -34.6 60.5 -76.3 47.1 -59 60.5 -76.3 60.2 -78 -0.3 -1.9 0 -2.3 1.9 -2.3 2.1 0 2.4 0.5 2.4 3.5 0 1.9 -0.4 3.5 -1 3.5 -0.5 0 -1 0.7 -1 1.5 0 0.8 -0.9 1.5 -2 1.5 -1.5 0 -2 0.7 -2 2.5 0 1.8 -0.5 2.5 -2 2.5 -1.5 0 -2 0.7 -2 2.5 0 1.8 -0.5 2.5 -2 2.5 -1.5 0 -2 0.7 -2 2.5 0 1.8 -0.5 2.5 -2 2.5 -1.5 0 -2 0.7 -2 2.5 0 1.8 -0.5 2.5 -2 2.5 -1.5 0 -2 0.7 -2 2.5 0 1.8 -0.5 2.5 -2 2.5 -1.5 0 -2 0.7 -2 2.5 0 1.8 -0.5 2.5 -2 2.5 -1.5 0 -2 0.7 -2 2.5 0 1.6 -0.6 2.5 -1.5 2.5 -0.9 0 -1.5 0.9 -1.5 2.1 0 1.2 -0.8 2.3 -2 2.6 -1.1 0.3 -2 1.4 -2 2.5 0 1.1 -0.9 2.2 -2 2.5 -1.1 0.3 -2 1.4 -2 2.5 0 1.1 -0.9 2.2 -2 2.5 -1.1 0.3 -2 1.4 -2 2.5 0 1.1 -0.9 2.2 -2 2.5 -1.1 0.3 -2 1.4 -2 2.5 0 1.1 -0.9 2.2 -2 2.5 -1.1 0.3 -2 1.4 -2 2.4 0 1.2 -0.7 1.9 -2 1.9 -1.5 0 -2 0.7 -2 2.5 0 1.8 -0.5 2.5 -2 2.5 -1.5 0 -2 0.7 -2 2.5 0 1.8 -0.5 2.5 -2 2.5 -1.5 0 -2 0.7 -2 2.5 0 1.8 -0.5 2.5 -2 2.5 -1.5 0 -2 0.7 -2 2.5 0 1.8 -0.5 2.5 -2 2.5 -1.5 0 -2 0.7 -2 2.5 0 1.8 -0.5 2.5 -2 2.5 -1.5 0 -2 0.7 -2 2.5 0 1.8 -0.5 2.5 -2 2.5 -1.5 0 -2 0.7 -2 2.5 0 1.8 -0.5 2.5 -2 2.5 -1.5 0 -2 0.7 -2 2.5 0 1.8 -0.5 2.5 -2 2.5 -1.5 0 -2 0.7 -2 2.5 0 1.8 -0.5 2.5 -2 2.5 -1.5 0 -2 0.7 -2 2.5 0 1.8 -0.5 2.5 -2 2.5 -1.5 0 -2 0.7 -2 2.5 0 1.8 -0.5 2.5 -2 2.5 -1.5 0 -2 0.7 -2 2.5 0 1.8 -0.5 2.5 -2 2.5 -1.5 0 -2 0.7 -2 2.5 0 1.8 -0.5 2.5 -2 2.5 -1.5 0 -2 0.7 -2 2.5 0 1.8 -0.5 2.5 -2 2.5 -1.5 0 -2 0.7 -2 2.5 0 1.6 -0.6 2.5 -1.5 2.5 -0.8 0 -1.5 0.9 -1.5 2 0 1.3 -0.7 2 -2 2 -1.3 0 -2 0.7 -2 2 0 1.5 -0.7 2 -2.5 2 -1.4 0 -2.5 -0.2 -2.5 -0.4z"/>
  <path d="M162 154 l0 -27 3.5 0 c2.4 0 3.5 0.5 3.5 1.5 0 0.8 -0.7 1.5 -1.5 1.5 -1.3 0 -1.5 3.4 -1.5 24.5 0 21.1 0.2 24.5 1.5 24.5 0.8 0 1.5 0.5 1.5 1 0 0.6 -1.6 1 -3.5 1 l-3.5 0 0 -27z"/>
  <path d="M458 147 c0 -4.4 0.4 -6 1.4 -6 1.6 0 2.6 3 2.6 8.3 0 3 -0.4 3.7 -2 3.7 -1.8 0 -2 -0.7 -2 -6z"/>
  <path d="M350.3 137.5 c-2.1 -4.1 -4.3 -7.5 -5 -7.5 -0.7 0 -1.3 -0.4 -1.3 -1 0 -0.5 1.5 -1 3.3 -1 3 0 3.5 0.5 6 5.5 2.7 5.6 3.6 11.5 1.7 11.5 -0.6 0 -2.7 -3.4 -4.7 -7.5z"/>
  <path d="M51 138.8 c0 -3 1.3 -5.8 2.6 -5.8 0.9 0 1.4 1.2 1.4 3.5 0 2.8 -0.4 3.5 -2 3.5 -1.1 0 -2 -0.6 -2 -1.2z"/>
  <path d="M457 135.3 c0 -1 -0.3 -4.2 -0.6 -7 -0.6 -4.4 -0.4 -5.3 0.9 -5.3 1.6 0 2.1 1.6 3.2 9.3 0.7 4.3 0.6 4.7 -1.4 4.7 -1.3 0 -2.1 -0.6 -2.1 -1.7z"/>
  <path d="M451 108.5 c0 -1.4 -0.4 -2.5 -1 -2.5 -0.5 0 -1 -1.6 -1 -3.5 0 -1.9 0.4 -3.5 0.9 -3.5 1.2 0 1.5 0.5 4 6.8 l2.1 5.2 -2.5 0 c-2 0 -2.5 -0.5 -2.5 -2.5z"/>
  <path d="M438 84.4 c0 -3.9 0.9 -3.8 4 0.6 l2.1 3 -3 0 c-2.9 0 -3.1 -0.3 -3.1 -3.6z"/>
  <path d="M71 84 c3.1 -4.4 4 -4.5 4 -0.6 0 3.3 -0.2 3.6 -3.1 3.6 l-3 0 2.1 -3z"/>
  <path d="M80.5 74 c0.3 -0.5 1.9 -1.9 3.5 -3 l3 -2.1 0 3 c0 2.9 -0.3 3.1 -3.6 3.1 -2 0 -3.3 -0.4 -2.9 -1z"/>
  <path d="M424 72.5 c0 -0.8 -0.9 -1.5 -2 -1.5 -1.1 0 -2 -0.4 -2 -1 0 -0.5 -0.7 -1 -1.5 -1 -0.8 0 -1.5 -0.7 -1.5 -1.5 0 -0.8 -0.9 -1.5 -2 -1.5 -2.4 0 -9 -3.1 -9 -4.2 0 -0.4 -1.1 -0.8 -2.5 -0.8 -1.4 0 -2.5 -0.4 -2.5 -1 0 -0.5 -1.3 -1 -3 -1 -2.3 0 -3 -0.4 -3 -2 0 -2.8 2.1 -2.5 11.5 1.3 7.8 3.1 20.9 11.1 23.5 14.2 1.1 1.3 0.7 1.5 -2.4 1.5 -2.5 0 -3.6 -0.4 -3.6 -1.5z"/>
  <path d="M114 56.6 c0 -1.3 2.8 -2.6 5.8 -2.6 0.6 0 1.2 0.9 1.2 2 0 1.6 -0.7 2 -3.5 2 -2.3 0 -3.5 -0.5 -3.5 -1.4z"/>
  <path d="M131 53.6 c0 -0.7 1 -1.6 2.3 -2 4.1 -1.1 5.7 -0.7 5.7 1.4 0 1.7 -0.7 2 -4 2 -2.7 0 -4 -0.4 -4 -1.4z"/>
  <path d="M146 52.6 c0 -1.8 3.2 -2.6 11.3 -2.6 6 0 6.7 0.2 6.7 2 0 1.9 -0.7 2 -9 2 -7 0 -9 -0.3 -9 -1.4z"/>
 </g>
 <g fill="#f2f2f4">
  <path d="M139.8 441 c-25.2 -1.9 -43.8 -8.9 -58.3 -22.2 l-5.7 -5.1 37.1 -37.1 c29.2 -29.2 36.8 -37.4 36.1 -38.6 -1.6 -2.5 -1.2 -8 0.5 -8 0.9 0 1.5 -0.9 1.5 -2.5 0 -1.8 0.5 -2.5 2 -2.5 1.5 0 2 -0.7 2 -2.5 0 -1.8 0.5 -2.5 2 -2.5 1.5 0 2 -0.7 2 -2.5 0 -1.8 0.5 -2.5 2 -2.5 1.5 0 2 -0.7 2 -2.5 0 -2 0.5 -2.5 2.5 -2.5 2.1 0 2.5 -0.5 2.5 -3 0 -2.3 0.4 -3 2 -3 1.5 0 2 -0.7 2 -2.5 0 -1.8 0.5 -2.5 2 -2.5 1.5 0 2 -0.7 2 -2.5 0 -1.8 0.5 -2.5 2 -2.5 1.5 0 2 -0.7 2 -2.5 0 -1.8 0.5 -2.5 1.9 -2.5 1.4 0 2.1 -0.8 2.3 -2.7 0.2 -2 0.9 -2.9 2.6 -3.1 1.6 -0.3 2.2 -1 2.2 -2.8 0 -1.7 0.5 -2.4 2 -2.4 1.5 0 2 -0.7 2 -2.5 0 -1.8 0.5 -2.5 2 -2.5 1.5 0 2 -0.7 2 -2.5 0 -1.8 0.5 -2.5 2 -2.5 1.5 0 2 -0.7 2 -2.5 0 -2 0.5 -2.5 2.5 -2.5 2.1 0 2.5 -0.5 2.5 -3 0 -2.3 0.4 -3 2 -3 1.5 0 2 -0.7 2 -2.5 0 -1.8 0.5 -2.5 2 -2.5 1.5 0 2 -0.7 2 -2.5 0 -1.8 0.5 -2.5 2 -2.5 1.5 0 2 -0.7 2 -2.5 0 -2 0.5 -2.5 2.5 -2.5 2.1 0 2.5 -0.5 2.5 -3 0 -2.3 0.4 -3 2 -3 1.5 0 2 -0.7 2 -2.5 0 -1.8 0.5 -2.5 2 -2.5 1.5 0 2 -0.7 2 -2.5 0 -1.8 0.5 -2.5 2 -2.5 1.5 0 2 -0.7 2 -2.5 0 -1.8 0.5 -2.5 1.9 -2.5 1.4 0 2.1 -0.8 2.3 -2.7 0.2 -2 0.9 -2.9 2.6 -3.1 1.6 -0.3 2.2 -1 2.2 -2.8 0 -1.7 0.5 -2.4 2 -2.4 1.5 0 2 -0.7 2 -2.5 0 -1.8 0.5 -2.5 2 -2.5 1.5 0 2 -0.7 2 -2.5 0 -1.8 0.5 -2.5 2 -2.5 1.5 0 2 -0.7 2 -2.5 0 -2 0.5 -2.5 2.5 -2.5 2.1 0 2.5 -0.5 2.5 -3 0 -2.3 0.4 -3 2 -3 1.5 0 2 -0.7 2 -2.5 0 -1.8 0.5 -2.5 2 -2.5 1.5 0 2 -0.7 2 -2.5 0 -2.1 0.5 -2.5 3.1 -2.5 2.4 0 2.9 0.3 2.2 1.3 -1.9 2.4 -115.7 143.3 -119.4 147.8 l-3.8 4.6 7.1 14.6 7.2 14.7 78.3 0 c43.1 0 78.6 0 78.9 -0.1 0.4 0 1.1 0.5 1.5 1.3 0.5 0.7 0.9 0.9 0.9 0.3 0 -0.5 1.7 -1.1 3.7 -1.2 3.6 -0.2 2.5 1 -36.2 39.7 l-39.9 39.9 -51.1 -0.1 c-28 0 -55.8 -0.4 -61.7 -0.8z"/>
  <path d="M331.1 412 c-0.2 -3.7 4.1 -26.2 6.2 -32.5 2.8 -8.1 6.2 -15.1 8.8 -18 1 -1.1 4 -4.9 6.7 -8.5 3.7 -4.9 5.6 -6.6 7.7 -6.8 l2.9 -0.4 -2.7 3.4 c-13.9 16.9 -21.2 30.4 -25.1 46.3 -1.3 5.5 -2.9 11.8 -3.4 14 -0.5 2.2 -1 3.3 -1.1 2.5z"/>
  <path d="M69.7 406.5 c-9.2 -11.7 -16.3 -30 -18.1 -47.2 -0.6 -5.8 -0.5 -6.3 1.2 -6.3 1.6 0 2 1 2.6 6.1 0.3 3.3 1.3 8.8 2.2 12.2 1.8 7.1 8.2 22.6 10.1 24.5 0.7 0.7 1.3 1.9 1.3 2.7 0 0.7 0.7 1.5 1.5 1.9 0.8 0.3 1.5 1.1 1.5 1.7 0 0.7 0.7 1.7 1.6 2.3 1 0.8 1.4 2.4 1.2 4.6 l-0.3 3.5 -4.8 -6z"/>
  <path d="M364.1 342.1 c-2.2 -0.6 -2.1 -0.8 2.5 -5.2 14.2 -13.2 29.6 -20.3 52.2 -24 14.5 -2.4 18.3 -2.1 6.1 0.5 -23.5 4.9 -34.5 10.3 -55.4 26.9 -2.1 1.7 -3.7 2.2 -5.4 1.8z"/>
  <path d="M50.6 333.8 c-0.3 -1.3 -0.6 -7.1 -0.6 -13 0 -10.1 0.1 -10.8 2 -10.8 1.9 0 2 0.7 2 13 0 10.4 -0.3 13 -1.4 13 -0.7 0 -1.6 -1 -2 -2.2z"/>
  <path d="M361 322.8 l0 -10.8 -61 -0.2 -61.1 -0.3 60.9 -76.4 61 -76.3 -4.9 -10.2 -4.9 -10.1 35.7 -35.7 c32.2 -32.2 35.9 -35.6 37.7 -34.6 3.9 2 19.2 18.3 22.8 24.3 4.9 8 9.3 19.5 11.3 29.1 2.6 12.6 3.4 30.2 3.5 71.9 l0 39 -50.5 50.5 -50.5 50.5 0 -10.7z"/>
  <path d="M162 178.5 c0 -3.9 2.4 -5 3.3 -1.5 0.3 1.1 1.2 2 2.1 2 0.9 0 1.6 0.7 1.6 1.5 0 1 -1.1 1.5 -3.5 1.5 -3.3 0 -3.5 -0.2 -3.5 -3.5z"/>
  <path d="M58.3 105.8 c1.9 -4.6 3.7 -4.8 3.7 -0.4 0 3.2 -0.3 3.6 -2.5 3.6 -2.4 0 -2.5 -0.1 -1.2 -3.2z"/>
  <path d="M63 96.2 c0 -1 6.2 -10 9.9 -14.2 l3 -3.5 0.1 3.8 c0 3 -0.3 3.7 -2 3.7 -1.5 0 -2 0.7 -2 2.5 0 1.4 -0.4 2.5 -1 2.5 -0.5 0 -1 0.7 -1 1.5 0 0.8 -0.4 1.5 -1 1.5 -0.5 0 -1 0.7 -1 1.5 0 0.9 -0.9 1.5 -2.5 1.5 -1.4 0 -2.5 -0.3 -2.5 -0.8z"/>
  <path d="M82 72.9 c4.2 -3.7 13.2 -9.9 14.2 -9.9 0.5 0 0.8 1.1 0.8 2.5 0 1.6 -0.6 2.5 -1.5 2.5 -0.8 0 -1.5 0.5 -1.5 1 0 0.6 -0.7 1 -1.5 1 -0.8 0 -1.5 0.5 -1.5 1 0 0.6 -1.1 1 -2.5 1 -1.8 0 -2.5 0.5 -2.5 2 0 1.7 -0.7 2 -3.7 2 l-3.8 -0.1 3.5 -3z"/>
  <path d="M102.2 60.8 c0.3 -0.7 1.9 -1.8 3.6 -2.5 3.1 -1.3 3.2 -1.2 3.2 1.2 0 2.2 -0.4 2.5 -3.6 2.5 -2.3 0 -3.4 -0.4 -3.2 -1.2z"/>
  <path d="M398 59 c0 -0.5 -1.6 -1 -3.5 -1 -2.8 0 -3.5 -0.4 -3.5 -2 0 -2.4 1.7 -2.5 8.4 -0.2 6.1 2.1 7.2 4.2 2.2 4.2 -2 0 -3.6 -0.4 -3.6 -1z"/>
  <path d="M381 54 c0 -2.1 1 -2.4 4.8 -1.4 3.6 1 2.7 3.4 -1.3 3.4 -2.8 0 -3.5 -0.4 -3.5 -2z"/>
  <path d="M158 52.6 c0 -1.3 2.8 -2.6 5.8 -2.6 0.6 0 1.2 0.9 1.2 2 0 1.6 -0.7 2 -3.5 2 -2.3 0 -3.5 -0.5 -3.5 -1.4z"/>
 </g>
 <g fill="#fefefe">
  <path d="M87.5 423.5 l-3 -2.4 36.5 -36.5 c20.1 -20.2 36.7 -36.6 37.1 -36.6 0.3 0 1.2 1.5 2.1 3.3 l1.6 3.4 -35.6 35.6 -35.7 35.7 -3 -2.5z"/>
  <path d="M75.4 412.8 c-8.4 -9 -14.8 -20 -18.9 -32 -5.3 -16.1 -5.6 -20.3 -6.2 -113.3 -0.6 -91.4 0.3 -131.8 3.3 -145.5 7.5 -35 33.3 -60.9 68.4 -68.4 13.9 -3 49.5 -3.8 152.5 -3.3 106.2 0.5 108.1 0.5 125 5.7 7 2.2 20 8.5 24.3 11.8 l2.2 1.7 -36.4 36.4 -36.4 36.4 -3.1 -6.1 -3.1 -6.2 -91 0 -91 0 0 24.5 0 24.5 54.9 0.2 54.9 0.3 -44.4 55 c-24.5 30.3 -52.4 64.8 -62 76.7 l-17.5 21.6 2 3.9 2 3.9 -37.7 37.7 c-20.8 20.7 -38 37.7 -38.3 37.7 -0.3 0 -1.9 -1.5 -3.5 -3.2z"/>
  <path d="M333.5 398.5 c1.6 -13 6.7 -27.5 13.3 -37.2 18.1 -26.7 39.4 -41.8 66 -46.9 11.2 -2.1 11.8 -1.6 1.2 1.2 -23.5 6.1 -46.2 22.3 -62.7 44.8 -6.2 8.4 -12.7 22.3 -15.8 33.6 -1.9 7 -2.4 8.2 -2 4.5z"/>
  <path d="M357.8 152.7 l-1.6 -3.4 37.7 -37.7 37.7 -37.7 2.7 2.8 2.7 2.9 -38.3 38.2 c-21 21 -38.5 38.2 -38.8 38.2 -0.3 0 -1.2 -1.5 -2.1 -3.3z"/>
 </g>
</svg>